<svg width="20" height="20" viewBox="0 0 20 20" fill="none" xmlns="http://www.w3.org/2000/svg">
<g id="category">
<g id="Category">
<path id="Fill 1" fill-rule="evenodd" clip-rule="evenodd" d="M5.20768 2.91666C2.91602 2.91666 2.91602 3.08999 2.91602 5.20832V5.22916C2.91602 6.15166 2.91602 6.81832 3.14185 7.09999C3.36268 7.37332 4.01852 7.49999 5.20768 7.49999C6.39685 7.49999 7.05268 7.37249 7.27352 7.09916C7.49935 6.81832 7.49935 6.15166 7.49935 5.22832C7.49935 3.08999 7.49935 2.91666 5.20768 2.91666ZM5.20768 8.74999C3.80268 8.74999 2.74852 8.60249 2.16935 7.88332C1.66602 7.25916 1.66602 6.40749 1.66602 5.22916L2.29102 5.20832H1.66602C1.66602 2.81666 1.81685 1.66666 5.20768 1.66666C8.59852 1.66666 8.74935 2.81666 8.74935 5.20832C8.74935 6.40666 8.74935 7.25916 8.24602 7.88332C7.66685 8.60249 6.61268 8.74999 5.20768 8.74999Z" fill="#4097D9"/>
<path id="Fill 3" fill-rule="evenodd" clip-rule="evenodd" d="M14.3737 2.91666C12.082 2.91666 12.082 3.08999 12.082 5.20832V5.22916C12.082 6.15166 12.082 6.81832 12.3079 7.09999C12.5287 7.37332 13.1845 7.49999 14.3737 7.49999C15.5629 7.49999 16.2187 7.37249 16.4395 7.09916C16.6654 6.81832 16.6654 6.15166 16.6654 5.22832C16.6654 3.08999 16.6654 2.91666 14.3737 2.91666ZM14.3737 8.74999C12.9687 8.74999 11.9145 8.60249 11.3354 7.88332C10.832 7.25916 10.832 6.40749 10.832 5.22916L11.457 5.20832H10.832C10.832 2.81666 10.9829 1.66666 14.3737 1.66666C17.7645 1.66666 17.9154 2.81666 17.9154 5.20832C17.9154 6.40666 17.9154 7.25916 17.412 7.88332C16.8329 8.60249 15.7787 8.74999 14.3737 8.74999Z" fill="#4097D9"/>
<path id="Fill 5" fill-rule="evenodd" clip-rule="evenodd" d="M5.20768 12.0833C2.91602 12.0833 2.91602 12.2566 2.91602 14.375V14.3958C2.91602 15.3183 2.91602 15.985 3.14185 16.2666C3.36268 16.54 4.01852 16.6666 5.20768 16.6666C6.39685 16.6666 7.05268 16.5391 7.27352 16.2658C7.49935 15.985 7.49935 15.3183 7.49935 14.395C7.49935 12.2566 7.49935 12.0833 5.20768 12.0833ZM5.20768 17.9166C3.80268 17.9166 2.74852 17.7691 2.16935 17.05C1.66602 16.4258 1.66602 15.5741 1.66602 14.3958L2.29102 14.375H1.66602C1.66602 11.9833 1.81685 10.8333 5.20768 10.8333C8.59852 10.8333 8.74935 11.9833 8.74935 14.375C8.74935 15.5733 8.74935 16.4258 8.24602 17.05C7.66685 17.7691 6.61268 17.9166 5.20768 17.9166Z" fill="#4097D9"/>
<path id="Fill 7" fill-rule="evenodd" clip-rule="evenodd" d="M14.3737 12.0833C12.082 12.0833 12.082 12.2566 12.082 14.375V14.3958C12.082 15.3183 12.082 15.985 12.3079 16.2666C12.5287 16.54 13.1845 16.6666 14.3737 16.6666C15.5629 16.6666 16.2187 16.5391 16.4395 16.2658C16.6654 15.985 16.6654 15.3183 16.6654 14.395C16.6654 12.2566 16.6654 12.0833 14.3737 12.0833ZM14.3737 17.9166C12.9687 17.9166 11.9145 17.7691 11.3354 17.05C10.832 16.4258 10.832 15.5741 10.832 14.3958L11.457 14.375H10.832C10.832 11.9833 10.9829 10.8333 14.3737 10.8333C17.7645 10.8333 17.9154 11.9833 17.9154 14.375C17.9154 15.5733 17.9154 16.4258 17.412 17.05C16.8329 17.7691 15.7787 17.9166 14.3737 17.9166Z" fill="#4097D9"/>
</g>
</g>
</svg>
