<svg width="22" height="15" viewBox="0 0 22 15" fill="none" xmlns="http://www.w3.org/2000/svg">
<path fill-rule="evenodd" clip-rule="evenodd" d="M17 15C19.7614 15 22 12.7614 22 10C22 7.485 20.1431 5.40363 17.7254 5.05224C16.875 2.10562 14.1586 0 11 0C8.65343 0 6.50902 1.16507 5.21989 3.05027C2.26703 3.43346 0 5.95877 0 9C0 12.3137 2.68629 15 6 15H17ZM20 10C20 11.6569 18.6569 13 17 13H6C3.79086 13 2 11.2091 2 9C2 6.8504 3.69934 5.08715 5.83965 5.00314L6.39066 4.98151L6.66642 4.50398C7.5543 2.96643 9.1924 2 11 2C13.4511 2 15.5303 3.77626 15.9309 6.1662L16.0738 7.0182L16.9375 7.0006C16.9531 7.0004 16.9608 7.0002 16.9686 7.0002C16.9765 7.0001 16.9843 7.0001 17 7C18.6569 7 20 8.3431 20 10Z" fill="#4097D9"/>
</svg>
