<svg width="22" height="15" viewBox="0 0 22 15" fill="none" xmlns="http://www.w3.org/2000/svg">
<path fill-rule="evenodd" clip-rule="evenodd" d="M22 10C22 12.7614 19.7614 15 17 15H6C2.68629 15 0 12.3137 0 9C0 5.95877 2.26703 3.43346 5.21989 3.05027C6.50902 1.16507 8.65343 0 11 0C14.1586 0 16.875 2.10562 17.7254 5.05224C20.1431 5.40363 22 7.485 22 10ZM17 13C18.6569 13 20 11.6569 20 10C20 8.3431 18.6569 7 17 7L16.9686 7.0002L16.9375 7.0006L16.0738 7.0182L15.9309 6.1662C15.5303 3.77626 13.4511 2 11 2C9.1924 2 7.5543 2.96643 6.66642 4.50398L6.39066 4.98151L5.83965 5.00314C3.69934 5.08715 2 6.8504 2 9C2 11.2091 3.79086 13 6 13H17ZM12.2929 5.29289L9 8.5858L7.70711 7.2929L6.29289 8.7071L9 11.4142L13.7071 6.7071L12.2929 5.29289Z" fill="#6E7E92"/>
</svg>
