<?xml version="1.0" encoding="iso-8859-1"?>
<!-- Generator: Adobe Illustrator 19.0.0, SVG Export Plug-In . SVG Version: 6.00 Build 0)  -->
<svg version="1.1" id="Capa_1" xmlns="http://www.w3.org/2000/svg" xmlns:xlink="http://www.w3.org/1999/xlink" x="0px" y="0px"
	 viewBox="0 0 512 512" style="enable-background:new 0 0 512 512;" xml:space="preserve">
<g>
	<g>
		<path d="M256,0C137.44,0,48,41.28,48,96v320c0,54.72,89.44,96,208,96s208-41.28,208-96V96C464,41.28,374.56,0,256,0z M432,416
			c0,30.24-75.2,64-176,64S80,446.24,80,416V308.48C116.16,335.04,180,352,256,352s139.84-16.96,176-43.52V416z M432,256
			c0,30.24-75.2,64-176,64S80,286.24,80,256V148.48C116.16,175.04,180,192,256,192s139.84-16.96,176-43.52V256z M256,160
			c-100.8,0-176-33.76-176-64s75.2-64,176-64s176,33.76,176,64S356.8,160,256,160z"/>
	</g>
</g>
<g>
</g>
<g>
</g>
<g>
</g>
<g>
</g>
<g>
</g>
<g>
</g>
<g>
</g>
<g>
</g>
<g>
</g>
<g>
</g>
<g>
</g>
<g>
</g>
<g>
</g>
<g>
</g>
<g>
</g>
</svg>
