<svg width="24" height="16" viewBox="0 0 24 16" fill="none" xmlns="http://www.w3.org/2000/svg">
<path fill-rule="evenodd" clip-rule="evenodd" d="M12 0C14.7276 0 17.3357 1.43062 19.7663 3.78115C20.5955 4.58305 21.3457 5.43916 22.0061 6.2956C22.4046 6.8124 22.6875 7.219 22.8425 7.4612L23.1871 8L22.8425 8.5388C22.6875 8.781 22.4046 9.1876 22.0061 9.7044C21.3457 10.5608 20.5955 11.417 19.7663 12.2189C17.3357 14.5694 14.7276 16 12 16C9.27247 16 6.66434 14.5694 4.23373 12.2189C3.40451 11.417 2.65433 10.5608 1.99393 9.7044C1.59543 9.1876 1.3125 8.781 1.15759 8.5388L0.812988 8L1.15759 7.4612C1.3125 7.219 1.59543 6.8124 1.99393 6.2956C2.65433 5.43916 3.40451 4.58305 4.23373 3.78115C6.66434 1.43062 9.27247 0 12 0ZM20.4223 7.5169C19.8176 6.7327 19.1302 5.9482 18.376 5.21885C16.2825 3.19438 14.1051 2 12 2C9.89495 2 7.71751 3.19438 5.62406 5.21885C4.86986 5.9482 4.18241 6.7327 3.57777 7.5169C3.44718 7.6862 3.32651 7.8478 3.21619 8C3.32651 8.1522 3.44718 8.3138 3.57777 8.4831C4.18241 9.2673 4.86986 10.0518 5.62406 10.7811C7.71751 12.8056 9.89495 14 12 14C14.1051 14 16.2825 12.8056 18.376 10.7811C19.1302 10.0518 19.8176 9.2673 20.4223 8.4831C20.5529 8.3138 20.6735 8.1522 20.7839 8C20.6735 7.8478 20.5529 7.6862 20.4223 7.5169ZM8.00002 8C8.00002 10.2091 9.79088 12 12 12C14.2092 12 16 10.2091 16 8C16 5.79086 14.2092 4 12 4C9.79088 4 8.00002 5.79086 8.00002 8ZM14 8C14 9.1046 13.1046 10 12 10C10.8955 10 10 9.1046 10 8C10 6.8954 10.8955 6 12 6C13.1046 6 14 6.8954 14 8Z" fill="#4097D9"/>
</svg>
