<svg width="11" height="10" viewBox="0 0 11 10" fill="none" xmlns="http://www.w3.org/2000/svg">
<path d="M3.33333 1.63043C3.33333 2.5309 2.58714 3.26087 1.66667 3.26087C0.746192 3.26087 0 2.5309 0 1.63043C0 0.72997 0.746192 0 1.66667 0C2.58714 0 3.33333 0.72997 3.33333 1.63043Z" fill="#4097D9"/>
<path d="M3.33333 8.36957C3.33333 9.27003 2.58714 10 1.66667 10C0.746192 10 0 9.27003 0 8.36957C0 7.4691 0.746192 6.73913 1.66667 6.73913C2.58714 6.73913 3.33333 7.4691 3.33333 8.36957Z" fill="#4097D9"/>
<path d="M11 1.63043C11 2.5309 10.2538 3.26087 9.33333 3.26087C8.41286 3.26087 7.66667 2.5309 7.66667 1.63043C7.66667 0.72997 8.41286 0 9.33333 0C10.2538 0 11 0.72997 11 1.63043Z" fill="#4097D9"/>
<path d="M11 8.36957C11 9.27003 10.2538 10 9.33333 10C8.41286 10 7.66667 9.27003 7.66667 8.36957C7.66667 7.4691 8.41286 6.73913 9.33333 6.73913C10.2538 6.73913 11 7.4691 11 8.36957Z" fill="#4097D9"/>
</svg>
