<svg width="20" height="20" viewBox="0 0 20 20" fill="none" xmlns="http://www.w3.org/2000/svg">
<g id="swap">
<g id="Swap">
<path id="Stroke 1" d="M14.0332 4.83038C14.3496 4.83038 14.6111 5.06551 14.6525 5.37057L14.6582 5.45538V16.8035C14.6582 17.1487 14.3784 17.4285 14.0332 17.4285C13.7168 17.4285 13.4553 17.1934 13.4139 16.8883L13.4082 16.8035V5.45538C13.4082 5.11021 13.688 4.83038 14.0332 4.83038Z" fill="white"/>
<path id="Stroke 3" d="M16.9881 12.9492C17.2316 12.7046 17.6273 12.7037 17.872 12.9472C18.0944 13.1686 18.1154 13.5157 17.9344 13.7608L17.874 13.8311L14.4759 17.2449C14.2538 17.4681 13.9052 17.4884 13.6601 17.3058L13.59 17.2449L10.1918 13.8311C9.94829 13.5864 9.94921 13.1907 10.1938 12.9472C10.4162 12.7258 10.7635 12.7064 11.0078 12.8885L11.0777 12.9492L14.0325 15.9175L16.9881 12.9492Z" fill="white"/>
<path id="Stroke 5" d="M5.75977 2.56909C6.07618 2.56909 6.33767 2.80422 6.37906 3.10928L6.38477 3.19409V14.5422C6.38477 14.8874 6.10494 15.1672 5.75977 15.1672C5.44335 15.1672 5.18186 14.9321 5.14047 14.627L5.13477 14.5422V3.19409C5.13477 2.84891 5.41459 2.56909 5.75977 2.56909Z" fill="white"/>
<path id="Stroke 7" d="M5.31651 2.75271C5.53861 2.52959 5.88716 2.5093 6.13225 2.69186L6.20244 2.75271L9.60059 6.1666C9.8441 6.41124 9.84319 6.80697 9.59854 7.05048C9.37614 7.27186 9.02888 7.29123 8.78462 7.10912L8.71466 7.04844L5.75929 4.07919L2.80429 7.04844C2.58291 7.27084 2.23574 7.29182 1.99065 7.11084L1.92041 7.05048C1.69801 6.82911 1.67703 6.48194 1.85801 6.23684L1.91837 6.1666L5.31651 2.75271Z" fill="white"/>
</g>
</g>
</svg>
