<svg width="292" height="284" viewBox="0 0 292 284" fill="none" xmlns="http://www.w3.org/2000/svg">
<path d="M101.914 0.777008H62.147C61.0838 0.777008 60.222 1.63886 60.222 2.70201V42.469C60.222 43.5322 61.0838 44.394 62.147 44.394H101.914C102.977 44.394 103.839 43.5322 103.839 42.469V2.70201C103.839 1.63886 102.977 0.777008 101.914 0.777008Z" fill="#F0F0F0"/>
<path d="M94.774 11.543H94.725C93.248 11.543 92.051 11.634 92.051 11.753C92.8331 11.9479 93.641 12.0187 94.445 11.963C94.312 12.103 94.116 12.306 93.871 12.579L91.771 14.959L84.771 22.995L81.824 21C81.299 20.657 80.781 20.3 80.298 19.985L80.137 19.887L80.018 20.027C76.903 23.667 74.145 26.922 72.178 29.274L69.875 32.074C69.5783 32.3995 69.3112 32.7509 69.077 33.124C69.404 32.8379 69.7104 32.5292 69.994 32.2L72.395 29.498C74.39 27.223 77.141 24.052 80.214 20.475L81.614 21.392L84.715 23.45L84.869 23.555L84.988 23.415L91.988 15.148L94.011 12.691C94.277 12.369 94.459 12.131 94.571 11.991H94.606C94.5466 12.8017 94.6151 13.6166 94.809 14.406C94.928 14.406 95.019 13.237 95.026 11.781V11.571L94.774 11.543Z" fill="#E0E0E0"/>
<path d="M205.283 29.89H226.619C226.619 34.0894 225.38 38.1954 223.057 41.6938C220.734 45.1922 217.431 47.9273 213.56 49.5565C209.69 51.1856 205.425 51.6364 201.299 50.8523C197.174 50.0683 193.371 48.0842 190.368 45.1487C187.366 42.2132 185.296 38.4569 184.418 34.3502C183.54 30.2436 183.894 25.9693 185.435 22.0628C186.976 18.1564 189.635 14.7915 193.08 12.3897C196.525 9.98792 200.602 8.65607 204.8 8.561L205.283 29.89Z" fill="#F0F0F0"/>
<path d="M211.03 24.689L210.554 3.353C216.253 3.35063 221.742 5.5094 225.912 9.394C229.904 13.3691 232.213 18.7283 232.359 24.36L211.03 24.689Z" fill="#EBEBEB"/>
<path d="M213.97 117.719C213.851 121.639 214.075 133.595 214.075 133.595L217.575 130.095H237.28C237.611 130.093 237.928 129.96 238.161 129.726C238.395 129.491 238.526 129.173 238.526 128.842V117.782C238.526 117.452 238.395 117.135 238.161 116.901C237.927 116.667 237.61 116.536 237.28 116.536H215.223C214.902 116.534 214.592 116.656 214.359 116.876C214.126 117.096 213.986 117.398 213.97 117.719Z" fill="#EBEBEB"/>
<path d="M224.036 123.312C224.035 123.494 223.979 123.672 223.877 123.823C223.774 123.975 223.63 124.092 223.461 124.161C223.292 124.23 223.106 124.247 222.927 124.21C222.749 124.174 222.585 124.085 222.456 123.956C222.328 123.826 222.24 123.662 222.205 123.483C222.17 123.304 222.189 123.118 222.259 122.95C222.329 122.781 222.448 122.638 222.599 122.536C222.751 122.435 222.93 122.381 223.112 122.381C223.234 122.381 223.355 122.405 223.467 122.452C223.58 122.499 223.682 122.568 223.768 122.654C223.854 122.741 223.922 122.843 223.968 122.956C224.014 123.069 224.037 123.19 224.036 123.312Z" fill="#E0E0E0"/>
<path d="M227.158 123.312C227.158 123.496 227.103 123.677 227.001 123.83C226.898 123.983 226.752 124.103 226.582 124.173C226.411 124.243 226.224 124.261 226.043 124.225C225.862 124.188 225.696 124.099 225.566 123.968C225.436 123.837 225.348 123.67 225.313 123.489C225.278 123.308 225.297 123.121 225.369 122.951C225.44 122.781 225.561 122.636 225.715 122.534C225.869 122.433 226.05 122.38 226.234 122.381C226.356 122.381 226.477 122.405 226.589 122.452C226.702 122.499 226.804 122.568 226.89 122.654C226.976 122.741 227.044 122.843 227.09 122.956C227.136 123.069 227.159 123.19 227.158 123.312Z" fill="#E0E0E0"/>
<path d="M230.28 123.312C230.28 123.496 230.225 123.676 230.123 123.829C230.021 123.982 229.875 124.102 229.705 124.172C229.535 124.243 229.348 124.261 229.167 124.225C228.987 124.189 228.821 124.101 228.691 123.97C228.56 123.84 228.472 123.674 228.436 123.494C228.4 123.313 228.418 123.126 228.489 122.956C228.559 122.786 228.679 122.64 228.832 122.538C228.985 122.436 229.165 122.381 229.349 122.381C229.596 122.381 229.833 122.479 230.007 122.654C230.182 122.828 230.28 123.065 230.28 123.312Z" fill="#E0E0E0"/>
<path d="M53.516 179.935C54.041 173.124 59.053 162.582 65.213 159.635C68.3168 158.176 71.7434 157.538 75.1643 157.784C78.5852 158.029 81.8859 159.148 84.75 161.035C88.607 163.639 91.533 167.608 95.754 169.568C104.105 173.446 114.017 167.951 119.848 160.825C125.679 153.699 129.333 144.865 135.948 138.425C139.131 135.327 142.901 132.896 147.036 131.276C151.172 129.655 155.59 128.878 160.03 128.989C164.47 129.099 168.844 130.097 172.893 131.921C176.943 133.746 180.587 136.362 183.611 139.615C188.098 144.445 191.038 150.472 194.643 155.988C198.248 161.504 202.875 166.817 209.14 168.882C217.743 171.717 227.452 167.552 233.542 160.839C239.632 154.126 242.796 145.313 245.442 136.647C248.088 127.981 250.405 119.042 255.242 111.384C260.079 103.726 268.066 97.384 277.124 97.153V179.683L53.516 179.935Z" fill="#F0F0F0"/>
<path d="M291.957 283.57C291.957 283.668 226.605 283.752 146.007 283.752C65.409 283.752 0.0429688 283.668 0.0429688 283.57C0.0429688 283.472 65.381 283.388 146.007 283.388C226.633 283.388 291.957 283.5 291.957 283.57Z" fill="#263238"/>
<path d="M236.545 107.527C236.687 107.509 236.827 107.481 236.965 107.443C237.161 107.375 237.339 107.264 237.486 107.119C237.634 106.974 237.748 106.797 237.819 106.603C237.904 106.305 237.93 105.994 237.896 105.686C237.896 105.343 237.896 104.986 237.896 104.559C237.896 103.74 237.896 102.802 237.896 101.759C237.896 97.51 237.861 91.378 237.833 83.818C237.833 80.024 237.833 75.88 237.833 71.428C237.833 69.195 237.833 66.892 237.833 64.519C237.833 63.336 237.833 62.132 237.833 60.914C237.833 60.319 237.833 59.661 237.833 59.101C237.787 58.8282 237.65 58.579 237.444 58.3945C237.238 58.2101 236.975 58.1012 236.699 58.086H204.051C203.734 58.0858 203.429 58.2093 203.202 58.4302C202.975 58.6511 202.842 58.952 202.833 59.269C202.833 59.969 202.833 60.669 202.833 61.411V73.976C202.833 79.429 202.833 84.686 202.833 89.698C202.833 94.71 202.833 99.498 202.833 103.915V105.574C202.812 105.837 202.812 106.102 202.833 106.365C202.874 106.603 202.986 106.823 203.155 106.995C203.322 107.171 203.536 107.295 203.771 107.352C204.021 107.389 204.275 107.401 204.527 107.387H212.038L229.979 107.45L234.879 107.485H236.146H236.58C236.58 107.485 236.433 107.485 236.146 107.485H234.879L229.979 107.52L212.038 107.576H206.095H204.527C204.251 107.592 203.974 107.578 203.701 107.534C203.411 107.469 203.148 107.317 202.945 107.1C202.735 106.885 202.593 106.612 202.539 106.316C202.519 106.036 202.519 105.756 202.539 105.476V103.817C202.539 99.365 202.539 94.605 202.539 89.6C202.539 84.595 202.539 79.331 202.539 73.878C202.539 71.1573 202.539 68.3853 202.539 65.562V61.313C202.539 60.613 202.539 59.913 202.539 59.157C202.552 58.7459 202.724 58.356 203.019 58.0699C203.315 57.7837 203.71 57.6238 204.121 57.624H236.72C237.07 57.646 237.403 57.7861 237.663 58.0212C237.924 58.2563 238.097 58.5728 238.155 58.919C238.204 59.619 238.155 60.165 238.155 60.788V64.393C238.155 66.766 238.155 69.069 238.155 71.302C238.155 75.754 238.155 79.898 238.155 83.692C238.155 91.252 238.113 97.384 238.099 101.633C238.099 102.69 238.099 103.628 238.099 104.433C238.099 104.839 238.099 105.217 238.099 105.56C238.126 105.876 238.093 106.194 238.001 106.498C237.925 106.702 237.803 106.885 237.643 107.033C237.484 107.182 237.293 107.291 237.084 107.352C236.924 107.459 236.737 107.519 236.545 107.527Z" fill="#263238"/>
<path d="M222.601 67.697C217.841 66.64 212.612 69.2229 211.275 74.1299C209.987 78.8409 213.102 84.343 217.827 85.624C220.157 86.1824 222.612 85.8675 224.726 84.7389C226.84 83.6103 228.467 81.7461 229.3 79.499C230.994 74.466 227.767 69.041 222.895 67.438C222.335 67.249 222.111 68.138 222.657 68.32C226.808 69.839 229.79 74.319 228.544 78.82C227.368 83.09 222.363 85.946 218.093 84.812C213.984 83.72 211.331 79.3099 211.856 75.2009C212.493 70.1679 217.82 67.158 222.559 67.977C222.734 67.977 222.811 67.746 222.636 67.711L222.601 67.697Z" fill="#263238"/>
<path d="M217.869 85.477C220.282 86.1894 222.879 85.9291 225.103 84.7517C227.327 83.5744 229.001 81.5734 229.769 79.177C231.253 74.067 227.942 68.537 222.965 67.018C221.817 66.668 221.404 68.362 222.475 68.782C226.675 70.434 229.475 75.005 227.823 79.492C226.339 83.482 221.971 85.407 217.918 84.952C217.596 84.91 217.554 85.414 217.848 85.498L217.869 85.477Z" fill="#00B94F"/>
<path d="M230 93.849C230 93.947 225.674 94.031 220.326 94.031C214.978 94.031 210.652 93.947 210.652 93.849C210.652 93.751 214.985 93.667 220.326 93.667C225.667 93.667 230 93.751 230 93.849Z" fill="#00B94F"/>
<path d="M230 96.782C230 96.887 225.674 96.964 220.326 96.964C214.978 96.964 210.652 96.887 210.652 96.782C210.652 96.677 214.985 96.6 220.326 96.6C225.667 96.6 230 96.684 230 96.782Z" fill="#00B94F"/>
<path d="M98.12 27.44V92.162C98.1218 92.852 98.3968 93.5133 98.8847 94.0012C99.3727 94.4892 100.034 94.7641 100.724 94.766H186.936C187.626 94.7641 188.287 94.4892 188.775 94.0012C189.263 93.5133 189.538 92.852 189.54 92.162V25.2C189.54 24.852 189.471 24.5076 189.335 24.187C189.2 23.8664 189.002 23.5762 188.753 23.3335C188.503 23.0907 188.208 22.9004 187.884 22.7737C187.56 22.6471 187.214 22.5866 186.866 22.596L100.654 24.836C99.9762 24.856 99.3327 25.1389 98.8598 25.6249C98.3868 26.1109 98.1215 26.7618 98.12 27.44Z" fill="#E0E0E0"/>
<path d="M181.84 38.766C181.84 38.836 180.741 38.213 178.655 37.555C175.698 36.6327 172.569 36.3934 169.506 36.855C167.413 37.1862 165.386 37.8478 163.5 38.815C161.347 39.9724 159.354 41.4055 157.571 43.078C155.625 44.8 153.693 46.746 151.467 48.545C149.197 50.481 146.541 51.9126 143.676 52.745C142.191 53.1283 140.646 53.221 139.126 53.018C137.668 52.798 136.252 52.3591 134.926 51.716C132.497 50.4488 130.142 49.0466 127.87 47.516C125.834 46.1655 123.59 45.1604 121.227 44.541C119.167 44.0412 117.039 43.8781 114.927 44.058C111.844 44.3146 108.861 45.2723 106.205 46.858C104.336 48.006 103.454 48.86 103.405 48.804C103.593 48.5753 103.804 48.3666 104.035 48.181C104.669 47.6115 105.348 47.0941 106.065 46.634C108.308 45.186 110.818 44.2032 113.448 43.7438C116.078 43.2845 118.773 43.358 121.374 43.96C123.803 44.5663 126.112 45.5767 128.206 46.949C130.464 48.4494 132.801 49.828 135.206 51.079C137.773 52.3865 140.723 52.7317 143.522 52.052C146.294 51.2357 148.862 49.8453 151.061 47.971C153.259 46.214 155.198 44.275 157.172 42.553C159.006 40.861 161.053 39.4161 163.262 38.255C165.208 37.3117 167.292 36.6855 169.436 36.4C172.563 35.9628 175.748 36.2722 178.732 37.303C179.539 37.5776 180.323 37.9146 181.077 38.311C181.346 38.4359 181.602 38.5884 181.84 38.766Z" fill="#455A64"/>
<path d="M126.918 53.97H118.483V76.776H126.918V53.97Z" fill="#455A64"/>
<path d="M162.702 53.97H154.267V76.776H162.702V53.97Z" fill="#455A64"/>
<path d="M174.623 40.579H166.188V76.776H174.623V40.579Z" fill="#455A64"/>
<path d="M116.005 69.594H107.57V77.266H116.005V69.594Z" fill="#455A64"/>
<path d="M138.846 64.2669H130.411V76.7759H138.846V64.2669Z" fill="#455A64"/>
<path d="M150.774 61.397H142.339V76.776H150.774V61.397Z" fill="#455A64"/>
<path d="M127.254 79.464C127.254 79.653 125.217 79.7999 122.697 79.7999C120.177 79.7999 118.14 79.653 118.14 79.464C118.14 79.275 120.184 79.128 122.697 79.128C125.21 79.128 127.254 79.275 127.254 79.464Z" fill="#263238"/>
<path d="M116.761 79.464C116.761 79.653 114.717 79.7999 112.204 79.7999C109.691 79.7999 107.647 79.653 107.647 79.464C107.647 79.275 109.691 79.128 112.204 79.128C114.717 79.128 116.761 79.275 116.761 79.464Z" fill="#263238"/>
<path d="M176.289 79.464C176.289 79.653 173.979 79.7999 171.137 79.7999C168.295 79.7999 165.985 79.653 165.985 79.464C165.985 79.275 168.288 79.128 171.137 79.128C173.986 79.128 176.289 79.275 176.289 79.464Z" fill="#263238"/>
<path d="M158.607 79.7999C161.452 79.7999 163.759 79.6495 163.759 79.464C163.759 79.2784 161.452 79.128 158.607 79.128C155.762 79.128 153.455 79.2784 153.455 79.464C153.455 79.6495 155.762 79.7999 158.607 79.7999Z" fill="#263238"/>
<path d="M150.767 79.464C150.767 79.653 148.73 79.7999 146.21 79.7999C143.69 79.7999 141.66 79.653 141.66 79.464C141.66 79.275 143.697 79.128 146.21 79.128C148.723 79.128 150.767 79.275 150.767 79.464Z" fill="#263238"/>
<path d="M138.447 79.464C138.447 79.653 136.403 79.7999 133.89 79.7999C131.377 79.7999 129.333 79.653 129.333 79.464C129.333 79.275 131.37 79.128 133.89 79.128C136.41 79.128 138.447 79.275 138.447 79.464Z" fill="#263238"/>
<path d="M165.936 107.891H166.076C166.22 107.903 166.36 107.944 166.489 108.01C166.704 108.12 166.88 108.293 166.993 108.507C167.128 108.81 167.179 109.144 167.14 109.473C167.14 110.957 167.14 113.134 167.175 115.927C167.21 118.72 167.175 122.164 167.21 126.147C167.21 128.144 167.21 130.272 167.21 132.531V135.1C167.25 135.418 167.192 135.74 167.042 136.024C166.876 136.317 166.602 136.533 166.279 136.626C165.967 136.682 165.65 136.701 165.334 136.682H163.5L163.626 136.556C163.626 138.572 163.626 140.756 163.626 143.01V143.381L163.381 143.101L157.662 136.654L157.774 136.703H98.82H94.697C94.466 136.703 94.263 136.703 93.997 136.703C93.7411 136.671 93.4988 136.57 93.297 136.409C93.0947 136.241 92.9422 136.021 92.856 135.772C92.8175 135.645 92.7963 135.513 92.793 135.38V120.47C92.793 117.005 92.793 113.596 92.793 110.264V109.004C92.8012 108.769 92.87 108.541 92.9927 108.341C93.1153 108.141 93.2877 107.976 93.493 107.863C93.7107 107.757 93.9512 107.707 94.193 107.716H100.871L134.73 107.758L157.55 107.814L163.759 107.849H165.369H165.922H165.369H163.759H157.55L134.73 107.905L100.871 107.947H94.2C94.021 107.934 93.8419 107.971 93.682 108.052C93.5247 108.133 93.3914 108.254 93.2956 108.402C93.1997 108.551 93.1447 108.722 93.136 108.899V120.47C93.136 123.937 93.136 127.463 93.136 131.047V135.1C93.1183 135.309 93.1349 135.519 93.185 135.723C93.2418 135.905 93.3515 136.066 93.5 136.185C93.6502 136.307 93.8326 136.382 94.025 136.402H98.813H157.767H157.837L157.879 136.451L163.584 142.919L163.339 143.01C163.339 140.749 163.339 138.572 163.339 136.556V136.423H165.327C165.619 136.444 165.913 136.432 166.202 136.388C166.461 136.311 166.682 136.138 166.818 135.905C166.958 135.661 167.022 135.38 167 135.1C167 134.806 167 134.512 167 134.225V132.503C167 130.242 167 128.114 167 126.119C167 122.136 167 118.706 167 115.899C167 113.092 167 110.929 167 109.445C167.045 109.127 167.004 108.803 166.881 108.507C166.776 108.301 166.613 108.131 166.412 108.017C166.262 107.949 166.101 107.906 165.936 107.891Z" fill="#263238"/>
<path d="M96.713 131.509C97.301 129.458 97.987 127.365 99.352 125.727C100.717 124.089 102.936 122.99 105.001 123.522C108.27 124.362 109.845 128.716 113.184 129.122C115.032 129.374 116.831 128.268 118.021 126.833C119.211 125.398 119.946 123.655 120.856 122.031C122.256 119.588 124.097 117.327 126.61 116.102C129.123 114.877 132.357 114.87 134.555 116.599C138.321 119.567 137.796 126.119 141.807 128.737C142.782 129.35 143.918 129.66 145.07 129.626C146.221 129.593 147.337 129.217 148.275 128.548C150.06 127.225 150.97 124.943 152.846 123.76C155.016 122.36 158.026 122.927 159.993 124.579C161.96 126.231 162.982 128.779 163.353 131.313" fill="#00B94F"/>
<path d="M162.002 119.735C161.945 119.723 161.891 119.702 161.841 119.672L161.379 119.455C160.775 119.198 160.153 118.988 159.517 118.825C157.155 118.318 154.705 118.39 152.377 119.035C150.771 119.47 149.208 120.051 147.708 120.771C146.077 121.527 144.39 122.451 142.591 123.382C140.716 124.396 138.764 125.262 136.753 125.972C134.579 126.742 132.272 127.063 129.97 126.917C127.68 126.7 125.438 126.134 123.32 125.237C121.255 124.411 119.358 123.438 117.552 122.528C113.954 120.68 110.552 119.203 107.556 118.755C105.18 118.322 102.732 118.5 100.444 119.273C99.6147 119.585 98.8177 119.976 98.064 120.442C98.1056 120.399 98.1527 120.361 98.204 120.33L98.624 120.029C99.1798 119.673 99.7709 119.375 100.388 119.14C102.695 118.303 105.179 118.081 107.598 118.496C110.671 118.923 114.087 120.393 117.699 122.227C119.512 123.13 121.409 124.096 123.453 124.908C125.538 125.787 127.745 126.341 129.998 126.553C132.252 126.697 134.512 126.383 136.641 125.629C138.634 124.935 140.57 124.085 142.43 123.088C144.236 122.157 145.93 121.247 147.582 120.498C149.103 119.781 150.687 119.207 152.314 118.783C154.681 118.148 157.17 118.116 159.552 118.692C160.421 118.901 161.249 119.253 162.002 119.735Z" fill="#263238"/>
<path d="M130.768 115.269C130.775 115.416 130.738 115.561 130.662 115.686C130.585 115.812 130.473 115.911 130.339 115.972C130.206 116.033 130.057 116.053 129.912 116.029C129.767 116.005 129.633 115.937 129.527 115.836C129.421 115.735 129.347 115.604 129.316 115.461C129.284 115.317 129.297 115.168 129.351 115.031C129.406 114.895 129.5 114.778 129.621 114.696C129.743 114.613 129.886 114.569 130.033 114.569C130.222 114.57 130.402 114.644 130.539 114.774C130.675 114.904 130.757 115.081 130.768 115.269Z" fill="#455A64"/>
<path d="M104.392 118.384C104.392 118.529 104.349 118.671 104.268 118.792C104.187 118.913 104.073 119.007 103.938 119.063C103.804 119.119 103.656 119.133 103.514 119.105C103.371 119.077 103.24 119.007 103.137 118.904C103.035 118.801 102.965 118.67 102.936 118.527C102.908 118.385 102.922 118.237 102.978 118.103C103.034 117.968 103.128 117.854 103.249 117.773C103.37 117.692 103.512 117.649 103.657 117.649C103.755 117.644 103.853 117.66 103.944 117.695C104.036 117.73 104.119 117.784 104.188 117.853C104.257 117.922 104.311 118.005 104.346 118.097C104.382 118.188 104.397 118.286 104.392 118.384Z" fill="#455A64"/>
<path d="M156.878 118.391C156.878 118.538 156.835 118.681 156.753 118.803C156.671 118.925 156.556 119.02 156.42 119.076C156.284 119.133 156.135 119.147 155.991 119.119C155.847 119.09 155.715 119.019 155.611 118.916C155.508 118.812 155.437 118.68 155.408 118.536C155.38 118.392 155.394 118.243 155.451 118.107C155.507 117.971 155.602 117.856 155.724 117.774C155.846 117.692 155.989 117.649 156.136 117.649C156.333 117.649 156.522 117.727 156.661 117.866C156.8 118.005 156.878 118.194 156.878 118.391Z" fill="#455A64"/>
<path d="M206.592 222.187H213.151C216.21 222.187 222.769 214.144 187.181 215.061C163.787 215.663 162.247 219.121 163.43 221.137C163.716 221.595 164.123 221.965 164.606 222.206C165.089 222.446 165.629 222.549 166.167 222.502C166.741 222.46 167.497 222.453 168.393 222.46L167.833 224.924L154.813 282.478L157.081 282.282L166.699 250.6L185.046 249.9L186.096 283.584H188.973L189.673 249.725H189.764L191.703 249.655L207.964 249.025L217.603 283.591H220.361L206.592 222.187ZM168.092 246.085L174.511 224.924L175.211 222.53C177.899 222.53 181.042 222.467 184.192 222.467L184.892 245.567L168.092 246.085ZM192.284 245.329H191.584L189.799 245.385L190.275 222.166H200.523L206.823 244.853L192.284 245.329Z" fill="#455A64"/>
<path d="M147.967 279.615V272.174L161.302 272.09L161.407 283.213L160.581 283.276C156.906 283.514 141.87 283.976 139.406 283.206C136.662 282.359 147.967 279.615 147.967 279.615Z" fill="#00B94F"/>
<path d="M139.091 282.527C139.091 282.653 144.075 282.758 150.228 282.758C156.381 282.758 161.365 282.653 161.365 282.527C161.365 282.401 156.381 282.303 150.228 282.303C144.075 282.303 139.091 282.401 139.091 282.527Z" fill="#263238"/>
<path d="M147.736 281.134C147.848 281.078 147.736 280.686 147.463 280.294C147.19 279.902 146.833 279.699 146.763 279.79C146.693 279.881 146.854 280.203 147.12 280.567C147.386 280.931 147.624 281.197 147.736 281.134Z" fill="#263238"/>
<path d="M146.882 281.624C147.001 281.582 146.938 281.141 146.679 280.679C146.42 280.217 146.07 279.93 145.979 279.979C145.888 280.028 146.049 280.441 146.294 280.868C146.539 281.295 146.763 281.673 146.882 281.624Z" fill="#263238"/>
<path d="M157.347 282.478C157.403 282.478 157.599 282.317 157.886 281.988C158.24 281.564 158.631 281.173 159.055 280.819C159.473 280.488 159.97 280.271 160.497 280.189C160.903 280.133 161.197 280.189 161.197 280.133C161.197 280.077 160.973 279.902 160.497 279.867C159.876 279.863 159.273 280.073 158.789 280.462C158.324 280.834 157.932 281.29 157.634 281.806C157.403 282.184 157.298 282.443 157.347 282.478Z" fill="#263238"/>
<path d="M147.694 279.734C147.631 279.839 147.855 280.098 148.24 280.238C148.625 280.378 148.94 280.329 148.982 280.238C149.024 280.147 148.73 279.965 148.394 279.839C148.058 279.713 147.757 279.629 147.694 279.734Z" fill="#263238"/>
<path d="M147.904 279.02C147.904 279.139 148.247 279.251 148.695 279.251C149.143 279.251 149.507 279.16 149.5 279.041C149.493 278.922 149.136 278.81 148.702 278.803C148.268 278.796 147.918 278.894 147.904 279.02Z" fill="#263238"/>
<path d="M176.1 279.615V272.174L189.435 272.09L189.54 283.213L188.714 283.276C185.039 283.514 170.003 283.976 167.539 283.206C164.802 282.359 176.1 279.615 176.1 279.615Z" fill="#00B94F"/>
<path d="M167.231 282.527C167.231 282.653 172.222 282.758 178.368 282.758C184.514 282.758 189.505 282.653 189.505 282.527C189.505 282.401 184.521 282.303 178.368 282.303C172.215 282.303 167.231 282.401 167.231 282.527Z" fill="#263238"/>
<path d="M175.876 281.134C175.988 281.078 175.876 280.686 175.603 280.294C175.33 279.902 174.973 279.699 174.903 279.79C174.833 279.881 175.001 280.203 175.26 280.567C175.519 280.931 175.764 281.197 175.876 281.134Z" fill="#263238"/>
<path d="M175.022 281.624C175.141 281.582 175.078 281.141 174.819 280.679C174.56 280.217 174.21 279.93 174.119 279.979C174.028 280.028 174.189 280.441 174.434 280.868C174.679 281.295 174.91 281.673 175.022 281.624Z" fill="#263238"/>
<path d="M185.487 282.478C185.543 282.478 185.739 282.317 186.026 281.988C186.38 281.564 186.771 281.173 187.195 280.819C187.613 280.488 188.11 280.271 188.637 280.189C189.043 280.133 189.337 280.189 189.337 280.133C189.337 280.077 189.106 279.902 188.637 279.867C188.016 279.863 187.413 280.073 186.929 280.462C186.464 280.834 186.072 281.29 185.774 281.806C185.543 282.184 185.438 282.443 185.487 282.478Z" fill="#263238"/>
<path d="M175.834 279.734C175.771 279.839 176.002 280.098 176.38 280.238C176.758 280.378 177.08 280.329 177.122 280.238C177.164 280.147 176.87 279.965 176.534 279.839C176.198 279.713 175.904 279.629 175.834 279.734Z" fill="#263238"/>
<path d="M176.044 279.02C176.044 279.139 176.387 279.251 176.835 279.251C177.283 279.251 177.647 279.16 177.64 279.041C177.633 278.922 177.276 278.81 176.842 278.803C176.408 278.796 176.058 278.894 176.044 279.02Z" fill="#263238"/>
<path d="M214.306 146.146C213.76 146.02 213.081 146.09 212.752 145.635C212.423 145.18 212.661 144.648 212.836 144.165C213.421 142.616 213.439 140.91 212.885 139.349C212.488 138.32 211.787 137.436 210.876 136.815C211.01 136.687 211.125 136.541 211.219 136.381C211.477 135.915 211.608 135.388 211.597 134.855C211.614 134.381 211.532 133.908 211.354 133.468C211.177 133.028 210.909 132.63 210.568 132.3C210.268 132.028 209.877 131.877 209.472 131.877C209.068 131.877 208.677 132.028 208.377 132.3C208.266 132.405 208.177 132.531 208.117 132.671C208.056 132.812 208.025 132.963 208.025 133.115C208.025 133.268 208.056 133.419 208.117 133.56C208.177 133.7 208.266 133.826 208.377 133.931C208.524 134.051 208.702 134.127 208.89 134.151C209.078 134.174 209.269 134.144 209.441 134.064C209.672 133.945 209.707 133.798 209.707 133.798C209.62 133.881 209.521 133.949 209.413 134.001C209.254 134.057 209.083 134.07 208.917 134.039C208.751 134.009 208.597 133.935 208.468 133.826C208.376 133.731 208.305 133.618 208.26 133.495C208.214 133.371 208.195 133.239 208.202 133.108C208.21 132.976 208.245 132.847 208.306 132.73C208.366 132.613 208.45 132.509 208.552 132.426C208.82 132.203 209.162 132.088 209.51 132.104C209.858 132.119 210.188 132.264 210.435 132.51C210.736 132.82 210.97 133.189 211.122 133.594C211.274 133.999 211.34 134.43 211.317 134.862C211.327 135.34 211.206 135.812 210.967 136.227C210.873 136.382 210.757 136.524 210.624 136.647C210.25 136.422 209.844 136.254 209.42 136.15C208.517 135.933 207.537 135.989 206.711 135.562C206.022 135.168 205.498 134.54 205.234 133.791C205.234 133.714 205.234 133.63 205.234 133.546C205.333 132.329 205.499 131.119 205.731 129.92C205.886 128.756 205.856 127.574 205.64 126.42C205.479 125.435 205.094 124.5 204.515 123.687C203.936 122.874 203.179 122.205 202.301 121.73C201.698 121.433 201.038 121.273 200.366 121.261C199.695 121.249 199.029 121.385 198.416 121.66C198.088 121.81 197.786 122.011 197.52 122.255L197.373 122.409C196.959 122.614 196.594 122.905 196.302 123.263L194.146 142.709L209.959 152.376C211.19 152.335 212.407 152.099 213.564 151.676C214.141 151.456 214.659 151.105 215.076 150.651C215.494 150.196 215.801 149.651 215.972 149.058C216.119 148.452 216.028 147.812 215.718 147.271C215.408 146.729 214.903 146.327 214.306 146.146ZM203.925 125.783C203.649 125.015 203.222 124.31 202.671 123.71C202.119 123.109 201.453 122.624 200.712 122.283C199.68 121.879 198.53 121.899 197.513 122.339C197.796 122.122 198.107 121.943 198.437 121.807C199.032 121.566 199.672 121.456 200.314 121.485C200.955 121.514 201.583 121.681 202.154 121.975C202.982 122.444 203.693 123.094 204.234 123.878C204.775 124.661 205.131 125.556 205.276 126.497C205.472 127.611 205.496 128.749 205.346 129.871C205.255 130.746 205.01 131.628 204.898 132.566C204.811 131.902 204.76 131.234 204.744 130.564C204.741 128.936 204.464 127.32 203.925 125.783Z" fill="#263238"/>
<path d="M199.242 125.755C199.147 125.382 198.93 125.052 198.626 124.817C198.028 124.546 197.349 124.516 196.729 124.733L196.694 120.267L188 113.197L183.317 115.626C182.117 116.25 181.113 117.193 180.417 118.352C179.72 119.511 179.357 120.84 179.369 122.192C179.404 125.79 179.495 130.669 179.733 133.441C180.139 138.201 184.955 138.593 184.955 138.593C184.955 138.593 185.165 140.308 185.305 142.009C185.305 142.009 184.248 156.1 189.204 155.974C192.858 155.883 195.315 148.204 196.351 144.165L196.904 141.946V141.827V141.736L196.799 128.373L196.946 128.527C197.104 128.661 197.297 128.745 197.502 128.77C197.708 128.795 197.916 128.759 198.101 128.667C198.364 128.55 198.6 128.382 198.797 128.171C198.993 127.961 199.144 127.713 199.242 127.442C199.428 126.895 199.428 126.302 199.242 125.755Z" fill="#FFBE9D"/>
<path d="M180.475 125.671C180.476 125.751 180.493 125.831 180.525 125.904C180.557 125.978 180.603 126.044 180.661 126.1C180.719 126.155 180.788 126.198 180.863 126.227C180.938 126.256 181.018 126.269 181.098 126.266C181.26 126.266 181.414 126.202 181.529 126.088C181.643 125.973 181.707 125.819 181.707 125.657C181.707 125.495 181.643 125.341 181.529 125.226C181.414 125.112 181.26 125.048 181.098 125.048C181.015 125.045 180.933 125.059 180.856 125.089C180.779 125.12 180.709 125.165 180.651 125.224C180.592 125.282 180.547 125.352 180.516 125.429C180.486 125.506 180.472 125.588 180.475 125.671Z" fill="#263238"/>
<path d="M179.866 125.027C179.943 125.104 180.384 124.705 181.042 124.656C181.7 124.607 182.197 124.908 182.267 124.817C182.337 124.726 182.211 124.635 181.994 124.495C181.7 124.308 181.353 124.225 181.007 124.257C180.662 124.287 180.336 124.427 180.076 124.656C179.887 124.831 179.824 124.992 179.866 125.027Z" fill="#263238"/>
<path d="M187.545 125.461C187.545 125.622 187.609 125.777 187.723 125.892C187.838 126.006 187.992 126.07 188.154 126.07C188.316 126.07 188.47 126.006 188.585 125.892C188.699 125.777 188.763 125.622 188.763 125.461C188.763 125.299 188.699 125.145 188.585 125.03C188.47 124.916 188.316 124.852 188.154 124.852C187.992 124.852 187.838 124.916 187.723 125.03C187.609 125.145 187.545 125.299 187.545 125.461Z" fill="#263238"/>
<path d="M187.153 124.81C187.23 124.887 187.671 124.495 188.329 124.439C188.987 124.383 189.484 124.691 189.554 124.607C189.624 124.523 189.498 124.418 189.281 124.278C188.985 124.099 188.64 124.018 188.296 124.047C187.951 124.076 187.625 124.213 187.363 124.439C187.174 124.6 187.111 124.775 187.153 124.81Z" fill="#263238"/>
<path d="M184.906 130.452C184.552 130.526 184.189 130.554 183.828 130.536C183.733 130.549 183.636 130.549 183.541 130.536C183.478 130.523 183.42 130.495 183.37 130.455C183.32 130.415 183.28 130.363 183.254 130.305C183.187 130.074 183.202 129.827 183.296 129.605L183.695 128.205C183.999 127.01 184.395 125.84 184.878 124.705C184.665 125.919 184.361 127.114 183.968 128.282L183.548 129.682C183.469 129.845 183.443 130.028 183.471 130.207C183.506 130.326 183.66 130.347 183.828 130.347C184.19 130.331 184.553 130.366 184.906 130.452Z" fill="#263238"/>
<path d="M187.181 130.984C187.223 130.935 185.284 132.153 183.947 132.188C184.195 132.516 184.546 132.751 184.944 132.853C185.341 132.956 185.762 132.922 186.138 132.755C186.503 132.646 186.813 132.402 187.007 132.074C187.2 131.746 187.262 131.356 187.181 130.984Z" fill="#FAFAFA"/>
<path d="M184.927 138.6C187.189 138.451 189.361 137.656 191.185 136.311C191.185 136.311 189.841 139.846 185.06 139.762L184.927 138.6Z" fill="#EB996E"/>
<path d="M178.676 122.766C180.776 123.053 182.281 122.486 184.311 121.975C186.341 121.464 188.273 120.127 188.98 118.153C189.223 119.458 189.824 120.67 190.716 121.653C190.905 121.863 191.269 122.059 191.416 121.828C191.447 121.76 191.464 121.686 191.464 121.611C191.464 121.536 191.447 121.462 191.416 121.394L190.996 119.728C191.715 121.041 192.65 122.225 193.761 123.228C194.923 124.159 198.458 125.601 197.919 124.215C197.786 123.865 198.969 113.071 188.707 112.91C178.445 112.749 178.676 122.766 178.676 122.766Z" fill="#263238"/>
<path d="M196.862 125.839C196.827 125.839 197.037 125.594 197.478 125.608C197.703 125.626 197.918 125.709 198.096 125.846C198.275 125.984 198.409 126.171 198.484 126.384C198.558 126.597 198.568 126.827 198.514 127.046C198.46 127.265 198.343 127.463 198.178 127.617C197.983 127.788 197.737 127.889 197.478 127.904C197.037 127.904 196.834 127.694 196.862 127.666C196.89 127.638 197.114 127.715 197.45 127.666C197.659 127.629 197.848 127.519 197.984 127.357C198.12 127.194 198.195 126.989 198.195 126.777C198.195 126.565 198.12 126.36 197.984 126.197C197.848 126.035 197.659 125.925 197.45 125.888C197.1 125.79 196.883 125.895 196.862 125.839Z" fill="#EB996E"/>
<path d="M213.9 159.369L215.664 159.012C215.664 159.012 211.821 141.736 198.465 141.736H196.89V141.82V141.939L196.337 144.158C195.301 148.197 192.837 155.876 189.19 155.967C184.563 156.086 185.179 143.843 185.277 142.191C185.161 142.205 185.048 142.235 184.941 142.282C184.941 142.282 170.416 143.087 163.941 155.827L175.141 164.01L177.878 162.358C177.878 162.358 178.774 180.376 177.234 185.283C175.498 190.827 172.81 196.966 172.81 196.966C185.123 196.007 199.13 196.56 214.061 197.939L204.1 161.364C207.447 161.186 210.75 160.514 213.9 159.369Z" fill="#00B94F"/>
<path d="M201.916 168C201.916 168 201.825 168.161 201.601 168.392C201.279 168.71 200.924 168.994 200.544 169.239C199.271 170.069 197.772 170.484 196.253 170.429C194.734 170.374 193.27 169.851 192.06 168.931C191.695 168.661 191.362 168.351 191.066 168.007C190.856 167.762 190.765 167.608 190.786 167.594C190.807 167.58 191.283 168.098 192.186 168.721C193.384 169.545 194.791 170.012 196.244 170.065C197.697 170.118 199.135 169.757 200.39 169.022C201.377 168.476 201.867 168 201.916 168Z" fill="#263238"/>
<path d="M208.384 177.625C208.255 177.346 208.154 177.056 208.083 176.757C207.887 176.127 207.649 175.357 207.383 174.377C206.781 172.368 205.983 169.589 204.989 166.544C203.995 163.499 203.099 160.741 202.427 158.753C202.119 157.815 201.853 157.024 201.643 156.394C201.527 156.113 201.445 155.819 201.398 155.519C201.55 155.784 201.676 156.063 201.776 156.352C202 156.891 202.308 157.682 202.672 158.669C203.407 160.636 204.366 163.373 205.332 166.432C206.298 169.491 207.096 172.277 207.628 174.307C207.894 175.322 208.104 176.148 208.23 176.722C208.316 177.016 208.368 177.319 208.384 177.625Z" fill="#263238"/>
<path d="M204.051 149.996C203.423 149.982 202.808 149.817 202.259 149.513C201.662 149.321 201.118 148.992 200.67 148.554C201.276 148.673 201.859 148.885 202.399 149.184C202.987 149.37 203.544 149.644 204.051 149.996Z" fill="#263238"/>
<path d="M207.495 155.988C207.536 155.284 207.699 154.592 207.978 153.944C208.145 153.257 208.429 152.603 208.818 152.012C208.768 152.716 208.603 153.406 208.328 154.056C208.162 154.742 207.88 155.396 207.495 155.988Z" fill="#263238"/>
<path d="M195.504 160.3C195.658 159.658 195.91 159.044 196.253 158.48C196.488 157.861 196.814 157.281 197.219 156.758C196.953 158.064 196.363 159.282 195.504 160.3Z" fill="#263238"/>
<path d="M193.334 164.094C192.71 163.768 192.165 163.31 191.738 162.75C191.222 162.269 190.82 161.678 190.562 161.021C191.57 161.974 192.506 163.002 193.362 164.094H193.334Z" fill="#263238"/>
<path d="M202 163.52C201.636 164.279 201.127 164.959 200.502 165.522C199.982 166.083 199.402 166.585 198.773 167.02L198.255 167.335L198.661 166.922C198.759 166.824 198.822 166.782 198.843 166.796C198.864 166.81 198.843 166.887 198.787 167.006L198.675 166.908C198.92 166.614 199.543 166.005 200.243 165.27C200.774 164.634 201.362 164.048 202 163.52Z" fill="#263238"/>
<path d="M203.883 176.015C203.189 175.898 202.531 175.625 201.958 175.217C201.321 174.912 200.763 174.464 200.327 173.908C200.968 174.168 201.576 174.502 202.14 174.902C202.765 175.199 203.351 175.572 203.883 176.015Z" fill="#263238"/>
<path d="M195.112 173.159C194.875 173.829 194.522 174.452 194.069 175C193.714 175.616 193.26 176.17 192.725 176.638C192.959 175.966 193.312 175.343 193.768 174.797C194.123 174.181 194.577 173.627 195.112 173.159Z" fill="#263238"/>
<path d="M189.358 173.726C188.812 173.525 188.314 173.213 187.895 172.809C187.146 172.228 186.593 171.689 186.656 171.612C186.719 171.535 187.356 171.941 188.119 172.522C188.882 173.103 189.4 173.642 189.358 173.726Z" fill="#263238"/>
<path d="M186.243 165.2C186.299 165.284 185.753 165.774 185.018 166.299C184.283 166.824 183.618 167.181 183.618 167.097C183.618 167.013 184.101 166.523 184.836 165.998C185.246 165.639 185.725 165.368 186.243 165.2Z" fill="#263238"/>
<path d="M185.053 160.881C184.976 160.944 184.472 160.412 183.926 159.698C183.38 158.984 183.009 158.347 183.086 158.298C183.163 158.249 183.674 158.774 184.213 159.488C184.752 160.202 185.137 160.825 185.053 160.881Z" fill="#263238"/>
<path d="M197.534 149.401C197.651 148.793 197.889 148.214 198.234 147.7C198.475 147.129 198.821 146.609 199.256 146.167C199.137 146.777 198.9 147.357 198.556 147.875C198.317 148.445 197.97 148.963 197.534 149.401Z" fill="#263238"/>
<path d="M181.938 150.129C181.293 149.939 180.687 149.638 180.146 149.24C179.545 148.939 179.002 148.534 178.543 148.043C179.191 148.224 179.799 148.526 180.335 148.932C180.937 149.231 181.481 149.636 181.938 150.129Z" fill="#263238"/>
<path d="M173.769 148.036C173.86 148.085 173.601 148.687 173.195 149.366C172.789 150.045 172.39 150.57 172.299 150.514C172.208 150.458 172.474 149.87 172.88 149.184C173.286 148.498 173.685 147.987 173.769 148.036Z" fill="#263238"/>
<path d="M182.267 195.3C181.077 194.813 179.994 194.099 179.075 193.2C179.692 193.394 180.266 193.703 180.769 194.11C181.334 194.416 181.841 194.819 182.267 195.3Z" fill="#263238"/>
<path d="M205.661 192.794C205.738 192.864 205.227 193.536 204.52 194.306C203.813 195.076 203.19 195.636 203.12 195.566C203.05 195.496 203.554 194.824 204.261 194.054C204.968 193.284 205.591 192.724 205.661 192.794Z" fill="#263238"/>
<path d="M189.764 195.419C189.736 194.486 189.736 193.552 189.764 192.619C189.855 192.619 190.107 193.214 190.107 194.019C190.161 194.512 190.04 195.007 189.764 195.419Z" fill="#263238"/>
<path d="M198.038 195.552C197.422 195.386 196.843 195.105 196.33 194.726C195.756 194.448 195.241 194.063 194.811 193.592C196.002 194.033 197.097 194.699 198.038 195.552Z" fill="#263238"/>
<path d="M214.075 197.946C213.935 197.961 213.795 197.961 213.655 197.946L212.451 197.848L208.041 197.456C204.317 197.134 199.172 196.672 193.474 196.581C187.776 196.49 182.603 196.616 178.872 196.756L174.448 196.945L173.244 196.994C173.105 197.014 172.963 197.014 172.824 196.994L173.237 196.931L174.441 196.819C175.477 196.728 176.989 196.623 178.858 196.511C182.596 196.301 187.762 196.119 193.481 196.231C199.2 196.343 204.345 196.826 208.069 197.211C209.924 197.414 211.429 197.589 212.465 197.722L213.662 197.883C213.802 197.887 213.94 197.908 214.075 197.946Z" fill="#263238"/>
<g opacity="0.2">
<path opacity="0.2" d="M201.384 155.519L204.884 178.794C204.884 178.794 208.125 178.794 208.72 177.828L201.384 155.519Z" fill="black"/>
<path opacity="0.2" d="M201.384 155.519L204.884 178.794C204.884 178.794 208.125 178.794 208.72 177.828L201.384 155.519Z" fill="black"/>
</g>
<path d="M181.063 196.532C172.824 197.169 168.323 196.602 159.258 197.456C156.195 197.86 153.377 199.347 151.315 201.647C149.253 203.948 148.083 206.911 148.016 210L146.427 278.467H163.08L165.712 217.084L170.612 217.707C169.982 240.695 172.383 278.467 172.383 278.467L190.877 277.564L189.82 218.61C189.82 218.61 214.691 220.297 214.068 197.967C214.075 197.946 194.489 195.573 181.063 196.532Z" fill="#263238"/>
<path d="M186.04 196.357C185.624 196.451 185.204 196.521 184.78 196.567C183.968 196.693 182.792 196.868 181.35 197.134C179.658 197.371 178.001 197.81 176.415 198.443C175.5 198.848 174.653 199.391 173.902 200.053C173.103 200.766 172.456 201.633 171.998 202.601C171.161 204.515 170.755 206.589 170.808 208.677C170.808 210.609 170.878 212.366 170.864 213.836C170.85 215.306 170.801 216.496 170.745 217.336C170.745 217.749 170.689 218.071 170.661 218.281C170.656 218.392 170.64 218.502 170.612 218.61C170.582 218.186 170.582 217.76 170.612 217.336C170.612 216.51 170.612 215.327 170.612 213.836C170.612 212.345 170.528 210.602 170.479 208.677C170.405 206.535 170.814 204.403 171.676 202.44C172.156 201.431 172.835 200.529 173.671 199.787C174.45 199.104 175.331 198.547 176.282 198.135C177.9 197.506 179.591 197.082 181.315 196.875C182.764 196.644 183.954 196.504 184.773 196.427C185.179 196.392 185.473 196.364 185.718 196.357C185.825 196.34 185.933 196.34 186.04 196.357Z" fill="#455A64"/>
<path d="M164.242 212.8C164.602 213.473 164.904 214.176 165.145 214.9C165.502 215.584 165.696 216.341 165.712 217.112C165.352 216.439 165.05 215.736 164.809 215.012C164.448 214.33 164.254 213.572 164.242 212.8Z" fill="#455A64"/>
<path d="M165.6 211.4C165.915 212.3 166.078 213.246 166.083 214.2C166.192 215.163 166.067 216.138 165.719 217.042C165.607 217.042 165.796 215.768 165.719 214.242C165.642 212.716 165.474 211.4 165.6 211.4Z" fill="#455A64"/>
<path d="M188.567 212.695C188.992 213.615 189.273 214.595 189.4 215.6C189.633 216.58 189.785 217.577 189.855 218.582C189.432 217.66 189.158 216.677 189.043 215.67C188.801 214.694 188.641 213.698 188.567 212.695Z" fill="#455A64"/>
<path d="M190.233 212.681C190.65 214.644 190.539 216.683 189.911 218.589C189.918 217.602 189.981 216.615 190.1 215.635C190.093 214.649 190.137 213.663 190.233 212.681Z" fill="#455A64"/>
<path d="M162.653 274.449C162.653 274.547 159.006 274.631 154.505 274.631C150.004 274.631 146.357 274.547 146.357 274.449C146.357 274.351 150.004 274.267 154.505 274.267C159.006 274.267 162.653 274.344 162.653 274.449Z" fill="#455A64"/>
<path d="M190.653 274.141C190.653 274.239 186.502 274.323 181.385 274.323C176.268 274.323 172.117 274.239 172.117 274.141C172.117 274.043 176.268 273.959 181.385 273.959C186.502 273.959 190.653 274.043 190.653 274.141Z" fill="#455A64"/>
<path d="M211.863 208.194H211.632H210.932H208.272L198.472 208.243H191.717C190.475 208.239 189.237 208.38 188.028 208.663C186.754 208.953 185.613 209.66 184.787 210.672C184.004 211.803 183.586 213.147 183.59 214.522C183.52 215.922 183.674 217.385 183.73 218.876C183.805 221.853 183.886 224.922 183.975 228.081C184.332 240.681 184.626 252.098 184.731 260.365C184.787 264.495 184.801 267.841 184.801 270.165C184.801 271.304 184.801 272.193 184.801 272.832C184.801 273.119 184.801 273.343 184.801 273.532C184.812 273.611 184.812 273.691 184.801 273.77C184.792 273.691 184.792 273.611 184.801 273.532C184.801 273.357 184.801 273.133 184.801 272.832C184.801 272.195 184.801 271.306 184.752 270.165C184.703 267.834 184.64 264.495 184.563 260.365C184.388 252.105 184.059 240.688 183.702 228.081C183.618 224.931 183.541 221.858 183.464 218.883C183.408 217.406 183.261 215.943 183.338 214.494C183.337 213.051 183.782 211.643 184.612 210.462C185.485 209.398 186.691 208.658 188.035 208.362C189.272 208.077 190.538 207.936 191.808 207.942H198.563L208.363 208.012L211.023 208.054H211.723C211.774 208.096 211.821 208.143 211.863 208.194Z" fill="#455A64"/>
<path opacity="0.2" d="M168.645 217.434C168.645 217.434 168.001 209.139 171.116 204.372L170.619 217.672L168.645 217.434Z" fill="black"/>
<path d="M169.989 209.545C169.929 209.554 169.867 209.554 169.807 209.545L169.261 209.447C168.778 209.356 168.078 209.216 167.161 209.111C166.057 208.975 164.937 209.042 163.857 209.307C163.188 209.483 162.558 209.78 161.995 210.182C161.379 210.64 160.886 211.244 160.56 211.939C159.86 213.409 159.776 215.25 159.734 217.182C159.692 219.114 159.636 221.2 159.58 223.384C159.461 227.752 159.335 232.554 159.202 237.594C158.908 247.66 158.635 256.774 158.439 263.41C158.327 266.686 158.229 269.353 158.166 271.229C158.124 272.132 158.096 272.846 158.075 273.329C158.075 273.553 158.075 273.735 158.04 273.882C158.049 273.945 158.049 274.008 158.04 274.071C158.029 274.008 158.029 273.945 158.04 273.882C158.04 273.735 158.04 273.553 158.04 273.329C158.04 272.811 158.04 272.097 158.04 271.229C158.075 269.346 158.131 266.686 158.194 263.403C158.362 256.767 158.6 247.653 158.852 237.58C158.999 232.54 159.132 227.745 159.258 223.377C159.321 221.193 159.384 219.114 159.447 217.175C159.51 215.236 159.58 213.36 160.343 211.827C160.695 211.098 161.221 210.468 161.876 209.993C162.462 209.581 163.12 209.282 163.815 209.111C164.923 208.851 166.07 208.803 167.196 208.971C168.113 209.097 168.813 209.265 169.296 209.37L169.835 209.51C169.933 209.517 169.996 209.538 169.989 209.545Z" fill="#455A64"/>
<path d="M168.701 156.744C168.701 156.744 151.124 174.377 147.771 178.318C144.908 181.685 146.777 188.034 149.171 188.307C151.565 188.58 190.317 188.055 190.317 188.055L189.806 180.131C189.806 180.131 164.704 180.243 163.969 179.781C163.234 179.319 178.487 163.898 178.487 163.898L168.701 156.744Z" fill="#FFBE9D"/>
<path d="M215.181 159.047C215.181 159.047 220.522 175.238 221.166 177.149C221.81 179.06 225.128 187.159 218.828 187.838C212.528 188.517 178.718 187.838 178.718 187.838L176.205 179.655C176.205 179.655 208.881 179.571 208.72 177.828C208.559 176.085 203.757 161.462 203.757 161.462L215.181 159.047Z" fill="#FFBE9D"/>
<path d="M143.83 154L155.975 187.642L211.884 187.621L211.499 185.976L190.52 185.206L180.195 153.482L143.83 154Z" fill="#263238"/>
<path d="M168.75 169.316C168.758 169.695 168.657 170.068 168.459 170.391C168.261 170.714 167.975 170.973 167.634 171.139C167.293 171.304 166.912 171.368 166.535 171.323C166.159 171.278 165.804 171.127 165.511 170.886C165.219 170.646 165.001 170.326 164.885 169.966C164.768 169.605 164.757 169.219 164.854 168.853C164.95 168.486 165.149 168.155 165.428 167.898C165.707 167.642 166.053 167.471 166.426 167.405C166.987 167.354 167.545 167.526 167.98 167.884C168.415 168.241 168.692 168.756 168.75 169.316Z" fill="#FAFAFA"/>
<path d="M240.801 186.907H108.725H107.29H105.862V283.5H108.725V192.598H240.801V283.57H274.562V192.598V186.907H240.801Z" fill="#455A64"/>
<path d="M78.296 279.727V272.496L65.346 272.412L65.234 283.227L66.039 283.283C69.616 283.514 84.239 283.983 86.619 283.22C89.3 282.394 78.296 279.727 78.296 279.727Z" fill="#00B94F"/>
<path d="M86.927 282.562C86.927 282.681 82.083 282.779 76.105 282.779C70.127 282.779 65.283 282.681 65.283 282.562C65.283 282.443 70.127 282.338 76.105 282.338C82.083 282.338 86.927 282.436 86.927 282.562Z" fill="#263238"/>
<path d="M78.527 281.204C78.422 281.148 78.527 280.763 78.786 280.392C79.045 280.021 79.409 279.811 79.486 279.895C79.563 279.979 79.395 280.301 79.136 280.651C78.877 281.001 78.632 281.26 78.527 281.204Z" fill="#263238"/>
<path d="M79.353 281.68C79.241 281.638 79.297 281.211 79.556 280.763C79.815 280.315 80.144 280.063 80.256 280.112C80.368 280.161 80.193 280.553 79.955 280.973C79.717 281.393 79.5 281.722 79.353 281.68Z" fill="#263238"/>
<path d="M69.182 282.513C69.133 282.548 68.937 282.359 68.657 282.037C68.3169 281.623 67.9371 281.243 67.523 280.903C67.1182 280.579 66.6355 280.367 66.123 280.287C65.724 280.231 65.472 280.287 65.423 280.231C65.374 280.175 65.64 280.007 66.123 279.979C66.7268 279.966 67.3154 280.17 67.782 280.553C68.2318 280.915 68.6115 281.356 68.902 281.855C69.133 282.226 69.231 282.478 69.182 282.513Z" fill="#263238"/>
<path d="M78.562 279.846C78.632 279.951 78.408 280.196 78.037 280.336C77.666 280.476 77.337 280.42 77.337 280.301C77.337 280.182 77.582 280.042 77.904 279.923C78.226 279.804 78.499 279.741 78.562 279.846Z" fill="#263238"/>
<path d="M78.359 279.146C78.359 279.265 78.03 279.37 77.589 279.377C77.148 279.384 76.805 279.286 76.812 279.167C76.819 279.048 77.169 278.943 77.589 278.936C78.009 278.929 78.352 279.027 78.359 279.146Z" fill="#263238"/>
<path d="M115.9 64.071L116.019 61.88C116.232 60.6672 116.324 59.4361 116.292 58.205C116.29 57.5935 116.181 56.9869 115.97 56.413C115.738 55.6857 115.409 54.9933 114.99 54.355C114.885 54.2497 114.817 54.1138 114.795 53.967C114.772 53.8203 114.797 53.6702 114.866 53.5385C114.934 53.4068 115.043 53.3003 115.176 53.2345C115.309 53.1686 115.46 53.1467 115.606 53.172C116.222 53.333 117.482 54.796 118.056 56.98C118.63 59.164 120.1 55.93 120.653 54.761C121.206 53.592 123.11 50.057 123.6 49.945C124.3 49.777 124.643 50.526 124.055 51.681C123.467 52.836 121.955 56.42 122.599 56.686C123.056 56.5647 123.533 56.5432 123.999 56.623C124.072 56.6392 124.139 56.6774 124.19 56.7324C124.242 56.7874 124.275 56.8567 124.286 56.931C124.313 57.2739 124.382 57.6123 124.489 57.939C124.489 57.939 125.357 57.659 125.574 58.03C125.735 58.4154 125.832 58.8245 125.861 59.241C125.861 59.241 126.519 58.954 126.869 59.178C127.618 59.668 126.806 60.697 126.806 60.697C125.021 63.2666 123.073 65.7193 120.975 68.04L115.886 63.945" fill="#FFBE9D"/>
<path d="M53.635 63.924L53.551 91.847L65.5 92.4L65.843 85.61C65.843 85.61 70.099 86.457 71.198 82.502C71.898 79.982 71.723 60.473 71.723 60.473L53.635 63.924Z" fill="#FFBE9D"/>
<path d="M71.1 56.161C67.453 57.337 66.578 57.736 64.94 57.862C63.302 57.988 52.214 58.002 51.199 64.253C51.0623 63.9592 50.9568 63.6518 50.884 63.336C50.8021 62.7233 50.7577 62.1062 50.751 61.488C50.5752 61.7744 50.4647 62.0959 50.4272 62.4298C50.3897 62.7637 50.4261 63.1018 50.534 63.42C50.562 63.5562 50.6018 63.6897 50.653 63.819C50.576 63.749 50.506 63.672 50.422 63.602C50.0195 63.2459 49.5405 62.9872 49.022 62.846C48.623 62.748 48.364 62.769 48.322 62.846C48.9738 63.1272 49.5915 63.4818 50.163 63.903C50.534 64.2252 50.8528 64.603 51.108 65.023C51.108 65.023 51.108 65.079 51.108 65.107C51.108 65.135 48.721 64.057 49.351 68.383C49.981 72.709 52.802 76.384 53.152 83.468C53.152 83.468 63.043 84.644 64.807 80.843L66.284 76.482C66.284 76.482 63.904 76.09 64.184 74.179C64.569 71.526 66.592 71.463 68.104 72.639L69.84 67.991C69.84 67.991 74.236 65.107 74.488 63.266C74.74 61.425 74.712 54.978 71.1 56.161Z" fill="#263238"/>
<path d="M20.497 274.323L18.747 282.135L30.836 283.633L31.27 275.891L20.497 274.323Z" fill="#00B94F"/>
<path d="M25.957 274.708C25.9501 275.913 25.8187 277.114 25.565 278.292C25.4281 279.481 25.1725 280.654 24.802 281.792C24.9483 279.389 25.3352 277.006 25.957 274.68V274.708Z" fill="#263238"/>
<path d="M30.885 282.8C30.2963 282.781 29.7106 282.708 29.135 282.583L24.9351 281.883C23.2901 281.61 21.8131 281.337 20.7351 281.099C20.1532 281.003 19.583 280.846 19.0341 280.63C19.6234 280.641 20.21 280.713 20.7841 280.847L24.9841 281.547C26.6221 281.82 28.106 282.093 29.184 282.331C29.7674 282.42 30.3383 282.578 30.885 282.8Z" fill="#263238"/>
<path d="M38.431 151.536L16.031 277.312L35.197 278.397C35.197 278.397 55.553 169.981 58.542 169.715C59.795 169.596 60.299 277.515 61.3 277.312C62.301 277.109 82.013 277.662 82.013 277.662C82.013 277.662 79.346 149.94 79.395 149.94L38.431 151.536Z" fill="#263238"/>
<path d="M66.746 167.069C66.746 167.167 63.442 167.958 59.326 168.833C55.21 169.708 51.85 170.338 51.829 170.233C51.808 170.128 55.133 169.344 59.249 168.469C63.365 167.594 66.725 166.971 66.746 167.069Z" fill="#455A64"/>
<path d="M36.618 271.012C36.618 271.117 32.285 271.061 26.944 270.9C21.603 270.739 17.277 270.515 17.277 270.417C17.277 270.319 21.61 270.368 26.951 270.529C32.292 270.69 36.618 270.9 36.618 271.012Z" fill="#455A64"/>
<path d="M81.887 271.026C81.887 271.124 77.204 271.068 71.443 270.893C65.682 270.718 61.006 270.501 61.006 270.403C61.006 270.305 65.682 270.361 71.45 270.529C77.218 270.697 81.887 270.9 81.887 271.026Z" fill="#455A64"/>
<path d="M48 170.555C48.098 170.555 43.359 193.011 37.409 220.661C31.459 248.311 26.559 270.718 26.461 270.697C26.363 270.676 31.102 248.248 37.052 220.584C43.002 192.92 47.895 170.534 48 170.555Z" fill="#455A64"/>
<path d="M71.527 270.711C71.519 270.625 71.519 270.538 71.527 270.452C71.527 270.263 71.527 270.011 71.485 269.689C71.485 268.989 71.415 268.016 71.359 266.756C71.254 264.215 71.135 260.526 71.002 255.969C70.736 246.869 70.47 234.269 70.407 220.367C70.344 206.465 70.477 193.872 70.659 184.758C70.743 180.201 70.834 176.519 70.918 173.971C70.96 172.711 70.988 171.731 71.016 171.038C71.016 170.716 71.016 170.464 71.016 170.275C71.0066 170.189 71.0066 170.102 71.016 170.016C71.027 170.102 71.027 170.189 71.016 170.275V171.038C71.016 171.738 71.016 172.711 71.016 173.971C70.981 176.54 70.932 180.222 70.869 184.765C70.757 193.865 70.659 206.465 70.729 220.367C70.799 234.269 71.016 246.855 71.212 255.969C71.317 260.505 71.401 264.187 71.464 266.756C71.464 268.009 71.506 268.996 71.52 269.689C71.52 270.011 71.52 270.263 71.52 270.452C71.5333 270.538 71.5357 270.625 71.527 270.711Z" fill="#455A64"/>
<path d="M113.891 63.441C113.891 63.441 99.051 85.841 97.791 87.08C96.531 88.319 73.291 90.783 73.291 90.783C66.151 89.173 43.079 89.705 38.725 92.883C34.952 94.983 30.374 99.883 28.015 111.454C23.99 131.25 19.965 138.544 28.015 141.309C31.2334 142.407 34.5505 143.19 37.92 143.647L37.696 152.607L79.416 150.01L77.316 127.764C77.064 121.513 76.945 115.003 76.791 109.235C79.402 108.248 103.664 99.064 105.33 98.826C106.996 98.588 122.977 69.195 122.977 69.195C123.453 65.702 113.891 63.441 113.891 63.441Z" fill="#00B94F"/>
<path d="M39.068 103.95C39.166 103.95 38.942 114.856 38.571 128.296C38.2 141.736 37.808 152.635 37.703 152.635C37.598 152.635 37.829 141.729 38.207 128.289C38.585 114.849 38.97 103.95 39.068 103.95Z" fill="#263238"/>
<path d="M99.884 92.12C99.3275 91.3847 98.9143 90.5512 98.666 89.663C98.3087 88.8264 98.0184 87.9627 97.798 87.08C98.3507 87.8168 98.7613 88.65 99.009 89.537C99.3617 90.3761 99.6541 91.2393 99.884 92.12Z" fill="#263238"/>
<path d="M101.55 90.216C100.842 89.8173 100.176 89.3483 99.562 88.8161C98.8649 88.3715 98.2649 87.7905 97.798 87.1081C98.5036 87.5106 99.1693 87.9794 99.786 88.5081C100.479 88.9576 101.078 89.5377 101.55 90.216Z" fill="#263238"/>
<path d="M122.144 70.98C121.651 70.7439 121.182 70.4603 120.744 70.1331C119.89 69.5941 118.707 68.8661 117.349 68.1381C115.991 67.4101 114.731 66.8291 113.807 66.4231C113.291 66.2383 112.794 66.0039 112.323 65.7231C112.867 65.8127 113.398 65.9678 113.905 66.1851C116.396 67.1138 118.75 68.3734 120.905 69.93C121.36 70.2267 121.777 70.5795 122.144 70.98Z" fill="#263238"/>
<path d="M38.571 128.401C37.7017 128.453 36.8297 128.366 35.988 128.142C35.1214 128.023 34.2853 127.74 33.524 127.309C34.3835 127.392 35.2338 127.551 36.065 127.785C36.9211 127.894 37.7619 128.101 38.571 128.401Z" fill="#263238"/>
<path d="M77.106 90.468C76.3494 90.5977 75.6014 90.773 74.866 90.993C73.1104 91.5678 71.5846 92.6889 70.5115 94.1927C69.4385 95.6964 68.8745 97.5039 68.902 99.351C68.9388 100.118 69.0159 100.882 69.133 101.64C69.0242 101.459 68.9484 101.26 68.909 101.052C68.7555 100.499 68.6662 99.931 68.643 99.358C68.5472 97.4402 69.1021 95.5463 70.2177 93.9835C71.3333 92.4206 72.9441 91.2805 74.789 90.748C75.338 90.5823 75.9039 90.479 76.476 90.44C76.6859 90.4103 76.8995 90.4198 77.106 90.468Z" fill="#263238"/>
<path d="M79.423 150.038C79.423 150.143 70.092 150.801 58.577 151.515C47.062 152.229 37.71 152.733 37.703 152.635C37.696 152.537 47.034 151.872 58.556 151.151C70.078 150.43 79.416 149.94 79.423 150.038Z" fill="#263238"/>
<path d="M62.805 90.027C62.8651 90.1947 62.9074 90.3684 62.931 90.545C62.931 90.72 63.015 90.93 63.043 91.182C63.071 91.434 63.092 91.735 63.127 92.064C63.2101 93.9544 62.9027 95.8417 62.224 97.608C61.2309 100.258 59.4061 102.515 57.023 104.041C56.6823 104.257 56.3267 104.449 55.959 104.615C55.5908 104.794 55.2121 104.951 54.825 105.084C54.048 105.364 53.243 105.602 52.445 105.889C51.6347 106.155 50.8591 106.517 50.135 106.967C49.4113 107.457 48.7709 108.059 48.238 108.752C47.2399 110.193 46.3193 111.686 45.48 113.225C44.6745 114.697 43.4934 115.928 42.057 116.795C40.6976 117.482 39.1686 117.762 37.654 117.6C36.3474 117.481 35.0747 117.117 33.902 116.529C32.2165 115.677 30.6857 114.548 29.373 113.19C28.904 112.721 28.554 112.343 28.323 112.091C28.1923 111.968 28.0771 111.829 27.98 111.678C28.1177 111.789 28.2486 111.908 28.372 112.035L29.471 113.092C30.8036 114.393 32.3318 115.477 34 116.305C35.152 116.858 36.3948 117.197 37.668 117.306C39.1167 117.44 40.5737 117.159 41.868 116.494C43.2502 115.654 44.3835 114.46 45.151 113.036C45.9991 111.482 46.9339 109.977 47.951 108.528C48.5093 107.805 49.1806 107.176 49.939 106.666C50.6863 106.197 51.4878 105.821 52.326 105.546L54.706 104.755C55.086 104.626 55.4577 104.474 55.819 104.3C56.1762 104.146 56.5203 103.964 56.848 103.754C59.1901 102.279 60.9962 100.09 62 97.51C62.692 95.7816 63.0323 93.9325 63.001 92.071C63.001 91.742 63.001 91.455 62.959 91.196C62.917 90.937 62.896 90.727 62.875 90.559C62.836 90.3841 62.8126 90.2061 62.805 90.027Z" fill="#263238"/>
<path d="M78.604 141.498C78.604 141.498 78.443 141.386 78.135 141.197C77.6952 140.913 77.2061 140.713 76.693 140.609C75.8675 140.485 75.0354 140.41 74.201 140.385C73.228 140.308 72.101 140.301 70.876 140.252C69.5189 140.229 68.1697 140.041 66.858 139.692C65.3522 139.264 63.9314 138.58 62.658 137.669C61.2414 136.659 60.0674 135.346 59.221 133.826C58.3159 132.19 57.8347 130.354 57.821 128.485C57.794 126.671 58.2771 124.885 59.2152 123.332C60.1533 121.779 61.5087 120.521 63.127 119.7C63.8547 119.337 64.63 119.077 65.43 118.93C66.1771 118.805 66.9335 118.744 67.691 118.748C69.0292 118.789 70.3686 118.749 71.702 118.629C72.6631 118.568 73.5939 118.269 74.4112 117.759C75.2284 117.25 75.9066 116.546 76.385 115.71C76.6195 115.241 76.7666 114.734 76.819 114.212C76.861 113.855 76.861 113.659 76.875 113.659C76.8836 113.705 76.8836 113.753 76.875 113.799C76.875 113.897 76.875 114.037 76.875 114.219C76.8461 114.757 76.7155 115.284 76.49 115.773C76.1218 116.547 75.557 117.211 74.852 117.698C73.9247 118.348 72.8487 118.755 71.723 118.881C70.3792 119.022 69.0279 119.078 67.677 119.049C66.9355 119.053 66.1956 119.118 65.465 119.245C64.6985 119.393 63.9563 119.648 63.26 120.001C61.704 120.796 60.4014 122.011 59.4996 123.508C58.5978 125.004 58.1328 126.724 58.157 128.471C58.1742 130.281 58.6408 132.059 59.515 133.644C60.3323 135.119 61.4653 136.396 62.833 137.382C64.071 138.279 65.4537 138.956 66.921 139.384C68.208 139.742 69.5338 139.941 70.869 139.979C72.101 140.042 73.221 140.07 74.201 140.168C75.042 140.206 75.8793 140.302 76.707 140.455C77.2318 140.59 77.7244 140.828 78.156 141.155C78.2702 141.235 78.3801 141.322 78.485 141.414C78.5293 141.435 78.5695 141.463 78.604 141.498Z" fill="#263238"/>
<path d="M55.42 151.746C55.439 151.245 55.4109 150.744 55.336 150.248C55.0762 148.904 54.3028 147.714 53.18 146.93C52.8104 146.685 52.4103 146.49 51.99 146.349C51.5319 146.22 51.0635 146.131 50.59 146.083C49.485 146.058 48.3863 145.91 47.314 145.642C46.7251 145.445 46.1872 145.12 45.739 144.69C45.2868 144.235 44.9257 143.698 44.675 143.108C44.1684 141.87 44.011 140.516 44.22 139.195C44.612 136.5 45.795 134.183 45.998 131.901C46.141 130.836 46.043 129.752 45.711 128.73C45.4077 127.85 44.8406 127.085 44.087 126.539C42.9821 125.731 41.6089 125.377 40.251 125.552C39.7594 125.645 39.2769 125.781 38.809 125.958C39.2315 125.678 39.7088 125.492 40.209 125.412C41.6147 125.175 43.0572 125.504 44.22 126.329C45.0291 126.897 45.6428 127.702 45.977 128.632C46.3387 129.694 46.4536 130.823 46.313 131.936C46.11 134.295 44.913 136.64 44.563 139.244C44.362 140.5 44.5072 141.788 44.983 142.968C45.2172 143.516 45.5493 144.016 45.963 144.445C46.3705 144.84 46.8607 145.138 47.398 145.32C48.4472 145.588 49.522 145.743 50.604 145.782C51.1073 145.834 51.6044 145.934 52.088 146.083C52.9825 146.392 53.7738 146.943 54.3743 147.675C54.9748 148.406 55.361 149.289 55.49 150.227C55.5413 150.603 55.5413 150.985 55.49 151.361C55.4787 151.491 55.4553 151.62 55.42 151.746Z" fill="#263238"/>
<path d="M54.02 113.015C54.02 113.015 54.167 112.861 54.517 112.756C55.019 112.625 55.5499 112.662 56.029 112.861C56.3647 112.999 56.6658 113.209 56.911 113.477C57.1876 113.797 57.363 114.191 57.415 114.611C57.4784 115.093 57.3972 115.584 57.1816 116.02C56.966 116.456 56.6257 116.818 56.204 117.061C55.7646 117.27 55.2724 117.341 54.7918 117.266C54.3111 117.192 53.8641 116.974 53.509 116.641C53.1985 116.35 52.9837 115.972 52.893 115.556C52.8235 115.198 52.8402 114.828 52.942 114.478C53.0807 113.976 53.3901 113.538 53.817 113.239C53.9612 113.117 54.1399 113.044 54.328 113.029C54.328 113.029 54.16 113.134 53.901 113.351C53.5493 113.665 53.3046 114.081 53.201 114.541C53.111 114.87 53.1144 115.218 53.2108 115.546C53.3073 115.874 53.4929 116.168 53.747 116.396C54.0536 116.673 54.4349 116.853 54.8433 116.914C55.2517 116.975 55.669 116.914 56.043 116.739C56.4028 116.529 56.6937 116.218 56.8801 115.845C57.0666 115.472 57.1405 115.053 57.093 114.639C57.0529 114.301 56.9244 113.979 56.7204 113.706C56.5164 113.433 56.2441 113.219 55.931 113.085C55.4958 112.877 55.0074 112.806 54.531 112.882C54.209 112.952 54.034 113.043 54.02 113.015Z" fill="#263238"/>
<path d="M33.034 142.856C32.957 142.856 33.286 141.624 33.363 139.622C33.3907 139.079 33.3907 138.534 33.363 137.991C33.363 137.403 33.251 136.78 33.174 136.122C32.9418 134.707 32.5689 133.319 32.061 131.978C31.5309 130.648 30.8647 129.377 30.073 128.184C29.7185 127.67 29.3376 127.175 28.932 126.7C28.5882 126.274 28.2214 125.868 27.833 125.482C26.433 124.082 25.355 123.382 25.404 123.333C25.6701 123.456 25.9214 123.609 26.153 123.788C26.4433 123.973 26.7215 124.177 26.986 124.397C27.3457 124.679 27.6892 124.98 28.015 125.3C28.4217 125.678 28.805 126.08 29.163 126.504C29.5802 126.985 29.9728 127.488 30.339 128.009C31.1573 129.216 31.8449 130.507 32.39 131.859C32.9054 133.216 33.2739 134.624 33.489 136.059C33.578 136.69 33.6317 137.326 33.65 137.963C33.6858 138.515 33.6858 139.07 33.65 139.622C33.6244 140.077 33.5753 140.53 33.503 140.98C33.4605 141.322 33.395 141.661 33.307 141.995C33.252 142.292 33.1603 142.581 33.034 142.856Z" fill="#263238"/>
<path d="M105.666 98.5461C105.307 98.4181 104.959 98.2636 104.623 98.0841C103.958 97.7761 102.999 97.3351 101.767 96.8871C100.337 96.3572 98.8536 95.984 97.343 95.7741C95.4992 95.5096 93.6218 95.6023 91.813 96.0471C89.9888 96.4715 88.3025 97.3532 86.913 98.6091C85.7912 99.633 84.9339 100.913 84.414 102.34C84.0723 103.305 83.9294 104.329 83.994 105.35C84.05 106.05 84.162 106.47 84.127 106.477C84.092 106.484 84.078 106.386 84.022 106.197C83.9473 105.924 83.8912 105.645 83.854 105.364C83.7305 104.317 83.8405 103.256 84.176 102.256C84.672 100.768 85.5365 99.4287 86.689 98.3641C88.0981 97.0589 89.8193 96.1381 91.687 95.6901C93.5427 95.2385 95.4686 95.1529 97.357 95.4381C98.8868 95.6707 100.385 96.077 101.823 96.6491C102.782 97.0275 103.717 97.4647 104.623 97.9581C104.945 98.1331 105.197 98.2731 105.358 98.3781C105.47 98.4142 105.575 98.4712 105.666 98.5461Z" fill="#263238"/>
<path d="M111.399 67.2C111.399 67.2 111.469 67.249 111.588 67.368C111.763 67.5321 111.924 67.71 112.071 67.9C112.625 68.5949 113.062 69.3751 113.366 70.21C113.824 71.4536 114.012 72.7802 113.919 74.102C113.811 75.726 113.288 77.2951 112.4 78.659C111.49 80.0142 110.236 81.1037 108.767 81.816C107.584 82.4072 106.293 82.7502 104.973 82.824C104.086 82.8809 103.195 82.7982 102.334 82.579C102.096 82.5236 101.862 82.4511 101.634 82.362C101.48 82.306 101.403 82.271 101.41 82.257C102.556 82.5289 103.735 82.6326 104.91 82.565C106.19 82.4587 107.436 82.1019 108.578 81.515C109.989 80.8175 111.195 79.7659 112.078 78.463C112.853 77.2639 113.348 75.9053 113.525 74.4884C113.702 73.0715 113.557 71.6329 113.1 70.28C112.691 69.1735 112.118 68.1352 111.399 67.2Z" fill="#263238"/>
<path d="M65.696 89.929C63.6748 90.1291 61.6434 90.2063 59.613 90.16C57.5844 90.236 55.5532 90.1916 53.53 90.027C55.5511 89.8269 57.5825 89.7498 59.613 89.796C61.6415 89.7201 63.6727 89.7645 65.696 89.929Z" fill="#263238"/>
</svg>
