<svg width="755" height="707" viewBox="0 0 755 707" fill="none" xmlns="http://www.w3.org/2000/svg">
<rect opacity="0.4" width="499.924" height="499.924" rx="80" transform="matrix(-0.707107 -0.707107 -0.707107 0.707107 731.893 352.947)" fill="url(#paint0_linear)"/>
<rect x="100.989" y="154.977" width="187.971" height="187.971" rx="19" fill="white" fill-opacity="0.5" stroke="white" stroke-width="2"/>
<g filter="url(#filter0_d)">
<rect x="114.987" y="168.975" width="159.976" height="159.976" rx="15" fill="white"/>
</g>
<path d="M165.44 287.516C165.44 289.608 164.916 291.234 163.867 292.394C162.824 293.554 161.345 294.134 159.429 294.134C157.489 294.134 155.998 293.56 154.955 292.412C153.918 291.257 153.399 289.62 153.399 287.499C153.399 285.377 153.921 283.749 154.964 282.612C156.013 281.475 157.507 280.907 159.446 280.907C161.356 280.907 162.833 281.484 163.876 282.638C164.919 283.792 165.44 285.418 165.44 287.516ZM155.632 287.516C155.632 289.098 155.951 290.299 156.59 291.12C157.229 291.934 158.175 292.341 159.429 292.341C160.677 292.341 161.617 291.937 162.25 291.128C162.889 290.32 163.208 289.116 163.208 287.516C163.208 285.94 162.892 284.745 162.259 283.93C161.632 283.116 160.694 282.708 159.446 282.708C158.187 282.708 157.234 283.116 156.59 283.93C155.951 284.745 155.632 285.94 155.632 287.516ZM172.911 294.134C171.681 294.134 170.726 293.692 170.046 292.807H169.923C170.005 293.627 170.046 294.125 170.046 294.301V298.283H167.98V284.238H169.65C169.697 284.419 169.794 284.853 169.94 285.539H170.046C170.69 284.554 171.657 284.062 172.946 284.062C174.159 284.062 175.103 284.501 175.776 285.38C176.456 286.259 176.796 287.493 176.796 289.081C176.796 290.668 176.45 291.908 175.759 292.798C175.073 293.689 174.124 294.134 172.911 294.134ZM172.41 285.75C171.59 285.75 170.989 285.99 170.608 286.47C170.233 286.951 170.046 287.718 170.046 288.773V289.081C170.046 290.264 170.233 291.123 170.608 291.656C170.983 292.183 171.596 292.447 172.445 292.447C173.16 292.447 173.711 292.154 174.098 291.568C174.484 290.982 174.678 290.147 174.678 289.063C174.678 287.973 174.484 287.15 174.098 286.593C173.717 286.031 173.154 285.75 172.41 285.75ZM189.646 293.958L185.919 283.227H185.849C185.948 284.821 185.998 286.315 185.998 287.709V293.958H184.091V281.109H187.053L190.621 291.331H190.674L194.348 281.109H197.318V293.958H195.297V287.604C195.297 286.965 195.312 286.133 195.341 285.108C195.376 284.083 195.405 283.461 195.429 283.245H195.358L191.5 293.958H189.646ZM209.104 289.081C209.104 290.668 208.697 291.908 207.883 292.798C207.068 293.689 205.935 294.134 204.481 294.134C203.573 294.134 202.771 293.929 202.073 293.519C201.376 293.109 200.84 292.52 200.465 291.752C200.09 290.985 199.902 290.094 199.902 289.081C199.902 287.504 200.307 286.274 201.115 285.389C201.924 284.504 203.063 284.062 204.534 284.062C205.94 284.062 207.054 284.516 207.874 285.424C208.694 286.327 209.104 287.545 209.104 289.081ZM202.029 289.081C202.029 291.325 202.858 292.447 204.517 292.447C206.157 292.447 206.978 291.325 206.978 289.081C206.978 286.86 206.151 285.75 204.499 285.75C203.632 285.75 203.002 286.037 202.609 286.611C202.223 287.185 202.029 288.008 202.029 289.081ZM214.765 294.134C213.552 294.134 212.605 293.695 211.926 292.816C211.246 291.937 210.906 290.704 210.906 289.116C210.906 287.522 211.249 286.283 211.935 285.398C212.626 284.507 213.581 284.062 214.8 284.062C216.077 284.062 217.05 284.534 217.718 285.477H217.823C217.724 284.78 217.674 284.229 217.674 283.825V280.283H219.748V293.958H218.131L217.771 292.684H217.674C217.012 293.651 216.042 294.134 214.765 294.134ZM215.318 292.464C216.168 292.464 216.786 292.227 217.173 291.752C217.56 291.272 217.759 290.496 217.771 289.423V289.133C217.771 287.909 217.571 287.039 217.173 286.523C216.774 286.007 216.15 285.75 215.301 285.75C214.574 285.75 214.015 286.045 213.622 286.637C213.229 287.223 213.033 288.061 213.033 289.151C213.033 290.229 213.224 291.052 213.604 291.621C213.985 292.183 214.557 292.464 215.318 292.464ZM226.946 294.134C225.435 294.134 224.251 293.695 223.396 292.816C222.546 291.931 222.121 290.715 222.121 289.168C222.121 287.581 222.517 286.333 223.308 285.424C224.099 284.516 225.186 284.062 226.568 284.062C227.852 284.062 228.865 284.452 229.609 285.231C230.354 286.01 230.726 287.083 230.726 288.448V289.564H224.248C224.277 290.507 224.532 291.234 225.013 291.744C225.493 292.248 226.17 292.5 227.043 292.5C227.617 292.5 228.15 292.447 228.643 292.341C229.141 292.23 229.674 292.048 230.242 291.796V293.475C229.738 293.715 229.229 293.885 228.713 293.985C228.197 294.084 227.608 294.134 226.946 294.134ZM226.568 285.626C225.912 285.626 225.385 285.834 224.986 286.25C224.594 286.667 224.359 287.273 224.283 288.07H228.695C228.684 287.267 228.49 286.661 228.115 286.25C227.74 285.834 227.225 285.626 226.568 285.626ZM235.138 293.958H233.072V280.283H235.138V293.958Z" fill="#121E31"/>
<rect opacity="0.1" x="165" y="205" width="60" height="60" rx="10" fill="#38C37D"/>
<g clip-path="url(#clip0)">
<path d="M209.094 244.69H206.399V242.053C206.399 241.568 206.005 241.175 205.52 241.175H195.853V238.844L200.869 233.828C201.212 233.485 201.212 232.929 200.869 232.586L195.853 227.57V225.239H200.247C200.733 225.239 201.126 224.846 201.126 224.361V220.846C201.126 220.36 200.733 219.967 200.247 219.967H189.702C189.217 219.967 188.823 220.36 188.823 220.846V224.361C188.823 224.846 189.217 225.239 189.702 225.239H194.096V227.57L189.081 232.586C188.737 232.929 188.737 233.485 189.081 233.828L194.096 238.844V241.175H184.371C183.885 241.175 183.492 241.568 183.492 242.053V244.69H180.856C180.37 244.69 179.977 245.083 179.977 245.568V249.083C179.977 249.569 180.37 249.962 180.856 249.962H187.886C188.371 249.962 188.765 249.569 188.765 249.083V245.568C188.765 245.083 188.371 244.69 187.886 244.69H185.249V242.932H194.096V244.841C193.073 245.204 192.338 246.18 192.338 247.326C192.338 248.78 193.521 249.962 194.975 249.962C196.428 249.962 197.611 248.78 197.611 247.326C197.611 246.18 196.876 245.204 195.853 244.841V242.932H204.641V244.69H202.005C201.519 244.69 201.126 245.083 201.126 245.568V249.083C201.126 249.569 201.519 249.962 202.005 249.962H209.094C209.579 249.962 209.972 249.569 209.972 249.083V245.568C209.972 245.083 209.579 244.69 209.094 244.69ZM187.007 246.447V248.205H181.734V246.447H187.007ZM190.581 223.482V221.724H199.368V223.482H190.581ZM194.975 248.205C194.49 248.205 194.096 247.81 194.096 247.326C194.096 246.841 194.49 246.447 194.975 246.447C195.459 246.447 195.853 246.841 195.853 247.326C195.853 247.81 195.459 248.205 194.975 248.205ZM194.975 237.237L190.945 233.207L194.975 229.177L199.004 233.207L194.975 237.237ZM208.215 248.205H202.884V246.447H208.215V248.205Z" fill="#38C37D"/>
</g>
<rect x="310.957" y="154.977" width="187.971" height="187.971" rx="19" fill="white" fill-opacity="0.5" stroke="white" stroke-width="2"/>
<g filter="url(#filter1_d)">
<rect x="324.955" y="168.975" width="159.976" height="159.976" rx="15" fill="white"/>
</g>
<path d="M382.899 281.994C382.899 283.336 382.459 284.364 381.58 285.079C380.702 285.794 379.451 286.151 377.828 286.151H376.492V290.959H374.391V278.109H378.091C379.697 278.109 380.898 278.437 381.695 279.094C382.497 279.75 382.899 280.717 382.899 281.994ZM376.492 284.385H377.608C378.686 284.385 379.477 284.197 379.981 283.822C380.485 283.447 380.737 282.861 380.737 282.064C380.737 281.326 380.511 280.775 380.06 280.412C379.609 280.049 378.906 279.867 377.951 279.867H376.492V284.385ZM389.816 281.062C390.232 281.062 390.575 281.092 390.845 281.15L390.642 283.075C390.349 283.005 390.045 282.969 389.728 282.969C388.902 282.969 388.231 283.239 387.716 283.778C387.206 284.317 386.951 285.017 386.951 285.879V290.959H384.886V281.238H386.503L386.775 282.952H386.881C387.203 282.372 387.622 281.912 388.137 281.572C388.659 281.232 389.219 281.062 389.816 281.062ZM400.917 286.081C400.917 287.669 400.51 288.908 399.695 289.799C398.881 290.689 397.747 291.135 396.294 291.135C395.386 291.135 394.583 290.929 393.886 290.519C393.189 290.109 392.652 289.52 392.277 288.753C391.902 287.985 391.715 287.094 391.715 286.081C391.715 284.505 392.119 283.274 392.928 282.389C393.736 281.505 394.876 281.062 396.347 281.062C397.753 281.062 398.866 281.516 399.687 282.425C400.507 283.327 400.917 284.546 400.917 286.081ZM393.842 286.081C393.842 288.325 394.671 289.447 396.329 289.447C397.97 289.447 398.79 288.325 398.79 286.081C398.79 283.86 397.964 282.75 396.312 282.75C395.444 282.75 394.815 283.037 394.422 283.611C394.035 284.185 393.842 285.009 393.842 286.081ZM406.859 291.135C405.388 291.135 404.269 290.707 403.501 289.851C402.74 288.99 402.359 287.757 402.359 286.151C402.359 284.516 402.757 283.26 403.554 282.381C404.357 281.502 405.514 281.062 407.026 281.062C408.051 281.062 408.974 281.253 409.794 281.634L409.17 283.295C408.297 282.955 407.577 282.785 407.008 282.785C405.327 282.785 404.486 283.901 404.486 286.134C404.486 287.223 404.694 288.044 405.11 288.594C405.532 289.139 406.147 289.412 406.956 289.412C407.875 289.412 408.746 289.183 409.566 288.726V290.528C409.197 290.745 408.801 290.9 408.379 290.994C407.963 291.088 407.457 291.135 406.859 291.135ZM415.736 291.135C414.224 291.135 413.041 290.695 412.185 289.816C411.336 288.931 410.911 287.716 410.911 286.169C410.911 284.581 411.307 283.333 412.098 282.425C412.889 281.516 413.975 281.062 415.358 281.062C416.641 281.062 417.655 281.452 418.399 282.231C419.143 283.01 419.515 284.083 419.515 285.448V286.564H413.038C413.067 287.508 413.322 288.234 413.803 288.744C414.283 289.248 414.96 289.5 415.833 289.5C416.407 289.5 416.94 289.447 417.432 289.342C417.931 289.23 418.464 289.049 419.032 288.797V290.475C418.528 290.716 418.018 290.885 417.503 290.985C416.987 291.085 416.398 291.135 415.736 291.135ZM415.358 282.627C414.702 282.627 414.175 282.835 413.776 283.251C413.384 283.667 413.149 284.273 413.073 285.07H417.485C417.473 284.267 417.28 283.661 416.905 283.251C416.53 282.835 416.015 282.627 415.358 282.627ZM428.032 288.19C428.032 289.139 427.687 289.869 426.995 290.379C426.304 290.883 425.314 291.135 424.025 291.135C422.73 291.135 421.69 290.938 420.905 290.546V288.761C422.047 289.289 423.111 289.552 424.095 289.552C425.366 289.552 426.002 289.169 426.002 288.401C426.002 288.155 425.932 287.95 425.791 287.786C425.651 287.622 425.419 287.452 425.097 287.276C424.775 287.1 424.326 286.901 423.752 286.678C422.633 286.245 421.874 285.811 421.476 285.378C421.083 284.944 420.887 284.382 420.887 283.69C420.887 282.858 421.221 282.214 421.889 281.757C422.563 281.294 423.477 281.062 424.631 281.062C425.774 281.062 426.855 281.294 427.874 281.757L427.206 283.312C426.157 282.879 425.276 282.662 424.561 282.662C423.471 282.662 422.926 282.972 422.926 283.594C422.926 283.898 423.067 284.156 423.348 284.367C423.635 284.578 424.256 284.868 425.211 285.237C426.014 285.548 426.597 285.832 426.96 286.09C427.323 286.347 427.593 286.646 427.769 286.986C427.945 287.32 428.032 287.721 428.032 288.19ZM436.444 288.19C436.444 289.139 436.098 289.869 435.407 290.379C434.715 290.883 433.725 291.135 432.436 291.135C431.141 291.135 430.101 290.938 429.316 290.546V288.761C430.459 289.289 431.522 289.552 432.506 289.552C433.778 289.552 434.414 289.169 434.414 288.401C434.414 288.155 434.343 287.95 434.203 287.786C434.062 287.622 433.831 287.452 433.508 287.276C433.186 287.1 432.738 286.901 432.164 286.678C431.045 286.245 430.286 285.811 429.887 285.378C429.495 284.944 429.298 284.382 429.298 283.69C429.298 282.858 429.632 282.214 430.3 281.757C430.974 281.294 431.888 281.062 433.043 281.062C434.185 281.062 435.266 281.294 436.286 281.757L435.618 283.312C434.569 282.879 433.687 282.662 432.972 282.662C431.882 282.662 431.337 282.972 431.337 283.594C431.337 283.898 431.478 284.156 431.759 284.367C432.046 284.578 432.668 284.868 433.623 285.237C434.425 285.548 435.008 285.832 435.372 286.09C435.735 286.347 436.004 286.646 436.18 286.986C436.356 287.32 436.444 287.721 436.444 288.19ZM365.426 298.109H369.24C371.01 298.109 372.287 298.367 373.072 298.883C373.863 299.398 374.259 300.213 374.259 301.326C374.259 302.076 374.065 302.7 373.679 303.198C373.292 303.696 372.735 304.01 372.009 304.138V304.226C372.911 304.396 373.573 304.733 373.995 305.237C374.423 305.735 374.637 306.412 374.637 307.267C374.637 308.422 374.232 309.327 373.424 309.983C372.621 310.634 371.502 310.959 370.066 310.959H365.426V298.109ZM367.526 303.418H369.548C370.427 303.418 371.068 303.28 371.473 303.005C371.877 302.723 372.079 302.249 372.079 301.581C372.079 300.977 371.859 300.541 371.42 300.271C370.986 300.002 370.295 299.867 369.346 299.867H367.526V303.418ZM367.526 305.123V309.192H369.759C370.638 309.192 371.3 309.025 371.745 308.691C372.196 308.351 372.422 307.818 372.422 307.092C372.422 306.424 372.193 305.928 371.736 305.606C371.279 305.284 370.585 305.123 369.653 305.123H367.526ZM378.794 310.959H376.729V297.283H378.794V310.959ZM388.252 310.959L387.962 309.684H387.856C387.569 310.135 387.159 310.49 386.626 310.748C386.098 311.006 385.495 311.135 384.815 311.135C383.637 311.135 382.759 310.842 382.178 310.256C381.598 309.67 381.308 308.782 381.308 307.593V301.238H383.391V307.232C383.391 307.976 383.544 308.536 383.848 308.911C384.153 309.28 384.631 309.465 385.281 309.465C386.148 309.465 386.784 309.207 387.188 308.691C387.598 308.17 387.803 307.3 387.803 306.081V301.238H389.878V310.959H388.252ZM396.707 311.135C395.195 311.135 394.012 310.695 393.156 309.816C392.307 308.931 391.882 307.716 391.882 306.169C391.882 304.581 392.277 303.333 393.068 302.425C393.86 301.516 394.946 301.062 396.329 301.062C397.612 301.062 398.626 301.452 399.37 302.231C400.114 303.01 400.486 304.083 400.486 305.448V306.564H394.009C394.038 307.508 394.293 308.234 394.774 308.744C395.254 309.248 395.931 309.5 396.804 309.5C397.378 309.5 397.911 309.447 398.403 309.342C398.902 309.23 399.435 309.049 400.003 308.797V310.475C399.499 310.716 398.989 310.885 398.474 310.985C397.958 311.085 397.369 311.135 396.707 311.135ZM396.329 302.627C395.673 302.627 395.146 302.835 394.747 303.251C394.355 303.667 394.12 304.273 394.044 305.07H398.456C398.444 304.267 398.251 303.661 397.876 303.251C397.501 302.835 396.985 302.627 396.329 302.627ZM407.404 311.135C406.173 311.135 405.218 310.692 404.539 309.807H404.416C404.498 310.628 404.539 311.126 404.539 311.302V315.283H402.473V301.238H404.143C404.19 301.42 404.287 301.853 404.433 302.539H404.539C405.183 301.554 406.15 301.062 407.439 301.062C408.652 301.062 409.595 301.502 410.269 302.381C410.949 303.26 411.289 304.493 411.289 306.081C411.289 307.669 410.943 308.908 410.251 309.799C409.566 310.689 408.617 311.135 407.404 311.135ZM406.903 302.75C406.083 302.75 405.482 302.99 405.101 303.47C404.726 303.951 404.539 304.719 404.539 305.773V306.081C404.539 307.264 404.726 308.123 405.101 308.656C405.476 309.183 406.088 309.447 406.938 309.447C407.653 309.447 408.204 309.154 408.59 308.568C408.977 307.982 409.17 307.147 409.17 306.063C409.17 304.973 408.977 304.15 408.59 303.594C408.209 303.031 407.647 302.75 406.903 302.75ZM418.259 301.062C418.675 301.062 419.017 301.092 419.287 301.15L419.085 303.075C418.792 303.005 418.487 302.969 418.171 302.969C417.345 302.969 416.674 303.239 416.158 303.778C415.648 304.317 415.393 305.017 415.393 305.879V310.959H413.328V301.238H414.945L415.218 302.952H415.323C415.645 302.372 416.064 301.912 416.58 301.572C417.101 301.232 417.661 301.062 418.259 301.062ZM422.803 310.959H420.738V301.238H422.803V310.959ZM420.614 298.663C420.614 298.294 420.714 298.01 420.913 297.81C421.118 297.611 421.408 297.511 421.783 297.511C422.147 297.511 422.428 297.611 422.627 297.81C422.832 298.01 422.935 298.294 422.935 298.663C422.935 299.014 422.832 299.293 422.627 299.498C422.428 299.697 422.147 299.797 421.783 299.797C421.408 299.797 421.118 299.697 420.913 299.498C420.714 299.293 420.614 299.014 420.614 298.663ZM433.957 310.959H431.882V304.982C431.882 304.232 431.73 303.673 431.425 303.303C431.127 302.934 430.649 302.75 429.993 302.75C429.12 302.75 428.481 303.008 428.077 303.523C427.672 304.039 427.47 304.903 427.47 306.116V310.959H425.405V301.238H427.022L427.312 302.512H427.418C427.711 302.05 428.127 301.692 428.666 301.44C429.205 301.188 429.802 301.062 430.459 301.062C432.791 301.062 433.957 302.249 433.957 304.622V310.959ZM440.092 309.465C440.596 309.465 441.1 309.385 441.603 309.227V310.783C441.375 310.883 441.079 310.965 440.716 311.029C440.358 311.099 439.986 311.135 439.6 311.135C437.643 311.135 436.664 310.103 436.664 308.041V302.802H435.337V301.888L436.761 301.133L437.464 299.076H438.738V301.238H441.507V302.802H438.738V308.006C438.738 308.504 438.861 308.873 439.107 309.113C439.359 309.347 439.687 309.465 440.092 309.465ZM449.725 308.19C449.725 309.139 449.379 309.869 448.688 310.379C447.996 310.883 447.006 311.135 445.717 311.135C444.422 311.135 443.382 310.938 442.597 310.546V308.761C443.74 309.289 444.803 309.552 445.787 309.552C447.059 309.552 447.695 309.169 447.695 308.401C447.695 308.155 447.624 307.95 447.484 307.786C447.343 307.622 447.112 307.452 446.789 307.276C446.467 307.1 446.019 306.901 445.445 306.678C444.325 306.245 443.567 305.811 443.168 305.378C442.776 304.944 442.579 304.382 442.579 303.69C442.579 302.858 442.913 302.214 443.581 301.757C444.255 301.294 445.169 301.062 446.324 301.062C447.466 301.062 448.547 301.294 449.567 301.757L448.899 303.312C447.85 302.879 446.968 302.662 446.253 302.662C445.163 302.662 444.618 302.972 444.618 303.594C444.618 303.898 444.759 304.156 445.04 304.367C445.327 304.578 445.949 304.868 446.904 305.237C447.706 305.548 448.289 305.832 448.653 306.09C449.016 306.347 449.285 306.646 449.461 306.986C449.637 307.32 449.725 307.721 449.725 308.19Z" fill="#121E31"/>
<rect opacity="0.1" x="375" y="204" width="60" height="60" rx="10" fill="#38C37D"/>
<g clip-path="url(#clip1)">
<path d="M418.182 243.918V228.682C418.182 228.195 417.789 227.801 417.304 227.801C416.818 227.801 416.425 228.195 416.425 228.682V233.084H412.031C411.545 233.084 411.152 233.478 411.152 233.964C411.152 234.451 411.545 234.845 412.031 234.845H416.425V243.918C415.677 244.184 415.083 244.779 414.818 245.528H405.88V239.247C405.88 238.761 405.486 238.367 405.001 238.367C404.516 238.367 404.122 238.761 404.122 239.247V245.528H395.066C394.801 244.779 394.208 244.184 393.46 243.918V234.845H399.728C400.214 234.845 400.607 234.451 400.607 233.964C400.607 233.478 400.214 233.084 399.728 233.084H393.46V224.128C394.208 223.862 394.801 223.267 395.066 222.518H404.122V226.921C404.122 227.407 404.516 227.801 405.001 227.801C405.486 227.801 405.88 227.407 405.88 226.921V222.518H410.273C410.759 222.518 411.152 222.124 411.152 221.638C411.152 221.151 410.759 220.757 410.273 220.757H395.066C394.703 219.733 393.727 218.996 392.581 218.996C391.128 218.996 389.945 220.181 389.945 221.638C389.945 222.786 390.679 223.764 391.702 224.128V243.918C390.679 244.282 389.945 245.261 389.945 246.409C389.945 247.865 391.128 249.05 392.581 249.05C393.727 249.05 394.703 248.314 395.066 247.289H414.818C415.181 248.314 416.158 249.05 417.304 249.05C418.757 249.05 419.94 247.865 419.94 246.409C419.94 245.261 419.205 244.282 418.182 243.918ZM392.581 220.757C393.066 220.757 393.46 221.152 393.46 221.638C393.46 222.123 393.066 222.518 392.581 222.518C392.096 222.518 391.702 222.123 391.702 221.638C391.702 221.152 392.096 220.757 392.581 220.757ZM392.581 247.289C392.096 247.289 391.702 246.894 391.702 246.409C391.702 245.923 392.096 245.528 392.581 245.528C393.066 245.528 393.46 245.923 393.46 246.409C393.46 246.894 393.066 247.289 392.581 247.289ZM417.304 247.289C416.819 247.289 416.425 246.894 416.425 246.409C416.425 245.923 416.819 245.528 417.304 245.528C417.788 245.528 418.182 245.923 418.182 246.409C418.182 246.894 417.788 247.289 417.304 247.289Z" fill="#38C37D"/>
<path d="M415.439 219.77L404.637 230.594C404.637 230.594 404.637 230.594 404.637 230.594C404.637 230.594 404.637 230.594 404.637 230.594L402.968 232.266C402.871 232.363 402.798 232.481 402.755 232.61L401.578 236.149L400.482 237.247C400.139 237.591 400.139 238.148 400.482 238.492C400.825 238.836 401.382 238.836 401.725 238.492L402.821 237.394L406.352 236.214C406.482 236.171 406.6 236.098 406.696 236.002L419.167 223.506C420.198 222.474 420.198 220.802 419.167 219.77C418.14 218.74 416.467 218.74 415.439 219.77ZM405.6 234.61L403.736 235.232L404.357 233.364L405.258 232.462L406.501 233.707L405.6 234.61ZM407.744 232.462L406.501 231.216L414.818 222.883L416.06 224.129L407.744 232.462ZM417.925 222.26L417.303 222.883L416.06 221.638L416.682 221.015C417.025 220.672 417.582 220.672 417.925 221.015C418.268 221.36 418.268 221.916 417.925 222.26Z" fill="#38C37D"/>
</g>
<rect x="520.925" y="154.977" width="187.971" height="187.971" rx="19" fill="white" fill-opacity="0.5" stroke="white" stroke-width="2"/>
<g filter="url(#filter2_d)">
<rect x="534.923" y="168.975" width="159.976" height="159.976" rx="15" fill="white"/>
</g>
<path d="M566.79 284.086H568.249C569.228 284.086 569.937 283.904 570.376 283.541C570.815 283.177 571.035 282.638 571.035 281.924C571.035 281.197 570.798 280.676 570.323 280.359C569.849 280.043 569.134 279.885 568.179 279.885H566.79V284.086ZM566.79 285.826V290.959H564.689V278.109H568.319C569.978 278.109 571.205 278.42 572.002 279.041C572.799 279.662 573.197 280.599 573.197 281.853C573.197 283.453 572.365 284.593 570.701 285.272L574.331 290.959H571.94L568.864 285.826H566.79ZM584.175 290.959L582.892 287.39H577.979L576.722 290.959H574.507L579.314 278.056H581.6L586.407 290.959H584.175ZM582.338 285.58L581.134 282.082C581.046 281.847 580.923 281.478 580.765 280.974C580.612 280.47 580.507 280.101 580.448 279.867C580.29 280.588 580.059 281.376 579.754 282.231L578.594 285.58H582.338ZM593.57 279.726C592.363 279.726 591.414 280.154 590.723 281.01C590.031 281.865 589.686 283.046 589.686 284.552C589.686 286.128 590.017 287.32 590.679 288.129C591.347 288.937 592.311 289.342 593.57 289.342C594.115 289.342 594.643 289.289 595.152 289.183C595.662 289.072 596.192 288.931 596.743 288.761V290.563C595.735 290.944 594.593 291.135 593.315 291.135C591.435 291.135 589.99 290.566 588.982 289.429C587.975 288.287 587.471 286.655 587.471 284.534C587.471 283.198 587.714 282.029 588.2 281.027C588.692 280.025 589.401 279.258 590.327 278.724C591.253 278.191 592.34 277.925 593.588 277.925C594.9 277.925 596.113 278.2 597.227 278.751L596.471 280.5C596.037 280.295 595.577 280.116 595.091 279.964C594.61 279.805 594.104 279.726 593.57 279.726ZM599.512 290.959V278.109H601.612V290.959H599.512ZM615.244 290.959L611.518 280.227H611.447C611.547 281.821 611.597 283.315 611.597 284.71V290.959H609.689V278.109H612.651L616.22 288.331H616.272L619.946 278.109H622.917V290.959H620.896V284.604C620.896 283.966 620.91 283.134 620.939 282.108C620.975 281.083 621.004 280.462 621.027 280.245H620.957L617.099 290.959H615.244ZM632.163 290.959L631.75 289.605H631.68C631.211 290.197 630.739 290.601 630.265 290.818C629.79 291.029 629.181 291.135 628.437 291.135C627.481 291.135 626.734 290.877 626.195 290.361C625.662 289.845 625.396 289.116 625.396 288.173C625.396 287.171 625.768 286.415 626.512 285.905C627.256 285.395 628.39 285.117 629.913 285.07L631.592 285.017V284.499C631.592 283.878 631.445 283.415 631.152 283.11C630.865 282.8 630.417 282.644 629.808 282.644C629.31 282.644 628.832 282.718 628.375 282.864C627.918 283.01 627.479 283.183 627.057 283.383L626.389 281.906C626.916 281.631 627.493 281.423 628.12 281.282C628.747 281.135 629.339 281.062 629.896 281.062C631.132 281.062 632.063 281.332 632.69 281.871C633.323 282.41 633.64 283.257 633.64 284.411V290.959H632.163ZM629.087 289.552C629.837 289.552 630.438 289.344 630.889 288.928C631.346 288.507 631.574 287.918 631.574 287.162V286.318L630.326 286.371C629.354 286.406 628.645 286.57 628.199 286.863C627.76 287.15 627.54 287.593 627.54 288.19C627.54 288.624 627.669 288.961 627.927 289.201C628.185 289.435 628.571 289.552 629.087 289.552ZM640.144 289.465C640.647 289.465 641.151 289.385 641.655 289.227V290.783C641.427 290.883 641.131 290.965 640.768 291.029C640.41 291.099 640.038 291.135 639.651 291.135C637.694 291.135 636.716 290.103 636.716 288.041V282.802H635.389V281.888L636.812 281.133L637.516 279.076H638.79V281.238H641.559V282.802H638.79V288.006C638.79 288.504 638.913 288.873 639.159 289.113C639.411 289.347 639.739 289.465 640.144 289.465ZM648.537 281.062C648.953 281.062 649.296 281.092 649.565 281.15L649.363 283.075C649.07 283.005 648.766 282.969 648.449 282.969C647.623 282.969 646.952 283.239 646.437 283.778C645.927 284.317 645.672 285.017 645.672 285.879V290.959H643.606V281.238H645.224L645.496 282.952H645.602C645.924 282.372 646.343 281.912 646.858 281.572C647.38 281.232 647.939 281.062 648.537 281.062ZM653.441 290.959H651.376V281.238H653.441V290.959ZM651.253 278.663C651.253 278.294 651.353 278.01 651.552 277.81C651.757 277.611 652.047 277.511 652.422 277.511C652.785 277.511 653.066 277.611 653.266 277.81C653.471 278.01 653.573 278.294 653.573 278.663C653.573 279.014 653.471 279.293 653.266 279.498C653.066 279.697 652.785 279.797 652.422 279.797C652.047 279.797 651.757 279.697 651.552 279.498C651.353 279.293 651.253 279.014 651.253 278.663ZM658.565 285.993L655.305 281.238H657.66L659.875 284.639L662.107 281.238H664.445L661.176 285.993L664.612 290.959H662.274L659.875 287.32L657.484 290.959H655.146L658.565 285.993Z" fill="#121E31"/>
<rect opacity="0.1" x="585" y="204" width="60" height="60" rx="10" fill="#38C37D"/>
<g clip-path="url(#clip2)">
<path d="M614.518 226.149L612.76 227.028C612.326 227.245 612.15 227.773 612.367 228.207C612.584 228.641 613.112 228.817 613.547 228.6L614.911 227.917L616.276 228.6C616.711 228.817 617.239 228.64 617.455 228.207C617.672 227.773 617.496 227.245 617.062 227.028L615.304 226.149C615.057 226.025 614.766 226.025 614.518 226.149Z" fill="#38C37D"/>
<path d="M629.909 226.936C629.909 226.603 629.722 226.299 629.424 226.149L615.305 219.06C615.057 218.936 614.765 218.936 614.517 219.06L600.398 226.149C600.1 226.299 599.913 226.603 599.913 226.936C599.914 227.269 600.102 227.573 600.4 227.721L605.886 230.453L600.401 233.178C600.102 233.326 599.913 233.631 599.913 233.964C599.913 234.298 600.102 234.603 600.4 234.751L605.886 237.483L600.401 240.208C600.103 240.356 599.914 240.66 599.913 240.993V240.995C599.913 241.327 600.101 241.631 600.398 241.78L614.517 248.869C614.641 248.931 614.776 248.963 614.911 248.963C615.046 248.963 615.181 248.931 615.305 248.869L629.424 241.78C629.721 241.631 629.909 241.327 629.909 240.995C629.909 240.994 629.909 240.994 629.909 240.993C629.908 240.66 629.719 240.356 629.421 240.208L623.935 237.483L629.421 234.751C629.72 234.603 629.909 234.298 629.909 233.964C629.908 233.631 629.719 233.326 629.421 233.178L623.935 230.453L629.421 227.721C629.72 227.573 629.908 227.269 629.909 226.936ZM627.063 240.999L614.911 247.1L602.759 240.999L607.859 238.465L614.519 241.782C614.643 241.843 614.777 241.874 614.911 241.874C615.045 241.874 615.179 241.843 615.303 241.782L621.963 238.465L627.063 240.999ZM627.056 233.966L621.962 236.502L620.367 235.71C619.932 235.494 619.405 235.672 619.189 236.106C618.972 236.543 619.152 237.069 619.585 237.284L619.989 237.485L614.911 240.013L609.833 237.485L610.237 237.284C610.67 237.069 610.849 236.542 610.633 236.106C610.417 235.672 609.889 235.494 609.455 235.71L607.86 236.502L602.765 233.966L607.859 231.435L612.943 233.966L612.76 234.058C612.326 234.275 612.15 234.803 612.367 235.237C612.584 235.671 613.112 235.847 613.546 235.63L614.911 234.947L616.275 235.63C616.71 235.847 617.238 235.67 617.454 235.237C617.671 234.803 617.495 234.275 617.062 234.058L616.879 233.966L621.963 231.435L627.056 233.966ZM621.962 229.472L620.367 228.68C619.932 228.464 619.405 228.642 619.189 229.076C618.972 229.513 619.152 230.039 619.585 230.254L619.989 230.455L614.911 232.983L609.833 230.455L610.237 230.254C610.67 230.039 610.849 229.512 610.633 229.076C610.417 228.642 609.889 228.464 609.455 228.68L607.86 229.472L602.757 226.931L614.911 220.829L627.065 226.931L621.962 229.472Z" fill="#38C37D"/>
</g>
<rect x="46.9968" y="364.945" width="187.971" height="187.971" rx="19" fill="white" fill-opacity="0.5" stroke="white" stroke-width="2"/>
<g filter="url(#filter3_d)">
<rect x="60.9946" y="378.943" width="159.976" height="159.976" rx="15" fill="white"/>
</g>
<path d="M114.351 490.694C113.144 490.694 112.195 491.122 111.504 491.978C110.812 492.833 110.466 494.014 110.466 495.52C110.466 497.096 110.798 498.288 111.46 499.097C112.128 499.905 113.091 500.31 114.351 500.31C114.896 500.31 115.424 500.257 115.933 500.151C116.443 500.04 116.973 499.899 117.524 499.729V501.531C116.516 501.912 115.374 502.103 114.096 502.103C112.215 502.103 110.771 501.534 109.763 500.397C108.756 499.255 108.252 497.623 108.252 495.502C108.252 494.166 108.495 492.997 108.981 491.995C109.473 490.993 110.182 490.226 111.108 489.692C112.034 489.159 113.121 488.893 114.369 488.893C115.681 488.893 116.894 489.168 118.007 489.719L117.252 491.468C116.818 491.263 116.358 491.084 115.872 490.932C115.391 490.773 114.884 490.694 114.351 490.694ZM128.265 501.927H126.19V495.95C126.19 495.2 126.038 494.641 125.733 494.271C125.435 493.902 124.957 493.718 124.301 493.718C123.434 493.718 122.795 493.979 122.385 494.5C121.98 495.016 121.778 495.883 121.778 497.102V501.927H119.713V488.251H121.778V491.723C121.778 492.279 121.743 492.874 121.673 493.507H121.805C122.086 493.038 122.476 492.675 122.974 492.417C123.478 492.159 124.064 492.03 124.731 492.03C127.087 492.03 128.265 493.217 128.265 495.59V501.927ZM136.861 501.927L136.448 500.573H136.377C135.909 501.165 135.437 501.569 134.962 501.786C134.488 501.997 133.878 502.103 133.134 502.103C132.179 502.103 131.432 501.845 130.893 501.329C130.36 500.813 130.093 500.084 130.093 499.141C130.093 498.139 130.465 497.383 131.209 496.873C131.954 496.363 133.087 496.085 134.611 496.038L136.289 495.985V495.467C136.289 494.846 136.143 494.383 135.85 494.078C135.563 493.768 135.115 493.612 134.505 493.612C134.007 493.612 133.53 493.686 133.073 493.832C132.616 493.979 132.176 494.151 131.754 494.351L131.086 492.874C131.614 492.599 132.191 492.391 132.818 492.25C133.445 492.104 134.037 492.03 134.593 492.03C135.829 492.03 136.761 492.3 137.388 492.839C138.021 493.378 138.337 494.225 138.337 495.379V501.927H136.861ZM133.785 500.521C134.535 500.521 135.135 500.312 135.586 499.896C136.043 499.475 136.272 498.886 136.272 498.13V497.286L135.024 497.339C134.051 497.374 133.342 497.538 132.897 497.831C132.457 498.118 132.238 498.561 132.238 499.158C132.238 499.592 132.367 499.929 132.624 500.169C132.882 500.403 133.269 500.521 133.785 500.521ZM149.412 501.927H147.338V495.95C147.338 495.2 147.185 494.641 146.881 494.271C146.582 493.902 146.104 493.718 145.448 493.718C144.575 493.718 143.936 493.976 143.532 494.491C143.128 495.007 142.926 495.871 142.926 497.084V501.927H140.86V492.206H142.477L142.767 493.48H142.873C143.166 493.018 143.582 492.66 144.121 492.408C144.66 492.156 145.258 492.03 145.914 492.03C148.246 492.03 149.412 493.217 149.412 495.59V501.927ZM160.135 492.206V493.34L158.474 493.647C158.626 493.853 158.752 494.104 158.852 494.403C158.951 494.702 159.001 495.019 159.001 495.353C159.001 496.354 158.655 497.143 157.964 497.717C157.273 498.291 156.32 498.578 155.108 498.578C154.797 498.578 154.516 498.555 154.264 498.508C153.818 498.783 153.596 499.105 153.596 499.475C153.596 499.697 153.698 499.864 153.903 499.976C154.114 500.087 154.498 500.143 155.055 500.143H156.751C157.823 500.143 158.638 500.371 159.194 500.828C159.751 501.285 160.029 501.944 160.029 502.806C160.029 503.907 159.575 504.757 158.667 505.354C157.759 505.952 156.446 506.251 154.73 506.251C153.405 506.251 152.395 506.017 151.697 505.548C151 505.079 150.651 504.411 150.651 503.544C150.651 502.946 150.839 502.442 151.214 502.032C151.595 501.628 152.125 501.347 152.805 501.188C152.529 501.071 152.301 500.884 152.119 500.626C151.943 500.362 151.856 500.087 151.856 499.8C151.856 499.437 151.958 499.129 152.163 498.877C152.368 498.625 152.673 498.376 153.077 498.13C152.573 497.913 152.163 497.562 151.847 497.075C151.536 496.583 151.381 496.009 151.381 495.353C151.381 494.298 151.712 493.48 152.374 492.9C153.042 492.32 153.991 492.03 155.222 492.03C155.497 492.03 155.784 492.051 156.083 492.092C156.388 492.127 156.616 492.165 156.769 492.206H160.135ZM152.497 503.438C152.497 503.884 152.696 504.227 153.095 504.467C153.499 504.707 154.065 504.827 154.791 504.827C155.916 504.827 156.754 504.666 157.305 504.344C157.856 504.021 158.131 503.594 158.131 503.061C158.131 502.639 157.979 502.337 157.674 502.155C157.375 501.979 156.816 501.892 155.995 501.892H154.431C153.839 501.892 153.367 502.029 153.016 502.305C152.67 502.586 152.497 502.964 152.497 503.438ZM153.385 495.353C153.385 495.962 153.54 496.431 153.851 496.759C154.167 497.087 154.618 497.251 155.204 497.251C156.4 497.251 156.997 496.612 156.997 495.335C156.997 494.702 156.848 494.216 156.549 493.876C156.256 493.53 155.808 493.357 155.204 493.357C154.607 493.357 154.152 493.527 153.842 493.867C153.537 494.207 153.385 494.702 153.385 495.353ZM165.831 502.103C164.319 502.103 163.135 501.663 162.28 500.784C161.43 499.899 161.005 498.684 161.005 497.137C161.005 495.549 161.401 494.301 162.192 493.393C162.983 492.484 164.07 492.03 165.453 492.03C166.736 492.03 167.749 492.42 168.494 493.199C169.238 493.979 169.61 495.051 169.61 496.416V497.532H163.132C163.162 498.476 163.416 499.202 163.897 499.712C164.377 500.216 165.054 500.468 165.927 500.468C166.501 500.468 167.035 500.415 167.527 500.31C168.025 500.198 168.558 500.017 169.126 499.765V501.443C168.623 501.684 168.113 501.854 167.597 501.953C167.082 502.053 166.493 502.103 165.831 502.103ZM165.453 493.595C164.796 493.595 164.269 493.803 163.871 494.219C163.478 494.635 163.244 495.241 163.167 496.038H167.58C167.568 495.235 167.374 494.629 166.999 494.219C166.624 493.803 166.109 493.595 165.453 493.595ZM100.6 521.927L96.8737 511.195H96.8033C96.903 512.789 96.9528 514.283 96.9528 515.678V521.927H95.0455V509.077H98.0075L101.576 519.299H101.629L105.302 509.077H108.273V521.927H106.252V515.572C106.252 514.934 106.266 514.102 106.296 513.076C106.331 512.051 106.36 511.43 106.383 511.213H106.313L102.455 521.927H100.6ZM119.286 512.206V513.34L117.625 513.647C117.777 513.853 117.903 514.104 118.003 514.403C118.103 514.702 118.152 515.019 118.152 515.353C118.152 516.354 117.807 517.143 117.115 517.717C116.424 518.291 115.472 518.578 114.259 518.578C113.948 518.578 113.667 518.555 113.415 518.508C112.97 518.783 112.747 519.105 112.747 519.475C112.747 519.697 112.85 519.864 113.055 519.976C113.266 520.087 113.649 520.143 114.206 520.143H115.902C116.975 520.143 117.789 520.371 118.346 520.828C118.902 521.285 119.181 521.944 119.181 522.806C119.181 523.907 118.727 524.757 117.818 525.354C116.91 525.952 115.598 526.251 113.881 526.251C112.557 526.251 111.546 526.017 110.849 525.548C110.151 525.079 109.803 524.411 109.803 523.544C109.803 522.946 109.99 522.442 110.365 522.032C110.746 521.628 111.276 521.347 111.956 521.188C111.681 521.071 111.452 520.884 111.27 520.626C111.095 520.362 111.007 520.087 111.007 519.8C111.007 519.437 111.109 519.129 111.314 518.877C111.52 518.625 111.824 518.376 112.229 518.13C111.725 517.913 111.314 517.562 110.998 517.075C110.687 516.583 110.532 516.009 110.532 515.353C110.532 514.298 110.863 513.48 111.525 512.9C112.193 512.32 113.143 512.03 114.373 512.03C114.648 512.03 114.936 512.051 115.234 512.092C115.539 512.127 115.768 512.165 115.92 512.206H119.286ZM111.648 523.438C111.648 523.884 111.848 524.227 112.246 524.467C112.65 524.707 113.216 524.827 113.942 524.827C115.067 524.827 115.905 524.666 116.456 524.344C117.007 524.021 117.282 523.594 117.282 523.061C117.282 522.639 117.13 522.337 116.825 522.155C116.526 521.979 115.967 521.892 115.146 521.892H113.582C112.99 521.892 112.519 522.029 112.167 522.305C111.821 522.586 111.648 522.964 111.648 523.438ZM112.536 515.353C112.536 515.962 112.691 516.431 113.002 516.759C113.318 517.087 113.77 517.251 114.355 517.251C115.551 517.251 116.148 516.612 116.148 515.335C116.148 514.702 115.999 514.216 115.7 513.876C115.407 513.53 114.959 513.357 114.355 513.357C113.758 513.357 113.304 513.527 112.993 513.867C112.688 514.207 112.536 514.702 112.536 515.353ZM128.928 521.927H126.854V515.933C126.854 515.188 126.713 514.635 126.432 514.271C126.151 513.902 125.711 513.718 125.114 513.718C124.317 513.718 123.731 513.979 123.356 514.5C122.987 515.016 122.802 515.877 122.802 517.084V521.927H120.737V512.206H122.354L122.644 513.48H122.749C123.019 513.018 123.409 512.66 123.918 512.408C124.434 512.156 124.999 512.03 125.615 512.03C127.109 512.03 128.099 512.54 128.585 513.56H128.726C129.013 513.079 129.417 512.704 129.939 512.435C130.46 512.165 131.058 512.03 131.732 512.03C132.892 512.03 133.736 512.323 134.263 512.909C134.796 513.495 135.063 514.389 135.063 515.59V521.927H132.997V515.933C132.997 515.188 132.854 514.635 132.567 514.271C132.285 513.902 131.846 513.718 131.248 513.718C130.446 513.718 129.857 513.97 129.482 514.474C129.113 514.972 128.928 515.739 128.928 516.776V521.927ZM141.207 520.433C141.711 520.433 142.215 520.354 142.718 520.195V521.751C142.49 521.851 142.194 521.933 141.831 521.997C141.473 522.067 141.101 522.103 140.715 522.103C138.758 522.103 137.779 521.071 137.779 519.009V513.771H136.452V512.856L137.876 512.101L138.579 510.044H139.853V512.206H142.622V513.771H139.853V518.974C139.853 519.472 139.976 519.841 140.222 520.081C140.474 520.315 140.802 520.433 141.207 520.433ZM144.002 520.828C144.002 520.4 144.113 520.072 144.336 519.844C144.559 519.615 144.881 519.501 145.303 519.501C145.731 519.501 146.056 519.621 146.278 519.861C146.501 520.096 146.612 520.418 146.612 520.828C146.612 521.244 146.498 521.575 146.27 521.821C146.047 522.062 145.725 522.182 145.303 522.182C144.881 522.182 144.559 522.062 144.336 521.821C144.113 521.581 144.002 521.25 144.002 520.828ZM161.95 512.962C161.95 514.304 161.511 515.332 160.632 516.047C159.753 516.762 158.502 517.119 156.879 517.119H155.543V521.927H153.442V509.077H157.142C158.748 509.077 159.949 509.405 160.746 510.062C161.549 510.718 161.95 511.685 161.95 512.962ZM155.543 515.353H156.659C157.737 515.353 158.528 515.165 159.032 514.79C159.536 514.415 159.788 513.829 159.788 513.032C159.788 512.294 159.562 511.743 159.111 511.38C158.66 511.017 157.957 510.835 157.002 510.835H155.543V515.353ZM166.002 521.927H163.937V508.251H166.002V521.927ZM174.686 521.927L174.273 520.573H174.203C173.734 521.165 173.262 521.569 172.788 521.786C172.313 521.997 171.704 522.103 170.959 522.103C170.004 522.103 169.257 521.845 168.718 521.329C168.185 520.813 167.918 520.084 167.918 519.141C167.918 518.139 168.291 517.383 169.035 516.873C169.779 516.363 170.913 516.085 172.436 516.038L174.115 515.985V515.467C174.115 514.846 173.968 514.383 173.675 514.078C173.388 513.768 172.94 513.612 172.331 513.612C171.833 513.612 171.355 513.686 170.898 513.832C170.441 513.979 170.001 514.151 169.58 514.351L168.912 512.874C169.439 512.599 170.016 512.391 170.643 512.25C171.27 512.104 171.862 512.03 172.418 512.03C173.655 512.03 174.586 512.3 175.213 512.839C175.846 513.378 176.163 514.225 176.163 515.379V521.927H174.686ZM171.61 520.521C172.36 520.521 172.96 520.312 173.412 519.896C173.869 519.475 174.097 518.886 174.097 518.13V517.286L172.849 517.339C171.876 517.374 171.167 517.538 170.722 517.831C170.283 518.118 170.063 518.561 170.063 519.158C170.063 519.592 170.192 519.929 170.45 520.169C170.708 520.403 171.094 520.521 171.61 520.521ZM187.237 521.927H185.163V515.95C185.163 515.2 185.011 514.641 184.706 514.271C184.407 513.902 183.93 513.718 183.273 513.718C182.4 513.718 181.762 513.976 181.357 514.491C180.953 515.007 180.751 515.871 180.751 517.084V521.927H178.685V512.206H180.303L180.593 513.48H180.698C180.991 513.018 181.407 512.66 181.946 512.408C182.485 512.156 183.083 512.03 183.739 512.03C186.071 512.03 187.237 513.217 187.237 515.59V521.927Z" fill="#121E31"/>
<rect opacity="0.1" x="111" y="415" width="60" height="60" rx="10" fill="#38C37D"/>
<g clip-path="url(#clip3)">
<path d="M129.559 442.238C131.012 442.238 132.195 441.055 132.195 439.602C132.195 439.422 132.177 439.246 132.142 439.076L135.108 437.297C135.291 437.496 135.492 437.679 135.71 437.843V442.389C135.435 442.291 135.139 442.238 134.831 442.238C133.378 442.238 132.195 443.421 132.195 444.874V450.448C132.195 451.622 132.652 452.725 133.482 453.555C133.941 454.148 135.71 455.19 135.71 457.603V459.052C135.71 459.537 136.103 459.931 136.589 459.931H148.892C149.377 459.931 149.77 459.537 149.77 459.052V457.079C149.77 455.433 150.48 454.226 150.507 454.153C151.175 452.818 151.528 451.323 151.528 449.83V443.117C151.528 441.663 150.345 440.48 148.892 440.48C148.549 440.48 148.221 440.547 147.92 440.667C147.615 439.548 146.591 438.723 145.377 438.723C144.702 438.723 144.086 438.977 143.619 439.396C143.152 438.977 142.536 438.723 141.862 438.723C141.553 438.723 141.258 438.776 140.983 438.874V437.843C141.695 437.307 142.225 436.568 142.508 435.735L149.832 436.65C150.091 437.834 151.147 438.723 152.407 438.723C153.86 438.723 155.043 437.54 155.043 436.086C155.043 434.633 153.86 433.45 152.407 433.45C151.377 433.45 150.484 434.044 150.05 434.906L142.726 433.991C142.553 431.726 140.655 429.935 138.346 429.935C135.924 429.935 133.953 431.906 133.953 434.329C133.953 434.833 134.04 435.326 134.205 435.789L131.237 437.57C130.781 437.192 130.196 436.965 129.559 436.965C128.105 436.965 126.922 438.148 126.922 439.602C126.922 441.055 128.105 442.238 129.559 442.238ZM152.407 435.208C152.891 435.208 153.286 435.602 153.286 436.086C153.286 436.571 152.891 436.965 152.407 436.965C151.922 436.965 151.528 436.571 151.528 436.086C151.528 435.602 151.922 435.208 152.407 435.208ZM141.862 440.48C142.346 440.48 142.74 440.875 142.74 441.359V444.874C142.74 445.36 143.134 445.753 143.619 445.753C144.104 445.753 144.498 445.36 144.498 444.874V441.359C144.498 440.875 144.892 440.48 145.377 440.48C145.861 440.48 146.255 440.875 146.255 441.359V446.632C146.255 447.117 146.649 447.511 147.134 447.511C147.62 447.511 148.013 447.117 148.013 446.632V443.117C148.013 442.632 148.407 442.238 148.892 442.238C149.376 442.238 149.77 442.632 149.77 443.117V449.83C149.77 451.051 149.482 452.274 148.935 453.367C148.893 453.483 148.013 454.941 148.013 457.079V458.173H137.468V457.603C137.468 454.338 135.121 452.84 134.725 452.313C134.227 451.815 133.953 451.153 133.953 450.448V444.874C133.953 444.39 134.347 443.995 134.831 443.995C135.316 443.995 135.71 444.39 135.71 444.874V448.389C135.71 448.875 136.103 449.268 136.589 449.268C137.074 449.268 137.468 448.875 137.468 448.389V436.086C137.468 435.615 137.841 435.23 138.308 435.21L138.607 435.247C138.965 435.358 139.225 435.692 139.225 436.086V444.874C139.225 445.36 139.619 445.753 140.104 445.753C140.589 445.753 140.983 445.36 140.983 444.874V441.359C140.983 440.875 141.377 440.48 141.862 440.48ZM138.346 431.693C139.8 431.693 140.983 432.875 140.983 434.329C140.983 434.632 140.929 434.928 140.831 435.206C140.464 434.175 139.49 433.462 138.372 433.451C138.368 433.451 138.364 433.451 138.359 433.45C138.355 433.45 138.351 433.45 138.346 433.45C137.201 433.45 136.225 434.184 135.862 435.206C135.763 434.928 135.71 434.632 135.71 434.329C135.71 432.875 136.893 431.693 138.346 431.693ZM129.559 438.723C130.043 438.723 130.437 439.117 130.437 439.602C130.437 440.086 130.043 440.48 129.559 440.48C129.074 440.48 128.68 440.086 128.68 439.602C128.68 439.117 129.074 438.723 129.559 438.723Z" fill="#38C37D"/>
</g>
<rect x="255.965" y="364.945" width="187.971" height="187.971" rx="19" fill="white" fill-opacity="0.5" stroke="white" stroke-width="2"/>
<g filter="url(#filter4_d)">
<rect x="269.963" y="378.943" width="159.976" height="159.976" rx="15" fill="white"/>
</g>
<path d="M309.325 495.054H310.784C311.763 495.054 312.472 494.872 312.911 494.509C313.351 494.146 313.57 493.606 313.57 492.892C313.57 492.165 313.333 491.644 312.859 491.327C312.384 491.011 311.669 490.853 310.714 490.853H309.325V495.054ZM309.325 496.794V501.927H307.225V489.077H310.855C312.513 489.077 313.74 489.388 314.537 490.009C315.334 490.63 315.733 491.567 315.733 492.821C315.733 494.421 314.901 495.561 313.236 496.24L316.866 501.927H314.476L311.4 496.794H309.325ZM322.404 502.103C320.892 502.103 319.708 501.663 318.853 500.784C318.003 499.899 317.579 498.684 317.579 497.137C317.579 495.549 317.974 494.301 318.765 493.393C319.556 492.484 320.643 492.03 322.026 492.03C323.309 492.03 324.323 492.42 325.067 493.199C325.811 493.979 326.183 495.051 326.183 496.416V497.532H319.706C319.735 498.476 319.99 499.202 320.47 499.712C320.951 500.216 321.627 500.468 322.5 500.468C323.075 500.468 323.608 500.415 324.1 500.31C324.598 500.198 325.131 500.017 325.7 499.765V501.443C325.196 501.684 324.686 501.854 324.17 501.953C323.655 502.053 323.066 502.103 322.404 502.103ZM322.026 493.595C321.37 493.595 320.842 493.803 320.444 494.219C320.051 494.635 319.817 495.241 319.741 496.038H324.153C324.141 495.235 323.948 494.629 323.573 494.219C323.198 493.803 322.682 493.595 322.026 493.595ZM333.1 502.103C331.87 502.103 330.915 501.66 330.235 500.775H330.112C330.194 501.596 330.235 502.094 330.235 502.27V506.251H328.17V492.206H329.84C329.887 492.388 329.983 492.821 330.13 493.507H330.235C330.88 492.522 331.847 492.03 333.136 492.03C334.348 492.03 335.292 492.47 335.966 493.349C336.645 494.228 336.985 495.461 336.985 497.049C336.985 498.637 336.64 499.876 335.948 500.767C335.263 501.657 334.313 502.103 333.1 502.103ZM332.599 493.718C331.779 493.718 331.179 493.958 330.798 494.438C330.423 494.919 330.235 495.687 330.235 496.741V497.049C330.235 498.232 330.423 499.091 330.798 499.624C331.173 500.151 331.785 500.415 332.635 500.415C333.349 500.415 333.9 500.122 334.287 499.536C334.674 498.95 334.867 498.115 334.867 497.031C334.867 495.941 334.674 495.118 334.287 494.562C333.906 493.999 333.344 493.718 332.599 493.718ZM347.647 497.049C347.647 498.637 347.239 499.876 346.425 500.767C345.611 501.657 344.477 502.103 343.024 502.103C342.115 502.103 341.313 501.897 340.615 501.487C339.918 501.077 339.382 500.488 339.007 499.721C338.632 498.953 338.445 498.062 338.445 497.049C338.445 495.473 338.849 494.242 339.657 493.357C340.466 492.473 341.606 492.03 343.076 492.03C344.483 492.03 345.596 492.484 346.416 493.393C347.237 494.295 347.647 495.514 347.647 497.049ZM340.571 497.049C340.571 499.293 341.401 500.415 343.059 500.415C344.699 500.415 345.52 499.293 345.52 497.049C345.52 494.828 344.694 493.718 343.041 493.718C342.174 493.718 341.544 494.005 341.152 494.579C340.765 495.153 340.571 495.977 340.571 497.049ZM354.599 492.03C355.015 492.03 355.358 492.06 355.628 492.118L355.425 494.043C355.132 493.973 354.828 493.938 354.511 493.938C353.685 493.938 353.014 494.207 352.499 494.746C351.989 495.285 351.734 495.985 351.734 496.847V501.927H349.669V492.206H351.286L351.558 493.92H351.664C351.986 493.34 352.405 492.88 352.92 492.54C353.442 492.2 354.002 492.03 354.599 492.03ZM360.699 500.433C361.203 500.433 361.707 500.354 362.211 500.195V501.751C361.982 501.851 361.686 501.933 361.323 501.997C360.966 502.067 360.594 502.103 360.207 502.103C358.25 502.103 357.271 501.071 357.271 499.009V493.771H355.944V492.856L357.368 492.101L358.071 490.044H359.346V492.206H362.114V493.771H359.346V498.974C359.346 499.472 359.469 499.841 359.715 500.081C359.967 500.315 360.295 500.433 360.699 500.433ZM365.867 501.927H363.802V492.206H365.867V501.927ZM363.679 489.631C363.679 489.262 363.779 488.978 363.978 488.778C364.183 488.579 364.473 488.479 364.848 488.479C365.211 488.479 365.492 488.579 365.692 488.778C365.897 488.978 365.999 489.262 365.999 489.631C365.999 489.982 365.897 490.261 365.692 490.466C365.492 490.665 365.211 490.765 364.848 490.765C364.473 490.765 364.183 490.665 363.978 490.466C363.779 490.261 363.679 489.982 363.679 489.631ZM377.021 501.927H374.947V495.95C374.947 495.2 374.795 494.641 374.49 494.271C374.191 493.902 373.714 493.718 373.057 493.718C372.184 493.718 371.546 493.976 371.141 494.491C370.737 495.007 370.535 495.871 370.535 497.084V501.927H368.469V492.206H370.087L370.377 493.48H370.482C370.775 493.018 371.191 492.66 371.73 492.408C372.269 492.156 372.867 492.03 373.523 492.03C375.855 492.03 377.021 493.217 377.021 495.59V501.927ZM387.744 492.206V493.34L386.083 493.647C386.235 493.853 386.361 494.104 386.461 494.403C386.561 494.702 386.61 495.019 386.61 495.353C386.61 496.354 386.265 497.143 385.573 497.717C384.882 498.291 383.93 498.578 382.717 498.578C382.406 498.578 382.125 498.555 381.873 498.508C381.428 498.783 381.205 499.105 381.205 499.475C381.205 499.697 381.308 499.864 381.513 499.976C381.724 500.087 382.107 500.143 382.664 500.143H384.36C385.433 500.143 386.247 500.371 386.804 500.828C387.36 501.285 387.639 501.944 387.639 502.806C387.639 503.907 387.185 504.757 386.276 505.354C385.368 505.952 384.056 506.251 382.339 506.251C381.015 506.251 380.004 506.017 379.307 505.548C378.609 505.079 378.261 504.411 378.261 503.544C378.261 502.946 378.448 502.442 378.823 502.032C379.204 501.628 379.734 501.347 380.414 501.188C380.139 501.071 379.91 500.884 379.729 500.626C379.553 500.362 379.465 500.087 379.465 499.8C379.465 499.437 379.567 499.129 379.772 498.877C379.978 498.625 380.282 498.376 380.687 498.13C380.183 497.913 379.772 497.562 379.456 497.075C379.146 496.583 378.99 496.009 378.99 495.353C378.99 494.298 379.321 493.48 379.983 492.9C380.651 492.32 381.601 492.03 382.831 492.03C383.106 492.03 383.394 492.051 383.692 492.092C383.997 492.127 384.226 492.165 384.378 492.206H387.744ZM380.106 503.438C380.106 503.884 380.306 504.227 380.704 504.467C381.108 504.707 381.674 504.827 382.4 504.827C383.525 504.827 384.363 504.666 384.914 504.344C385.465 504.021 385.74 503.594 385.74 503.061C385.74 502.639 385.588 502.337 385.283 502.155C384.984 501.979 384.425 501.892 383.605 501.892H382.04C381.448 501.892 380.977 502.029 380.625 502.305C380.279 502.586 380.106 502.964 380.106 503.438ZM380.994 495.353C380.994 495.962 381.149 496.431 381.46 496.759C381.776 497.087 382.228 497.251 382.813 497.251C384.009 497.251 384.606 496.612 384.606 495.335C384.606 494.702 384.457 494.216 384.158 493.876C383.865 493.53 383.417 493.357 382.813 493.357C382.216 493.357 381.762 493.527 381.451 493.867C381.146 494.207 380.994 494.702 380.994 495.353ZM311.193 521.927H309.093V510.879H305.313V509.077H314.972V510.879H311.193V521.927ZM320.615 522.103C319.104 522.103 317.92 521.663 317.065 520.784C316.215 519.899 315.79 518.684 315.79 517.137C315.79 515.549 316.186 514.301 316.977 513.393C317.768 512.484 318.855 512.03 320.237 512.03C321.521 512.03 322.534 512.42 323.278 513.199C324.023 513.979 324.395 515.051 324.395 516.416V517.532H317.917C317.946 518.476 318.201 519.202 318.682 519.712C319.162 520.216 319.839 520.468 320.712 520.468C321.286 520.468 321.82 520.415 322.312 520.31C322.81 520.198 323.343 520.017 323.911 519.765V521.443C323.407 521.684 322.898 521.854 322.382 521.953C321.866 522.053 321.278 522.103 320.615 522.103ZM320.237 513.595C319.581 513.595 319.054 513.803 318.655 514.219C318.263 514.635 318.028 515.241 317.952 516.038H322.364C322.353 515.235 322.159 514.629 321.784 514.219C321.409 513.803 320.894 513.595 320.237 513.595ZM334.573 521.927H332.499V515.933C332.499 515.188 332.358 514.635 332.077 514.271C331.795 513.902 331.356 513.718 330.758 513.718C329.961 513.718 329.376 513.979 329.001 514.5C328.631 515.016 328.447 515.877 328.447 517.084V521.927H326.381V512.206H327.999L328.289 513.48H328.394C328.664 513.018 329.053 512.66 329.563 512.408C330.079 512.156 330.644 512.03 331.259 512.03C332.753 512.03 333.744 512.54 334.23 513.56H334.371C334.658 513.079 335.062 512.704 335.584 512.435C336.105 512.165 336.703 512.03 337.376 512.03C338.537 512.03 339.38 512.323 339.908 512.909C340.441 513.495 340.708 514.389 340.708 515.59V521.927H338.642V515.933C338.642 515.188 338.499 514.635 338.211 514.271C337.93 513.902 337.491 513.718 336.893 513.718C336.09 513.718 335.501 513.97 335.126 514.474C334.757 514.972 334.573 515.739 334.573 516.776V521.927ZM348.161 522.103C346.931 522.103 345.975 521.66 345.296 520.775H345.173C345.255 521.596 345.296 522.094 345.296 522.27V526.251H343.23V512.206H344.9C344.947 512.388 345.044 512.821 345.19 513.507H345.296C345.94 512.522 346.907 512.03 348.196 512.03C349.409 512.03 350.352 512.47 351.026 513.349C351.706 514.228 352.046 515.461 352.046 517.049C352.046 518.637 351.7 519.876 351.009 520.767C350.323 521.657 349.374 522.103 348.161 522.103ZM347.66 513.718C346.84 513.718 346.239 513.958 345.858 514.438C345.483 514.919 345.296 515.687 345.296 516.741V517.049C345.296 518.232 345.483 519.091 345.858 519.624C346.233 520.151 346.846 520.415 347.695 520.415C348.41 520.415 348.961 520.122 349.348 519.536C349.734 518.95 349.928 518.115 349.928 517.031C349.928 515.941 349.734 515.118 349.348 514.562C348.967 513.999 348.404 513.718 347.66 513.718ZM356.151 521.927H354.085V508.251H356.151V521.927ZM364.835 521.927L364.421 520.573H364.351C363.882 521.165 363.411 521.569 362.936 521.786C362.462 521.997 361.852 522.103 361.108 522.103C360.153 522.103 359.406 521.845 358.867 521.329C358.334 520.813 358.067 520.084 358.067 519.141C358.067 518.139 358.439 517.383 359.183 516.873C359.927 516.363 361.061 516.085 362.585 516.038L364.263 515.985V515.467C364.263 514.846 364.117 514.383 363.824 514.078C363.537 513.768 363.088 513.612 362.479 513.612C361.981 513.612 361.504 513.686 361.046 513.832C360.589 513.979 360.15 514.151 359.728 514.351L359.06 512.874C359.588 512.599 360.165 512.391 360.792 512.25C361.419 512.104 362.01 512.03 362.567 512.03C363.803 512.03 364.735 512.3 365.362 512.839C365.995 513.378 366.311 514.225 366.311 515.379V521.927H364.835ZM361.758 520.521C362.508 520.521 363.109 520.312 363.56 519.896C364.017 519.475 364.246 518.886 364.246 518.13V517.286L362.998 517.339C362.025 517.374 361.316 517.538 360.871 517.831C360.431 518.118 360.212 518.561 360.212 519.158C360.212 519.592 360.34 519.929 360.598 520.169C360.856 520.403 361.243 520.521 361.758 520.521ZM372.455 520.433C372.959 520.433 373.463 520.354 373.967 520.195V521.751C373.738 521.851 373.442 521.933 373.079 521.997C372.722 522.067 372.35 522.103 371.963 522.103C370.006 522.103 369.027 521.071 369.027 519.009V513.771H367.7V512.856L369.124 512.101L369.827 510.044H371.102V512.206H373.87V513.771H371.102V518.974C371.102 519.472 371.225 519.841 371.471 520.081C371.723 520.315 372.051 520.433 372.455 520.433ZM379.803 522.103C378.291 522.103 377.108 521.663 376.252 520.784C375.403 519.899 374.978 518.684 374.978 517.137C374.978 515.549 375.373 514.301 376.164 513.393C376.955 512.484 378.042 512.03 379.425 512.03C380.708 512.03 381.722 512.42 382.466 513.199C383.21 513.979 383.582 515.051 383.582 516.416V517.532H377.105C377.134 518.476 377.389 519.202 377.869 519.712C378.35 520.216 379.027 520.468 379.9 520.468C380.474 520.468 381.007 520.415 381.499 520.31C381.997 520.198 382.531 520.017 383.099 519.765V521.443C382.595 521.684 382.085 521.854 381.57 521.953C381.054 522.053 380.465 522.103 379.803 522.103ZM379.425 513.595C378.769 513.595 378.242 513.803 377.843 514.219C377.451 514.635 377.216 515.241 377.14 516.038H381.552C381.54 515.235 381.347 514.629 380.972 514.219C380.597 513.803 380.081 513.595 379.425 513.595ZM392.099 519.158C392.099 520.107 391.754 520.837 391.062 521.347C390.371 521.851 389.381 522.103 388.091 522.103C386.797 522.103 385.757 521.906 384.971 521.514V519.729C386.114 520.257 387.177 520.521 388.162 520.521C389.433 520.521 390.069 520.137 390.069 519.369C390.069 519.123 389.999 518.918 389.858 518.754C389.717 518.59 389.486 518.42 389.164 518.244C388.841 518.068 388.393 517.869 387.819 517.646C386.7 517.213 385.941 516.779 385.543 516.346C385.15 515.912 384.954 515.35 384.954 514.658C384.954 513.826 385.288 513.182 385.956 512.725C386.63 512.262 387.544 512.03 388.698 512.03C389.841 512.03 390.922 512.262 391.941 512.725L391.273 514.28C390.224 513.847 389.342 513.63 388.628 513.63C387.538 513.63 386.993 513.94 386.993 514.562C386.993 514.866 387.133 515.124 387.415 515.335C387.702 515.546 388.323 515.836 389.278 516.205C390.081 516.516 390.664 516.8 391.027 517.058C391.39 517.315 391.66 517.614 391.836 517.954C392.011 518.288 392.099 518.689 392.099 519.158Z" fill="#121E31"/>
<rect opacity="0.1" x="320" y="415" width="60" height="60" rx="10" fill="#38C37D"/>
<g clip-path="url(#clip4)">
<path d="M343.8 440.539V454.599C343.8 455.085 344.193 455.478 344.678 455.478H355.224C355.709 455.478 356.102 455.085 356.102 454.599V444.054C356.102 443.824 356.008 443.596 355.846 443.433C355.845 443.433 355.845 443.433 355.845 443.432L352.33 439.918C352.33 439.917 352.329 439.917 352.329 439.917C352.162 439.75 351.934 439.66 351.709 439.66H344.678C344.193 439.66 343.8 440.054 343.8 440.539ZM352.587 442.661L353.102 443.175H352.587V442.661ZM345.557 441.418H350.83V444.054C350.83 444.539 351.223 444.933 351.709 444.933H354.345V453.721H345.557V441.418Z" fill="#38C37D"/>
<path d="M351.709 450.205H348.193C347.708 450.205 347.314 450.599 347.314 451.084C347.314 451.57 347.708 451.963 348.193 451.963H351.709C352.194 451.963 352.588 451.57 352.588 451.084C352.588 450.599 352.194 450.205 351.709 450.205Z" fill="#38C37D"/>
<path d="M351.709 446.69H348.193C347.708 446.69 347.314 447.084 347.314 447.569C347.314 448.055 347.708 448.448 348.193 448.448H351.709C352.194 448.448 352.588 448.055 352.588 447.569C352.588 447.084 352.194 446.69 351.709 446.69Z" fill="#38C37D"/>
<path d="M362.312 432.63H346.32L345.931 432.047C345.441 431.311 344.621 430.873 343.738 430.873H337.589C336.136 430.873 334.953 432.055 334.953 433.509V456.357C334.953 457.811 336.136 458.993 337.589 458.993H362.312C363.766 458.993 364.949 457.811 364.949 456.357C364.949 455.398 364.949 436.193 364.949 435.266C364.949 433.813 363.766 432.63 362.312 432.63ZM363.191 438.782V456.357C363.191 456.841 362.797 457.236 362.312 457.236H337.589C337.105 457.236 336.711 456.841 336.711 456.357V433.509C336.711 433.024 337.105 432.63 337.589 432.63H343.738C344.032 432.63 344.305 432.776 344.469 433.021C345.21 434.133 346.223 435.653 346.94 436.729C347.431 437.464 348.251 437.903 349.134 437.903H363.191V438.782ZM363.191 436.145H349.134C348.839 436.145 348.566 435.999 348.403 435.754L347.492 434.388H362.312C362.797 434.388 363.191 434.782 363.191 435.266V436.145Z" fill="#38C37D"/>
</g>
<rect x="465.934" y="364.945" width="187.971" height="187.971" rx="19" fill="white" fill-opacity="0.5" stroke="white" stroke-width="2"/>
<g filter="url(#filter5_d)">
<rect x="479.931" y="378.943" width="159.976" height="159.976" rx="15" fill="white"/>
</g>
<path d="M508.372 495.484C508.372 497.576 507.848 499.202 506.799 500.362C505.756 501.522 504.276 502.103 502.36 502.103C500.421 502.103 498.93 501.528 497.887 500.38C496.85 499.226 496.331 497.588 496.331 495.467C496.331 493.346 496.853 491.717 497.896 490.58C498.944 489.443 500.438 488.875 502.378 488.875C504.288 488.875 505.765 489.452 506.808 490.606C507.851 491.761 508.372 493.387 508.372 495.484ZM498.563 495.484C498.563 497.066 498.883 498.268 499.521 499.088C500.16 499.902 501.106 500.31 502.36 500.31C503.608 500.31 504.549 499.905 505.182 499.097C505.82 498.288 506.14 497.084 506.14 495.484C506.14 493.908 505.823 492.713 505.19 491.898C504.563 491.084 503.626 490.677 502.378 490.677C501.118 490.677 500.166 491.084 499.521 491.898C498.883 492.713 498.563 493.908 498.563 495.484ZM515.843 502.103C514.612 502.103 513.657 501.66 512.978 500.775H512.854C512.937 501.596 512.978 502.094 512.978 502.27V506.251H510.912V492.206H512.582C512.629 492.388 512.726 492.821 512.872 493.507H512.978C513.622 492.522 514.589 492.03 515.878 492.03C517.091 492.03 518.034 492.47 518.708 493.349C519.388 494.228 519.728 495.461 519.728 497.049C519.728 498.637 519.382 499.876 518.69 500.767C518.005 501.657 517.056 502.103 515.843 502.103ZM515.342 493.718C514.521 493.718 513.921 493.958 513.54 494.438C513.165 494.919 512.978 495.687 512.978 496.741V497.049C512.978 498.232 513.165 499.091 513.54 499.624C513.915 500.151 514.527 500.415 515.377 500.415C516.092 500.415 516.643 500.122 517.029 499.536C517.416 498.95 517.609 498.115 517.609 497.031C517.609 495.941 517.416 495.118 517.029 494.562C516.648 493.999 516.086 493.718 515.342 493.718ZM528.657 499.158C528.657 500.107 528.312 500.837 527.62 501.347C526.929 501.851 525.938 502.103 524.649 502.103C523.354 502.103 522.314 501.906 521.529 501.514V499.729C522.672 500.257 523.735 500.521 524.72 500.521C525.991 500.521 526.627 500.137 526.627 499.369C526.627 499.123 526.557 498.918 526.416 498.754C526.275 498.59 526.044 498.42 525.722 498.244C525.399 498.068 524.951 497.869 524.377 497.646C523.258 497.213 522.499 496.779 522.101 496.346C521.708 495.912 521.512 495.35 521.512 494.658C521.512 493.826 521.846 493.182 522.514 492.725C523.188 492.262 524.102 492.03 525.256 492.03C526.398 492.03 527.479 492.262 528.499 492.725L527.831 494.28C526.782 493.847 525.9 493.63 525.186 493.63C524.096 493.63 523.551 493.94 523.551 494.562C523.551 494.866 523.691 495.124 523.973 495.335C524.26 495.546 524.881 495.836 525.836 496.205C526.639 496.516 527.222 496.8 527.585 497.058C527.948 497.315 528.218 497.614 528.394 497.954C528.569 498.288 528.657 498.689 528.657 499.158ZM544.302 492.962C544.302 494.304 543.862 495.332 542.983 496.047C542.104 496.762 540.854 497.119 539.23 497.119H537.895V501.927H535.794V489.077H539.494C541.1 489.077 542.301 489.405 543.098 490.062C543.9 490.718 544.302 491.685 544.302 492.962ZM537.895 495.353H539.011C540.089 495.353 540.88 495.165 541.384 494.79C541.888 494.415 542.14 493.829 542.14 493.032C542.14 492.294 541.914 491.743 541.463 491.38C541.012 491.017 540.309 490.835 539.354 490.835H537.895V495.353ZM548.714 501.927H546.648V488.251H548.714V501.927ZM557.758 501.927L557.345 500.573H557.274C556.806 501.165 556.334 501.569 555.859 501.786C555.385 501.997 554.775 502.103 554.031 502.103C553.076 502.103 552.329 501.845 551.79 501.329C551.257 500.813 550.99 500.084 550.99 499.141C550.99 498.139 551.362 497.383 552.106 496.873C552.851 496.363 553.984 496.085 555.508 496.038L557.187 495.985V495.467C557.187 494.846 557.04 494.383 556.747 494.078C556.46 493.768 556.012 493.612 555.402 493.612C554.904 493.612 554.427 493.686 553.97 493.832C553.513 493.979 553.073 494.151 552.651 494.351L551.983 492.874C552.511 492.599 553.088 492.391 553.715 492.25C554.342 492.104 554.934 492.03 555.49 492.03C556.727 492.03 557.658 492.3 558.285 492.839C558.918 493.378 559.234 494.225 559.234 495.379V501.927H557.758ZM554.682 500.521C555.432 500.521 556.032 500.312 556.483 499.896C556.94 499.475 557.169 498.886 557.169 498.13V497.286L555.921 497.339C554.948 497.374 554.239 497.538 553.794 497.831C553.354 498.118 553.135 498.561 553.135 499.158C553.135 499.592 553.264 499.929 553.521 500.169C553.779 500.403 554.166 500.521 554.682 500.521ZM560.641 492.206H562.891L564.868 497.717C565.167 498.502 565.366 499.24 565.466 499.932H565.536C565.589 499.609 565.686 499.22 565.826 498.763C565.967 498.3 566.711 496.114 568.059 492.206H570.291L566.134 503.219C565.378 505.24 564.118 506.251 562.354 506.251C561.897 506.251 561.452 506.201 561.019 506.102V504.467C561.329 504.537 561.684 504.572 562.082 504.572C563.078 504.572 563.778 503.995 564.183 502.841L564.543 501.927L560.641 492.206ZM576.733 492.03C577.946 492.03 578.89 492.47 579.563 493.349C580.243 494.228 580.583 495.461 580.583 497.049C580.583 498.643 580.24 499.885 579.555 500.775C578.869 501.66 577.917 502.103 576.698 502.103C575.468 502.103 574.513 501.66 573.833 500.775H573.692L573.314 501.927H571.768V488.251H573.833V491.503C573.833 491.743 573.821 492.101 573.798 492.575C573.774 493.05 573.757 493.352 573.745 493.48H573.833C574.489 492.514 575.456 492.03 576.733 492.03ZM576.197 493.718C575.365 493.718 574.765 493.964 574.396 494.456C574.032 494.942 573.845 495.76 573.833 496.908V497.049C573.833 498.232 574.021 499.091 574.396 499.624C574.771 500.151 575.383 500.415 576.232 500.415C576.965 500.415 577.519 500.125 577.894 499.545C578.274 498.965 578.465 498.127 578.465 497.031C578.465 494.822 577.709 493.718 576.197 493.718ZM591.604 497.049C591.604 498.637 591.197 499.876 590.383 500.767C589.568 501.657 588.435 502.103 586.981 502.103C586.073 502.103 585.271 501.897 584.573 501.487C583.876 501.077 583.34 500.488 582.965 499.721C582.59 498.953 582.402 498.062 582.402 497.049C582.402 495.473 582.807 494.242 583.615 493.357C584.424 492.473 585.563 492.03 587.034 492.03C588.44 492.03 589.554 492.484 590.374 493.393C591.194 494.295 591.604 495.514 591.604 497.049ZM584.529 497.049C584.529 499.293 585.358 500.415 587.017 500.415C588.657 500.415 589.478 499.293 589.478 497.049C589.478 494.828 588.651 493.718 586.999 493.718C586.132 493.718 585.502 494.005 585.109 494.579C584.723 495.153 584.529 495.977 584.529 497.049ZM602.608 497.049C602.608 498.637 602.201 499.876 601.387 500.767C600.572 501.657 599.438 502.103 597.985 502.103C597.077 502.103 596.274 501.897 595.577 501.487C594.88 501.077 594.344 500.488 593.969 499.721C593.594 498.953 593.406 498.062 593.406 497.049C593.406 495.473 593.811 494.242 594.619 493.357C595.428 492.473 596.567 492.03 598.038 492.03C599.444 492.03 600.558 492.484 601.378 493.393C602.198 494.295 602.608 495.514 602.608 497.049ZM595.533 497.049C595.533 499.293 596.362 500.415 598.021 500.415C599.661 500.415 600.481 499.293 600.481 497.049C600.481 494.828 599.655 493.718 598.003 493.718C597.136 493.718 596.506 494.005 596.113 494.579C595.727 495.153 595.533 495.977 595.533 497.049ZM606.985 496.794L608.154 495.335L611.09 492.206H613.472L609.561 496.381L613.718 501.927H611.292L608.172 497.664L607.038 498.596V501.927H604.99V488.251H607.038V494.922L606.933 496.794H606.985ZM621.821 499.158C621.821 500.107 621.476 500.837 620.784 501.347C620.093 501.851 619.103 502.103 617.813 502.103C616.519 502.103 615.479 501.906 614.693 501.514V499.729C615.836 500.257 616.899 500.521 617.884 500.521C619.155 500.521 619.791 500.137 619.791 499.369C619.791 499.123 619.721 498.918 619.58 498.754C619.439 498.59 619.208 498.42 618.886 498.244C618.563 498.068 618.115 497.869 617.541 497.646C616.422 497.213 615.663 496.779 615.265 496.346C614.872 495.912 614.676 495.35 614.676 494.658C614.676 493.826 615.01 493.182 615.678 492.725C616.352 492.262 617.266 492.03 618.42 492.03C619.562 492.03 620.644 492.262 621.663 492.725L620.995 494.28C619.946 493.847 619.064 493.63 618.35 493.63C617.26 493.63 616.715 493.94 616.715 494.562C616.715 494.866 616.855 495.124 617.137 495.335C617.424 495.546 618.045 495.836 619 496.205C619.803 496.516 620.386 496.8 620.749 497.058C621.112 497.315 621.382 497.614 621.558 497.954C621.733 498.288 621.821 498.689 621.821 499.158Z" fill="#121E31"/>
<rect opacity="0.1" x="532" y="415" width="60" height="60" rx="10" fill="#38C37D"/>
<g clip-path="url(#clip5)">
<path d="M576.038 450.206H575.159V435.267C575.159 433.813 573.976 432.63 572.523 432.63H551.315C549.861 432.63 548.685 433.813 548.685 435.267V450.206H547.806C547.32 450.206 546.921 450.599 546.921 451.085V452.842C546.921 455.265 548.892 457.236 551.315 457.236H572.523C574.946 457.236 576.917 455.265 576.917 452.842V451.085C576.917 450.599 576.523 450.206 576.038 450.206ZM550.436 435.267C550.436 434.782 550.831 434.388 551.315 434.388H572.523C573.007 434.388 573.407 434.782 573.407 435.267V450.206H567.25C566.765 450.206 566.377 450.599 566.377 451.085V451.086V451.963H557.466V451.085C557.466 450.599 557.073 450.206 556.588 450.206H550.436V435.267ZM575.165 452.842C575.165 454.296 573.976 455.478 572.523 455.478H551.315C549.861 455.478 548.679 454.296 548.679 452.842V451.963H555.715V452.842C555.715 453.328 556.102 453.721 556.588 453.721H567.25C567.735 453.721 568.129 453.328 568.129 452.842V451.963H575.165V452.842Z" fill="#38C37D"/>
</g>
<defs>
<filter id="filter0_d" x="54.9866" y="118.975" width="279.976" height="279.976" filterUnits="userSpaceOnUse" color-interpolation-filters="sRGB">
<feFlood flood-opacity="0" result="BackgroundImageFix"/>
<feColorMatrix in="SourceAlpha" type="matrix" values="0 0 0 0 0 0 0 0 0 0 0 0 0 0 0 0 0 0 127 0"/>
<feOffset dy="10"/>
<feGaussianBlur stdDeviation="30"/>
<feColorMatrix type="matrix" values="0 0 0 0 0 0 0 0 0 0.483333 0 0 0 0 0.206396 0 0 0 0.1 0"/>
<feBlend mode="normal" in2="BackgroundImageFix" result="effect1_dropShadow"/>
<feBlend mode="normal" in="SourceGraphic" in2="effect1_dropShadow" result="shape"/>
</filter>
<filter id="filter1_d" x="264.955" y="118.975" width="279.976" height="279.976" filterUnits="userSpaceOnUse" color-interpolation-filters="sRGB">
<feFlood flood-opacity="0" result="BackgroundImageFix"/>
<feColorMatrix in="SourceAlpha" type="matrix" values="0 0 0 0 0 0 0 0 0 0 0 0 0 0 0 0 0 0 127 0"/>
<feOffset dy="10"/>
<feGaussianBlur stdDeviation="30"/>
<feColorMatrix type="matrix" values="0 0 0 0 0 0 0 0 0 0.483333 0 0 0 0 0.206396 0 0 0 0.1 0"/>
<feBlend mode="normal" in2="BackgroundImageFix" result="effect1_dropShadow"/>
<feBlend mode="normal" in="SourceGraphic" in2="effect1_dropShadow" result="shape"/>
</filter>
<filter id="filter2_d" x="474.923" y="118.975" width="279.976" height="279.976" filterUnits="userSpaceOnUse" color-interpolation-filters="sRGB">
<feFlood flood-opacity="0" result="BackgroundImageFix"/>
<feColorMatrix in="SourceAlpha" type="matrix" values="0 0 0 0 0 0 0 0 0 0 0 0 0 0 0 0 0 0 127 0"/>
<feOffset dy="10"/>
<feGaussianBlur stdDeviation="30"/>
<feColorMatrix type="matrix" values="0 0 0 0 0 0 0 0 0 0.483333 0 0 0 0 0.206396 0 0 0 0.1 0"/>
<feBlend mode="normal" in2="BackgroundImageFix" result="effect1_dropShadow"/>
<feBlend mode="normal" in="SourceGraphic" in2="effect1_dropShadow" result="shape"/>
</filter>
<filter id="filter3_d" x="0.994629" y="328.943" width="279.976" height="279.976" filterUnits="userSpaceOnUse" color-interpolation-filters="sRGB">
<feFlood flood-opacity="0" result="BackgroundImageFix"/>
<feColorMatrix in="SourceAlpha" type="matrix" values="0 0 0 0 0 0 0 0 0 0 0 0 0 0 0 0 0 0 127 0"/>
<feOffset dy="10"/>
<feGaussianBlur stdDeviation="30"/>
<feColorMatrix type="matrix" values="0 0 0 0 0 0 0 0 0 0.483333 0 0 0 0 0.206396 0 0 0 0.1 0"/>
<feBlend mode="normal" in2="BackgroundImageFix" result="effect1_dropShadow"/>
<feBlend mode="normal" in="SourceGraphic" in2="effect1_dropShadow" result="shape"/>
</filter>
<filter id="filter4_d" x="209.963" y="328.943" width="279.976" height="279.976" filterUnits="userSpaceOnUse" color-interpolation-filters="sRGB">
<feFlood flood-opacity="0" result="BackgroundImageFix"/>
<feColorMatrix in="SourceAlpha" type="matrix" values="0 0 0 0 0 0 0 0 0 0 0 0 0 0 0 0 0 0 127 0"/>
<feOffset dy="10"/>
<feGaussianBlur stdDeviation="30"/>
<feColorMatrix type="matrix" values="0 0 0 0 0 0 0 0 0 0.483333 0 0 0 0 0.206396 0 0 0 0.1 0"/>
<feBlend mode="normal" in2="BackgroundImageFix" result="effect1_dropShadow"/>
<feBlend mode="normal" in="SourceGraphic" in2="effect1_dropShadow" result="shape"/>
</filter>
<filter id="filter5_d" x="419.931" y="328.943" width="279.976" height="279.976" filterUnits="userSpaceOnUse" color-interpolation-filters="sRGB">
<feFlood flood-opacity="0" result="BackgroundImageFix"/>
<feColorMatrix in="SourceAlpha" type="matrix" values="0 0 0 0 0 0 0 0 0 0 0 0 0 0 0 0 0 0 127 0"/>
<feOffset dy="10"/>
<feGaussianBlur stdDeviation="30"/>
<feColorMatrix type="matrix" values="0 0 0 0 0 0 0 0 0 0.483333 0 0 0 0 0.206396 0 0 0 0.1 0"/>
<feBlend mode="normal" in2="BackgroundImageFix" result="effect1_dropShadow"/>
<feBlend mode="normal" in="SourceGraphic" in2="effect1_dropShadow" result="shape"/>
</filter>
<linearGradient id="paint0_linear" x1="562.391" y1="-401.321" x2="260.389" y2="559.836" gradientUnits="userSpaceOnUse">
<stop stop-color="#4097D9"/>
<stop offset="0.442646" stop-color="#30C4A0" stop-opacity="0.3"/>
<stop offset="1" stop-color="#00B94F" stop-opacity="0"/>
</linearGradient>
<clipPath id="clip0">
<rect width="29.9955" height="29.9955" fill="white" transform="translate(179.977 219.967)"/>
</clipPath>
<clipPath id="clip1">
<rect width="29.9955" height="29.9955" fill="white" transform="translate(389.945 218.967)"/>
</clipPath>
<clipPath id="clip2">
<rect width="29.9955" height="29.9955" fill="white" transform="translate(599.913 218.967)"/>
</clipPath>
<clipPath id="clip3">
<rect width="29.9955" height="29.9955" fill="white" transform="translate(125.985 429.935)"/>
</clipPath>
<clipPath id="clip4">
<rect width="29.9955" height="29.9955" fill="white" transform="translate(334.953 429.935)"/>
</clipPath>
<clipPath id="clip5">
<rect width="29.9954" height="29.9955" fill="white" transform="translate(546.921 429.935)"/>
</clipPath>
</defs>
</svg>
