<svg width="1140" height="518" viewBox="0 0 1140 518" fill="none" xmlns="http://www.w3.org/2000/svg">
<mask id="mask0" mask-type="alpha" maskUnits="userSpaceOnUse" x="0" y="0" width="1140" height="518">
<rect width="1140" height="518" rx="10" fill="#4097D9"/>
</mask>
<g mask="url(#mask0)">
<g opacity="0.1">
<path d="M-106.86 445.448C-103.135 437.595 -98.7053 430.044 -93.3693 422.594C-82.9993 408.297 -69.8102 395.612 -57.0238 383.329C-38.3981 365.408 -19.1682 346.984 -7.69081 322.921C-3.66359 314.464 -0.945326 305.202 1.57164 296.241C4.29003 286.777 6.9077 277.817 10.9349 269.662C11.7403 268.051 12.6465 266.44 13.4519 264.93C14.9621 262.211 16.5729 259.292 17.8817 256.171C22.4123 244.894 21.3049 233.316 20.0968 221.033C19.6941 217.409 19.392 213.684 19.1907 209.959C18.7878 202.408 19.1907 195.863 20.6001 189.823C25.3321 168.881 42.951 153.578 57.8516 146.329C67.5168 141.597 78.491 138.375 93.4922 135.657C96.0093 135.254 98.5262 134.852 101.043 134.449C105.272 133.744 109.5 133.039 113.729 132.234C129.435 129.113 143.832 124.28 157.122 119.548L158.431 119.146C161.954 117.937 165.478 116.629 169.103 115.42C175.043 113.508 180.983 111.796 186.722 110.286C190.044 109.38 193.467 108.474 196.689 107.467C220.651 100.621 243.203 91.9621 264.95 83.505L272.5 80.5853C316.296 63.7718 348.816 56.1202 395.43 63.9732C440.938 71.6248 488.257 73.135 536.08 68.4031C583.802 63.6711 631.524 54.1066 677.837 39.7094C691.428 35.4809 705.322 30.7489 718.713 26.2183C747.708 16.3517 777.812 6.18309 807.21 0.24299C830.568 -4.48895 848.69 -5.39507 865.906 -2.67672C907.286 3.76678 938.094 34.0713 962.659 62.8657C976.553 79.1758 990.044 96.6941 1003.13 113.709C1029.31 147.839 1056.39 183.077 1087.9 209.858C1089.92 211.57 1092.03 213.281 1094.05 214.993L1095.05 215.798C1101.3 220.933 1107.64 225.866 1113.68 230.598C1150.02 259.09 1181.44 283.555 1192.11 332.284C1198.45 361.381 1193.62 392.39 1188.99 422.292C1187.48 432.259 1185.77 442.529 1184.66 452.597C1180.33 490.452 1182.44 528.308 1191 565.156C1195.73 585.494 1201.47 600.797 1209.12 613.382C1218.49 628.786 1231.17 640.867 1245.67 653.956L1247.78 655.869C1254.63 662.111 1261.78 668.554 1268.32 675.401C1289.97 698.053 1318.76 738.728 1332.76 804.17C1338.7 831.454 1341.62 860.651 1341.82 893.573C1341.92 912.098 1341.11 931.026 1340.31 949.35L1340.21 950.961C1339.5 967.976 1338.6 989.118 1336.28 1008.55C1334.87 1020.73 1332.56 1033.32 1329.54 1045.9C1323.19 1071.68 1304.37 1095.54 1279.2 1109.73C1275.17 1112.05 1270.94 1114.36 1266.61 1116.58C1206.71 1147.99 1145.29 1166.21 1084.18 1170.85C1029.01 1174.97 973.633 1167.62 919.971 1160.58C887.955 1156.35 854.932 1152.02 822.211 1150.11C795.229 1148.49 765.428 1148.39 728.479 1149.8C724.451 1149.9 720.424 1150.1 716.498 1150.31C680.555 1151.72 643.505 1153.23 608.267 1145.17C606.153 1144.67 603.938 1144.16 601.824 1143.56C556.719 1131.78 517.857 1105.3 480.303 1079.73C441.24 1053.05 400.766 1025.56 362.911 995.763C354.756 989.32 346.5 982.775 338.647 976.332C336.231 974.419 333.915 972.506 331.499 970.593C322.84 963.646 312.672 955.189 303.308 946.027C288.408 931.328 279.85 918.24 276.427 904.648C274.212 895.889 274.212 887.432 274.212 879.176C274.212 868.101 274.212 857.731 269.178 846.959C262.533 832.561 247.935 822.393 234.645 814.338C207.361 797.827 177.962 784.135 149.47 771.046C135.979 764.804 121.984 758.36 108.292 751.615C74.1617 734.801 40.6353 715.471 8.71994 694.328C-16.148 677.817 -44.741 657.278 -67.696 630.095C-103.135 588.413 -122.768 535.254 -118.942 491.157C-117.532 474.746 -113.505 459.644 -106.86 445.448ZM-6.58339 322.72C-6.6841 322.921 -6.7848 323.122 -6.88539 323.324C-18.4636 347.588 -37.7941 366.113 -56.4198 384.034C-69.2061 396.317 -82.3952 409.002 -92.6644 423.097C-107.666 443.737 -115.922 465.987 -118.036 491.056C-121.862 534.852 -102.229 587.91 -66.9911 629.289C-44.0362 656.372 -15.6446 676.911 9.22324 693.321C41.0381 714.464 74.5644 733.694 108.695 750.608C122.287 757.354 136.281 763.797 149.772 770.039C178.264 783.228 207.764 796.82 235.048 813.432C248.539 821.587 263.238 831.957 269.983 846.455C275.018 857.329 275.017 867.9 275.118 879.075C275.118 887.23 275.118 895.688 277.333 904.346C280.756 917.636 289.213 930.724 303.913 945.222C313.175 954.384 323.344 962.74 332.002 969.788C334.418 971.701 336.734 973.614 339.15 975.526C347.104 981.869 355.259 988.514 363.414 994.958C401.169 1024.76 441.642 1052.24 480.706 1078.92C518.259 1104.4 557.021 1130.77 601.924 1142.55C604.038 1143.06 606.153 1143.66 608.368 1144.16C643.505 1152.12 680.555 1150.71 716.397 1149.3C720.424 1149.1 724.451 1149 728.378 1148.8C765.327 1147.49 795.128 1147.59 822.211 1149.1C854.932 1151.01 888.056 1155.34 920.072 1159.57C973.633 1166.62 1029.01 1173.97 1084.08 1169.84C1145.09 1165.31 1206.4 1147.08 1266.21 1115.67C1270.54 1113.36 1274.77 1111.14 1278.79 1108.83C1303.76 1094.83 1322.39 1071.17 1328.63 1045.6C1331.65 1033.12 1333.97 1020.63 1335.38 1008.35C1337.59 988.917 1338.5 967.875 1339.2 950.86L1339.3 949.249C1340.11 930.925 1340.91 911.998 1340.81 893.473C1340.61 860.651 1337.69 831.555 1331.75 804.271C1324 768.328 1306.68 716.78 1267.52 676.005C1260.97 669.158 1253.93 662.715 1247.08 656.473L1244.97 654.56C1230.47 641.471 1217.78 629.289 1208.32 613.785C1200.57 601.099 1194.83 585.695 1190.09 565.257C1181.54 528.308 1179.42 490.351 1183.75 452.395C1184.86 442.327 1186.57 432.058 1188.08 422.091C1192.71 392.289 1197.54 361.381 1191.2 332.385L1191.6 332.284L1191.2 332.385C1180.73 284.16 1149.42 259.694 1113.28 231.303C1107.24 226.571 1100.89 221.638 1094.65 216.503L1093.64 215.697C1091.63 214.087 1089.52 212.274 1087.5 210.563C1055.89 183.681 1028.81 148.343 1002.53 114.212C989.44 97.1975 975.949 79.6792 962.055 63.3691C937.59 34.6754 906.984 4.57221 865.806 -1.87129C848.69 -4.48896 830.668 -3.58284 807.411 1.04842C778.013 6.98852 748.01 17.1572 719.015 27.0238C705.624 31.5543 691.731 36.2863 678.038 40.5148C631.625 54.912 583.802 64.5773 536.08 69.2085C488.257 73.8398 440.837 72.3296 395.229 64.6779C348.916 56.9256 316.498 64.4766 272.803 81.2901L265.252 84.2098C243.505 92.5662 220.953 101.225 197.091 108.272C193.769 109.279 190.346 110.185 187.124 111.091C181.385 112.702 175.445 114.313 169.505 116.226C165.881 117.434 162.357 118.642 158.833 119.85L157.524 120.253C144.134 124.985 129.838 129.818 114.031 132.939C109.802 133.744 105.473 134.449 101.245 135.154C98.7275 135.556 96.2106 135.959 93.6935 136.362C78.793 138.979 67.9195 142.201 58.2544 146.933C46.1728 152.873 32.279 164.049 25.1307 179.251C23.6206 182.574 22.3118 186.098 21.5063 189.823C20.1975 195.763 19.6941 202.206 20.0968 209.657C20.2981 213.382 20.7008 217.107 21.0029 220.731C22.211 233.115 23.4192 244.794 18.7878 256.271C17.479 259.493 15.8682 262.312 14.3579 265.131C13.5525 266.641 12.6464 268.252 11.8409 269.863C7.81371 277.817 5.19615 286.777 2.57848 296.241C-0.0391981 305.302 -2.65687 314.363 -6.58339 322.72Z" fill="white"/>
<path d="M-62.2592 463.369C-61.0509 460.752 -59.6414 458.335 -58.0305 456.02C-46.7544 439.307 -27.9274 430.85 -11.0132 424.708C-6.88527 423.198 -2.55605 421.789 1.57176 420.379C22.5132 413.332 42.347 406.687 54.7307 390.075C60.6708 382.02 64.7986 372.053 68.6244 362.388C71.8462 354.535 75.068 346.38 79.3972 339.433C80.8068 337.117 82.3169 335.103 83.9277 333.291C85.3373 331.68 86.8474 330.271 88.3575 328.962C90.9752 326.546 93.4922 324.23 95.4051 321.109C100.238 313.155 98.9291 304.799 97.0161 296.845C95.808 291.711 94.197 286.979 92.5862 281.945C91.68 279.327 90.774 276.709 89.9685 273.89C87.8542 266.843 85.7399 258.486 86.8474 249.828C88.1562 239.256 94.2977 229.793 104.265 223.148C114.232 216.503 127.824 212.778 140.711 213.281C148.665 213.583 156.82 214.791 164.773 215.899C171.418 216.906 178.365 217.912 185.01 218.315C194.675 218.919 202.528 218.315 209.777 216.201C221.154 212.979 230.719 206.334 240.887 199.387C246.123 195.763 251.559 192.038 257.197 188.816C261.325 186.5 265.151 184.688 268.876 183.279C280.052 179.151 292.033 178.748 302.302 178.748C337.54 179.05 373.382 185.997 408.015 192.642C455.536 201.804 504.668 211.268 553.397 204.119C592.158 198.481 627.9 182.977 657.802 168.479C660.117 167.371 662.433 166.264 664.748 165.056C666.259 164.25 667.87 163.545 669.38 162.74C690.019 152.571 711.766 140.59 734.821 127.905C772.476 107.165 811.439 85.6194 849.194 70.5175C861.678 65.4835 876.478 60.7516 891.882 63.3692C920.978 68.3025 936.785 97.701 950.779 123.576L952.793 127.301C954.605 130.523 956.317 133.744 958.028 136.865L959.74 139.986C963.062 146.229 966.586 152.672 969.808 159.216C985.715 191.333 995.984 227.175 1005.05 258.688C1005.85 261.406 1006.66 264.124 1007.36 266.843C1010.78 278.824 1014.41 291.207 1018.23 303.289C1023.97 321.109 1027.8 338.728 1030.92 360.475C1034.34 384.537 1036.26 409.103 1037.67 445.146C1038.07 456.322 1038.97 467.397 1039.68 476.76C1049.65 598.582 1075.72 655.466 1097.37 691.509C1107.94 709.229 1120.63 726.042 1132.91 742.252C1143.88 756.85 1155.26 771.852 1165.03 787.457C1180.03 811.217 1192.01 836.79 1201.77 865.383C1205.1 875.25 1208.22 885.318 1211.14 895.083C1216.47 912.904 1222.11 931.227 1229.56 948.544C1233.79 958.411 1238.62 967.371 1243.86 975.426C1251.11 986.501 1253.72 999.992 1251.11 1013.38C1248.69 1026.17 1241.74 1037.44 1232.08 1044.19L1230.67 1045.2C1225.33 1048.92 1219.9 1052.75 1214.56 1056.37C1192.61 1071.37 1167.64 1088.49 1146.5 1096.95C1127.37 1106.01 1101.8 1107.72 1088.31 1107.92C1036.56 1108.62 984.406 1099.56 933.966 1090.8C871.846 1080.03 807.613 1068.86 744.587 1076.21C742.07 1076.51 739.453 1076.81 736.835 1077.21C731.7 1077.92 726.364 1078.72 721.23 1079.63C713.175 1080.94 704.92 1082.25 696.563 1083.15C667.165 1086.48 641.693 1084.46 618.738 1077.01C592.058 1068.45 568.499 1052.24 546.752 1036.34C530.845 1024.76 515.239 1013.28 500.339 999.992C473.558 976.131 446.173 945.826 418.889 910.185C414.459 904.346 410.532 899.01 406.807 893.976C402.176 887.532 397.645 880.888 393.316 874.444C383.752 860.45 373.885 845.952 362.609 832.763C350.024 818.064 335.727 805.076 323.344 794.203C310.155 782.624 296.664 771.55 283.575 760.777L276.024 754.535C258.003 739.735 239.377 724.532 220.349 710.236C170.009 672.179 109.299 635.733 34.9974 598.683L30.5676 596.468C2.78001 582.675 -25.9137 568.479 -46.3517 544.819C-64.0713 524.381 -71.8236 496.191 -66.0849 473.135C-64.9774 469.913 -63.7693 466.591 -62.2592 463.369ZM63.691 376.382C61.3755 381.416 58.6571 386.249 55.4354 390.578C42.8504 407.391 23.0166 414.137 1.87389 421.185C-2.25404 422.594 -6.48256 424.004 -10.7111 425.514C-27.5246 431.555 -46.1504 440.012 -57.3258 456.422C-60.8496 461.557 -63.3666 467.296 -64.9774 473.639C-70.6155 496.493 -62.9638 524.28 -45.4456 544.517C-25.1083 567.975 3.48472 582.171 31.1716 595.864L35.6015 598.079C110.004 635.129 170.714 671.675 221.053 709.732C240.082 724.029 258.707 739.332 276.83 754.031L284.381 760.273C297.469 771.046 310.96 782.121 324.149 793.699C336.533 804.573 350.93 817.661 363.515 832.36C374.892 845.65 384.758 860.148 394.323 874.243C398.652 880.686 403.183 887.331 407.814 893.775C411.439 898.909 415.365 904.145 419.896 909.984C447.18 945.625 474.565 975.829 501.245 999.69C516.145 1012.98 531.65 1024.46 547.557 1035.93C569.304 1051.74 592.762 1067.95 619.342 1076.51C642.196 1083.96 667.467 1085.87 696.765 1082.65C705.02 1081.74 713.276 1080.43 721.33 1079.13C726.465 1078.32 731.7 1077.51 736.936 1076.71C739.553 1076.31 742.171 1076 744.688 1075.7C807.814 1068.25 872.148 1079.43 934.268 1090.3C984.708 1099.06 1036.76 1108.12 1088.41 1107.42C1101.8 1107.22 1127.17 1105.6 1146.2 1096.54C1167.34 1088.09 1192.21 1071.07 1214.16 1056.07C1219.49 1052.45 1225.03 1048.62 1230.27 1044.89L1231.68 1043.89C1252.01 1029.59 1257.35 998.079 1243.15 976.332L1243.56 976.131L1243.15 976.332C1237.92 968.278 1233.08 959.216 1228.76 949.35C1221.2 932.033 1215.67 913.609 1210.23 895.788C1207.31 886.022 1204.29 875.954 1200.87 866.088C1191.2 837.495 1179.22 812.123 1164.22 788.363C1154.45 772.758 1143.08 757.757 1132.1 743.158C1119.82 726.848 1107.13 710.034 1096.56 692.315C1078.64 662.514 1065.25 628.685 1055.59 589.118C1047.73 557.001 1042.4 521.461 1038.77 477.162C1037.97 467.799 1037.16 456.624 1036.66 445.448C1035.25 409.405 1033.34 384.839 1029.91 360.877C1026.89 339.131 1022.97 321.612 1017.33 303.792C1013.5 291.711 1009.88 279.327 1006.46 267.245C1005.65 264.527 1004.84 261.809 1004.14 259.09C995.078 227.578 984.809 191.836 969.002 159.72C965.781 153.175 962.257 146.732 958.934 140.49L957.223 137.369C955.511 134.248 953.8 131.026 951.987 127.804L949.974 124.079C936.08 98.4057 920.374 69.3093 891.68 64.376C876.478 61.7584 861.879 66.4903 849.496 71.5243C811.841 86.7269 772.878 108.172 735.224 128.912C712.169 141.597 690.422 153.578 669.782 163.747C668.272 164.552 666.661 165.257 665.151 166.062C662.836 167.17 660.52 168.378 658.204 169.486C628.302 183.983 592.461 199.589 553.497 205.227C504.668 212.375 455.436 202.911 407.814 193.749C373.18 187.104 337.338 180.158 302.201 179.856C292.032 179.755 280.152 180.258 269.078 184.285C265.453 185.594 261.627 187.406 257.6 189.722C251.962 192.944 246.626 196.669 241.391 200.193C231.625 206.938 221.657 213.885 210.079 217.208C202.73 219.322 194.776 220.027 185.01 219.322C178.365 218.919 171.418 217.912 164.673 216.906C156.82 215.798 148.665 214.59 140.711 214.288C128.025 213.885 114.534 217.51 104.768 224.054C95.0024 230.598 88.9617 239.861 87.7535 250.13C86.7467 258.688 88.7602 266.943 90.8746 273.89C91.68 276.609 92.5862 279.327 93.4923 281.844C95.2038 286.878 96.714 291.61 97.9221 296.745C99.8351 304.799 101.245 313.357 96.2107 321.612C94.197 324.834 91.5795 327.351 88.9618 329.667C87.4515 330.976 85.9414 332.385 84.5318 333.996C82.921 335.808 81.5115 337.721 80.1019 339.936C75.8734 346.782 72.5509 354.937 69.4299 362.79C67.6177 367.22 65.8053 371.952 63.691 376.382Z" fill="white"/>
<path d="M47.2805 449.878C50.2002 443.636 54.4287 438.199 59.8655 434.072C70.1348 426.219 82.9209 423.198 95.2038 420.278C100.942 418.97 106.279 417.661 111.413 415.949C126.012 411.117 143.53 399.236 145.04 381.92C145.242 379.805 145.141 377.59 144.94 375.174C144.537 370.845 143.53 366.818 142.523 362.488C142.322 361.683 142.121 360.978 141.919 360.173L141.718 359.267C139.906 351.514 138.194 344.265 141.819 337.52C144.436 332.788 148.765 330.372 152.893 328.157C155.008 327.049 157.122 325.942 159.035 324.432C164.471 320.304 168.197 313.86 171.821 307.115C176.452 298.456 181.285 289.596 188.433 282.851C196.387 275.401 207.16 270.769 219.745 269.561C234.041 268.152 249.445 270.87 259.815 272.984L263.137 273.689C269.38 274.998 275.722 276.307 282.065 277.313C301.396 280.334 316.498 279.73 331.096 275.501C334.318 274.595 337.741 273.387 341.97 271.675C345.997 270.065 350.024 268.353 353.85 266.742C359.186 264.527 364.622 262.111 370.059 260.097C414.862 243.787 465 247.412 513.528 250.835C540.409 252.748 568.197 254.761 594.776 253.352C632.33 251.439 663.44 242.982 689.818 227.678C693.14 225.765 696.362 223.651 699.584 221.537C707.537 216.402 719.518 204.824 733.513 191.434C765.529 161.028 809.022 119.347 843.958 113.81C857.852 111.595 869.329 116.125 878.995 127.704C885.539 135.557 887.552 145.826 889.767 156.599C891.882 167.271 894.097 178.345 900.943 187.004C902.956 189.622 905.473 191.937 908.897 194.656C910.407 195.864 911.917 196.971 913.326 198.079C916.75 200.596 920.273 203.213 923.394 206.435C931.65 214.993 936.181 226.873 936.885 241.673C937.59 256.674 934.066 271.373 931.046 280.938C929.637 285.368 928.026 289.999 926.515 294.328C924.401 300.47 922.186 306.813 920.374 313.155C916.649 326.244 913.326 340.44 914.837 355.542C916.447 371.55 923.092 385.544 930.14 400.344C932.254 404.774 934.469 409.405 936.483 414.036C939.503 420.782 942.524 428.132 944.638 436.085C951.081 460.852 947.557 487.23 944.134 512.803C940.107 542.504 935.979 573.211 948.262 600.495C954.404 614.187 964.572 625.866 974.338 637.143C984.306 648.62 994.676 660.601 1000.82 674.696C1005.55 685.368 1007.76 697.047 1009.98 708.323C1011.79 717.888 1013.7 727.653 1017.13 736.916C1024.38 756.75 1037.36 771.952 1051.16 788.061C1052.26 789.37 1053.47 790.78 1054.58 792.088C1059.01 797.324 1064.14 803.465 1068.98 809.909L1068.57 810.211L1068.98 809.909C1086.29 832.864 1091.23 861.658 1093.84 886.727C1094.75 895.587 1095.56 902.937 1096.46 910.387C1100.19 939.081 1109.95 976.131 1136.03 989.32L1136.33 989.42L1136.33 989.722C1135.63 995.159 1132.81 999.79 1127.98 1003.41C1116.8 1011.67 1096.97 1013.08 1082.37 1010.66C1056.19 1006.44 1029.31 1000.6 1003.33 994.958C918.562 976.533 830.97 957.606 751.132 989.521C749.118 990.327 746.903 991.233 744.084 992.441C742.876 992.944 741.668 993.448 740.56 993.951C729.787 998.582 718.511 1003.41 706.732 1005.23C679.951 1009.25 656.191 997.475 634.645 984.185C629.41 980.963 624.175 977.641 619.141 974.319C601.622 962.942 583.5 951.263 563.968 946.028C555.41 943.813 546.45 942.806 537.892 941.9C527.723 940.792 517.152 939.685 507.185 936.362C485.639 929.214 468.02 913.206 450.905 897.601C442.649 890.05 434.091 882.297 425.232 875.652C421.003 872.531 416.473 869.31 411.237 865.987C401.673 859.946 391.705 854.409 381.939 848.972C373.382 844.24 364.522 839.307 356.065 834.072C345.191 827.427 331.298 818.064 319.719 804.975C310.356 794.404 302.604 781.517 295.254 764.401C291.63 756.045 288.408 747.387 285.186 739.03C280.857 727.553 276.427 715.773 271.091 704.698C243.404 648.519 190.85 609.254 143.631 576.835C139.503 574.016 135.375 571.197 131.247 568.378C112.722 555.793 93.4923 542.806 76.5781 528.207C59.2612 513.407 48.8912 498.809 44.6627 483.606C43.4546 479.176 42.8504 474.545 42.8504 470.014C42.8504 462.866 44.4614 456.02 47.2805 449.878ZM143.329 391.887C137.489 404.27 123.696 412.828 111.816 416.755C106.681 418.466 101.245 419.775 95.5058 421.084C83.223 424.004 70.5373 427.024 60.4693 434.776C49.7973 443.032 43.8574 455.516 43.7567 470.115C43.656 474.645 44.26 479.075 45.4681 483.505C49.6968 498.507 59.966 512.904 77.1822 527.603C94.0964 542.101 113.226 555.088 131.851 567.673C135.979 570.492 140.107 573.312 144.235 576.131C191.554 608.549 244.31 648.016 271.695 704.698C277.132 715.874 281.562 727.653 285.891 739.131C289.012 747.487 292.335 756.246 295.858 764.502C303.107 781.416 310.86 794.203 320.122 804.774C331.6 817.762 345.393 827.024 356.266 833.669C364.723 838.904 373.583 843.838 382.141 848.57C391.806 853.906 401.874 859.544 411.439 865.585C416.674 868.907 421.305 872.028 425.534 875.25C434.394 881.895 442.951 889.748 451.308 897.198C468.322 912.703 485.941 928.711 507.285 935.758C517.253 939.081 527.723 940.188 537.791 941.195C546.45 942.101 555.41 943.007 564.069 945.323C583.701 950.558 601.924 962.338 619.543 973.714C624.577 977.037 629.913 980.359 635.048 983.581C656.493 996.77 680.052 1008.45 706.53 1004.42C718.209 1002.71 729.385 997.878 740.157 993.246C741.366 992.743 742.574 992.239 743.681 991.736C746.5 990.528 748.615 989.622 750.729 988.816C830.769 956.7 918.562 975.728 1003.43 994.152C1029.41 999.79 1056.39 1005.63 1082.47 1009.86C1096.97 1012.17 1116.5 1010.87 1127.47 1002.81C1132 999.388 1134.72 995.159 1135.43 990.025C1109.25 976.433 1099.28 939.282 1095.66 910.488C1094.75 903.037 1093.95 895.688 1093.04 886.828C1090.42 861.859 1085.49 833.266 1068.37 810.513C1063.54 804.069 1058.41 797.928 1053.98 792.693C1052.87 791.384 1051.66 789.974 1050.55 788.665C1036.66 772.456 1023.57 757.153 1016.32 737.218C1012.9 727.855 1010.99 717.988 1009.17 708.424C1006.96 697.248 1004.74 685.569 1000.11 674.998C993.971 661.004 983.701 649.123 973.734 637.646C963.868 626.37 953.699 614.59 947.557 600.797C935.073 573.312 939.302 542.403 943.329 512.602C946.752 487.23 950.276 460.953 943.933 436.287C941.919 428.434 938.798 421.084 935.879 414.338C933.865 409.707 931.65 405.076 929.536 400.646C922.388 385.745 915.642 371.751 914.132 355.542C912.622 340.238 915.944 325.942 919.77 312.753C921.582 306.41 923.797 300.067 925.911 293.926C927.422 289.496 929.032 284.965 930.442 280.535C935.174 265.635 943.933 228.484 922.992 206.938C919.971 203.817 916.447 201.2 913.024 198.683C911.514 197.575 910.004 196.468 908.494 195.26C904.97 192.441 902.453 190.024 900.439 187.407C893.493 178.547 891.177 167.371 889.063 156.599C886.948 145.826 884.834 135.758 878.491 128.006C869.027 116.729 857.953 112.199 844.361 114.414C809.727 119.951 766.435 161.532 734.721 191.836C720.726 205.227 708.645 216.906 700.691 222.04C697.369 224.155 694.147 226.269 690.824 228.182C664.245 243.586 633.034 252.043 595.38 254.056C568.7 255.466 540.913 253.452 514.031 251.539C465.604 248.016 415.566 244.391 370.965 260.701C365.529 262.715 360.092 265.031 354.756 267.245C350.829 268.957 346.802 270.669 342.775 272.179C338.547 273.89 335.023 275.098 331.801 276.005C317.102 280.334 301.798 280.938 282.367 277.918C276.024 276.911 269.682 275.602 263.44 274.293L260.117 273.588C249.848 271.474 234.544 268.756 220.349 270.165C207.965 271.373 197.293 275.904 189.541 283.254C182.493 289.798 177.761 298.658 173.13 307.215C169.405 314.061 165.68 320.606 160.042 324.834C158.028 326.344 155.914 327.452 153.799 328.66C149.571 330.976 145.544 333.09 143.027 337.621C139.503 344.064 141.214 351.212 143.027 358.763L143.228 359.669C143.429 360.475 143.631 361.18 143.832 361.985C144.839 366.314 145.846 370.442 146.248 374.771C146.45 377.288 146.55 379.503 146.349 381.618C145.644 385.544 144.738 388.866 143.329 391.887Z" fill="white"/>
<path d="M151.886 487.331C152.994 484.914 154.504 482.599 156.115 480.585C162.458 473.034 171.418 470.115 180.077 467.195C183.399 466.087 186.923 464.98 190.145 463.57C203.636 457.832 217.127 444.945 216.925 429.138C216.825 421.788 213.804 414.439 210.784 407.29C210.381 406.384 209.978 405.478 209.676 404.572C207.461 399.135 205.246 392.893 206.857 387.356C208.065 383.127 210.583 380.912 212.898 378.798C214.106 377.791 215.214 376.785 216.12 375.576C219.543 371.247 220.651 364.3 221.859 357.051C222.765 351.514 223.671 345.775 225.684 340.842C227.698 335.707 230.819 331.277 235.148 327.452C240.182 322.921 245.72 320.203 252.063 318.894C258.103 317.686 265.755 317.988 275.219 319.8C276.427 320.001 277.635 320.303 278.843 320.505C281.864 321.109 284.783 321.813 287.804 322.418C306.027 326.445 324.854 330.573 343.278 328.156C352.44 326.948 361.199 324.23 369.757 321.511C373.18 320.404 376.704 319.296 380.228 318.39C395.43 314.061 411.942 311.343 430.568 310.135C431.776 310.034 432.984 309.933 434.192 309.933C440.333 309.531 446.777 309.128 452.616 307.92C461.375 306.007 467.92 303.087 474.162 300.167C480.404 297.348 486.948 294.328 495.506 292.616C500.338 291.61 505.674 291.308 510.809 291.006C512.319 290.905 513.93 290.804 515.44 290.703C555.209 287.884 579.271 279.226 609.677 264.124C625.181 256.472 642.901 250.029 660.922 245.7C665.956 244.492 672.098 241.572 679.145 238.249C681.36 237.243 683.575 236.135 685.891 235.128C696.966 230.094 709.047 225.866 723.142 220.933C730.291 218.416 737.64 215.798 745.493 212.979C775.697 201.803 804.391 193.85 822.815 219.02C828.856 227.275 830.165 237.545 831.474 247.512C832.682 256.573 833.789 265.131 838.119 272.279C840.434 276.105 843.555 279.226 846.475 282.146C848.891 284.562 851.408 287.079 853.523 289.999C863.087 303.188 863.993 324.23 856.442 354.333C855.838 356.85 855.234 359.266 854.63 361.783C851.509 374.67 848.489 388.463 849.193 403.364C849.395 407.593 849.797 411.418 850.502 415.244C853.12 429.037 859.664 441.824 866.108 454.207C868.02 457.832 869.933 461.557 871.746 465.282C875.169 472.33 877.384 477.867 879.095 483.203C885.639 503.943 884.431 525.79 883.223 546.933C881.713 572.707 880.404 597.172 891.781 619.926C897.822 632.007 907.185 642.176 916.246 652.143C924.703 661.406 933.361 670.87 939.402 681.844C941.114 684.965 942.725 688.489 944.336 692.516C946.148 697.147 947.759 701.879 949.269 706.51C951.987 714.565 954.706 723.022 958.833 730.774C965.176 742.755 974.237 753.125 982.896 763.193C991.152 772.757 999.005 781.819 1004.84 792.189C1018.03 815.748 1020.15 843.737 1021.96 868.403C1022.06 870.316 1022.26 872.229 1022.36 874.142C1023.57 889.747 1025.99 901.728 1029.71 910.789C1033.13 919.146 1037.87 925.589 1044.41 930.724C1045.82 931.831 1047.33 932.838 1048.84 933.744L1049.14 933.945L1049.04 934.248C1046.53 949.249 1024.78 955.692 1005.65 954.182C988.937 952.873 971.318 949.249 957.726 946.228C953.195 945.222 948.765 944.215 944.235 943.208C868.524 926.193 790.094 908.776 718.511 929.415C715.692 930.22 712.772 931.126 710.054 931.932C700.389 934.952 690.422 937.973 679.951 938.577C660.318 939.785 642.699 931.831 629.51 924.784C623.973 921.864 618.335 918.541 612.898 915.42C594.172 904.547 574.841 893.372 554.202 892.063C545.946 891.559 537.489 892.667 529.435 893.774C521.078 894.882 512.42 896.09 503.963 895.486C484.028 893.976 467.416 883.102 449.898 871.625C443.857 867.698 437.615 863.671 431.272 859.946C423.419 855.415 414.861 851.288 407.915 847.864L405.599 846.757C381.637 835.078 359.085 824.104 344.285 803.062C331.7 785.242 327.169 762.689 322.84 740.943C321.028 731.781 319.115 722.418 316.598 713.457C303.006 664.527 270.084 622.141 213.2 580.157C209.878 577.64 206.354 575.224 203.031 572.808C194.675 566.868 186.117 560.625 178.264 554.081C168.297 545.725 157.424 535.355 151.786 521.562C147.054 509.984 147.255 497.197 151.886 487.331ZM215.012 442.025C210.28 452.194 200.414 460.147 190.547 464.376C187.225 465.785 183.802 466.893 180.379 468.101C171.821 470.92 162.961 473.84 156.82 481.189C148.564 491.056 146.852 507.165 152.591 521.26C158.128 534.952 169.002 545.222 178.868 553.377C186.721 559.921 195.279 566.163 203.636 572.103C206.958 574.519 210.482 577.036 213.804 579.453C270.89 621.537 303.913 664.124 317.605 713.457C320.122 722.418 321.934 731.781 323.847 740.943C328.176 762.589 332.707 785.04 345.191 802.659C359.89 823.5 382.342 834.474 406.102 846.052L408.418 847.16C415.365 850.482 423.923 854.711 431.776 859.241C438.118 862.866 444.361 866.994 450.401 870.92C467.819 882.297 484.33 893.07 504.064 894.58C512.42 895.184 520.978 894.076 529.334 892.868C537.489 891.761 545.946 890.553 554.303 891.056C575.244 892.365 594.675 903.641 613.402 914.514C618.838 917.635 624.476 920.958 630.014 923.878C643.102 930.824 660.62 938.677 679.951 937.57C690.321 936.966 700.187 933.945 709.853 930.925C712.672 930.019 715.491 929.214 718.31 928.408C790.094 907.668 868.624 925.186 944.638 942.101C949.168 943.107 953.598 944.114 958.129 945.121C971.62 948.141 989.339 951.665 1005.95 952.974C1024.58 954.484 1045.62 948.343 1048.34 934.046C1046.93 933.14 1045.52 932.234 1044.11 931.127C1037.56 925.992 1032.63 919.347 1029.21 910.89C1025.48 901.728 1023.07 889.646 1021.86 873.94C1021.76 872.028 1021.56 870.115 1021.46 868.202C1019.64 843.636 1017.53 815.748 1004.44 792.289L1004.54 792.289L1004.14 792.491C998.4 782.221 990.548 773.16 982.292 763.596C973.533 753.528 964.572 743.057 958.129 730.975C953.9 723.122 951.182 714.665 948.463 706.51C946.953 701.879 945.342 697.147 943.53 692.617C941.919 688.69 940.308 685.166 938.597 682.045C932.657 671.172 923.998 661.708 915.642 652.546C906.48 642.579 897.117 632.309 891.076 620.127C879.498 597.072 881.008 571.499 882.418 546.631C883.626 525.589 884.834 503.842 878.39 483.203C876.679 477.867 874.464 472.329 871.041 465.383C869.229 461.657 867.316 457.932 865.403 454.308C858.959 441.924 852.415 429.037 849.797 415.043C849.093 411.217 848.69 407.29 848.489 403.062C847.784 388.061 850.804 374.167 854.026 361.28C854.63 358.763 855.234 356.347 855.838 353.83C863.389 324.028 862.483 303.288 853.12 290.2C851.006 287.381 848.589 284.864 846.173 282.548C843.153 279.528 840.032 276.407 837.615 272.48C833.185 265.131 831.977 256.07 830.87 247.311C829.561 237.444 828.252 227.275 822.413 219.221C804.391 194.554 775.999 202.407 746.097 213.482C738.244 216.402 730.895 219.02 723.747 221.436C709.651 226.369 697.57 230.598 686.495 235.632C684.179 236.739 681.864 237.746 679.75 238.753C672.601 242.075 666.359 244.995 661.325 246.203C643.404 250.532 625.685 256.875 610.281 264.527C579.775 279.629 555.612 288.287 515.742 291.207C514.232 291.308 512.621 291.408 511.111 291.509C505.976 291.811 500.64 292.113 495.909 293.12C487.451 294.831 481.31 297.65 474.766 300.57C468.423 303.49 461.879 306.409 453.019 308.322C447.079 309.631 440.635 309.933 434.494 310.336C433.286 310.437 432.078 310.437 430.87 310.537C412.344 311.746 395.934 314.464 380.731 318.793C377.207 319.8 373.683 320.907 370.26 321.914C361.703 324.632 352.843 327.351 343.58 328.559C324.955 330.975 306.027 326.847 287.804 322.82C284.783 322.115 281.864 321.511 278.843 320.907C277.635 320.605 276.427 320.404 275.219 320.203C265.755 318.39 258.305 318.088 252.364 319.296C246.223 320.505 240.786 323.324 235.853 327.653C231.625 331.378 228.705 335.607 226.691 340.641C224.778 345.473 223.872 351.212 222.966 356.649C221.758 364.099 220.65 371.146 217.026 375.677C216.019 376.986 214.811 377.993 213.704 378.999C211.388 381.013 209.072 383.127 207.864 387.155C206.555 391.886 207.965 397.222 210.683 403.767C211.086 404.673 211.388 405.579 211.791 406.485C214.811 413.734 217.932 421.184 218.033 428.635C218.033 433.668 216.925 437.998 215.012 442.025Z" fill="white"/>
<path d="M246.626 368.629C247.834 366.112 249.747 363.696 252.768 361.884C259.01 358.159 267.568 358.662 274.414 359.568C275.622 359.669 276.729 359.87 277.837 360.071C280.656 360.474 283.576 360.978 286.495 361.38C303.712 364.099 321.633 366.918 339.05 366.918C347.809 366.918 356.468 366.213 364.824 365.609C368.247 365.307 371.67 365.105 375.093 364.904C389.893 363.897 405.599 363.696 423.118 364.199L423.218 364.199C430.266 364.401 437.615 364.602 443.656 361.984C451.912 358.36 454.328 351.916 456.946 345.07C459.262 339.029 461.678 332.687 468.423 328.559C472.551 325.941 477.988 324.834 483.223 323.726C484.331 323.525 485.438 323.223 486.546 323.021C517.454 316.074 529.939 302.785 544.436 287.381C549.37 282.045 554.605 276.608 560.847 270.869C573.332 259.492 591.051 255.163 609.375 258.788C617.328 260.399 626.49 262.312 633.941 265.433C640.183 268.05 645.619 271.373 651.459 274.896C661.728 281.139 672.4 287.683 687.402 289.696C693.946 290.603 700.792 290.804 708.041 291.005C727.774 291.609 748.111 292.113 762.509 307.215C771.469 316.578 773.885 328.76 776.201 340.64C777.107 345.07 778.013 349.601 779.221 353.829C780.127 357.152 781.235 360.172 782.342 363.193C783.551 366.515 784.759 369.938 785.766 373.563C788.685 384.738 788.887 397.726 789.088 410.311C789.189 418.063 789.289 425.413 789.994 432.259C790.195 434.474 790.497 436.588 791.001 438.904C792.712 448.065 795.833 456.321 799.257 465.08C800.364 467.899 801.472 470.92 802.579 473.94C803.686 476.96 804.693 479.981 805.801 483.203L806.103 484.008C809.526 494.177 813.352 504.547 816.976 514.514C818.889 519.749 820.701 524.884 822.614 530.119C824.527 535.355 826.44 540.993 828.152 546.53C832.38 560.122 835.3 574.016 838.119 587.507C843.858 614.69 849.194 640.263 864.396 664.023C872.149 676.205 882.317 686.978 892.285 697.449C898.325 703.792 904.467 710.336 910.004 717.081C912.118 719.598 914.132 722.317 916.448 725.337C919.367 729.163 922.186 733.19 925.005 737.016C929.133 742.855 933.462 748.795 938.094 754.635C940.611 757.756 943.228 760.978 945.745 763.998C958.532 779.603 970.613 794.303 975.043 812.022L974.64 812.123L975.043 812.022C979.272 828.936 976.553 849.475 967.391 868.202C964.069 874.947 960.344 881.693 957.021 886.626C954.907 889.747 953.498 891.861 952.793 894.479C952.592 895.083 952.491 895.687 952.491 896.291L952.491 896.392L952.39 896.492C946.752 904.346 933.563 911.091 920.273 912.803C907.386 914.514 893.291 912.299 880.002 909.682C871.041 907.869 861.98 906.057 853.019 904.245C795.632 892.667 736.231 880.686 680.354 881.592C678.139 881.592 675.924 881.693 673.81 881.693C665.353 881.894 656.594 882.095 647.734 881.189C635.048 879.88 622.06 876.256 605.448 869.41C602.73 868.302 600.012 867.195 597.293 865.987C578.466 858.033 558.934 849.777 539.705 852.294C532.254 853.301 525.106 855.919 518.159 858.436C512.118 860.651 505.977 862.966 499.634 864.074C478.391 868 457.349 859.342 437.716 850.28C430.165 846.757 424.225 843.736 418.889 840.716C397.344 828.433 383.148 814.741 374.288 797.826C365.126 780.409 362.307 759.669 359.488 739.634C358.783 734.7 358.078 729.566 357.273 724.632C348.917 673.588 327.271 634.423 292.737 608.448C289.516 606.032 286.193 603.716 282.871 601.401C276.729 597.071 270.286 592.641 264.748 587.507C256.09 579.452 250.452 571.096 247.532 562.035C244.21 551.765 244.915 539.986 249.244 531.227C252.264 525.186 256.694 521.159 260.923 517.232C262.936 515.42 264.95 513.507 266.762 511.494C271.897 505.856 283.676 490.854 283.676 472.329C283.676 465.181 281.763 457.529 277.736 448.972C276.83 446.958 275.823 444.944 274.917 443.132C273.306 439.91 271.897 436.89 270.789 434.071C268.776 428.735 267.265 425.513 265.051 421.587C263.641 418.969 261.728 416.15 259.714 413.029C255.587 406.585 250.855 399.236 248.136 392.088C246.123 386.752 245.217 382.02 245.217 377.187C244.814 374.67 245.317 371.549 246.626 368.629ZM455.536 350.91C453.321 355.642 450.2 359.971 444.059 362.689C437.817 365.407 430.467 365.206 423.319 365.005L423.218 365.005C405.7 364.501 389.994 364.703 375.194 365.709C371.771 365.911 368.348 366.213 364.925 366.414C356.568 367.018 347.809 367.723 339.05 367.723C321.431 367.723 303.611 364.904 286.294 362.186C283.374 361.783 280.555 361.28 277.736 360.877C276.629 360.676 275.421 360.575 274.313 360.373C268.172 359.568 259.312 358.964 253.271 362.588C247.23 366.213 245.821 372.556 245.821 377.288C245.72 382.02 246.626 386.651 248.64 391.886C251.358 398.934 255.989 406.183 260.218 412.626C262.231 415.747 264.044 418.667 265.554 421.184C267.87 425.211 269.279 428.332 271.293 433.769C272.299 436.588 273.81 439.608 275.421 442.729C276.327 444.642 277.333 446.555 278.24 448.67C282.267 457.429 284.28 465.181 284.28 472.43C284.28 491.257 272.299 506.56 267.064 512.198C265.252 514.212 263.138 516.125 261.225 517.937C256.996 521.864 252.667 525.891 249.747 531.73C245.519 540.288 244.915 551.765 248.136 561.833C250.955 570.693 256.593 578.949 265.151 586.903C270.588 592.037 277.031 596.467 283.173 600.696C286.395 603.011 289.818 605.327 293.039 607.743C327.673 633.92 349.521 673.185 357.877 724.532C358.683 729.465 359.387 734.6 360.092 739.533C362.911 759.467 365.73 780.107 374.791 797.424C383.349 814.237 397.444 827.728 418.889 840.011C424.124 843.032 430.165 846.052 437.615 849.475C457.147 858.536 477.988 867.094 499.03 863.268C505.272 862.161 511.414 859.845 517.454 857.63C524.401 855.113 531.65 852.395 539.201 851.388C558.733 848.871 578.265 857.127 597.193 865.181C599.911 866.289 602.629 867.497 605.348 868.604C621.859 875.45 634.847 879.075 647.432 880.384C656.291 881.29 664.95 881.088 673.407 880.887C675.622 880.887 677.837 880.786 679.951 880.786C735.929 879.88 795.33 891.861 852.818 903.439C861.779 905.252 870.84 907.064 879.8 908.876C892.989 911.494 906.984 913.608 919.77 911.997C932.758 910.286 945.745 903.741 951.182 896.19C951.182 895.586 951.283 894.982 951.484 894.378C952.29 891.559 953.699 889.445 955.813 886.223C959.136 881.29 962.861 874.645 966.183 867.899C975.245 849.374 978.064 829.138 973.835 812.324C969.405 794.806 957.424 780.208 944.739 764.703C942.222 761.682 939.604 758.461 937.087 755.34C932.456 749.5 928.126 743.459 923.898 737.62C921.18 733.794 918.26 729.767 915.34 725.941C913.125 722.921 911.011 720.303 908.897 717.786C903.359 711.041 897.218 704.496 891.177 698.154C881.21 687.683 871.041 676.81 863.188 664.627C847.885 640.766 842.448 614.992 836.81 587.809C833.991 574.418 831.071 560.525 826.843 546.933C825.131 541.395 823.118 535.757 821.305 530.522C819.493 525.287 817.58 520.152 815.667 514.917C812.043 504.949 808.318 494.579 804.794 484.411L804.492 483.605C803.384 480.384 802.378 477.363 801.27 474.343C800.163 471.322 799.055 468.302 797.948 465.483C794.625 456.724 791.404 448.367 789.692 439.105C789.289 436.789 788.987 434.574 788.685 432.359C787.98 425.513 787.88 418.164 787.779 410.411C787.678 397.927 787.477 384.939 784.557 373.865C783.551 370.24 782.342 366.817 781.235 363.595C780.127 360.575 779.02 357.454 778.114 354.131C776.906 349.802 776 345.272 775.093 340.842C772.778 329.163 770.362 317.081 761.602 307.919C747.507 293.119 727.271 292.515 707.739 292.012C700.49 291.811 693.644 291.609 686.999 290.703C671.796 288.69 661.124 282.145 650.754 275.803C644.915 272.279 639.478 268.956 633.337 266.339C625.886 263.218 616.825 261.305 608.871 259.694C590.749 256.069 573.332 260.399 561.149 271.574C554.907 277.212 549.772 282.749 544.839 287.985C530.241 303.489 517.656 316.981 486.546 323.927C485.438 324.129 484.331 324.431 483.223 324.632C478.089 325.74 472.753 326.847 468.725 329.364C462.282 333.391 459.866 339.533 457.651 345.372C457.147 347.184 456.442 349.097 455.536 350.91Z" fill="white"/>
</g>
</g>
</svg>
