<svg width="250" height="102" viewBox="0 0 250 102" fill="none" xmlns="http://www.w3.org/2000/svg">
<path fill-rule="evenodd" clip-rule="evenodd" d="M250 1.00002C250 13.9923 240.089 24.6699 227.415 25.8848L227.315 26H25C11.1929 26 0 37.1929 0 51C0 64.8071 11.1929 76 25 76H224.98C224.987 76 224.993 76 225 76C225.007 76 225.013 76 225.02 76H226.389L226.425 76.04C239.569 76.7786 250 87.6712 250 101C250 101.328 249.994 101.654 249.981 101.979L250 102V101V1.00002ZM250 1.00002C250 0.672349 249.994 0.346153 249.981 0.0215435L250 0V1.00002Z" fill="#F7F7F7"/>
</svg>
