<svg width="356" height="218" viewBox="0 0 356 218" fill="none" xmlns="http://www.w3.org/2000/svg">
<path d="M335.142 106.452C335.142 106.452 330.925 104.705 328.102 114.527C325.28 124.35 324.546 129.838 324.546 129.838C324.546 129.838 323.701 131.943 322.178 130.958C320.654 129.972 318.224 126.853 316.158 127.9C314.091 128.947 313.755 131.663 314.909 135.298C316.062 138.932 318.269 146.99 318.493 147.724C318.717 148.458 318.493 149.589 317.334 149.09C316.174 148.592 309.124 143.244 306.789 146.75C304.454 150.255 309.326 159.854 309.841 160.912C310.356 161.971 310.227 162.491 309.746 162.872C309.264 163.253 307.063 161.231 304.997 159.792C302.93 158.353 300.27 157.048 299.089 159.182C297.907 161.315 298.898 169.038 308.553 180.025L313.358 184.819L319.971 183.139C333.91 178.715 338.742 172.605 338.832 170.169C338.922 167.733 335.976 167.481 333.462 167.643C330.947 167.806 328.013 168.405 327.8 167.834C327.587 167.263 327.744 166.747 328.73 166.109C329.715 165.471 338.849 159.753 338.653 155.547C338.457 151.342 329.654 152.277 328.416 152.114C327.178 151.952 327.593 150.855 328.13 150.339C328.668 149.824 334.75 144.067 337.611 141.547C340.473 139.027 341.638 136.603 340.361 134.57C339.084 132.537 335.433 134.01 333.641 134.077C331.849 134.144 332.196 131.887 332.196 131.887C332.196 131.887 334.408 126.814 337.051 116.941C339.694 107.068 335.069 106.396 335.069 106.396" fill="#EBEBEB"/>
<path d="M332.594 115.244C332.594 115.244 332.594 115.317 332.549 115.457C332.504 115.597 332.465 115.804 332.398 116.067C332.258 116.627 332.056 117.4 331.793 118.403C331.266 120.435 330.477 123.37 329.491 126.993C327.52 134.234 324.709 144.213 321.573 155.228C318.437 166.243 315.603 176.2 313.587 183.447C312.59 187.059 311.778 189.982 311.213 192.015C310.938 193.017 310.72 193.795 310.569 194.339C310.49 194.596 310.434 194.798 310.39 194.943L310.328 195.151C310.328 195.151 310.328 195.078 310.367 194.938C310.406 194.798 310.457 194.591 310.524 194.327C310.664 193.767 310.866 192.995 311.129 191.987C311.655 189.959 312.445 187.025 313.43 183.402C315.402 176.161 318.213 166.182 321.349 155.161C324.485 144.14 327.318 134.178 329.334 126.948C330.331 123.336 331.143 120.413 331.703 118.38L332.353 116.056C332.431 115.793 332.487 115.597 332.526 115.451L332.594 115.244Z" fill="#E0E0E0"/>
<path d="M319.383 132.43C319.49 132.556 319.578 132.695 319.646 132.845C319.798 133.125 320.01 133.528 320.268 134.032C320.778 135.034 321.444 136.446 322.15 138.014L323.942 142.034L324.502 143.255C324.581 143.399 324.643 143.551 324.686 143.709C324.58 143.584 324.491 143.444 324.423 143.294C324.266 143.02 324.059 142.611 323.807 142.107C323.303 141.094 322.659 139.677 321.948 138.109L320.128 134.099L319.568 132.89C319.49 132.744 319.428 132.59 319.383 132.43Z" fill="#E0E0E0"/>
<path d="M325.308 143.72C325.308 143.664 328.108 142.158 331.658 140.36C335.209 138.563 338.082 137.151 338.115 137.207C338.149 137.263 335.315 138.77 331.765 140.567C328.214 142.365 325.336 143.765 325.308 143.72Z" fill="#E0E0E0"/>
<path d="M319.725 160.408C319.881 160.346 320.045 160.305 320.212 160.285L321.55 160.027C322.67 159.809 324.238 159.501 325.946 159.103C327.654 158.706 329.189 158.297 330.298 157.983L331.614 157.625C331.774 157.572 331.939 157.536 332.106 157.518C331.959 157.601 331.803 157.667 331.642 157.714C331.339 157.821 330.897 157.972 330.348 158.146C329.228 158.487 327.716 158.93 326.002 159.327C324.289 159.725 322.721 160.005 321.578 160.184C321.018 160.268 320.548 160.335 320.229 160.369C320.063 160.404 319.894 160.417 319.725 160.408Z" fill="#E0E0E0"/>
<path d="M312.12 151.381C312.244 151.476 312.357 151.585 312.456 151.706C312.663 151.918 312.954 152.238 313.307 152.63C314.024 153.425 314.987 154.522 316.057 155.754C317.126 156.986 318.067 158.101 318.745 158.918C319.086 159.327 319.361 159.663 319.546 159.893C319.73 160.122 319.826 160.262 319.809 160.274C319.683 160.183 319.57 160.075 319.473 159.954C319.271 159.742 318.98 159.422 318.622 159.025C317.91 158.235 316.942 157.132 315.878 155.906C314.814 154.679 313.867 153.559 313.184 152.742C312.848 152.327 312.574 151.997 312.389 151.762C312.283 151.647 312.193 151.519 312.12 151.381Z" fill="#E0E0E0"/>
<path d="M305.322 165.498C305.478 165.621 305.621 165.76 305.747 165.913L306.867 167.1C307.786 168.108 309.04 169.514 310.418 171.07C311.795 172.627 313.027 174.055 313.918 175.091L314.954 176.323C315.088 176.47 315.208 176.629 315.312 176.799C315.157 176.675 315.015 176.536 314.886 176.385L313.766 175.198C312.854 174.19 311.599 172.784 310.222 171.227C308.844 169.67 307.612 168.242 306.722 167.206L305.686 165.974C305.547 165.83 305.425 165.67 305.322 165.498Z" fill="#E0E0E0"/>
<path d="M315.122 176.463C315.321 176.386 315.527 176.33 315.738 176.295L317.418 175.903C318.84 175.578 320.778 175.119 322.962 174.554C325.146 173.988 327.05 173.434 328.45 173.019L330.13 172.532C330.329 172.462 330.536 172.411 330.746 172.381C330.556 172.475 330.36 172.554 330.158 172.616C329.777 172.756 329.217 172.952 328.522 173.176C327.134 173.63 325.196 174.218 323.04 174.778C320.884 175.338 318.907 175.78 317.479 176.066C316.762 176.206 316.18 176.318 315.799 176.379C315.577 176.43 315.35 176.458 315.122 176.463Z" fill="#E0E0E0"/>
<path d="M318.174 200.185C318.825 199.455 319.657 198.909 320.586 198.604C321.515 198.298 322.508 198.242 323.466 198.443C324.419 198.661 325.319 199.066 326.114 199.635C326.91 200.205 327.583 200.926 328.097 201.758C328.584 202.52 328.959 203.438 328.657 204.312C328.501 204.705 328.242 205.05 327.909 205.31C327.575 205.569 327.178 205.735 326.758 205.79C325.917 205.886 325.065 205.759 324.289 205.421C321.59 204.39 319.159 202.901 318.129 200.185" fill="#E0E0E0"/>
<path d="M313.587 197.514C315.011 196.021 316.058 194.211 316.643 192.233C317.227 190.255 317.331 188.166 316.947 186.14C316.746 185.115 316.242 183.951 315.211 183.749C314.181 183.547 313.279 184.443 312.725 185.334C311.6 187.213 311.057 189.384 311.164 191.571C311.272 193.759 312.025 195.866 313.33 197.626" fill="#E0E0E0"/>
<path d="M335.64 183.558C335.815 184.416 335.815 185.3 335.64 186.157C335.465 187.015 335.118 187.828 334.621 188.548C333.615 189.983 332.295 191.171 330.762 192.02C327.85 193.739 323.998 194.26 320.621 194.226C320.89 190.486 323.93 187.378 325.577 185.894C328.175 183.558 334.29 180.904 335.657 183.558" fill="#E0E0E0"/>
<path d="M308.318 203.024C308.778 202.697 309.259 202.4 309.757 202.134C311.689 201.223 313.734 200.575 315.838 200.207C317.971 199.854 320.16 200.084 322.172 200.874C322.77 201.123 323.334 201.447 323.852 201.837C324.051 201.967 324.229 202.128 324.378 202.313C323.636 201.86 322.861 201.463 322.06 201.126C320.086 200.426 317.968 200.233 315.9 200.566C313.828 200.933 311.804 201.536 309.869 202.363" fill="#FAFAFA"/>
<path d="M308.267 203.08L310.849 201.21C313.027 199.63 316.029 197.446 319.322 194.994C322.614 192.541 325.549 190.273 327.682 188.626L330.208 186.689C330.506 186.437 330.824 186.21 331.16 186.011C330.897 186.3 330.608 186.564 330.298 186.801C329.738 187.294 328.892 187.988 327.845 188.839C325.756 190.519 322.805 192.838 319.546 195.296C316.286 197.754 313.223 199.882 311 201.4C309.88 202.156 308.984 202.766 308.351 203.175" fill="#FAFAFA"/>
<path d="M314.64 188.408C314.733 188.618 314.793 188.841 314.819 189.069C314.881 189.326 314.922 189.589 314.942 189.853C314.993 190.204 315.021 190.557 315.026 190.911C315.053 191.832 314.989 192.753 314.836 193.661C314.631 194.77 314.312 195.855 313.884 196.898C313.429 197.932 312.866 198.916 312.204 199.832C311.659 200.574 311.039 201.259 310.356 201.876C310.098 202.118 309.825 202.345 309.538 202.554C309.332 202.721 309.113 202.873 308.883 203.007C308.514 203.242 308.323 203.198 308.323 203.181C308.964 202.717 309.58 202.218 310.166 201.686C310.808 201.054 311.392 200.366 311.913 199.63C313.191 197.825 314.067 195.766 314.483 193.594C314.649 192.709 314.737 191.811 314.746 190.911C314.786 189.371 314.584 188.425 314.64 188.408Z" fill="#FAFAFA"/>
<path d="M57.46 195.195C64.3032 186.667 62.9928 174.94 59.7 165.011C59.14 163.331 58.8208 161.534 57.5944 160.296C56.368 159.059 54.2344 158.616 52.924 159.736C51.8544 160.688 51.7368 162.29 51.3896 163.69C50.927 165.558 49.9445 167.257 48.556 168.59C47.6544 169.452 46.4336 170.18 45.196 169.906C43.516 169.531 42.7656 167.587 42.2896 165.919C41.4235 162.809 40.5536 159.703 39.68 156.6C39.2929 154.906 38.6349 153.285 37.7312 151.801C36.7512 150.373 35.1776 149.236 33.464 149.259C31.7504 149.281 30.0592 150.765 30.1992 152.49C30.3392 153.198 30.5262 153.895 30.7592 154.579C30.916 155.284 30.8152 156.141 30.1992 156.527C29.5832 156.914 28.788 156.639 28.1496 156.298C25.9096 155.116 24.14 153.291 22.4208 151.459C20.7016 149.628 18.9992 147.724 16.8992 146.347C14.7992 144.969 12.2232 144.146 9.79841 144.711C7.37361 145.277 5.26241 147.511 5.31841 150.003C5.37441 152.495 7.46321 154.511 9.51281 155.973C12.5572 158.145 15.8995 159.865 19.436 161.08C20.089 161.232 20.6771 161.587 21.116 162.094C21.7992 163.096 21.0712 164.507 20.08 165.191C18.96 165.969 17.5768 166.232 16.3224 166.764C15.068 167.296 13.8304 168.282 13.696 169.654C13.5112 171.552 15.46 172.919 17.2016 173.68C20.6907 175.198 24.4147 176.106 28.2112 176.363C29.572 176.458 30.972 176.475 32.2152 177.046C33.4584 177.617 34.4888 178.939 34.2312 180.283C33.9736 181.627 32.5512 182.455 31.2016 182.595C29.852 182.735 28.4968 182.371 27.1416 182.265C24.5992 182.069 21.6928 183.094 20.8024 185.502C20.5543 186.313 20.4975 187.17 20.6364 188.007C20.7754 188.843 21.1063 189.636 21.6032 190.323C22.6098 191.681 23.8779 192.823 25.3328 193.683C30.2335 196.977 35.921 198.909 41.8136 199.283C47.66 199.574 52.7224 198.634 57.4376 195.162" fill="#EBEBEB"/>
<path d="M7.0824 147.013L7.2896 147.119L7.9168 147.416C8.4768 147.674 9.272 148.054 10.3024 148.575C13.2123 150.033 16.009 151.706 18.6688 153.582C20.3488 154.763 22.1576 156.135 24.0616 157.642C25.9656 159.148 27.9816 160.778 30.048 162.57C32.2069 164.428 34.2632 166.402 36.208 168.483C37.2216 169.57 38.1848 170.723 39.1648 171.922L42.1384 175.534C45.9483 180.096 49.5005 184.867 52.7784 189.825C55.4318 193.888 57.6986 198.191 59.5488 202.677C60.7873 205.708 61.7616 208.841 62.4608 212.04C62.696 213.16 62.864 214.062 62.9536 214.666C63.004 214.952 63.0432 215.182 63.0712 215.35C63.0809 215.429 63.0978 215.508 63.1216 215.585C63.1292 215.505 63.1292 215.424 63.1216 215.344C63.0992 215.176 63.0712 214.946 63.0376 214.655C62.9648 214.05 62.8192 213.16 62.6008 212.018C61.9519 208.8 61.0148 205.648 59.8008 202.598C57.9779 198.084 55.7277 193.754 53.0808 189.668C49.8095 184.693 46.2571 179.908 42.4408 175.338L39.4336 171.72C38.4536 170.533 37.4848 169.357 36.4656 168.27C34.5015 166.181 32.4226 164.203 30.2384 162.346C28.1664 160.554 26.1336 158.935 24.224 157.429C22.3144 155.922 20.5 154.567 18.7976 153.391C16.1198 151.527 13.2978 149.879 10.3584 148.463C9.3168 147.959 8.4992 147.595 7.9392 147.343L7.3064 147.08C7.23407 147.05 7.15905 147.028 7.0824 147.013Z" fill="#E0E0E0"/>
<path d="M36.3704 168.282C36.384 168.029 36.369 167.775 36.3256 167.526C36.2808 167.039 36.1912 166.339 36.0624 165.476C35.816 163.751 35.3904 161.377 34.9088 158.756C34.4272 156.135 34.0408 153.767 33.7888 152.036C33.6768 151.174 33.5928 150.474 33.5368 149.992C33.5248 149.738 33.4854 149.487 33.4192 149.242C33.3913 149.493 33.3913 149.746 33.4192 149.998C33.4192 150.491 33.4864 151.191 33.5704 152.064C33.7384 153.8 34.0912 156.186 34.5728 158.784C35.0544 161.383 35.4856 163.695 35.816 165.504C35.9616 166.311 36.0848 166.994 36.18 167.537C36.2157 167.791 36.2795 168.041 36.3704 168.282Z" fill="#E0E0E0"/>
<path d="M13.7912 170.539C14.0904 170.521 14.3869 170.472 14.676 170.393C15.236 170.281 16.0536 170.113 17.0672 169.945C19.0888 169.581 21.9056 169.178 25.0248 168.87C28.144 168.562 30.9832 168.416 33.0384 168.366C34.0688 168.332 34.9032 168.327 35.4744 168.321C35.7736 168.339 36.0739 168.326 36.3704 168.282C36.0769 168.226 35.7788 168.198 35.48 168.198C34.92 168.164 34.0688 168.136 33.0384 168.136C30.972 168.136 28.1216 168.248 24.9912 168.551C22.3182 168.801 19.6601 169.192 17.028 169.721C16.0144 169.923 15.2024 170.119 14.648 170.281C14.3556 170.342 14.069 170.428 13.7912 170.539Z" fill="#E0E0E0"/>
<path d="M52.6496 189.349C52.6888 189.252 52.7133 189.15 52.7224 189.046C52.7616 188.806 52.8064 188.514 52.8624 188.162C52.98 187.394 53.12 186.286 53.2768 184.908C53.596 182.153 53.9096 178.334 54.2064 174.117C54.5032 169.9 54.7664 166.075 55.0352 163.32C55.164 161.982 55.2704 160.878 55.3488 160.055L55.4328 159.165C55.4484 159.061 55.4484 158.955 55.4328 158.851C55.3965 158.951 55.3721 159.054 55.36 159.159C55.3264 159.394 55.276 159.686 55.22 160.038C55.1024 160.806 54.9624 161.92 54.8056 163.298C54.492 166.047 54.1728 169.866 53.8816 174.089C53.5904 178.311 53.3216 182.125 53.0472 184.88L52.7336 188.145C52.7 188.503 52.6776 188.794 52.6552 189.035C52.6435 189.139 52.6417 189.244 52.6496 189.349Z" fill="#E0E0E0"/>
<path d="M21.5248 188.52C21.6266 188.55 21.7325 188.563 21.8384 188.559L22.7456 188.593L26.1056 188.688C28.9056 188.772 32.8256 188.929 37.104 189.108C41.3824 189.287 45.2968 189.416 48.1136 189.438C49.5248 189.438 50.6616 189.438 51.4736 189.438L52.3808 189.41C52.4847 189.427 52.5905 189.427 52.6944 189.41C52.592 189.385 52.4864 189.374 52.3808 189.377L51.4736 189.338L48.1416 189.242C45.3416 189.164 41.4216 189.002 37.1376 188.822C32.8536 188.643 28.9504 188.52 26.128 188.492C24.7224 188.492 23.58 188.492 22.768 188.492H21.8608C21.7481 188.488 21.6353 188.497 21.5248 188.52Z" fill="#E0E0E0"/>
<path d="M124.15 78.0768L125.718 94.3392H133.642L135.541 78.0768H124.15Z" fill="#F5F5F5"/>
<path d="M124.15 75.9601C123.663 76.5683 123.4 77.3256 123.406 78.1049H136.286C136.348 77.7137 136.313 77.313 136.183 76.9387C136.053 76.5644 135.833 76.2282 135.541 75.9601H124.15Z" fill="#E0E0E0"/>
<path d="M125.618 74.4873L125.181 76.0945L134.902 76.1673L134.258 74.4705L125.618 74.4873Z" fill="#E0E0E0"/>
<path d="M123.988 82.1481C123.988 82.2993 124.929 90.3353 124.929 90.3353H134.617L135.541 82.1481H123.988Z" fill="#EBEBEB"/>
<path d="M355.229 217.797C355.229 217.881 275.877 217.942 178.011 217.942C80.1456 217.942 0.771179 217.881 0.771179 217.797C0.771179 217.713 80.1064 217.64 178 217.64C275.894 217.64 355.229 217.718 355.229 217.797Z" fill="#263238"/>
<path d="M310.15 50.441C318.95 41.6408 318.95 27.3728 310.15 18.5726C301.35 9.77237 287.082 9.77236 278.282 18.5726C269.481 27.3728 269.481 41.6408 278.282 50.4411C287.082 59.2413 301.35 59.2413 310.15 50.441Z" fill="#00B94F"/>
<path d="M304.448 35.1975C304.185 35.2432 303.919 35.2619 303.653 35.2535L301.463 35.2983C299.604 35.2983 296.983 35.3431 294.088 35.3431H293.948V35.1975C293.948 34.7327 293.948 34.2399 293.948 33.7415C293.948 30.4767 293.948 27.5199 293.993 25.3807C293.993 24.3503 294.026 23.4935 294.038 22.8495C294.033 22.5387 294.051 22.2279 294.094 21.9199C294.14 22.2275 294.16 22.5385 294.155 22.8495C294.155 23.4935 294.183 24.3503 294.2 25.3807C294.2 27.5199 294.245 30.4767 294.245 33.7415C294.245 34.2399 294.245 34.7327 294.245 35.1975L294.099 35.0575C297.022 35.0575 299.615 35.0575 301.474 35.1023L303.664 35.1471C303.926 35.1433 304.188 35.1601 304.448 35.1975Z" fill="#FAFAFA"/>
<path d="M294.161 15.6704C294.303 16.2905 294.352 16.9285 294.306 17.5632C294.353 18.1979 294.304 18.836 294.161 19.456C294.015 18.8364 293.966 18.1979 294.015 17.5632C293.966 16.9285 294.015 16.29 294.161 15.6704Z" fill="#FAFAFA"/>
<path d="M304.426 18.7112C304.098 19.2463 303.688 19.7263 303.21 20.1336C302.8 20.6098 302.321 21.0213 301.788 21.3544C302.117 20.8185 302.527 20.3368 303.003 19.9264C303.414 19.4524 303.893 19.0427 304.426 18.7112Z" fill="#FAFAFA"/>
<path d="M310.434 25.2744C309.956 25.6779 309.434 26.0255 308.878 26.3104C308.368 26.6714 307.819 26.9738 307.242 27.212C308.143 26.3286 309.235 25.6654 310.434 25.2744Z" fill="#FAFAFA"/>
<path d="M313.951 35.0072C312.236 35.2013 310.504 35.2013 308.788 35.0072C310.504 34.813 312.236 34.813 313.951 35.0072Z" fill="#FAFAFA"/>
<path d="M278.156 34.66C276.536 34.8542 274.898 34.8542 273.278 34.66C274.898 34.4659 276.536 34.4659 278.156 34.66Z" fill="#FAFAFA"/>
<path d="M280.687 41.9064C280.141 42.5371 279.523 43.101 278.845 43.5864C278.229 44.1474 277.549 44.6325 276.818 45.0312C277.367 44.4038 277.985 43.8402 278.66 43.3512C279.278 42.7931 279.958 42.3083 280.687 41.9064Z" fill="#FAFAFA"/>
<path d="M286.931 47.512C286.567 48.2662 286.148 48.9925 285.677 49.6848C285.287 50.4254 284.843 51.1366 284.35 51.8128C284.92 50.2238 285.797 48.7625 286.931 47.512Z" fill="#FAFAFA"/>
<path d="M294.161 54.7359C294.014 53.8838 293.965 53.0176 294.015 52.1544C293.965 51.2911 294.014 50.4249 294.161 49.5728C294.304 50.4253 294.353 51.2911 294.306 52.1544C294.353 53.0176 294.305 53.8834 294.161 54.7359Z" fill="#FAFAFA"/>
<path d="M305.288 51.32C303.756 50.5164 302.432 49.3658 301.424 47.96C302.095 48.4858 302.738 49.0465 303.35 49.64C304.025 50.1664 304.671 50.7271 305.288 51.32Z" fill="#FAFAFA"/>
<path d="M310.507 45.6752C309.886 45.2458 309.321 44.7397 308.827 44.1688C308.257 43.6755 307.752 43.1109 307.326 42.4888C307.956 42.9177 308.53 43.4237 309.034 43.9952C309.593 44.4919 310.088 45.0563 310.507 45.6752Z" fill="#FAFAFA"/>
<path d="M280.48 27.7216C279.915 27.3632 279.405 26.9236 278.968 26.4168C278.464 25.9802 278.027 25.4728 277.669 24.9104C278.231 25.2683 278.739 25.7059 279.175 26.2096C279.682 26.6469 280.122 27.1563 280.48 27.7216Z" fill="#FAFAFA"/>
<path d="M286.892 20.9288C286.339 20.5802 285.841 20.1519 285.414 19.6576C284.916 19.2339 284.486 18.7373 284.137 18.1848C284.691 18.5312 285.19 18.9598 285.615 19.456C286.113 19.8798 286.543 20.3763 286.892 20.9288Z" fill="#FAFAFA"/>
<path d="M303.121 217.808L262.095 217.64C260.923 217.636 259.763 217.402 258.681 216.949C257.599 216.497 256.617 215.836 255.792 215.003C254.966 214.171 254.312 213.184 253.868 212.099C253.423 211.014 253.197 209.852 253.202 208.68L253.634 106.122C253.648 103.758 254.6 101.497 256.28 99.8339C257.959 98.1711 260.23 97.2422 262.594 97.2512L303.619 97.4416C304.792 97.4452 305.952 97.68 307.034 98.1324C308.115 98.5848 309.097 99.246 309.923 100.078C310.749 100.91 311.403 101.897 311.847 102.982C312.291 104.067 312.517 105.229 312.512 106.402L312.081 208.954C312.062 211.315 311.108 213.572 309.429 215.231C307.75 216.89 305.482 217.817 303.121 217.808Z" fill="#263238"/>
<path d="M303.574 100.969L295.622 100.93C295.1 100.941 294.603 101.157 294.24 101.533C293.877 101.909 293.677 102.413 293.685 102.935V104.374C293.692 104.898 293.492 105.403 293.128 105.778C292.763 106.154 292.265 106.37 291.742 106.379L276.241 106.306C275.718 106.293 275.221 106.073 274.86 105.694C274.499 105.315 274.302 104.808 274.314 104.285V102.845C274.327 102.322 274.13 101.815 273.769 101.436C273.408 101.057 272.911 100.837 272.388 100.824H269.588L262.627 100.79C261.806 100.785 260.992 100.942 260.231 101.252C259.471 101.561 258.779 102.018 258.195 102.595C257.611 103.172 257.146 103.859 256.828 104.616C256.509 105.373 256.343 106.185 256.339 107.006L255.913 207.106C255.91 208.763 256.565 210.354 257.733 211.529C258.902 212.704 260.489 213.367 262.146 213.373L303.082 213.563C303.903 213.568 304.717 213.412 305.478 213.102C306.238 212.792 306.93 212.336 307.514 211.758C308.098 211.181 308.563 210.494 308.881 209.737C309.2 208.981 309.366 208.168 309.371 207.347L309.796 107.247C309.8 106.426 309.642 105.613 309.331 104.853C309.02 104.094 308.563 103.403 307.985 102.82C307.408 102.237 306.721 101.773 305.964 101.456C305.207 101.138 304.395 100.973 303.574 100.969Z" fill="white"/>
<path d="M275.44 183.62L275.843 191.057C275.849 191.185 275.904 191.306 275.997 191.395C276.09 191.483 276.213 191.533 276.342 191.533L289.726 191.628C289.792 191.629 289.858 191.618 289.919 191.593C289.98 191.569 290.036 191.532 290.083 191.486C290.13 191.439 290.168 191.384 290.193 191.322C290.218 191.261 290.23 191.196 290.23 191.13L290.275 185.339C290.275 185.205 290.221 185.077 290.127 184.983C290.032 184.888 289.904 184.835 289.771 184.835H281.538C281.406 184.833 281.279 184.779 281.186 184.684L279.763 183.267C279.718 183.221 279.664 183.184 279.605 183.159C279.545 183.133 279.481 183.121 279.416 183.121L275.944 183.094C275.876 183.093 275.809 183.107 275.746 183.134C275.683 183.161 275.627 183.2 275.58 183.249C275.532 183.298 275.496 183.356 275.472 183.42C275.448 183.484 275.437 183.552 275.44 183.62Z" fill="#00B94F"/>
<path d="M290.292 183.96L275.665 183.853L275.601 192.595L290.228 192.702L290.292 183.96Z" fill="#F5F5F5"/>
<path d="M274.499 184.628L275.552 193.75C275.56 193.829 275.598 193.902 275.657 193.955C275.716 194.007 275.792 194.036 275.871 194.036L290.123 194.142C290.204 194.141 290.282 194.111 290.342 194.056C290.402 194.001 290.44 193.926 290.448 193.846L291.232 184.74C291.236 184.695 291.231 184.651 291.216 184.608C291.202 184.566 291.179 184.527 291.149 184.494C291.119 184.461 291.083 184.434 291.042 184.416C291.002 184.398 290.958 184.388 290.913 184.387L274.824 184.27C274.778 184.269 274.733 184.279 274.691 184.297C274.65 184.315 274.612 184.342 274.582 184.376C274.551 184.41 274.528 184.45 274.514 184.493C274.499 184.537 274.495 184.583 274.499 184.628Z" fill="#00B94F"/>
<path d="M298.697 155.598C298.537 155.088 298.452 154.558 298.445 154.024C298.338 153.526 298.249 152.904 298.075 152.215L297.756 151.095C297.638 150.703 297.459 150.311 297.302 149.891C295.917 146.515 293.407 143.722 290.196 141.987C286.986 140.251 283.274 139.68 279.69 140.371C277.622 140.774 275.653 141.578 273.894 142.74C272.704 143.536 271.616 144.476 270.658 145.54C270.305 145.91 270.053 146.212 269.874 146.414C269.694 146.615 269.588 146.716 269.56 146.699C269.532 146.682 269.594 146.554 269.734 146.313C269.929 145.966 270.15 145.635 270.394 145.322C271.284 144.146 272.345 143.109 273.542 142.247C275.333 140.956 277.374 140.054 279.534 139.598C282.193 139.038 284.952 139.161 287.551 139.956C290.15 140.751 292.505 142.193 294.396 144.146C295.924 145.734 297.108 147.622 297.874 149.69C298.019 150.132 298.187 150.546 298.288 150.955C298.389 151.364 298.467 151.75 298.551 152.114C298.686 152.842 298.73 153.481 298.786 153.996C298.83 154.531 298.8 155.07 298.697 155.598Z" fill="#00B94F"/>
<path d="M291.12 149.947C291.266 149.757 294.738 152.148 298.87 155.29L299.1 155.469L298.422 155.67C300.102 150.894 301.614 147.136 301.838 147.214C302.062 147.293 300.909 151.179 299.246 155.962L299.05 156.522L298.568 156.158L298.338 155.984C294.178 152.848 290.946 150.143 291.12 149.947Z" fill="#00B94F"/>
<path d="M268.72 152.954C268.815 153.466 268.836 153.988 268.782 154.506C268.81 154.998 268.843 155.626 268.911 156.292C269.013 157.074 269.166 157.848 269.37 158.61C269.902 160.585 270.803 162.441 272.024 164.082C273.507 166.082 275.446 167.698 277.68 168.797L278.123 169.026L278.576 169.206L279.483 169.564C279.791 169.659 280.099 169.738 280.402 169.827C280.702 169.927 281.009 170.006 281.32 170.062C284.51 170.746 287.834 170.433 290.84 169.166C292.119 168.626 293.33 167.936 294.447 167.111C294.844 166.82 295.147 166.585 295.354 166.417C295.561 166.249 295.684 166.187 295.707 166.21C295.729 166.232 295.645 166.344 295.471 166.546C295.221 166.841 294.949 167.118 294.659 167.374C293.593 168.331 292.391 169.126 291.092 169.732C289.162 170.645 287.066 171.152 284.932 171.222C283.666 171.262 282.399 171.155 281.158 170.902C280.832 170.841 280.511 170.76 280.195 170.662C279.87 170.572 279.545 170.488 279.22 170.387L278.24 170.04L277.753 169.85L277.288 169.614L276.364 169.138C276.067 168.959 275.804 168.769 275.496 168.578C274.935 168.211 274.399 167.809 273.889 167.374C273.631 167.173 273.413 166.926 273.178 166.708C272.943 166.49 272.702 166.271 272.5 166.025L271.895 165.308L271.599 164.955L271.335 164.58C270.079 162.835 269.189 160.854 268.72 158.756C268.542 157.96 268.426 157.151 268.373 156.337C268.373 155.62 268.373 154.998 268.373 154.494C268.411 153.967 268.528 153.447 268.72 152.954Z" fill="#00B94F"/>
<path d="M275.546 159.495C275.378 159.663 272.226 156.869 268.513 153.246L268.306 153.038L269 152.921C266.76 157.457 264.789 161.002 264.576 160.895C264.363 160.789 265.982 157.076 268.216 152.534L268.485 151.974L268.916 152.394L269.123 152.596C272.836 156.242 275.714 159.322 275.546 159.495Z" fill="#00B94F"/>
<path d="M52.6216 94.5745H228.361C228.856 94.5745 229.347 94.6721 229.805 94.8618C230.263 95.0515 230.679 95.3295 231.03 95.68C231.38 96.0304 231.658 96.4465 231.848 96.9045C232.038 97.3624 232.135 97.8532 232.135 98.3489V207.997C232.135 210.161 231.276 212.236 229.745 213.766C228.215 215.296 226.14 216.156 223.976 216.156H56.4408C54.2769 216.156 52.2015 215.296 50.6714 213.766C49.1412 212.236 48.2816 210.161 48.2816 207.997V98.9201C48.2809 98.3497 48.3926 97.7847 48.6104 97.2575C48.8282 96.7303 49.1477 96.2512 49.5508 95.8476C49.9539 95.444 50.4326 95.1238 50.9595 94.9054C51.4864 94.6869 52.0512 94.5745 52.6216 94.5745Z" fill="#263238"/>
<path d="M40.5928 207.162H239.785V210.114C239.785 211.123 239.586 212.122 239.2 213.054C238.814 213.986 238.248 214.833 237.534 215.547C236.821 216.26 235.974 216.826 235.042 217.212C234.11 217.598 233.111 217.797 232.102 217.797H48.2816C47.2726 217.797 46.2735 217.598 45.3413 217.212C44.4092 216.826 43.5622 216.26 42.8487 215.547C42.1353 214.833 41.5693 213.986 41.1832 213.054C40.7971 212.122 40.5984 211.123 40.5984 210.114V207.162H40.5928Z" fill="#263238"/>
<path d="M226.686 99.4072H53.2208V202.078H226.686V99.4072Z" fill="#455A64"/>
<path d="M122.084 207.162L124.554 211.094H159.335L161.631 207.162H122.084Z" fill="#455A64"/>
<path d="M218.712 106.245H59.0056V202.038H218.712V106.245Z" fill="white"/>
<path d="M65.8208 110.966C65.8219 111.232 65.7439 111.493 65.5966 111.714C65.4494 111.936 65.2395 112.109 64.9937 112.212C64.7479 112.314 64.4772 112.341 64.216 112.29C63.9548 112.238 63.7148 112.11 63.5265 111.922C63.3382 111.733 63.21 111.493 63.1584 111.232C63.1067 110.971 63.1338 110.7 63.2362 110.454C63.3386 110.208 63.5117 109.999 63.7336 109.851C63.9555 109.704 64.2161 109.626 64.4824 109.627C64.8369 109.629 65.1765 109.77 65.4272 110.021C65.6778 110.272 65.8193 110.611 65.8208 110.966Z" fill="#263238"/>
<path d="M71.2864 110.966C71.2864 111.23 71.2079 111.489 71.0608 111.709C70.9137 111.929 70.7047 112.101 70.4601 112.202C70.2156 112.303 69.9465 112.33 69.6869 112.278C69.4272 112.227 69.1887 112.099 69.0016 111.912C68.8144 111.725 68.6869 111.486 68.6353 111.227C68.5836 110.967 68.6101 110.698 68.7114 110.453C68.8127 110.209 68.9843 110 69.2044 109.853C69.4245 109.706 69.6833 109.627 69.948 109.627C70.3025 109.629 70.642 109.77 70.8927 110.021C71.1434 110.272 71.2849 110.611 71.2864 110.966Z" fill="#263238"/>
<path d="M76.7576 110.966C76.7587 111.232 76.6806 111.493 76.5334 111.714C76.3861 111.936 76.1763 112.109 75.9305 112.212C75.6847 112.314 75.414 112.341 75.1527 112.29C74.8915 112.238 74.6515 112.11 74.4632 111.922C74.2749 111.733 74.1468 111.493 74.0951 111.232C74.0435 110.971 74.0705 110.7 74.173 110.454C74.2754 110.208 74.4485 109.999 74.6704 109.851C74.8923 109.704 75.1529 109.626 75.4192 109.627C75.7737 109.629 76.1132 109.77 76.3639 110.021C76.6146 110.272 76.7561 110.611 76.7576 110.966Z" fill="#263238"/>
<path d="M218.712 116.84C218.712 116.924 182.956 116.991 138.862 116.991C94.7671 116.991 59.0056 116.924 59.0056 116.84C59.0056 116.756 94.7503 116.689 138.862 116.689C182.973 116.689 218.712 116.745 218.712 116.84Z" fill="#263238"/>
<path d="M232.13 207.241H48.2816V207.829H232.13V207.241Z" fill="#455A64"/>
<path d="M112.374 138.221L113.981 167.8C114.009 168.307 114.229 168.784 114.596 169.134C114.963 169.485 115.45 169.682 115.958 169.687L169.158 170.074C169.687 170.077 170.196 169.87 170.573 169.498C170.949 169.126 171.164 168.62 171.168 168.091L171.336 145.075C171.337 144.812 171.287 144.552 171.188 144.308C171.088 144.065 170.942 143.843 170.756 143.656C170.571 143.47 170.351 143.321 170.108 143.22C169.866 143.118 169.605 143.066 169.342 143.065L136.616 143.037C136.091 143.041 135.585 142.84 135.205 142.477L129.56 136.832C129.187 136.47 128.686 136.269 128.166 136.272L114.367 136.171C114.101 136.171 113.837 136.225 113.591 136.328C113.346 136.432 113.123 136.584 112.937 136.775C112.751 136.966 112.606 137.192 112.509 137.441C112.412 137.689 112.366 137.954 112.374 138.221Z" fill="#00B94F"/>
<path d="M171.386 139.583L113.249 139.157L112.994 173.898L171.132 174.325L171.386 139.583Z" fill="#F5F5F5"/>
<path d="M108.605 142.242L112.777 178.502C112.816 178.81 112.966 179.094 113.199 179.3C113.432 179.506 113.731 179.62 114.042 179.622L170.698 180.036C171.021 180.039 171.333 179.919 171.572 179.701C171.811 179.483 171.959 179.182 171.986 178.86L175.105 142.656C175.12 142.479 175.099 142.302 175.042 142.134C174.985 141.966 174.894 141.811 174.775 141.68C174.655 141.549 174.51 141.444 174.348 141.372C174.186 141.3 174.011 141.263 173.834 141.262L109.887 140.791C109.704 140.79 109.522 140.828 109.354 140.902C109.187 140.977 109.037 141.087 108.915 141.224C108.794 141.362 108.703 141.524 108.65 141.699C108.596 141.875 108.581 142.06 108.605 142.242Z" fill="#00B94F"/>
<path d="M154.245 160.666C154.066 160.666 154.161 159.081 153.198 156.824C152.638 155.521 151.834 154.336 150.829 153.335C149.593 152.126 148.089 151.226 146.438 150.709C144.779 150.22 143.028 150.124 141.326 150.429C139.929 150.69 138.597 151.223 137.406 151.997C135.362 153.341 134.522 154.702 134.398 154.601C134.359 154.573 134.505 154.203 134.919 153.626C135.516 152.808 136.235 152.086 137.053 151.487C138.276 150.586 139.677 149.956 141.163 149.639C142.996 149.246 144.898 149.326 146.691 149.874C148.483 150.422 150.106 151.419 151.406 152.77C152.452 153.869 153.258 155.173 153.774 156.6C154.109 157.554 154.297 158.553 154.334 159.562C154.34 160.279 154.301 160.666 154.245 160.666Z" fill="#E0E0E0"/>
<path d="M149.065 156.818C149.21 156.628 151.613 158.207 154.424 160.346L154.581 160.464L153.903 160.671C155.023 157.418 156.143 154.875 156.362 154.954C156.58 155.032 155.863 157.698 154.732 160.957L154.536 161.517L154.054 161.153L153.898 161.03C151.081 158.902 148.919 157.009 149.065 156.818Z" fill="#E0E0E0"/>
<path d="M133.805 158.868C133.984 158.868 133.698 160.408 134.365 162.693C134.737 164.02 135.354 165.266 136.185 166.366C137.191 167.712 138.505 168.799 140.015 169.536C140.409 169.727 140.813 169.897 141.225 170.046C141.639 170.163 142.048 170.303 142.457 170.382C143.248 170.554 144.055 170.639 144.865 170.634C146.243 170.619 147.606 170.342 148.88 169.816C149.749 169.46 150.576 169.007 151.344 168.466C151.904 168.086 152.184 167.845 152.234 167.906C152.285 167.968 152.061 168.265 151.557 168.741C150.839 169.413 150.021 169.971 149.132 170.393C147.806 171.037 146.36 171.398 144.887 171.451C144.014 171.482 143.139 171.409 142.283 171.233C141.841 171.154 141.398 171.009 140.945 170.88C140.495 170.722 140.055 170.535 139.629 170.32C138.149 169.598 136.852 168.551 135.836 167.256C134.819 165.961 134.11 164.453 133.76 162.844C133.642 162.291 133.569 161.729 133.542 161.164C133.542 160.671 133.542 160.246 133.575 159.904C133.659 159.226 133.76 158.84 133.805 158.868Z" fill="#E0E0E0"/>
<path d="M138.475 163.32C138.302 163.494 136.118 161.64 133.581 159.159L133.441 159.025L134.141 158.902C132.606 161.993 131.212 164.378 130.999 164.278C130.786 164.177 131.834 161.612 133.357 158.515L133.62 157.955L134.051 158.375L134.197 158.515C136.728 161.002 138.643 163.146 138.475 163.32Z" fill="#E0E0E0"/>
<path d="M90.1752 56.836L87.4592 65.32C86.9393 67.0486 85.9527 68.6003 84.6081 69.8047C83.2635 71.009 81.6129 71.8193 79.8376 72.1464L61.7048 75.5512L56.7712 75.3944L61.7048 69.2848L75.3352 64.6368C75.9885 64.4952 76.5904 64.177 77.0752 63.7168C77.5601 63.2566 77.9093 62.6722 78.0848 62.0272L83.5168 50.2168L90.388 54.4336L90.1752 56.836Z" fill="#B78876"/>
<path d="M116.915 48.52C116.663 49.836 112.827 59.4064 112.827 59.4064C112.827 59.4064 97.8976 54.3664 98.0936 53.6048C98.256 53.0056 101.123 43.4184 104.562 38.1096C105.209 37.0871 106.087 36.2301 107.124 35.6069C108.161 34.9836 109.33 34.6115 110.537 34.52C111.214 34.4752 112.67 35.1752 113.068 35.3992C116.21 37.1632 118.881 38.3504 116.915 48.52Z" fill="#455A64"/>
<path d="M95.8481 29.9672C89.0945 30.7232 88.0081 35.3096 84.8497 39.8288L80.2969 48.2288L88.6689 53.364L88.3777 66.244L84.3905 78.564L115.89 75.6016L112.978 65.0512L117.179 48.4864C117.498 46.2464 118.366 42.0296 117.778 39.812C115.941 32.868 108.728 30.852 103.778 29.5528C102.753 29.284 97.8137 29.3008 96.9569 29.5136" fill="#00B94F"/>
<path d="M116.641 48.3855C116.614 48.4437 116.592 48.5035 116.574 48.5647C116.529 48.6935 116.473 48.8727 116.4 49.0967L115.75 51.1295C115.19 52.8991 114.412 55.4247 113.46 58.4879L113.566 58.4375L99.5664 53.2631L99.2192 53.1175L99.2752 53.2351C100.12 50.0896 101.209 47.0151 102.534 44.0399C103.572 41.5872 104.979 39.3077 106.706 37.2807C107.381 36.5179 108.178 35.8726 109.064 35.3711C109.729 34.9882 110.476 34.7676 111.242 34.7271C111.39 34.7162 111.538 34.7162 111.685 34.7271L112.077 34.7663C112.194 34.7663 112.306 34.7663 112.407 34.8055L112.676 34.8783L113.046 34.9735H113.174C113.137 34.9508 113.095 34.9356 113.051 34.9287L112.687 34.8111L112.418 34.7327C112.308 34.7088 112.195 34.692 112.082 34.6823L111.69 34.6319C111.539 34.6207 111.388 34.6207 111.237 34.6319C110.451 34.6597 109.683 34.8747 108.997 35.2591C108.093 35.7568 107.279 36.4023 106.589 37.1687C104.837 39.1945 103.41 41.4805 102.361 43.9447C101.006 46.9298 99.895 50.0199 99.04 53.1847V53.2687L99.1184 53.3023L99.4712 53.4479C104.724 55.4135 109.596 57.1607 113.51 58.5887L113.589 58.6167V58.5383L115.829 51.1519C116.086 50.2783 116.294 49.5895 116.434 49.1079C116.501 48.8839 116.551 48.6973 116.585 48.5479C116.608 48.4955 116.627 48.4412 116.641 48.3855Z" fill="#263238"/>
<path d="M99.7904 51.32C99.7904 51.3704 103.01 52.4904 107.026 53.8176C111.041 55.1448 114.306 56.1808 114.306 56.1248C114.306 56.0688 111.086 54.9544 107.076 53.6272C103.066 52.3 99.8072 51.2752 99.7904 51.32Z" fill="#263238"/>
<path d="M98.0936 78.1832L99.3032 49.0576H89.0272L86.132 79.7456L98.0936 78.1832Z" fill="#263238"/>
<g opacity="0.3">
<path opacity="0.3" d="M112.777 58.2584C112.178 61.0001 111.4 63.6996 110.447 66.3392C109.841 68.0155 108.983 69.5902 107.905 71.0096C106.303 72.8531 104.168 74.1542 101.795 74.7336C99.4327 75.3043 96.9837 75.424 94.5768 75.0864L106.572 68.3104L109.764 57.228L112.777 58.2584Z" fill="black"/>
</g>
<path d="M111.399 57.6368L108.442 67.3136C107.93 69.0555 106.948 70.6225 105.603 71.8426C104.259 73.0626 102.604 73.8886 100.821 74.2296L82.6824 77.6736L77.7488 77.5112L82.6824 71.3512L96.3184 66.6472C96.975 66.4989 97.5783 66.1736 98.063 65.7067C98.5478 65.2397 98.8953 64.6489 99.068 63.9984L101.594 54.26L111.399 57.6368Z" fill="#B78876"/>
<path d="M88.4 65.9081C88.4561 65.6069 88.4861 65.3015 88.4896 64.9953C88.5176 64.3513 88.5568 63.5113 88.6072 62.4921C88.6968 60.3809 88.8032 57.4521 88.904 54.2433C89.0048 51.0345 89.072 48.0833 89.1112 45.9889C89.1112 44.9697 89.1112 44.1297 89.1112 43.4857C89.134 43.1799 89.134 42.873 89.1112 42.5673C89.0556 42.8683 89.0274 43.1739 89.0272 43.4801C88.9936 44.1241 88.9544 44.9641 88.904 45.9777C88.8144 48.0889 88.708 51.0177 88.6072 54.2321C88.5064 57.4465 88.4392 60.3921 88.4 62.4865C88.4 63.5057 88.4 64.3513 88.372 64.9897C88.3586 65.2961 88.368 65.603 88.4 65.9081Z" fill="#263238"/>
<path d="M81.5233 45.9944C82.6484 46.8211 83.8291 47.5696 85.0569 48.2344C86.2367 48.9848 87.468 49.651 88.7417 50.228C87.6165 49.4012 86.4359 48.6528 85.2081 47.988C84.0282 47.2376 82.7969 46.5714 81.5233 45.9944Z" fill="#263238"/>
<path d="M40.0216 141.262L39.9096 135.718L50.5496 131.943L50.9864 139.66L50.3928 139.946C47.7216 141.206 36.7344 146.173 34.6848 146.358C32.4 146.57 40.0216 141.262 40.0216 141.262Z" fill="#00B94F"/>
<g opacity="0.4">
<path opacity="0.4" d="M36.348 144C36.348 144 33.7496 146.05 34.3152 146.386C34.8808 146.722 46.1704 142.124 50.9752 139.666L50.8688 139.447L37.7424 144.924C37.7424 144.924 36.936 143.793 36.348 144Z" fill="white"/>
</g>
<path d="M51.0256 139.374L50.8632 139.464L50.3872 139.688L48.64 140.5C47.1448 141.172 45.0672 142.074 42.7488 143.02C40.4304 143.966 38.3136 144.778 36.7736 145.344L34.9424 145.999L34.444 146.167C34.3866 146.191 34.3264 146.208 34.2648 146.218L34.4328 146.145L34.9256 145.949L36.74 145.254C38.2688 144.666 40.38 143.843 42.6984 142.902C45.0168 141.962 47.1 141.066 48.6064 140.416L50.3872 139.643L50.8744 139.436C50.9224 139.41 50.9731 139.389 51.0256 139.374Z" fill="#263238"/>
<path d="M37.8096 145.07C37.6067 144.805 37.3758 144.562 37.1208 144.347C36.8425 144.167 36.5436 144.02 36.2304 143.91C36.5836 143.9 36.9285 144.019 37.1992 144.246C37.4983 144.435 37.716 144.729 37.8096 145.07Z" fill="#263238"/>
<path d="M40.1224 142.404C40.1224 142.432 39.8928 142.32 39.6576 142.152C39.4224 141.984 39.2432 141.822 39.2656 141.794C39.288 141.766 39.4952 141.878 39.7304 142.046C39.9656 142.214 40.1448 142.37 40.1224 142.404Z" fill="#263238"/>
<path d="M40.7552 141.654C40.7552 141.687 40.5424 141.654 40.3072 141.564C40.072 141.474 39.8984 141.385 39.9096 141.351C39.9208 141.318 40.1224 141.351 40.352 141.441C40.5816 141.53 40.7664 141.62 40.7552 141.654Z" fill="#263238"/>
<path d="M40.8784 140.511C40.8784 140.545 40.6768 140.668 40.3912 140.791C40.2192 140.885 40.0272 140.937 39.8312 140.942C39.9761 140.82 40.1434 140.727 40.324 140.668C40.4946 140.575 40.6841 140.521 40.8784 140.511Z" fill="#263238"/>
<path d="M40.8 139.8C40.8 139.8 40.6208 140.041 40.296 140.203C40.1109 140.316 39.8964 140.37 39.68 140.36C39.68 140.321 39.9376 140.237 40.24 140.08C40.4189 139.972 40.6062 139.878 40.8 139.8Z" fill="#263238"/>
<path d="M39.4392 141.676C39.2414 141.794 39.0258 141.879 38.8008 141.928C38.559 141.994 38.3115 142.037 38.0616 142.057C37.9109 142.074 37.7587 142.074 37.608 142.057C37.5158 142.042 37.4321 141.995 37.3728 141.922C37.3444 141.878 37.3292 141.827 37.3292 141.774C37.3292 141.721 37.3444 141.67 37.3728 141.626C37.567 141.408 37.8309 141.265 38.1191 141.221C38.4073 141.177 38.7018 141.235 38.952 141.385C39.101 141.469 39.2307 141.583 39.3328 141.721C39.3733 141.77 39.402 141.827 39.4168 141.889C39.2739 141.718 39.1012 141.573 38.9072 141.463C38.695 141.354 38.4561 141.308 38.2184 141.329C37.9356 141.349 37.6721 141.48 37.4848 141.693C37.412 141.805 37.4848 141.911 37.6416 141.928C37.7813 141.942 37.922 141.942 38.0616 141.928C38.3042 141.912 38.5456 141.88 38.784 141.833C39.1872 141.754 39.428 141.654 39.4392 141.676Z" fill="#263238"/>
<path d="M39.288 141.777C39.1553 141.674 39.0638 141.527 39.0304 141.362C38.983 141.179 38.983 140.986 39.0304 140.802C39.0408 140.682 39.0831 140.567 39.153 140.468C39.2229 140.37 39.3179 140.292 39.428 140.242C39.4975 140.232 39.5682 140.248 39.6263 140.288C39.6844 140.327 39.7256 140.387 39.7416 140.455C39.7668 140.564 39.7668 140.677 39.7416 140.786C39.7162 140.959 39.6692 141.128 39.6016 141.29C39.5499 141.446 39.4593 141.587 39.3384 141.698C39.3384 141.698 39.4224 141.53 39.512 141.262C39.5678 141.102 39.6054 140.937 39.624 140.769C39.6576 140.601 39.624 140.332 39.4504 140.371C39.2768 140.41 39.1872 140.646 39.1368 140.808C39.1036 140.969 39.1036 141.135 39.1368 141.295C39.1689 141.461 39.2197 141.622 39.288 141.777Z" fill="#263238"/>
<path d="M49.7208 136.748C49.7208 136.748 49.424 136.838 48.9984 137.073C48.4457 137.379 47.9869 137.83 47.6712 138.378C47.3667 138.932 47.2214 139.56 47.2512 140.192C47.2512 140.679 47.3744 140.97 47.352 140.976C47.3296 140.982 47.3128 140.909 47.268 140.774C47.2147 140.592 47.1791 140.404 47.1616 140.214C47.0998 139.561 47.2388 138.904 47.5599 138.332C47.8811 137.76 48.3693 137.299 48.9592 137.011C49.1377 136.92 49.3255 136.849 49.5192 136.798C49.5834 136.771 49.6514 136.754 49.7208 136.748Z" fill="#263238"/>
<path d="M47.0216 133.08C47.664 134.392 48.2251 135.742 48.7016 137.123C48.3606 136.474 48.0558 135.807 47.7888 135.124C47.4926 134.459 47.2364 133.776 47.0216 133.08Z" fill="#263238"/>
<path d="M45.7224 140.578C45.2936 140.883 44.8267 141.129 44.3336 141.312C43.8583 141.535 43.3555 141.693 42.8384 141.782C42.8384 141.749 43.4936 141.525 44.2832 141.194C45.0728 140.864 45.7 140.545 45.7224 140.578Z" fill="#263238"/>
<path d="M47.6601 139.8C47.6937 139.8 47.6601 139.957 47.6601 140.13C47.6601 140.304 47.6601 140.455 47.6601 140.466C47.6601 140.478 47.5481 140.332 47.5537 140.13C47.5593 139.929 47.6265 139.8 47.6601 139.8Z" fill="#263238"/>
<path d="M48.0184 138.579C48.052 138.579 48.0184 138.725 47.968 138.87C47.9176 139.016 47.8336 139.122 47.8 139.106C47.7664 139.089 47.8 138.966 47.8504 138.82C47.9008 138.674 47.9848 138.568 48.0184 138.579Z" fill="#263238"/>
<path d="M48.8977 137.739C48.8977 137.778 48.7689 137.829 48.6457 137.941C48.5225 138.053 48.4497 138.17 48.4105 138.159C48.3713 138.148 48.4105 137.974 48.5617 137.84C48.7129 137.706 48.8921 137.706 48.8977 137.739Z" fill="#263238"/>
<path d="M49.5584 137.241C49.5864 137.269 49.5584 137.342 49.48 137.409C49.4016 137.476 49.3344 137.504 49.3064 137.476C49.2784 137.448 49.3064 137.375 49.3904 137.314C49.4744 137.252 49.536 137.213 49.5584 137.241Z" fill="#263238"/>
<path d="M82.6824 79.0457L51.4736 79.6057C49.0606 79.6511 46.7451 80.5661 44.9529 82.1825C43.1606 83.7988 42.0121 86.0078 41.7184 88.4033L35.5584 138.691H52.504L57.6784 95.2521H82.24L82.6824 79.0457Z" fill="#263238"/>
<path d="M35.76 135.516C35.76 135.594 39.4728 135.684 44.0536 135.712C48.6344 135.74 52.2688 135.628 52.3472 135.617C52.8736 135.566 48.6344 135.449 44.0536 135.421C39.4728 135.393 35.76 135.438 35.76 135.516Z" fill="#455A64"/>
<path d="M111.976 95.2744C124.43 91.1528 115.896 74.6776 115.896 74.6776L61.4528 79.796C60.4139 79.7894 59.3839 79.9883 58.4221 80.3812C57.4603 80.7742 56.5858 81.3536 55.8488 82.0859C55.1118 82.8182 54.5269 83.689 54.1278 84.6483C53.7286 85.6075 53.5232 86.6362 53.5232 87.6752C53.5217 88.7101 53.7243 89.7352 54.1193 90.6917C54.5144 91.6483 55.0941 92.5176 55.8254 93.2499C56.5566 93.9822 57.4251 94.5632 58.3811 94.9596C59.3371 95.356 60.3619 95.56 61.3968 95.56L111.976 95.2856" fill="#263238"/>
<path d="M95.3328 77.8024L95.176 76.6264L81.2432 76.0776L74.4056 58.8352L48.3544 60.6048L57.1464 79.7456L95.3328 77.8024Z" fill="#455A64"/>
<path d="M64.152 70.0184C64.296 70.2473 64.5046 70.4284 64.7515 70.5387C64.9985 70.649 65.2726 70.6835 65.5392 70.6379C65.8057 70.5923 66.0528 70.4686 66.249 70.2825C66.4453 70.0964 66.5819 69.8563 66.6415 69.5925C66.7012 69.3287 66.6812 69.0532 66.5842 68.8008C66.4871 68.5483 66.3174 68.3304 66.0964 68.1745C65.8754 68.0186 65.6131 67.9318 65.3427 67.9251C65.0724 67.9184 64.8061 67.992 64.5776 68.1368C64.2722 68.3303 64.0558 68.6369 63.9761 68.9896C63.8963 69.3423 63.9596 69.7122 64.152 70.0184Z" fill="white"/>
<path d="M99.8464 77.4608C99.7945 77.4527 99.7416 77.4527 99.6896 77.4608H99.2304L97.4776 77.5336L91.0264 77.8361L69.7464 78.9561C68.7104 79.0009 67.68 79.0905 66.672 79.1017C65.664 79.1129 64.656 79.1577 63.676 79.2137C62.696 79.2697 61.7328 79.3368 60.792 79.432C59.8571 79.5004 58.9349 79.6886 58.048 79.992C57.201 80.2909 56.4249 80.7618 55.7688 81.3753C55.1565 81.963 54.6838 82.6806 54.3856 83.4753C54.1126 84.2092 53.9247 84.9721 53.8256 85.7489C53.7241 86.4611 53.6736 87.1798 53.6744 87.8993C53.656 89.1415 53.9042 90.3732 54.4024 91.5113C54.7796 92.3679 55.3555 93.1223 56.0824 93.7121C56.5422 94.0856 57.0685 94.3687 57.6336 94.5465C58.0256 94.6585 58.0312 94.6249 57.6336 94.4905C57.0863 94.294 56.5782 94.002 56.1328 93.6281C55.4298 93.0365 54.8722 92.2911 54.5032 91.4497C54.0323 90.3247 53.8052 89.1128 53.8368 87.8937C53.8423 87.1849 53.8984 86.4775 54.0048 85.7769C54.1036 85.0109 54.2915 84.2592 54.5648 83.5369C54.859 82.7788 55.3159 82.0944 55.9032 81.5321C56.5403 80.9478 57.2889 80.4983 58.104 80.2104C58.9706 79.9261 59.8703 79.7548 60.7808 79.7008C61.7216 79.6112 62.6792 79.5441 63.6592 79.4881C64.6392 79.4321 65.6304 79.3929 66.644 79.3817C67.6576 79.3705 68.6824 79.2809 69.724 79.2361L91.004 78.0488L97.4552 77.6569L99.208 77.5336L99.6616 77.5001L99.8464 77.4608Z" fill="#455A64"/>
<path d="M97.7465 49.08C97.7465 49.08 99.1353 35.64 111.142 32.14C112.033 32.4782 112.849 32.9881 113.544 33.6408C113.544 33.6408 102.232 33.1704 99.3033 49.08H97.7465Z" fill="#263238"/>
<path d="M89.1224 49.7297C89.1224 49.7297 86.3616 37.3033 96.4024 29.816C97.3637 29.8146 98.3157 30.0049 99.2024 30.376C99.2024 30.376 87.8401 33.876 90.6401 49.8025L89.1224 49.7297Z" fill="#263238"/>
<path d="M109.68 5.73047C109.942 5.00012 110.402 4.35711 111.009 3.87348C111.615 3.38985 112.345 3.08472 113.115 2.99228C113.885 2.89985 114.666 3.02375 115.37 3.35011C116.074 3.67647 116.673 4.1924 117.1 4.84007C117.579 5.70229 117.954 6.61759 118.22 7.56727C118.496 8.51689 119.102 9.33695 119.928 9.88007C120.942 10.4401 122.269 10.2385 123.193 10.9329C124.218 11.7001 124.246 13.3913 123.383 14.3433C122.926 14.7941 122.345 15.0991 121.714 15.2197C121.083 15.3403 120.43 15.2711 119.838 15.0209C120.132 15.7698 120.297 16.5632 120.326 17.3673C120.338 17.7702 120.251 18.1699 120.072 18.5312C119.893 18.8926 119.628 19.2044 119.301 19.4393C118.94 19.6334 118.535 19.7318 118.125 19.7249C117.716 19.7181 117.314 19.6062 116.96 19.4001C116.259 18.9746 115.659 18.4013 115.202 17.7201C115.085 18.2859 114.885 18.8313 114.608 19.3385C114.469 19.5922 114.277 19.8131 114.045 19.986C113.813 20.159 113.547 20.28 113.264 20.3409C112.911 20.371 112.556 20.304 112.238 20.1471C111.92 19.9901 111.652 19.7492 111.461 19.4505C111.086 18.8516 110.859 18.172 110.8 17.4681C110.592 15.7261 110.706 13.9609 111.136 12.2601C111.399 11.1737 111.774 10.0593 111.567 8.95607C111.36 7.85287 110.274 6.82247 109.204 7.15287" fill="#263238"/>
<path d="M123.725 13.24C123.725 13.24 123.669 13.2792 123.546 13.324C123.364 13.3927 123.176 13.447 122.986 13.4864C122.288 13.6202 121.572 13.6202 120.874 13.4864C119.822 13.291 118.848 12.7928 118.074 12.0528C117.62 11.6183 117.242 11.1111 116.954 10.552C116.662 9.95017 116.453 9.31156 116.333 8.65359C116.214 8.01566 116.037 7.3897 115.806 6.78319C115.587 6.23529 115.219 5.75992 114.742 5.41118C114.335 5.11707 113.869 4.91472 113.376 4.81805C112.883 4.72138 112.375 4.73268 111.886 4.85118C111.22 5.02237 110.607 5.35512 110.1 5.81999C109.736 6.14479 109.579 6.37999 109.54 6.37999C109.564 6.31695 109.598 6.25829 109.641 6.20639C109.748 6.04583 109.87 5.89582 110.005 5.75839C110.504 5.245 111.13 4.87223 111.819 4.67758C112.337 4.53417 112.881 4.50751 113.411 4.5995C113.94 4.6915 114.443 4.89987 114.882 5.20959C115.406 5.58057 115.812 6.09358 116.053 6.68799C116.3 7.30896 116.488 7.95215 116.613 8.60879C116.738 9.24326 116.945 9.8588 117.229 10.44C117.497 10.9748 117.853 11.4612 118.282 11.8792C119.007 12.5942 119.923 13.086 120.919 13.296C121.595 13.4403 122.291 13.4631 122.974 13.3632C123.456 13.3072 123.719 13.24 123.725 13.24Z" fill="#455A64"/>
<path d="M114.328 19.8256C114.328 19.8256 114.272 19.8256 114.188 19.736C114.059 19.6338 113.944 19.5152 113.846 19.3832C113.483 18.893 113.264 18.3112 113.214 17.7032C113.131 16.8092 113.232 15.9078 113.51 15.0544C113.865 14.0449 114.15 13.012 114.362 11.9632C114.531 10.9226 114.333 9.85558 113.802 8.94479C113.359 8.19762 112.704 7.59914 111.92 7.22559C111.394 6.96734 110.824 6.8079 110.24 6.75518C110.025 6.75493 109.809 6.73996 109.596 6.71038C109.808 6.64795 110.031 6.62517 110.251 6.64319C110.857 6.65343 111.453 6.7888 112.004 7.04079C112.835 7.40983 113.535 8.02314 114.009 8.79918C114.594 9.75558 114.82 10.8889 114.647 11.9968C114.438 13.0619 114.144 14.1087 113.768 15.1272C113.489 15.9461 113.369 16.8111 113.415 17.6752C113.443 18.2581 113.623 18.8236 113.936 19.316C114.16 19.6576 114.35 19.8088 114.328 19.8256Z" fill="#455A64"/>
<path d="M90.5336 13.0776C87.7336 6.61521 91.5696 2.67841 94.0672 1.26721C95.5512 0.427213 97.3152 0.253613 99.0232 0.208813C100.716 0.128883 102.412 0.283412 104.063 0.668013C105.714 1.06049 107.22 1.91066 108.409 3.12081C110.453 5.31041 110.918 8.54722 110.727 11.5208C110.512 15.0627 109.496 18.5095 107.754 21.6008C107.558 22.0062 107.256 22.3507 106.88 22.5976C106.687 22.7171 106.457 22.7609 106.233 22.7206C106.01 22.6803 105.809 22.5587 105.67 22.3792" fill="#263238"/>
<path d="M105.603 5.53435C106.057 5.58199 106.476 5.79839 106.778 6.14066C107.08 6.48293 107.242 6.92611 107.233 7.38235L106.197 32.0223C106.158 34.9343 100.882 38.3727 97.7688 38.3055C94.6272 38.2383 95.288 34.8951 95.5288 32.1455C95.6646 30.0373 95.6384 27.9218 95.4504 25.8175C95.4504 25.8175 91.452 25.1287 90.64 19.9599C90.2312 17.3839 90.36 13.1559 90.5784 9.70075C90.6249 8.96342 90.8201 8.24312 91.1523 7.58321C91.4844 6.92329 91.9467 6.3374 92.5112 5.86079C93.0757 5.38418 93.7308 5.02671 94.437 4.80989C95.1433 4.59307 95.8861 4.52139 96.6208 4.59915L105.603 5.53435Z" fill="#B78876"/>
<path d="M91.9168 13.0385C91.9138 13.2118 91.979 13.3795 92.0985 13.5052C92.2179 13.6309 92.3819 13.7046 92.5552 13.7105C92.64 13.7173 92.7253 13.7072 92.8061 13.6806C92.8869 13.6541 92.9616 13.6116 93.0257 13.5558C93.0899 13.5 93.1423 13.4319 93.1798 13.3556C93.2172 13.2792 93.2391 13.1962 93.244 13.1113C93.2456 12.9374 93.1791 12.7698 93.0588 12.6442C92.9385 12.5187 92.7739 12.4451 92.6 12.4393C92.5157 12.4332 92.431 12.4439 92.3509 12.4708C92.2708 12.4978 92.1968 12.5403 92.1332 12.5961C92.0696 12.6518 92.0178 12.7196 91.9806 12.7956C91.9435 12.8715 91.9218 12.9541 91.9168 13.0385Z" fill="#263238"/>
<path d="M91.4856 11.8848C91.5696 11.9688 92.0736 11.5992 92.7904 11.5992C93.5072 11.5992 94.028 11.9576 94.1064 11.8736C94.1848 11.7896 94.0616 11.6776 93.832 11.5096C93.5213 11.2944 93.1515 11.1809 92.7736 11.1848C92.4013 11.1835 92.0383 11.3013 91.7376 11.5208C91.5192 11.6888 91.4464 11.8456 91.4856 11.8848Z" fill="#263238"/>
<path d="M98.9112 13.0385C98.9082 13.2118 98.9734 13.3795 99.0928 13.5052C99.2123 13.6309 99.3763 13.7046 99.5496 13.7105C99.6344 13.7173 99.7197 13.7072 99.8005 13.6806C99.8813 13.6541 99.956 13.6116 100.02 13.5558C100.084 13.5 100.137 13.4319 100.174 13.3556C100.212 13.2792 100.233 13.1962 100.238 13.1113C100.24 12.9374 100.174 12.7698 100.053 12.6442C99.9329 12.5187 99.7682 12.4451 99.5944 12.4393C99.5101 12.4332 99.4254 12.4439 99.3453 12.4708C99.2651 12.4978 99.1911 12.5403 99.1276 12.5961C99.064 12.6518 99.0122 12.7196 98.975 12.7956C98.9379 12.8715 98.9162 12.9541 98.9112 13.0385Z" fill="#263238"/>
<path d="M98.5193 12.0192C98.6033 12.1032 99.1073 11.7336 99.8185 11.7336C100.53 11.7336 101.062 12.092 101.14 12.0024C101.218 11.9128 101.095 11.812 100.866 11.644C100.556 11.4271 100.185 11.3134 99.8073 11.3192C99.435 11.3179 99.072 11.4357 98.7713 11.6552C98.5529 11.8232 98.4801 11.98 98.5193 12.0192Z" fill="#263238"/>
<path d="M95.9209 17.3224C95.5446 17.2053 95.1552 17.1357 94.7617 17.1152C94.5769 17.1152 94.4033 17.0592 94.3753 16.9304C94.3547 16.7353 94.3979 16.5388 94.4985 16.3704C94.6665 15.9299 94.8531 15.4651 95.0585 14.976C95.5464 13.8048 95.9415 12.5971 96.2401 11.364C95.641 12.4962 95.1371 13.6763 94.7337 14.892C94.5545 15.3848 94.3809 15.8496 94.2185 16.292C94.1007 16.5114 94.0668 16.7662 94.1233 17.0088C94.1496 17.0729 94.1899 17.1303 94.2412 17.1768C94.2926 17.2233 94.3537 17.2578 94.4201 17.2776C94.5226 17.3043 94.6278 17.3193 94.7337 17.3224C95.1278 17.3731 95.5268 17.3731 95.9209 17.3224Z" fill="#263238"/>
<path d="M95.428 25.7896C97.8791 25.8315 100.293 25.1896 102.4 23.936C102.4 23.936 100.72 27.4976 95.5232 27.0104L95.428 25.7896Z" fill="#AA6550"/>
<path d="M96.24 19.0472C96.3772 18.8759 96.5553 18.742 96.7579 18.6578C96.9605 18.5737 97.1811 18.5419 97.3992 18.5656C97.5569 18.5806 97.7099 18.6269 97.8494 18.7019C97.9888 18.777 98.1119 18.8791 98.2112 19.0024C98.3049 19.1233 98.3603 19.2696 98.3703 19.4222C98.3803 19.5749 98.3444 19.7271 98.2672 19.8592C98.1508 19.9863 97.9995 20.0764 97.8322 20.1182C97.6649 20.1601 97.489 20.1518 97.3264 20.0944C96.9877 19.9708 96.6773 19.7804 96.4136 19.5344C96.333 19.4799 96.2643 19.4093 96.212 19.3272C96.1846 19.2878 96.1699 19.2408 96.1699 19.1928C96.1699 19.1447 96.1846 19.0978 96.212 19.0584" fill="#AA6550"/>
<path d="M98.0264 17.8152C97.9088 17.8152 97.9088 18.588 97.2424 19.1368C96.576 19.6856 95.7529 19.6016 95.7473 19.6968C95.7417 19.792 95.9321 19.848 96.2793 19.8536C96.7355 19.8644 97.1805 19.7114 97.5336 19.4224C97.8743 19.1428 98.0916 18.7406 98.1384 18.3024C98.1664 18.0056 98.0824 17.8152 98.0264 17.8152Z" fill="#263238"/>
<path d="M98.1945 10.7648C98.2673 10.9608 98.9841 10.8656 99.8185 10.9664C100.653 11.0672 101.342 11.2968 101.448 11.1232C101.498 11.0392 101.381 10.8544 101.106 10.6696C100.746 10.4321 100.332 10.286 99.9025 10.244C99.4727 10.1924 99.0369 10.2442 98.6313 10.3952C98.3233 10.5184 98.1665 10.6696 98.1945 10.7648Z" fill="#263238"/>
<path d="M91.76 9.81278C91.8888 9.97518 92.3816 9.81278 92.9696 9.81278C93.5576 9.81278 94.0896 9.91918 94.1792 9.75118C94.2688 9.58318 94.1512 9.50478 93.9328 9.34798C93.6395 9.16021 93.2951 9.06824 92.9472 9.08478C92.6003 9.09099 92.2639 9.20445 91.984 9.40958C91.76 9.56638 91.6928 9.73438 91.76 9.81278Z" fill="#263238"/>
<path d="M90.5672 9.68396C91.4744 5.26556 92.7064 7.01276 94.1008 4.90156C96.1168 6.94556 100.759 9.29756 103.593 9.76236C103.886 9.78228 104.171 9.87256 104.422 10.0256C104.609 10.2235 104.749 10.4615 104.83 10.7216C104.912 10.9817 104.933 11.2569 104.892 11.5264C104.837 13.0609 104.963 14.5965 105.267 16.1016C105.586 17.6197 106.369 19.0012 107.507 20.0552C109.187 16.4544 109.389 12.26 108.627 8.34556C108.314 6.74956 107.787 5.07516 106.51 4.05596C105.549 3.38663 104.437 2.96534 103.274 2.82956C100.44 2.30876 97.444 2.17996 94.7504 3.19356C92.0568 4.20716 89.9568 5.43356 89.5928 8.30636" fill="#263238"/>
<path d="M110.162 6.58165C109.987 6.70616 109.799 6.8113 109.602 6.89525C109.371 7.01228 109.132 7.1097 108.885 7.18645L108.426 7.34325L107.899 7.47765C107.029 7.68589 106.139 7.80782 105.245 7.84165C104.143 7.88019 103.041 7.81268 101.952 7.64005C100.874 7.45527 99.8161 7.16645 98.7937 6.77765C98.3474 6.60345 97.9118 6.40338 97.4889 6.17845L96.9289 5.87605L96.4249 5.55125C96.1358 5.36581 95.8589 5.16193 95.5961 4.94085L95.2713 4.67205L95.0193 4.42005C94.8539 4.27438 94.7072 4.10886 94.5825 3.92725C95.2093 4.443 95.8616 4.92708 96.5369 5.37765L97.0409 5.68005L97.6009 5.96565C98.0205 6.17392 98.4504 6.36083 98.8889 6.52565C99.8992 6.89641 100.941 7.17384 102.002 7.35445C103.065 7.52348 104.141 7.6003 105.217 7.58405C106.094 7.56372 106.967 7.46439 107.826 7.28725C109.299 6.96805 110.134 6.52005 110.162 6.58165Z" fill="#455A64"/>
<path d="M108.694 3.08728C108.563 3.22887 108.412 3.35139 108.246 3.45128C108.071 3.58779 107.884 3.70777 107.686 3.80968L107.311 4.01128L106.874 4.20168C105.251 4.8261 103.523 5.13404 101.784 5.10888C100.053 5.11774 98.3263 4.92987 96.6376 4.54888C96.1266 4.4402 95.6218 4.30374 95.1256 4.14008C94.9302 4.09753 94.7417 4.02779 94.5656 3.93288C94.5656 3.88808 95.3664 4.10648 96.66 4.34728C98.3392 4.67225 100.046 4.8354 101.756 4.83448C103.47 4.85914 105.176 4.58435 106.796 4.02248C107.445 3.74505 108.079 3.43287 108.694 3.08728Z" fill="#455A64"/>
<path d="M92.7624 1.96165C92.7624 1.92805 92.9417 1.89445 93.216 1.96165C93.5789 2.06336 93.9016 2.27457 94.14 2.56645C94.382 2.85731 94.5304 3.21455 94.5656 3.59125C94.5656 3.87685 94.5152 4.04485 94.476 4.03925C94.3757 3.57905 94.1854 3.14322 93.916 2.75685C93.44 2.14085 92.7456 2.04005 92.7624 1.96165Z" fill="#455A64"/>
<path d="M119.542 7.54486C119.581 7.47313 119.634 7.41022 119.698 7.36006C119.871 7.2044 120.089 7.10653 120.32 7.08006C120.697 7.03123 121.08 7.11646 121.401 7.32086C121.617 7.46053 121.79 7.65756 121.901 7.88994C122.012 8.12233 122.056 8.38092 122.028 8.63686C121.995 8.9444 121.887 9.23923 121.715 9.49585C121.542 9.75247 121.309 9.96315 121.037 10.1097C120.713 10.2601 120.354 10.3198 119.999 10.2823C119.644 10.2448 119.306 10.1116 119.021 9.89686C118.702 9.6784 118.446 9.38132 118.276 9.03446C118.114 8.68195 118.021 8.30183 118.002 7.91446C118.026 7.13179 118.005 6.34837 117.94 5.56806C117.788 4.84426 117.454 4.17105 116.97 3.6117C116.486 3.05235 115.868 2.62522 115.174 2.37046C114.6 2.1728 113.989 2.1089 113.388 2.18364C112.786 2.25837 112.209 2.46977 111.702 2.80166C111.001 3.23953 110.433 3.86128 110.061 4.59926C109.803 5.13126 109.747 5.45605 109.719 5.45045C109.715 5.36918 109.724 5.28775 109.747 5.20966C109.792 4.98369 109.864 4.76378 109.96 4.55446C110.254 3.88933 110.705 3.3057 111.275 2.85397C111.845 2.40224 112.516 2.09599 113.23 1.96166C113.91 1.83687 114.611 1.8909 115.263 2.11846C116.008 2.38243 116.671 2.83397 117.19 3.42942C117.709 4.02488 118.066 4.74413 118.226 5.51766C118.295 6.30896 118.316 7.10381 118.287 7.89766C118.299 8.25535 118.381 8.60724 118.528 8.93366C118.688 9.23309 118.919 9.48881 119.2 9.67846C119.446 9.86747 119.739 9.98691 120.047 10.0243C120.356 10.0618 120.668 10.0158 120.953 9.89126C121.195 9.76743 121.404 9.58652 121.561 9.3641C121.718 9.14168 121.819 8.88441 121.854 8.61446C121.884 8.39327 121.852 8.16807 121.761 7.96425C121.67 7.76043 121.524 7.58608 121.339 7.46086C121.053 7.26213 120.707 7.16729 120.359 7.19206C120.057 7.22139 119.771 7.34476 119.542 7.54486Z" fill="#263238"/>
<path d="M105.928 9.87996C105.744 9.91857 105.556 9.93176 105.368 9.91916C105.021 9.91916 104.517 9.91916 103.895 9.91916C102.262 9.89244 100.643 9.61286 99.096 9.09035C97.5332 8.54597 96.1683 7.54765 95.176 6.22315C94.8851 5.81963 94.6497 5.3789 94.476 4.91275C94.4038 4.74577 94.3603 4.56781 94.3472 4.38635C94.6252 4.9863 94.957 5.55984 95.3384 6.09995C96.346 7.34509 97.6799 8.28546 99.1912 8.81595C100.713 9.32587 102.298 9.62727 103.901 9.71195C104.579 9.7291 105.256 9.78519 105.928 9.87996Z" fill="#263238"/>
<path d="M113.286 22.5472C113.258 22.7332 113.172 22.9055 113.04 23.04C112.872 23.234 112.666 23.3921 112.435 23.5046C112.204 23.6172 111.953 23.682 111.696 23.6952C110.928 23.7161 110.182 23.4346 109.618 22.9112C109.263 22.6039 109.037 22.1739 108.986 21.7072C108.959 21.4461 109.01 21.1829 109.134 20.9514C109.258 20.7199 109.448 20.5306 109.68 20.408C109.928 20.2937 110.211 20.2807 110.468 20.3717C110.725 20.4627 110.937 20.6505 111.058 20.8952C111.105 21.0166 111.124 21.1469 111.115 21.2768C111.105 21.4066 111.066 21.5326 111.002 21.6456C110.89 21.8607 110.711 22.0337 110.492 22.1384C110.097 22.2979 109.655 22.2979 109.26 22.1384C108.923 22.0251 108.618 21.8331 108.37 21.5784C108.009 21.2151 107.778 20.7425 107.714 20.2344C107.676 20.0484 107.686 19.8557 107.742 19.6744C107.77 19.6744 107.742 19.8704 107.826 20.2008C107.929 20.6658 108.169 21.0892 108.515 21.416C108.747 21.6414 109.029 21.8084 109.338 21.9032C109.675 22.0256 110.045 22.0156 110.374 21.8752C110.54 21.8004 110.673 21.669 110.75 21.5047C110.827 21.3405 110.843 21.1541 110.794 20.9792C110.702 20.8105 110.549 20.6829 110.366 20.6217C110.184 20.5605 109.985 20.5702 109.809 20.6488C109.634 20.7512 109.492 20.9017 109.401 21.0825C109.31 21.2633 109.272 21.4666 109.294 21.668C109.34 22.063 109.53 22.4273 109.826 22.6928C110.335 23.1785 111.009 23.4544 111.713 23.4656C112.186 23.4583 112.639 23.27 112.978 22.9392C113.191 22.7208 113.264 22.536 113.286 22.5472Z" fill="#263238"/>
<path d="M89.4472 49.64C89.4472 49.6736 89.4024 49.752 89.4136 49.8752C89.4248 49.9984 89.52 50.1104 89.6712 50.0488C89.8224 49.9872 89.8112 49.8472 89.7216 49.7464C89.632 49.6456 89.5424 49.64 89.5312 49.6008C89.52 49.5616 89.6488 49.472 89.8504 49.6008C89.9088 49.6354 89.9581 49.6834 89.9941 49.7409C90.0301 49.7984 90.0519 49.8636 90.0576 49.9312C90.0591 50.0192 90.0336 50.1055 89.9845 50.1786C89.9355 50.2517 89.8652 50.308 89.7832 50.34C89.7029 50.3758 89.6135 50.3859 89.5273 50.3688C89.4411 50.3518 89.3622 50.3085 89.3016 50.2448C89.2565 50.1947 89.2247 50.1342 89.209 50.0686C89.1934 50.0031 89.1944 49.9347 89.212 49.8696C89.2736 49.64 89.4416 49.6064 89.4472 49.64Z" fill="#455A64"/>
<path d="M98.4072 49.4665C98.4072 49.5113 98.2896 49.5449 98.2168 49.6961C98.1926 49.7345 98.1785 49.7785 98.1759 49.8238C98.1732 49.8692 98.1821 49.9145 98.2017 49.9555C98.2213 49.9964 98.251 50.0318 98.288 50.0582C98.325 50.0846 98.368 50.1012 98.4132 50.1064C98.4583 50.1117 98.504 50.1054 98.546 50.0882C98.5881 50.071 98.6251 50.0434 98.6536 50.008C98.6821 49.9726 98.7011 49.9306 98.709 49.8858C98.7168 49.8411 98.7132 49.7951 98.6984 49.7521C98.6592 49.5897 98.5472 49.5281 98.5584 49.4833C98.5696 49.4385 98.76 49.4385 98.8888 49.6737C98.9239 49.7451 98.9422 49.8237 98.9422 49.9033C98.9422 49.9829 98.9239 50.0614 98.8888 50.1329C98.8389 50.2228 98.763 50.2955 98.6711 50.3415C98.5792 50.3874 98.4754 50.4045 98.3736 50.3905C98.2819 50.3855 98.1934 50.3547 98.1184 50.3015C98.0435 50.2484 97.985 50.1752 97.9499 50.0903C97.9148 50.0054 97.9044 49.9123 97.9199 49.8217C97.9354 49.7312 97.9762 49.6469 98.0376 49.5785C98.228 49.3769 98.4184 49.4329 98.4072 49.4665Z" fill="#455A64"/>
<path d="M90.024 54.4504C90.024 54.4504 90.024 54.7472 90.024 55.2792C90.0414 56.0244 90.1639 56.7634 90.388 57.4744C90.5545 57.9502 90.8112 58.3894 91.144 58.768C91.5422 59.1802 92.0663 59.4481 92.6336 59.5296C93.2547 59.6613 93.9024 59.5722 94.4648 59.2776C95.0591 58.9396 95.5417 58.4355 95.8536 57.8272C96.3882 56.7805 96.7117 55.6388 96.8056 54.4672L96.9456 54.6128C94.9408 54.6128 93.2272 54.5736 91.9952 54.5456L90.5448 54.5064C90.3576 54.509 90.1704 54.4977 89.9848 54.4728C90.1438 54.4456 90.3052 54.4344 90.4664 54.4392L91.8888 54.4C93.1152 54.372 94.868 54.344 96.9288 54.3384H97.0744V54.484C96.9968 55.7075 96.6649 56.9015 96.1 57.9896C95.7625 58.6472 95.2385 59.1907 94.5936 59.552C93.9743 59.8699 93.2643 59.9648 92.5832 59.8208C91.9615 59.7216 91.3913 59.4158 90.9648 58.9528C90.6155 58.5442 90.3509 58.0702 90.1864 57.5584C89.9772 56.8308 89.8827 56.0751 89.9064 55.3184C89.8972 55.0245 89.9369 54.7312 90.024 54.4504Z" fill="#455A64"/>
<path d="M111.83 82.68C111.702 82.7804 111.556 82.8546 111.399 82.8984C110.983 83.0481 110.547 83.1368 110.106 83.1616C109.371 83.2169 108.633 83.1105 107.945 82.85C107.256 82.5895 106.632 82.1811 106.118 81.6537C105.604 81.1262 105.212 80.4925 104.969 79.7971C104.726 79.1017 104.639 78.3616 104.713 77.6288C104.748 77.189 104.848 76.7569 105.01 76.3464C105.127 76.0552 105.217 75.9096 105.234 75.9208C105.072 76.482 104.967 77.0579 104.92 77.64C104.873 78.3386 104.974 79.0392 105.216 79.6963C105.457 80.3534 105.835 80.9521 106.324 81.4535C106.812 81.9549 107.401 82.3477 108.052 82.6063C108.703 82.8649 109.4 82.9835 110.1 82.9544C110.684 82.9187 111.264 82.8268 111.83 82.68Z" fill="#455A64"/>
<path d="M59 94.5744C59 94.496 71.152 94.4288 86.132 94.4288C101.112 94.4288 113.264 94.496 113.264 94.5744C113.264 94.6528 101.118 94.72 86.132 94.72C71.1464 94.72 59 94.6584 59 94.5744Z" fill="#455A64"/>
<path d="M243.52 69.5481C243.52 69.5481 243.352 69.5481 243.01 69.5481H241.47L235.484 69.5873L213.022 69.6657L135.513 69.7833H135.3L135.244 69.5817C134.396 66.6701 134.247 63.5994 134.809 60.6194C135.372 57.6394 136.631 54.8345 138.483 52.433C140.335 50.0314 142.727 48.1012 145.466 46.7994C148.206 45.4976 151.213 44.8611 154.245 44.9417L153.959 45.3113C153.483 43.6241 153.281 41.8714 153.36 40.1201C153.601 34.1337 157.006 28.3601 162.236 25.6665C164.773 24.3397 167.596 23.6538 170.459 23.6684C173.322 23.6831 176.138 24.3979 178.661 25.7505L178.258 25.8961C181.058 19.0977 186.921 14.1697 193.299 11.8961C199.678 9.62246 206.795 9.87446 212.373 12.7921C217.674 15.5971 221.844 20.1469 224.178 25.6721C226.312 30.5462 226.811 35.9803 225.6 41.1617L225.382 40.9153C228.428 40.5934 231.507 41.0341 234.342 42.1977C236.863 43.221 239.132 44.778 240.994 46.7617C241.845 47.6501 242.553 48.6644 243.094 49.7689C243.572 50.7935 243.947 51.8627 244.214 52.9609C244.669 54.8725 244.924 56.8262 244.976 58.7905C245.075 61.4967 244.842 64.2049 244.282 66.8545C244.133 67.5419 243.946 68.2205 243.722 68.8873C243.565 69.3353 243.481 69.5481 243.481 69.5481" fill="#00B94F"/>
<g opacity="0.3">
<path opacity="0.3" d="M243.52 69.5481C243.52 69.5481 243.352 69.5481 243.01 69.5481H241.47L235.484 69.5873L213.022 69.6657L135.513 69.7833H135.3L135.244 69.5817C134.396 66.6701 134.247 63.5994 134.809 60.6194C135.372 57.6394 136.631 54.8345 138.483 52.433C140.335 50.0314 142.727 48.1012 145.466 46.7994C148.206 45.4976 151.213 44.8611 154.245 44.9417L153.959 45.3113C153.483 43.6241 153.281 41.8714 153.36 40.1201C153.601 34.1337 157.006 28.3601 162.236 25.6665C164.773 24.3397 167.596 23.6538 170.459 23.6684C173.322 23.6831 176.138 24.3979 178.661 25.7505L178.258 25.8961C181.058 19.0977 186.921 14.1697 193.299 11.8961C199.678 9.62246 206.795 9.87446 212.373 12.7921C217.674 15.5971 221.844 20.1469 224.178 25.6721C226.312 30.5462 226.811 35.9803 225.6 41.1617L225.382 40.9153C228.428 40.5934 231.507 41.0341 234.342 42.1977C236.863 43.221 239.132 44.778 240.994 46.7617C241.845 47.6501 242.553 48.6644 243.094 49.7689C243.572 50.7935 243.947 51.8627 244.214 52.9609C244.669 54.8725 244.924 56.8262 244.976 58.7905C245.075 61.4967 244.842 64.2049 244.282 66.8545C244.133 67.5419 243.946 68.2205 243.722 68.8873C243.565 69.3353 243.481 69.5481 243.481 69.5481" fill="black"/>
</g>
<path d="M234.952 69.548C234.952 69.548 234.784 69.548 234.437 69.548H232.902L226.91 69.5872L204.454 69.6656L126.939 69.7832H126.732L126.67 69.5816C125.822 66.6696 125.673 63.5984 126.236 60.6179C126.799 57.6375 128.058 54.8322 129.911 52.4306C131.763 50.0289 134.157 48.0988 136.897 46.7974C139.636 45.496 142.645 44.8601 145.677 44.9416L145.391 45.3112C144.911 43.6191 144.708 41.8602 144.792 40.1032C145.027 34.1168 148.438 28.3432 153.668 25.6496C156.204 24.3229 159.026 23.637 161.888 23.6516C164.75 23.6662 167.565 24.381 170.087 25.7336L169.69 25.8792C172.49 19.0808 178.353 14.1528 184.731 11.8792C191.11 9.60561 198.222 9.85761 203.799 12.7752C209.102 15.5784 213.272 20.1288 215.604 25.6552C217.743 30.5174 218.254 35.9407 217.06 41.1168L216.842 40.8704C219.888 40.5462 222.968 40.9869 225.802 42.1528C228.325 43.1747 230.597 44.7318 232.46 46.7168C233.309 47.6054 234.015 48.6198 234.554 49.724C235.034 50.7477 235.409 51.8171 235.674 52.916C236.129 54.8277 236.384 56.7813 236.436 58.7456C236.533 61.4521 236.298 64.1604 235.736 66.8096C235.589 67.4975 235.402 68.1763 235.176 68.8424C235.019 69.2904 234.935 69.5032 234.935 69.5032" fill="#00B94F"/>
<path d="M201.419 44.5384C201.259 44.0232 201.174 43.4875 201.167 42.948C201.061 42.444 200.971 41.828 200.792 41.1168L200.473 39.9968C200.35 39.6048 200.17 39.2072 200.014 38.7816C199.188 36.8174 197.992 35.0302 196.491 33.5176C194.65 31.6776 192.384 30.3177 189.895 29.5571C187.405 28.7965 184.767 28.6585 182.211 29.1552C180.12 29.5581 178.129 30.3708 176.354 31.5464C175.153 32.3448 174.053 33.2849 173.078 34.3464C172.725 34.7216 172.467 35.0296 172.288 35.2368C172.109 35.444 171.997 35.5392 171.974 35.5224C171.952 35.5056 172.008 35.3712 172.148 35.136C172.343 34.7827 172.566 34.4456 172.814 34.128C173.717 32.9415 174.791 31.8959 176.001 31.0256C177.812 29.7262 179.873 28.8184 182.054 28.36C184.741 27.7938 187.527 27.9181 190.153 28.7211C192.779 29.5242 195.158 30.9798 197.068 32.952C198.61 34.5595 199.806 36.4652 200.585 38.552C200.73 39 200.904 39.42 201.005 39.8288C201.106 40.2376 201.184 40.6352 201.268 40.9992C201.408 41.7384 201.447 42.3824 201.503 42.9032C201.552 43.4495 201.524 43.9999 201.419 44.5384Z" fill="#FAFAFA"/>
<path d="M193.736 38.832C193.882 38.636 197.387 41.072 201.576 44.236L201.811 44.4096L201.134 44.6168C202.814 39.7896 204.359 35.9872 204.583 36.0656C204.807 36.144 203.637 40.0696 201.957 44.9024L201.761 45.4624L201.279 45.0984L201.05 44.9192C196.855 41.7552 193.59 39 193.736 38.832Z" fill="#FAFAFA"/>
<path d="M171.095 41.8728C171.187 42.3884 171.206 42.9143 171.151 43.4352C171.179 43.9336 171.218 44.5552 171.286 45.244C171.385 46.0343 171.54 46.8166 171.75 47.5848C172.286 49.5824 173.196 51.46 174.433 53.1176C175.94 55.1458 177.912 56.7821 180.184 57.8888L180.626 58.1128L181.091 58.2976L182.004 58.656C182.312 58.7568 182.626 58.8352 182.934 58.9304C183.237 59.0253 183.545 59.102 183.858 59.16C185.046 59.4157 186.26 59.5378 187.475 59.524C189.543 59.4927 191.585 59.063 193.49 58.2584C194.783 57.711 196.007 57.0116 197.135 56.1752C197.538 55.884 197.846 55.6432 198.054 55.4752C198.261 55.3072 198.384 55.2456 198.406 55.2624C198.429 55.2792 198.35 55.4024 198.171 55.604C197.919 55.9036 197.644 56.1827 197.348 56.4384C196.271 57.4045 195.058 58.2065 193.747 58.8184C191.797 59.7429 189.677 60.2557 187.52 60.3248C186.24 60.3663 184.96 60.2573 183.706 60C183.377 59.9435 183.051 59.8649 182.732 59.7648C182.407 59.6696 182.071 59.5856 181.746 59.4792L180.778 59.104L180.29 58.9136L179.82 58.6728L178.885 58.1912C178.582 58.012 178.297 57.816 178.006 57.6312C177.44 57.2592 176.898 56.8534 176.382 56.416C176.124 56.2088 175.9 55.9624 175.659 55.744C175.418 55.5256 175.183 55.3016 174.982 55.0552L174.366 54.3272L174.069 53.9688L173.806 53.5936C172.044 51.1638 171.009 48.2838 170.821 45.2888C170.821 44.5608 170.821 43.9336 170.821 43.424C170.835 42.8962 170.928 42.3735 171.095 41.8728Z" fill="#FAFAFA"/>
<path d="M178 48.4752C177.832 48.6488 174.64 45.8208 170.894 42.1584L170.681 41.9512L171.381 41.8336C169.107 46.4144 167.125 50.004 166.901 49.8976C166.677 49.7912 168.323 46.0392 170.586 41.4472L170.849 40.8872L171.28 41.3072L171.493 41.5144C175.278 45.1936 178.19 48.3016 178 48.4752Z" fill="#FAFAFA"/>
<path d="M282.866 97.8C282.866 97.8 282.866 97.7048 282.866 97.5144V96.6744C282.866 95.9184 282.866 94.8264 282.838 93.4208C282.838 90.576 282.838 86.4544 282.793 81.3192L282.894 81.4144L237.315 81.4648L186.725 81.4032H186.641V81.3192C186.641 77.696 186.669 74.8344 186.68 72.8632C186.68 71.8888 186.68 71.1384 186.68 70.6232C186.68 70.3768 186.68 70.1864 186.68 70.0632C186.672 69.9981 186.672 69.9322 186.68 69.8672C186.68 69.8672 186.68 69.9344 186.68 70.0632C186.68 70.192 186.68 70.3936 186.68 70.6232C186.68 71.144 186.68 71.8944 186.68 72.8632C186.68 74.8344 186.68 77.696 186.719 81.3192L186.635 81.2352L237.226 81.1736L282.804 81.2184H282.905V81.3192C282.905 86.4544 282.866 90.576 282.86 93.4208C282.86 94.8264 282.86 95.9184 282.832 96.6744C282.832 97.0384 282.832 97.3128 282.832 97.5144C282.848 97.6089 282.859 97.7043 282.866 97.8Z" fill="#00B94F"/>
<path d="M141.852 94.5744C141.774 94.5744 141.706 89.0192 141.706 82.1648C141.706 75.3105 141.774 69.7552 141.852 69.7552C141.93 69.7552 141.998 75.3105 141.998 82.1648C141.998 89.0192 141.93 94.5744 141.852 94.5744Z" fill="#00B94F"/>
</svg>
