<svg width="16" height="16" viewBox="0 0 16 16" fill="none" xmlns="http://www.w3.org/2000/svg">
<path d="M16 6.25306H0V3.03466C0 2.88232 0.123531 2.75879 0.275874 2.75879H15.7241C15.8765 2.75879 16 2.88232 16 3.03466L16 6.25306Z" fill="#FAB446"/>
<path d="M15.7241 13.2413H0.275874C0.123531 13.2413 0 13.1178 0 12.9654V9.74707H16V12.9654C16 13.1178 15.8764 13.2413 15.7241 13.2413Z" fill="#73AF00"/>
<path d="M16 6.25293H0V9.74699H16V6.25293Z" fill="#F5F5F5"/>
<path d="M8.00008 9.48307C7.18246 9.48307 6.51733 8.81794 6.51733 8.00032C6.51733 7.1827 7.18246 6.51758 8.00008 6.51758C8.81771 6.51758 9.48283 7.1827 9.48283 8.00032C9.48283 8.81794 8.81771 9.48307 8.00008 9.48307ZM8.00008 6.79342C7.33452 6.79342 6.79318 7.33476 6.79318 8.00032C6.79318 8.66588 7.33452 9.20722 8.00008 9.20722C8.66564 9.20722 9.20699 8.66588 9.20699 8.00032C9.20699 7.33476 8.66564 6.79342 8.00008 6.79342Z" fill="#41479B"/>
<path d="M8.00012 8.16822C8.09296 8.16822 8.16822 8.09296 8.16822 8.00013C8.16822 7.90729 8.09296 7.83203 8.00012 7.83203C7.90729 7.83203 7.83203 7.90729 7.83203 8.00013C7.83203 8.09296 7.90729 8.16822 8.00012 8.16822Z" fill="#41479B"/>
<path d="M8.00008 8.0252L7.5729 8.06833L6.65527 8.0252V7.97477L7.5729 7.93164L8.00008 7.97477V8.0252Z" fill="#41479B"/>
<path d="M8 8.0252L8.42719 8.06833L9.34481 8.0252V7.97477L8.42719 7.93164L8 7.97477V8.0252Z" fill="#41479B"/>
<path d="M7.97501 8.00009L7.93188 7.5729L7.97501 6.65527H8.02545L8.06858 7.5729L8.02545 8.00009H7.97501Z" fill="#41479B"/>
<path d="M7.97501 8L7.93188 8.42719L7.97501 9.34481H8.02545L8.06858 8.42719L8.02545 8H7.97501Z" fill="#41479B"/>
<path d="M7.98219 8.01781L7.64962 7.74628L7.03125 7.06691L7.06691 7.03125L7.74628 7.64962L8.01781 7.98219L7.98219 8.01781Z" fill="#41479B"/>
<path d="M7.98242 8.01805L8.25395 8.35061L8.93333 8.96898L8.96898 8.93333L8.35061 8.25395L8.01805 7.98242L7.98242 8.01805Z" fill="#41479B"/>
<path d="M7.98242 7.98219L8.25395 7.64962L8.93333 7.03125L8.96898 7.06691L8.35061 7.74628L8.01805 8.01781L7.98242 7.98219Z" fill="#41479B"/>
<path d="M7.98219 7.98242L7.64962 8.25395L7.03125 8.93333L7.06691 8.96898L7.74628 8.35061L8.01781 8.01805L7.98219 7.98242Z" fill="#41479B"/>
<path d="M8.0098 8.02416L7.63161 8.22748L6.76736 8.53879L6.74805 8.49219L7.57933 8.1012L7.99049 7.97754L8.0098 8.02416Z" fill="#41479B"/>
<path d="M8.00979 8.02317L8.42094 7.89951L9.25222 7.50851L9.23291 7.46191L8.36866 7.77323L7.99048 7.97654L8.00979 8.02317Z" fill="#41479B"/>
<path d="M7.97679 8.0098L7.77347 7.63161L7.46216 6.76736L7.50875 6.74805L7.89976 7.57933L8.02341 7.99049L7.97679 8.0098Z" fill="#41479B"/>
<path d="M7.97681 8.01052L8.10046 8.42168L8.49146 9.25295L8.53806 9.23364L8.22674 8.3694L8.02343 7.99121L7.97681 8.01052Z" fill="#41479B"/>
<path d="M7.99049 8.02317L7.57933 7.89951L6.74805 7.50851L6.76736 7.46191L7.63161 7.77323L8.0098 7.97654L7.99049 8.02317Z" fill="#41479B"/>
<path d="M7.99048 8.02416L8.36866 8.22748L9.23291 8.53879L9.25222 8.49219L8.42094 8.1012L8.00979 7.97754L7.99048 8.02416Z" fill="#41479B"/>
<path d="M7.97681 7.99049L8.10046 7.57933L8.49146 6.74805L8.53806 6.76736L8.22674 7.63161L8.02343 8.0098L7.97681 7.99049Z" fill="#41479B"/>
<path d="M7.97679 7.99121L7.77347 8.3694L7.46216 9.23364L7.50875 9.25295L7.89976 8.42168L8.02341 8.01052L7.97679 7.99121Z" fill="#41479B"/>
<path d="M7.99995 8.22694C8.12518 8.22694 8.2267 8.12542 8.2267 8.00019C8.2267 7.87496 8.12518 7.77344 7.99995 7.77344C7.87471 7.77344 7.77319 7.87496 7.77319 8.00019C7.77319 8.12542 7.87471 8.22694 7.99995 8.22694Z" fill="#F5F5F5"/>
<path d="M7.99974 8.13619C8.07483 8.13619 8.13571 8.07532 8.13571 8.00023C8.13571 7.92513 8.07483 7.86426 7.99974 7.86426C7.92465 7.86426 7.86377 7.92513 7.86377 8.00023C7.86377 8.07532 7.92465 8.13619 7.99974 8.13619Z" fill="#41479B"/>
</svg>
