<svg width="354" height="170" viewBox="0 0 354 170" fill="none" xmlns="http://www.w3.org/2000/svg">
<path d="M308.824 0.709595H270.52V50.6616L308.824 51.6192V0.709595Z" fill="#E0E0E0"/>
<path d="M306.304 2.4848H272.788V47.7888L306.304 48.92V2.4848Z" fill="#FAFAFA"/>
<path d="M300.435 10.7168L278.192 9.87122V41.5392H300.435V10.7168Z" fill="#E0E0E0"/>
<path d="M278.192 41.5392L300.435 25.2712L278.192 9.87122V41.5392Z" fill="#EBEBEB"/>
<path d="M58.4705 23.6192H11.0049V169.023H58.4705V23.6192Z" fill="#EBEBEB"/>
<path d="M95.8394 24.084H58.325V169.023H95.8394V24.084Z" fill="#F5F5F5"/>
<path d="M53.8167 46.8928H13.5527V58.2272H53.8167V46.8928Z" fill="#E0E0E0"/>
<path d="M16.9297 48.3152H14.6729V56.9896H16.9297V48.3152Z" fill="#F5F5F5"/>
<path d="M19.584 50.1408C19.584 50.2826 19.542 50.4211 19.4632 50.539C19.3844 50.6569 19.2725 50.7488 19.1415 50.803C19.0105 50.8573 18.8664 50.8715 18.7274 50.8438C18.5883 50.8162 18.4606 50.7479 18.3603 50.6476C18.2601 50.5474 18.1918 50.4197 18.1642 50.2806C18.1365 50.1416 18.1507 49.9975 18.205 49.8665C18.2592 49.7355 18.3511 49.6236 18.469 49.5448C18.5868 49.466 18.7254 49.424 18.8672 49.424C19.0573 49.424 19.2396 49.4995 19.374 49.6339C19.5085 49.7684 19.584 49.9507 19.584 50.1408Z" fill="#FAFAFA"/>
<path d="M19.584 53.204C19.584 53.3941 19.5085 53.5764 19.374 53.7109C19.2396 53.8453 19.0573 53.9208 18.8672 53.9208C18.6771 53.9208 18.4948 53.8453 18.3603 53.7109C18.2259 53.5764 18.1504 53.3941 18.1504 53.204C18.1504 53.0139 18.2259 52.8316 18.3603 52.6972C18.4948 52.5627 18.6771 52.4872 18.8672 52.4872C19.0573 52.4872 19.2396 52.5627 19.374 52.6972C19.5085 52.8316 19.584 53.0139 19.584 53.204Z" fill="#FAFAFA"/>
<path d="M24.6688 49.424H22.4512V56.088H24.6688V49.424Z" fill="#F5F5F5"/>
<path d="M27.8665 49.424H25.6489V56.088H27.8665V49.424Z" fill="#F5F5F5"/>
<path d="M31.0697 49.424H28.8521V56.088H31.0697V49.424Z" fill="#F5F5F5"/>
<path d="M34.2672 49.424H32.0496V56.088H34.2672V49.424Z" fill="#F5F5F5"/>
<path d="M37.4705 49.424H35.2529V56.088H37.4705V49.424Z" fill="#F5F5F5"/>
<path d="M40.668 49.424H38.4504V56.088H40.668V49.424Z" fill="#F5F5F5"/>
<path d="M43.8712 49.424H41.6536V56.088H43.8712V49.424Z" fill="#F5F5F5"/>
<path d="M47.0689 49.424H44.8513V56.088H47.0689V49.424Z" fill="#F5F5F5"/>
<path d="M50.272 49.424H48.0544V56.088H50.272V49.424Z" fill="#F5F5F5"/>
<path d="M53.4696 49.424H51.252V56.088H53.4696V49.424Z" fill="#F5F5F5"/>
<path d="M53.8167 65.048H13.5527V76.3824H53.8167V65.048Z" fill="#E0E0E0"/>
<path d="M16.9297 66.4704H14.6729V75.1448H16.9297V66.4704Z" fill="#F5F5F5"/>
<path d="M19.584 68.296C19.584 68.4861 19.5085 68.6684 19.374 68.8028C19.2396 68.9373 19.0573 69.0128 18.8672 69.0128C18.6771 69.0128 18.4948 68.9373 18.3603 68.8028C18.2259 68.6684 18.1504 68.4861 18.1504 68.296C18.1504 68.1059 18.2259 67.9236 18.3603 67.7891C18.4948 67.6547 18.6771 67.5792 18.8672 67.5792C19.0573 67.5792 19.2396 67.6547 19.374 67.7891C19.5085 67.9236 19.584 68.1059 19.584 68.296Z" fill="#FAFAFA"/>
<path d="M19.584 71.3648C19.584 71.5066 19.542 71.6451 19.4632 71.763C19.3844 71.8809 19.2725 71.9728 19.1415 72.027C19.0105 72.0813 18.8664 72.0955 18.7274 72.0678C18.5883 72.0402 18.4606 71.9719 18.3603 71.8716C18.2601 71.7714 18.1918 71.6437 18.1642 71.5046C18.1365 71.3656 18.1507 71.2215 18.205 71.0905C18.2592 70.9595 18.3511 70.8475 18.469 70.7688C18.5868 70.69 18.7254 70.648 18.8672 70.648C19.0573 70.648 19.2396 70.7235 19.374 70.8579C19.5085 70.9923 19.584 71.1747 19.584 71.3648Z" fill="#FAFAFA"/>
<path d="M24.6688 67.5792H22.4512V74.2432H24.6688V67.5792Z" fill="#F5F5F5"/>
<path d="M27.8665 67.5792H25.6489V74.2432H27.8665V67.5792Z" fill="#F5F5F5"/>
<path d="M31.0697 67.5792H28.8521V74.2432H31.0697V67.5792Z" fill="#F5F5F5"/>
<path d="M34.2672 67.5792H32.0496V74.2432H34.2672V67.5792Z" fill="#F5F5F5"/>
<path d="M37.4705 67.5792H35.2529V74.2432H37.4705V67.5792Z" fill="#F5F5F5"/>
<path d="M40.668 67.5792H38.4504V74.2432H40.668V67.5792Z" fill="#F5F5F5"/>
<path d="M43.8712 67.5792H41.6536V74.2432H43.8712V67.5792Z" fill="#F5F5F5"/>
<path d="M47.0689 67.5792H44.8513V74.2432H47.0689V67.5792Z" fill="#F5F5F5"/>
<path d="M50.272 67.5792H48.0544V74.2432H50.272V67.5792Z" fill="#F5F5F5"/>
<path d="M53.4696 67.5792H51.252V74.2432H53.4696V67.5792Z" fill="#F5F5F5"/>
<path d="M53.8167 83.2032H13.5527V94.5376H53.8167V83.2032Z" fill="#E0E0E0"/>
<path d="M16.9297 84.6312H14.6729V93.3056H16.9297V84.6312Z" fill="#F5F5F5"/>
<path d="M19.584 86.44C19.584 86.5818 19.542 86.7204 19.4632 86.8383C19.3844 86.9561 19.2725 87.048 19.1415 87.1023C19.0105 87.1565 18.8664 87.1707 18.7274 87.1431C18.5883 87.1154 18.4606 87.0471 18.3603 86.9469C18.2601 86.8466 18.1918 86.7189 18.1642 86.5799C18.1365 86.4408 18.1507 86.2967 18.205 86.1657C18.2592 86.0347 18.3511 85.9228 18.469 85.844C18.5868 85.7653 18.7254 85.7232 18.8672 85.7232C19.0573 85.7232 19.2396 85.7988 19.374 85.9332C19.5085 86.0676 19.584 86.2499 19.584 86.44Z" fill="#FAFAFA"/>
<path d="M19.584 89.52C19.584 89.6618 19.542 89.8004 19.4632 89.9182C19.3844 90.0361 19.2725 90.128 19.1415 90.1823C19.0105 90.2365 18.8664 90.2507 18.7274 90.223C18.5883 90.1954 18.4606 90.1271 18.3603 90.0269C18.2601 89.9266 18.1918 89.7989 18.1642 89.6599C18.1365 89.5208 18.1507 89.3767 18.205 89.2457C18.2592 89.1147 18.3511 89.0028 18.469 88.924C18.5868 88.8453 18.7254 88.8032 18.8672 88.8032C19.0573 88.8032 19.2396 88.8787 19.374 89.0132C19.5085 89.1476 19.584 89.3299 19.584 89.52Z" fill="#FAFAFA"/>
<path d="M24.6688 85.74H22.4512V92.404H24.6688V85.74Z" fill="#F5F5F5"/>
<path d="M27.8665 85.74H25.6489V92.404H27.8665V85.74Z" fill="#F5F5F5"/>
<path d="M31.0697 85.74H28.8521V92.404H31.0697V85.74Z" fill="#F5F5F5"/>
<path d="M34.2672 85.74H32.0496V92.404H34.2672V85.74Z" fill="#F5F5F5"/>
<path d="M37.4705 85.74H35.2529V92.404H37.4705V85.74Z" fill="#F5F5F5"/>
<path d="M40.668 85.74H38.4504V92.404H40.668V85.74Z" fill="#F5F5F5"/>
<path d="M43.8712 85.74H41.6536V92.404H43.8712V85.74Z" fill="#F5F5F5"/>
<path d="M47.0689 85.74H44.8513V92.404H47.0689V85.74Z" fill="#F5F5F5"/>
<path d="M50.272 85.74H48.0544V92.404H50.272V85.74Z" fill="#F5F5F5"/>
<path d="M53.4696 85.74H51.252V92.404H53.4696V85.74Z" fill="#F5F5F5"/>
<path d="M53.8167 101.364H13.5527V112.698H53.8167V101.364Z" fill="#E0E0E0"/>
<path d="M16.9297 102.786H14.6729V111.461H16.9297V102.786Z" fill="#F5F5F5"/>
<path d="M19.584 104.612C19.584 104.754 19.542 104.892 19.4632 105.01C19.3844 105.128 19.2725 105.22 19.1415 105.274C19.0105 105.328 18.8664 105.343 18.7274 105.315C18.5883 105.287 18.4606 105.219 18.3603 105.119C18.2601 105.019 18.1918 104.891 18.1642 104.752C18.1365 104.613 18.1507 104.469 18.205 104.338C18.2592 104.207 18.3511 104.095 18.469 104.016C18.5868 103.937 18.7254 103.895 18.8672 103.895C19.0573 103.895 19.2396 103.971 19.374 104.105C19.5085 104.24 19.584 104.422 19.584 104.612Z" fill="#FAFAFA"/>
<path d="M19.584 107.675C19.584 107.865 19.5085 108.048 19.374 108.182C19.2396 108.317 19.0573 108.392 18.8672 108.392C18.6771 108.392 18.4948 108.317 18.3603 108.182C18.2259 108.048 18.1504 107.865 18.1504 107.675C18.1504 107.485 18.2259 107.303 18.3603 107.168C18.4948 107.034 18.6771 106.958 18.8672 106.958C19.0573 106.958 19.2396 107.034 19.374 107.168C19.5085 107.303 19.584 107.485 19.584 107.675Z" fill="#FAFAFA"/>
<path d="M24.6688 103.895H22.4512V110.559H24.6688V103.895Z" fill="#F5F5F5"/>
<path d="M27.8665 103.895H25.6489V110.559H27.8665V103.895Z" fill="#F5F5F5"/>
<path d="M31.0697 103.895H28.8521V110.559H31.0697V103.895Z" fill="#F5F5F5"/>
<path d="M34.2672 103.895H32.0496V110.559H34.2672V103.895Z" fill="#F5F5F5"/>
<path d="M37.4705 103.895H35.2529V110.559H37.4705V103.895Z" fill="#F5F5F5"/>
<path d="M40.668 103.895H38.4504V110.559H40.668V103.895Z" fill="#F5F5F5"/>
<path d="M43.8712 103.895H41.6536V110.559H43.8712V103.895Z" fill="#F5F5F5"/>
<path d="M47.0689 103.895H44.8513V110.559H47.0689V103.895Z" fill="#F5F5F5"/>
<path d="M50.272 103.895H48.0544V110.559H50.272V103.895Z" fill="#F5F5F5"/>
<path d="M53.4696 103.895H51.252V110.559H53.4696V103.895Z" fill="#F5F5F5"/>
<path d="M53.8167 119.519H13.5527V130.854H53.8167V119.519Z" fill="#E0E0E0"/>
<path d="M16.9297 120.942H14.6729V129.616H16.9297V120.942Z" fill="#F5F5F5"/>
<path d="M19.584 122.767C19.584 122.957 19.5085 123.14 19.374 123.274C19.2396 123.408 19.0573 123.484 18.8672 123.484C18.6771 123.484 18.4948 123.408 18.3603 123.274C18.2259 123.14 18.1504 122.957 18.1504 122.767C18.1504 122.577 18.2259 122.395 18.3603 122.26C18.4948 122.126 18.6771 122.05 18.8672 122.05C19.0573 122.05 19.2396 122.126 19.374 122.26C19.5085 122.395 19.584 122.577 19.584 122.767Z" fill="#FAFAFA"/>
<path d="M19.584 125.836C19.584 125.978 19.542 126.116 19.4632 126.234C19.3844 126.352 19.2725 126.444 19.1415 126.498C19.0105 126.553 18.8664 126.567 18.7274 126.539C18.5883 126.511 18.4606 126.443 18.3603 126.343C18.2601 126.243 18.1918 126.115 18.1642 125.976C18.1365 125.837 18.1507 125.693 18.205 125.562C18.2592 125.431 18.3511 125.319 18.469 125.24C18.5868 125.161 18.7254 125.119 18.8672 125.119C19.0573 125.119 19.2396 125.195 19.374 125.329C19.5085 125.464 19.584 125.646 19.584 125.836Z" fill="#FAFAFA"/>
<path d="M24.6688 122.05H22.4512V128.714H24.6688V122.05Z" fill="#F5F5F5"/>
<path d="M27.8665 122.05H25.6489V128.714H27.8665V122.05Z" fill="#F5F5F5"/>
<path d="M31.0697 122.05H28.8521V128.714H31.0697V122.05Z" fill="#F5F5F5"/>
<path d="M34.2672 122.05H32.0496V128.714H34.2672V122.05Z" fill="#F5F5F5"/>
<path d="M37.4705 122.05H35.2529V128.714H37.4705V122.05Z" fill="#F5F5F5"/>
<path d="M40.668 122.05H38.4504V128.714H40.668V122.05Z" fill="#F5F5F5"/>
<path d="M43.8712 122.05H41.6536V128.714H43.8712V122.05Z" fill="#F5F5F5"/>
<path d="M47.0689 122.05H44.8513V128.714H47.0689V122.05Z" fill="#F5F5F5"/>
<path d="M50.272 122.05H48.0544V128.714H50.272V122.05Z" fill="#F5F5F5"/>
<path d="M53.4696 122.05H51.252V128.714H53.4696V122.05Z" fill="#F5F5F5"/>
<path d="M53.8167 137.674H13.5527V149.009H53.8167V137.674Z" fill="#E0E0E0"/>
<path d="M16.9297 139.102H14.6729V147.777H16.9297V139.102Z" fill="#F5F5F5"/>
<path d="M19.5839 140.928C19.5817 141.069 19.5378 141.207 19.4577 141.323C19.3776 141.44 19.2649 141.53 19.1337 141.582C19.0026 141.635 18.8588 141.647 18.7205 141.618C18.5822 141.59 18.4556 141.52 18.3564 141.42C18.2573 141.319 18.1901 141.191 18.1634 141.053C18.1366 140.914 18.1514 140.77 18.206 140.64C18.2606 140.51 18.3524 140.398 18.4701 140.32C18.5877 140.242 18.7258 140.2 18.8671 140.2C18.9622 140.2 19.0563 140.219 19.144 140.256C19.2317 140.292 19.3112 140.346 19.378 140.414C19.4447 140.482 19.4972 140.562 19.5326 140.65C19.5679 140.739 19.5854 140.833 19.5839 140.928Z" fill="#FAFAFA"/>
<path d="M19.584 143.991C19.584 144.133 19.542 144.272 19.4632 144.389C19.3844 144.507 19.2725 144.599 19.1415 144.653C19.0105 144.708 18.8664 144.722 18.7274 144.694C18.5883 144.667 18.4606 144.598 18.3603 144.498C18.2601 144.398 18.1918 144.27 18.1642 144.131C18.1365 143.992 18.1507 143.848 18.205 143.717C18.2592 143.586 18.3511 143.474 18.469 143.395C18.5868 143.316 18.7254 143.274 18.8672 143.274C19.0573 143.274 19.2396 143.35 19.374 143.484C19.5085 143.619 19.584 143.801 19.584 143.991Z" fill="#FAFAFA"/>
<path d="M24.6688 140.211H22.4512V146.875H24.6688V140.211Z" fill="#F5F5F5"/>
<path d="M27.8665 140.211H25.6489V146.875H27.8665V140.211Z" fill="#F5F5F5"/>
<path d="M31.0697 140.211H28.8521V146.875H31.0697V140.211Z" fill="#F5F5F5"/>
<path d="M34.2672 140.211H32.0496V146.875H34.2672V140.211Z" fill="#F5F5F5"/>
<path d="M37.4705 140.211H35.2529V146.875H37.4705V140.211Z" fill="#F5F5F5"/>
<path d="M40.668 140.211H38.4504V146.875H40.668V140.211Z" fill="#F5F5F5"/>
<path d="M43.8712 140.211H41.6536V146.875H43.8712V140.211Z" fill="#F5F5F5"/>
<path d="M47.0689 140.211H44.8513V146.875H47.0689V140.211Z" fill="#F5F5F5"/>
<path d="M50.272 140.211H48.0544V146.875H50.272V140.211Z" fill="#F5F5F5"/>
<path d="M53.4696 140.211H51.252V146.875H53.4696V140.211Z" fill="#F5F5F5"/>
<path d="M53.8167 155.835H13.5527V167.17H53.8167V155.835Z" fill="#E0E0E0"/>
<path d="M16.9297 157.258H14.6729V165.932H16.9297V157.258Z" fill="#F5F5F5"/>
<path d="M19.584 159.083C19.584 159.225 19.542 159.364 19.4632 159.481C19.3844 159.599 19.2725 159.691 19.1415 159.745C19.0105 159.8 18.8664 159.814 18.7274 159.786C18.5883 159.759 18.4606 159.69 18.3603 159.59C18.2601 159.49 18.1918 159.362 18.1642 159.223C18.1365 159.084 18.1507 158.94 18.205 158.809C18.2592 158.678 18.3511 158.566 18.469 158.487C18.5868 158.408 18.7254 158.366 18.8672 158.366C19.0573 158.366 19.2396 158.442 19.374 158.576C19.5085 158.711 19.584 158.893 19.584 159.083Z" fill="#FAFAFA"/>
<path d="M19.584 162.152C19.584 162.294 19.5419 162.432 19.4632 162.55C19.3844 162.668 19.2725 162.76 19.1415 162.814C19.0105 162.869 18.8664 162.883 18.7273 162.855C18.5883 162.827 18.4606 162.759 18.3603 162.659C18.2601 162.559 18.1918 162.431 18.1642 162.292C18.1365 162.153 18.1507 162.009 18.205 161.878C18.2592 161.747 18.3511 161.635 18.469 161.556C18.5868 161.477 18.7254 161.435 18.8672 161.435C18.9615 161.434 19.0551 161.452 19.1424 161.488C19.2297 161.524 19.309 161.577 19.3757 161.643C19.4424 161.71 19.4952 161.79 19.5309 161.877C19.5667 161.964 19.5847 162.058 19.584 162.152Z" fill="#FAFAFA"/>
<path d="M24.6688 158.366H22.4512V165.03H24.6688V158.366Z" fill="#F5F5F5"/>
<path d="M27.8665 158.366H25.6489V165.03H27.8665V158.366Z" fill="#F5F5F5"/>
<path d="M31.0697 158.366H28.8521V165.03H31.0697V158.366Z" fill="#F5F5F5"/>
<path d="M34.2672 158.366H32.0496V165.03H34.2672V158.366Z" fill="#F5F5F5"/>
<path d="M37.4705 158.366H35.2529V165.03H37.4705V158.366Z" fill="#F5F5F5"/>
<path d="M40.668 158.366H38.4504V165.03H40.668V158.366Z" fill="#F5F5F5"/>
<path d="M43.8712 158.366H41.6536V165.03H43.8712V158.366Z" fill="#F5F5F5"/>
<path d="M47.0689 158.366H44.8513V165.03H47.0689V158.366Z" fill="#F5F5F5"/>
<path d="M50.272 158.366H48.0544V165.03H50.272V158.366Z" fill="#F5F5F5"/>
<path d="M53.4696 158.366H51.252V165.03H53.4696V158.366Z" fill="#F5F5F5"/>
<path d="M38.4505 46.8928C38.4281 46.7764 38.415 46.6584 38.4113 46.54C38.4113 46.3104 38.3777 45.98 38.3665 45.532C38.3553 45.084 38.3665 44.5632 38.3161 43.9416C38.2944 43.245 38.2006 42.5524 38.0361 41.8752C37.806 41.0734 37.4426 40.3162 36.9609 39.6352C36.4122 38.8478 35.6481 38.2353 34.7601 37.8712C33.7565 37.5026 32.7031 37.2874 31.6353 37.2328L28.1689 36.936C23.4145 36.5216 19.1025 36.2584 15.9833 36.1968C14.4209 36.1632 13.1833 36.1688 12.2817 36.1968H11.2737C11.1565 36.2108 11.0381 36.2108 10.9209 36.1968C11.0373 36.1744 11.1552 36.1613 11.2737 36.1576L12.2761 36.096C13.1553 36.0568 14.4209 36.0176 15.9833 36.0232C19.1137 36.0232 23.4369 36.264 28.1913 36.6784L31.6633 36.9864C32.7571 37.0426 33.8357 37.2674 34.8609 37.6528C35.7915 38.043 36.589 38.6946 37.1569 39.5288C37.65 40.2446 38.0156 41.0404 38.2377 41.8808C38.3924 42.574 38.4731 43.2817 38.4785 43.992C38.4785 44.6136 38.4785 45.1512 38.4785 45.588C38.4785 46.0248 38.4785 46.3328 38.4785 46.596C38.4791 46.6956 38.4698 46.795 38.4505 46.8928Z" fill="#E0E0E0"/>
<path d="M26.2369 46.8928C26.2253 46.7829 26.2253 46.6722 26.2369 46.5624C26.2369 46.3104 26.2369 46.0024 26.2369 45.6104C26.2369 45.2184 26.2369 44.6976 26.1865 44.1208C26.1547 43.4708 25.9848 42.8351 25.6881 42.256C25.2528 41.6058 24.615 41.1175 23.8737 40.8672C23.0335 40.5387 22.1196 40.4457 21.2305 40.5984C20.754 40.676 20.294 40.8332 19.8697 41.0632C19.429 41.2877 19.0618 41.6336 18.8113 42.06C18.6873 42.2735 18.6221 42.5159 18.6221 42.7628C18.6221 43.0096 18.6873 43.2521 18.8113 43.4656C18.9376 43.6896 19.1088 43.8852 19.3139 44.0403C19.5191 44.1954 19.754 44.3067 20.0041 44.3672C20.2525 44.4228 20.5109 44.415 20.7556 44.3446C21.0003 44.2741 21.2232 44.1432 21.4041 43.964C21.7664 43.6094 21.989 43.1363 22.0313 42.6312C22.0639 42.1396 21.9144 41.6532 21.6113 41.2648C21.3375 40.8736 20.9748 40.553 20.5529 40.3296C20.1253 40.1251 19.6643 39.9999 19.1921 39.96C18.7385 39.8928 18.2961 39.8368 17.8705 39.7864C17.0137 39.6912 16.1905 39.6352 15.4793 39.6016C14.0121 39.5456 12.8249 39.568 12.0017 39.5624H11.0553C10.9455 39.5757 10.8346 39.5757 10.7249 39.5624C10.8312 39.5364 10.9402 39.5232 11.0497 39.5232L11.9961 39.4728C12.8193 39.4392 14.0121 39.3888 15.4849 39.4224C16.2241 39.4224 17.0305 39.484 17.8929 39.568C18.3297 39.6128 18.7721 39.6688 19.2313 39.7304C19.4609 39.7696 19.6905 39.7976 19.9313 39.8424C20.1792 39.8889 20.4189 39.972 20.6425 40.0888C21.104 40.3219 21.5033 40.6617 21.8073 41.08C22.1477 41.5206 22.3168 42.0697 22.2833 42.6256C22.242 43.2048 21.9865 43.7478 21.5665 44.1488C21.3496 44.364 21.0819 44.521 20.7883 44.6052C20.4946 44.6894 20.1844 44.698 19.8865 44.6304C19.6022 44.5602 19.3349 44.4338 19.1003 44.2588C18.8656 44.0838 18.6683 43.8636 18.5201 43.6112C18.3763 43.3545 18.3009 43.0653 18.3009 42.7712C18.3009 42.477 18.3763 42.1878 18.5201 41.9312C18.7944 41.4511 19.2032 41.0618 19.6961 40.8112C20.1497 40.5719 20.6398 40.4092 21.1465 40.3296C22.0903 40.1701 23.0599 40.2768 23.9465 40.6376C24.7333 40.9128 25.4041 41.4456 25.8505 42.1496C26.1516 42.7581 26.316 43.4252 26.3321 44.104C26.3321 44.692 26.3321 45.224 26.3321 45.6104C26.3321 45.9968 26.3321 46.3048 26.2929 46.5568C26.2888 46.6707 26.2699 46.7837 26.2369 46.8928Z" fill="#E0E0E0"/>
<path d="M41.7376 46.8928C41.6997 46.7702 41.6716 46.6447 41.6536 46.5176C41.6088 46.2712 41.5416 45.9072 41.4408 45.4424C41.1663 44.1268 40.7669 42.8405 40.248 41.6008C39.5181 39.7539 38.3101 38.1343 36.748 36.908C35.8042 36.2264 34.6975 35.8053 33.5392 35.6872C32.2877 35.5503 31.0295 35.483 29.7704 35.4856C24.5624 35.3904 19.8472 35.4072 16.4368 35.2728C14.7568 35.2112 13.3512 35.1272 12.3992 35.06L11.2792 34.9648C11.1508 34.9585 11.0233 34.9398 10.8984 34.9088C11.0271 34.8992 11.1562 34.8992 11.2848 34.9088L12.4048 34.9536C13.3568 34.9872 14.7344 35.0376 16.4424 35.0712C19.8528 35.1552 24.5624 35.0992 29.776 35.2C31.0484 35.1964 32.32 35.2675 33.584 35.4128C34.7875 35.5392 35.9356 35.9837 36.9104 36.7008C37.7767 37.3593 38.5328 38.1513 39.1504 39.0472C39.6711 39.827 40.1102 40.6583 40.4608 41.528C40.9715 42.7914 41.347 44.1054 41.5808 45.448C41.6648 45.9184 41.7152 46.2824 41.7432 46.5344C41.7521 46.6538 41.7502 46.7737 41.7376 46.8928Z" fill="#E0E0E0"/>
<path d="M53.2624 25.428H14.1072V31.112H53.2624V25.428Z" fill="#E0E0E0"/>
<path d="M44.0338 28.2672H22.7146V31.112H44.0338V28.2672Z" fill="#F5F5F5"/>
<path d="M353.064 168.575H352.157H349.486L339.226 168.642L301.494 168.827L177 169.253C128.37 169.354 84.3536 169.37 52.4896 169.253C36.5576 169.202 23.6664 169.118 14.7568 169.006C10.2768 168.945 6.84396 168.878 4.49756 168.805C2.15116 168.732 0.919161 168.626 0.935961 168.558C1.0094 168.578 1.08433 168.591 1.15996 168.598C1.31116 168.598 1.53516 168.637 1.83756 168.654C2.43676 168.687 3.32716 168.715 4.50316 168.743C6.84396 168.799 10.3048 168.85 14.7568 168.889C23.6664 168.973 36.5576 169.023 52.4896 169.046C84.3536 169.096 128.37 169.046 177 168.945L301.494 168.642L339.226 168.553H349.486H352.157C352.756 168.564 353.064 168.575 353.064 168.575Z" fill="#263238"/>
<path d="M270.039 43.4264C269.832 42.7564 269.381 42.1885 268.775 41.8349C268.17 41.4813 267.453 41.3678 266.768 41.5168C266.279 41.7232 265.762 41.8535 265.234 41.9032C264.775 41.8243 264.334 41.667 263.929 41.4384C262.913 41.056 261.789 41.0848 260.794 41.5188C259.8 41.9529 259.014 42.7578 258.603 43.7624C257.945 43.3961 257.194 43.2324 256.443 43.292C255.692 43.3517 254.976 43.6319 254.384 44.0975C253.792 44.5631 253.351 45.1933 253.116 45.9089C252.882 46.6245 252.864 47.3935 253.065 48.1192C252.356 48.2552 251.709 48.6161 251.221 49.1483C250.733 49.6805 250.43 50.3558 250.356 51.074C250.282 51.7923 250.441 52.5153 250.81 53.136C251.179 53.7567 251.738 54.242 252.404 54.52C252.104 55.0568 251.941 55.6588 251.928 56.2734C251.914 56.888 252.052 57.4966 252.328 58.0458C252.604 58.595 253.011 59.0681 253.512 59.4239C254.014 59.7796 254.595 60.0071 255.204 60.0864C255.107 60.7491 255.206 61.4258 255.489 62.0328C255.772 62.6399 256.226 63.1507 256.796 63.5022C257.366 63.8537 258.027 64.0305 258.697 64.0106C259.366 63.9907 260.015 63.7751 260.563 63.3904C260.717 64.0319 261.054 64.6149 261.533 65.0684C262.012 65.522 262.613 65.8266 263.262 65.9453C263.911 66.0639 264.58 65.9914 265.189 65.7367C265.797 65.482 266.319 65.056 266.69 64.5104C267.849 65.692 269.955 65.5184 271.17 64.3984C272.385 63.2784 272.799 61.4808 272.615 59.84C273.331 60.057 274.098 60.041 274.805 59.7945C275.513 59.5479 276.123 59.0834 276.55 58.4678C276.976 57.8522 277.196 57.1172 277.178 56.3686C277.16 55.62 276.906 54.8963 276.451 54.3016C277.059 54.2387 277.636 53.998 278.109 53.6097C278.582 53.2214 278.93 52.7025 279.111 52.1176C279.277 51.5284 279.302 50.9084 279.186 50.3074C279.069 49.7064 278.813 49.1411 278.439 48.6568C277.671 47.6931 276.588 47.0308 275.381 46.7864C275.285 46.2336 275.073 45.7071 274.76 45.2411C274.448 44.7751 274.041 44.38 273.566 44.0812C273.091 43.7825 272.558 43.5867 272.003 43.5067C271.447 43.4268 270.881 43.4643 270.341 43.6168" fill="#263238"/>
<path d="M265.547 122.706L264.164 166.968H262.059L262.467 122.823L265.547 122.706Z" fill="#455A64"/>
<path d="M273.152 122.174L283.546 168.889L285.802 168.782L277.218 122.174H273.152Z" fill="#455A64"/>
<path d="M253.95 122.706L241.837 168.889L239.166 168.782L250.556 122.51L253.95 122.706Z" fill="#455A64"/>
<path d="M283.428 76.92C283.428 76.92 294.74 76.276 293.609 89.3632C292.478 102.45 291.828 115.683 287.628 120.225C283.428 124.766 241.098 124.906 237.542 121.194C233.986 117.481 244.329 117.638 246.267 117.638C248.204 117.638 260.16 118.758 264.041 108.588C267.922 98.4184 266.947 76.2592 283.428 76.92Z" fill="#455A64"/>
<path d="M284.15 76.92C284.15 76.92 292.797 78.6896 291.99 87.7392C291.184 96.7888 288.922 112.62 284.71 116.663C280.499 120.706 264.046 121.58 255.142 121.026C244.799 120.376 238.27 118.41 238.27 118.41C238.27 118.41 236.382 119.626 236.959 120.404C237.536 121.182 242.559 124.324 267.014 123.809C291.47 123.294 289.756 119.676 290.77 115.739C291.783 111.802 293.911 90.7968 293.614 86.1768C293.318 81.5568 291.005 77.7208 284.15 76.92Z" fill="#455A64"/>
<path d="M232.076 166.083L232.048 160.92L241.691 160.802L241.815 168.334L241.215 168.379C238.561 168.558 227.68 169.107 225.894 168.592C223.906 168.026 232.076 166.083 232.076 166.083Z" fill="#00B94F"/>
<g opacity="0.4">
<path opacity="0.4" d="M238.32 168.318C238.453 167.502 238.882 166.765 239.524 166.246C240.153 165.731 240.953 165.471 241.764 165.518L241.798 168.211L238.32 168.318Z" fill="black"/>
</g>
<path opacity="0.4" d="M228.083 167.175C228.083 167.175 225.222 168.038 225.586 168.508C225.95 168.978 236.965 168.838 241.826 168.351V168.133L228.979 168.407C228.979 168.407 228.649 167.192 228.083 167.175Z" fill="black"/>
<path d="M241.96 168.127H241.792L241.316 168.161L239.569 168.256C238.085 168.329 236.041 168.402 233.779 168.435C231.516 168.469 229.472 168.435 227.988 168.435L226.235 168.385H225.759H225.591H226.235H227.994C229.472 168.385 231.516 168.385 233.779 168.385C236.041 168.385 238.085 168.295 239.563 168.245L241.316 168.183H241.792L241.96 168.127Z" fill="#263238"/>
<path d="M228.957 168.558C228.878 168.268 228.765 167.988 228.621 167.724C228.443 167.488 228.24 167.273 228.016 167.08C228.307 167.203 228.554 167.412 228.722 167.679C228.891 167.947 228.972 168.26 228.957 168.575V168.558Z" fill="#263238"/>
<path d="M231.785 167.08C231.757 167.08 231.623 166.934 231.477 166.71C231.373 166.585 231.3 166.438 231.264 166.279C231.292 166.279 231.432 166.43 231.578 166.649C231.723 166.867 231.813 167.08 231.785 167.08Z" fill="#263238"/>
<path d="M232.563 166.654C232.563 166.654 232.384 166.582 232.216 166.43C232.048 166.279 231.931 166.145 231.953 166.122C231.975 166.1 232.127 166.195 232.294 166.346C232.462 166.498 232.58 166.632 232.563 166.654Z" fill="#263238"/>
<path d="M233.045 165.736C232.885 165.8 232.712 165.825 232.541 165.809C232.372 165.833 232.199 165.817 232.037 165.764C232.197 165.7 232.369 165.675 232.541 165.691C232.71 165.672 232.882 165.687 233.045 165.736Z" fill="#263238"/>
<path d="M233.207 165.092C233.044 165.208 232.848 165.269 232.647 165.266C232.457 165.299 232.262 165.273 232.087 165.193C232.272 165.161 232.46 165.146 232.647 165.148C232.832 165.114 233.019 165.096 233.207 165.092Z" fill="#263238"/>
<path d="M231.449 166.24C231.243 166.274 231.033 166.274 230.827 166.24C230.603 166.215 230.382 166.168 230.167 166.1C230.033 166.067 229.905 166.016 229.786 165.949C229.712 165.907 229.656 165.839 229.629 165.758C229.62 165.713 229.624 165.665 229.641 165.621C229.658 165.578 229.687 165.54 229.724 165.512C229.958 165.391 230.227 165.356 230.484 165.413C230.741 165.47 230.97 165.616 231.13 165.826C231.229 165.947 231.3 166.088 231.337 166.24C231.349 166.293 231.349 166.349 231.337 166.402C231.27 166.214 231.172 166.038 231.046 165.882C230.905 165.719 230.72 165.6 230.514 165.54C230.393 165.501 230.265 165.487 230.138 165.497C230.011 165.508 229.888 165.543 229.775 165.602C229.674 165.674 229.719 165.792 229.825 165.854C229.936 165.916 230.055 165.965 230.178 165.999C230.386 166.069 230.599 166.122 230.816 166.156C231.214 166.223 231.449 166.223 231.449 166.24Z" fill="#263238"/>
<path d="M231.287 166.274C231.212 166.143 231.186 165.99 231.214 165.842C231.228 165.68 231.284 165.524 231.376 165.389C231.427 165.296 231.5 165.218 231.589 165.161C231.678 165.104 231.78 165.071 231.886 165.064C231.949 165.076 232.006 165.113 232.042 165.167C232.079 165.22 232.093 165.286 232.082 165.35C232.069 165.449 232.034 165.545 231.981 165.63C231.901 165.767 231.803 165.893 231.69 166.005C231.597 166.118 231.478 166.207 231.343 166.262C231.343 166.262 231.46 166.15 231.628 165.954C231.726 165.838 231.812 165.712 231.886 165.579C231.97 165.445 232.026 165.21 231.886 165.182C231.746 165.154 231.572 165.327 231.482 165.45C231.394 165.57 231.335 165.708 231.309 165.854C231.29 165.993 231.282 166.133 231.287 166.274Z" fill="#263238"/>
<path d="M241.719 165.49C241.719 165.49 241.439 165.49 241.008 165.523C240.443 165.599 239.908 165.828 239.463 166.184C239.022 166.55 238.69 167.031 238.505 167.573C238.365 167.987 238.354 168.262 238.331 168.262C238.32 168.197 238.32 168.13 238.331 168.066C238.344 167.889 238.376 167.714 238.427 167.545C238.592 166.975 238.926 166.47 239.385 166.095C239.844 165.72 240.406 165.493 240.997 165.445C241.183 165.422 241.371 165.422 241.557 165.445C241.613 165.453 241.667 165.468 241.719 165.49Z" fill="#263238"/>
<path d="M240.667 161.48C240.782 162.796 240.816 164.119 240.767 165.439C240.659 164.122 240.625 162.801 240.667 161.48Z" fill="#263238"/>
<path d="M237.094 167.394C236.171 167.579 235.223 167.6 234.294 167.455C234.294 167.422 234.926 167.455 235.705 167.455C236.483 167.455 237.088 167.36 237.094 167.394Z" fill="#263238"/>
<path d="M238.981 167.366C238.981 167.366 238.93 167.5 238.869 167.646C238.807 167.791 238.774 167.92 238.74 167.92C238.706 167.92 238.69 167.763 238.74 167.601C238.79 167.438 238.958 167.343 238.981 167.366Z" fill="#263238"/>
<path d="M239.681 166.47C239.709 166.47 239.647 166.593 239.547 166.694C239.446 166.794 239.351 166.862 239.328 166.839C239.306 166.817 239.362 166.716 239.463 166.615C239.563 166.514 239.659 166.447 239.681 166.47Z" fill="#263238"/>
<path d="M240.7 166.05C240.7 166.083 240.56 166.083 240.42 166.139C240.28 166.195 240.179 166.268 240.157 166.246C240.134 166.223 240.207 166.089 240.381 166.027C240.554 165.966 240.706 166.022 240.7 166.05Z" fill="#263238"/>
<path d="M241.4 165.854C241.4 165.882 241.355 165.932 241.277 165.966C241.198 165.999 241.12 165.999 241.109 165.966C241.098 165.932 241.154 165.887 241.232 165.854C241.31 165.82 241.4 165.82 241.4 165.854Z" fill="#263238"/>
<path d="M253.995 166.083L253.961 160.937L263.61 160.819L263.733 168.351L263.134 168.396C260.474 168.575 249.599 169.124 247.812 168.609C245.819 168.026 253.995 166.083 253.995 166.083Z" fill="#00B94F"/>
<g opacity="0.4">
<path opacity="0.4" d="M260.233 168.318C260.366 167.502 260.795 166.765 261.437 166.246C262.066 165.732 262.866 165.472 263.677 165.518L263.716 168.211L260.233 168.318Z" fill="black"/>
</g>
<path opacity="0.4" d="M250.002 167.175C250.002 167.175 247.14 168.038 247.504 168.508C247.868 168.978 258.878 168.838 263.744 168.351V168.133L250.903 168.407C250.903 168.407 250.562 167.192 250.002 167.175Z" fill="black"/>
<path d="M263.862 168.127H263.699L263.24 168.2L261.487 168.295C260.009 168.368 257.959 168.441 255.703 168.474C253.446 168.508 251.391 168.474 249.912 168.474L248.159 168.424H247.678H247.515H248.12H249.873C251.351 168.424 253.401 168.424 255.658 168.424C257.915 168.424 259.964 168.334 261.443 168.284L263.195 168.222H263.677L263.862 168.127Z" fill="#263238"/>
<path d="M250.875 168.558C250.793 168.268 250.678 167.989 250.534 167.724C250.358 167.481 250.155 167.259 249.929 167.063C250.23 167.169 250.482 167.382 250.635 167.662C250.82 167.923 250.905 168.241 250.875 168.558Z" fill="#263238"/>
<path d="M253.72 167.08C253.692 167.08 253.552 166.934 253.407 166.71C253.261 166.486 253.171 166.302 253.199 166.279C253.227 166.257 253.362 166.43 253.507 166.649C253.61 166.775 253.683 166.922 253.72 167.08Z" fill="#263238"/>
<path d="M254.476 166.654C254.476 166.654 254.303 166.582 254.135 166.43C253.967 166.279 253.849 166.145 253.866 166.122C253.883 166.1 254.045 166.195 254.213 166.346C254.381 166.498 254.499 166.632 254.476 166.654Z" fill="#263238"/>
<path d="M254.958 165.736C254.8 165.799 254.629 165.824 254.459 165.809C254.288 165.832 254.114 165.817 253.95 165.764C254.11 165.7 254.282 165.675 254.454 165.691C254.623 165.671 254.795 165.687 254.958 165.736Z" fill="#263238"/>
<path d="M255.12 165.092C254.957 165.208 254.76 165.269 254.56 165.266C254.37 165.298 254.175 165.273 254 165.193C254.185 165.161 254.372 165.146 254.56 165.148C254.745 165.114 254.932 165.096 255.12 165.092Z" fill="#263238"/>
<path d="M253.362 166.24C253.158 166.274 252.95 166.274 252.746 166.24C252.52 166.215 252.296 166.168 252.079 166.1C251.948 166.067 251.822 166.016 251.704 165.949C251.667 165.929 251.634 165.902 251.607 165.869C251.58 165.837 251.56 165.799 251.547 165.758C251.537 165.713 251.54 165.666 251.556 165.622C251.572 165.578 251.6 165.54 251.637 165.512C251.788 165.431 251.956 165.386 252.127 165.38C252.299 165.374 252.469 165.408 252.625 165.478C252.782 165.548 252.92 165.653 253.029 165.786C253.138 165.918 253.216 166.073 253.255 166.24C253.267 166.294 253.267 166.349 253.255 166.402C253.188 166.214 253.09 166.038 252.964 165.882C252.825 165.717 252.64 165.599 252.432 165.54C252.311 165.501 252.183 165.487 252.057 165.497C251.93 165.508 251.806 165.543 251.693 165.602C251.598 165.674 251.637 165.792 251.749 165.854C251.859 165.916 251.975 165.965 252.096 165.999C252.306 166.07 252.521 166.123 252.74 166.156C253.127 166.223 253.362 166.223 253.362 166.24Z" fill="#263238"/>
<path d="M253.205 166.274C253.164 166.211 253.135 166.14 253.122 166.066C253.108 165.992 253.11 165.916 253.127 165.842C253.143 165.68 253.199 165.525 253.289 165.389C253.34 165.295 253.414 165.216 253.504 165.16C253.595 165.103 253.698 165.07 253.804 165.064C253.867 165.077 253.922 165.115 253.957 165.168C253.993 165.221 254.006 165.287 253.995 165.35C253.984 165.45 253.949 165.546 253.894 165.63C253.816 165.767 253.72 165.893 253.608 166.005C253.513 166.118 253.392 166.206 253.255 166.262C253.255 166.262 253.379 166.15 253.547 165.954C253.643 165.838 253.727 165.712 253.799 165.579C253.883 165.445 253.939 165.21 253.799 165.182C253.659 165.154 253.491 165.327 253.395 165.45C253.311 165.571 253.254 165.709 253.227 165.854C253.204 165.992 253.197 166.133 253.205 166.274Z" fill="#263238"/>
<path d="M263.632 165.49C263.632 165.49 263.358 165.49 262.921 165.523C262.355 165.599 261.821 165.828 261.375 166.184C260.936 166.55 260.606 167.031 260.423 167.573C260.278 167.987 260.267 168.262 260.244 168.262C260.233 168.197 260.233 168.13 260.244 168.066C260.256 167.889 260.29 167.714 260.345 167.545C260.512 166.976 260.845 166.471 261.303 166.094C261.764 165.723 262.325 165.497 262.915 165.445C263.09 165.424 263.267 165.424 263.442 165.445C263.507 165.451 263.571 165.466 263.632 165.49Z" fill="#263238"/>
<path d="M262.585 161.48C262.693 162.797 262.727 164.119 262.686 165.439C262.57 164.123 262.536 162.801 262.585 161.48Z" fill="#263238"/>
<path d="M259.007 167.394C258.084 167.58 257.136 167.601 256.207 167.455C256.207 167.422 256.839 167.455 257.618 167.455C258.396 167.455 259.001 167.36 259.007 167.394Z" fill="#263238"/>
<path d="M260.899 167.366C260.899 167.366 260.849 167.5 260.787 167.646C260.726 167.791 260.687 167.92 260.659 167.92C260.631 167.92 260.603 167.763 260.659 167.601C260.715 167.438 260.877 167.343 260.899 167.366Z" fill="#263238"/>
<path d="M261.599 166.47C261.599 166.47 261.56 166.593 261.465 166.694C261.37 166.794 261.263 166.862 261.241 166.839C261.219 166.817 261.28 166.716 261.375 166.615C261.471 166.514 261.56 166.447 261.599 166.47Z" fill="#263238"/>
<path d="M262.613 166.05C262.613 166.083 262.479 166.083 262.339 166.139C262.199 166.195 262.098 166.268 262.07 166.246C262.042 166.223 262.12 166.089 262.299 166.027C262.479 165.966 262.624 166.022 262.613 166.05Z" fill="#263238"/>
<path d="M263.335 165.854C263.335 165.882 263.29 165.932 263.212 165.966C263.134 165.999 263.061 165.999 263.05 165.966C263.038 165.932 263.089 165.887 263.167 165.854C263.246 165.82 263.324 165.82 263.335 165.854Z" fill="#263238"/>
<path d="M235.324 60.1592C234.652 66.8792 232.877 87.2632 242.19 86.552C253.183 85.7176 255.714 77.032 255.714 77.032L253.575 69.192C253.575 69.192 242.727 78.6504 242.447 77.48C240.924 71.236 241.327 62.6736 241.574 59.6216" fill="#FFBE9D"/>
<path d="M283.96 84.2L282.079 74.7696C280.695 67.0472 269.871 66.5152 269.871 66.5152L261.375 66.3752C261.375 66.3752 255.714 66.196 251.189 69.9144C246.664 73.6328 243.64 76.4776 243.64 76.4776L250.752 84.6984L254.958 81.8984C254.958 81.8984 253.446 84.6312 253.698 86.9384C253.933 89.1784 256.285 90.8976 256.285 90.8976L256.845 105.346L282.045 105.62L278.668 84.2H283.96Z" fill="#00B94F"/>
<path d="M272.094 74.1872C272.163 74.3814 272.212 74.5822 272.239 74.7864L272.57 76.4664C272.85 77.9336 273.219 79.8264 273.628 81.9264C274.037 84.0264 274.379 86.0032 274.603 87.4088C274.715 88.1144 274.793 88.6856 274.838 89.0888C274.875 89.2938 274.888 89.5024 274.877 89.7104C274.801 89.516 274.75 89.3128 274.726 89.1056L274.401 87.4536C274.115 85.9864 273.746 84.0936 273.343 81.988C272.939 79.8824 272.587 77.9168 272.363 76.5056C272.256 75.8 272.172 75.2288 272.127 74.8256C272.088 74.6152 272.077 74.4005 272.094 74.1872Z" fill="#263238"/>
<path d="M284.139 84.2896C282.436 84.4452 280.725 84.5013 279.015 84.4576C277.304 84.5082 275.592 84.4652 273.886 84.3288C275.589 84.1732 277.3 84.1171 279.01 84.1608C280.721 84.1102 282.433 84.1532 284.139 84.2896Z" fill="#263238"/>
<path d="M250.735 84.6984C249.488 83.3991 248.31 82.0345 247.207 80.6104C246.031 79.2479 244.928 77.8234 243.903 76.3432C245.152 77.6398 246.329 79.0026 247.431 80.4256C248.609 81.7894 249.712 83.2158 250.735 84.6984Z" fill="#263238"/>
<path d="M253.72 84.3512C253.843 83.961 254.008 83.5854 254.213 83.2312L254.812 82.0328C255.118 81.6095 255.267 81.0925 255.232 80.5712C255.025 79.4512 254.829 78.3872 254.711 77.6368C254.616 77.2312 254.569 76.8158 254.571 76.3992C254.731 76.7841 254.846 77.1863 254.913 77.5976C255.081 78.348 255.311 79.3672 255.523 80.532C255.582 80.8363 255.545 81.1513 255.417 81.4336C255.309 81.681 255.188 81.9222 255.053 82.156L254.392 83.332C254.209 83.6972 253.984 84.0393 253.72 84.3512Z" fill="#263238"/>
<path opacity="0.2" d="M256.772 103.514L256.408 98.1384H280.695L281.619 102.803L256.772 103.514Z" fill="black"/>
<path opacity="0.2" d="M272.323 75.0384C272.435 78.3275 272.544 81.6147 272.648 84.9C272.776 85.9577 272.628 87.0305 272.217 88.0136C271.371 89.6208 269.372 90.1472 267.597 90.5112L256.772 92.7512L276.826 91.7712L272.323 75.0384Z" fill="black"/>
<path d="M285.119 91.7601C284.559 87.2297 283.966 84.3065 283.966 84.3065L274.099 84.4577C274.099 84.4577 274.983 89.4416 274.715 90.7744C274.474 91.9336 255.439 92.7009 250.483 92.7793C250.187 92.5609 249.755 92.9305 249.363 92.6001C249.026 92.3029 248.742 91.9507 248.523 91.5585C248.226 91.0788 247.996 90.5607 247.84 90.0185C247.832 89.9106 247.79 89.8081 247.72 89.7262C247.649 89.6442 247.554 89.5871 247.449 89.5632C247.343 89.5394 247.233 89.5501 247.134 89.5937C247.035 89.6374 246.953 89.7117 246.899 89.8057C246.703 90.2313 246.927 91.6425 247.868 93.0089C248.809 94.3753 246.339 93.6641 245.438 93.4233C244.536 93.1825 241.697 92.5665 241.406 92.7961C240.975 93.1265 241.243 93.6585 242.156 93.8825C243.069 94.1065 245.746 94.9577 245.6 95.4393C245.455 95.9209 240.863 94.6216 240.863 94.6216C240.863 94.6216 239.927 94.1793 239.743 94.7337C239.407 95.7304 244.379 96.744 244.861 96.828C245.191 96.884 245.046 97.416 244.699 97.3376C244.351 97.2592 240.146 95.9321 239.793 96.9457C239.519 97.7241 243.881 97.8137 244.603 98.5865C245.326 99.3593 241.305 98.1665 241.07 98.9225C240.986 99.2025 242.66 99.3313 245.063 99.6729C247.532 99.9086 250.014 99.9965 252.494 99.9361C258.094 100.238 277.778 100.647 281.983 100.35C286.895 100.003 285.31 93.3169 285.119 91.7601Z" fill="#FFBE9D"/>
<path d="M284.985 79.0984H285.131C285.231 79.0984 285.377 79.1432 285.562 79.1936C286.103 79.3664 286.621 79.6073 287.102 79.9104C287.86 80.3883 288.569 80.9398 289.219 81.5568C289.599 81.9152 289.991 82.3128 290.383 82.7608C290.803 83.229 291.178 83.7352 291.503 84.2728C291.594 84.4218 291.669 84.5793 291.727 84.7432C291.767 84.9056 291.806 85.0736 291.851 85.2416C291.929 85.5776 292.024 85.9136 292.097 86.2664C292.231 86.972 292.371 87.7056 292.461 88.4784C292.662 90.1148 292.727 91.7649 292.657 93.412C292.439 97.1811 291.807 100.915 290.77 104.545C290.302 106.449 289.709 108.319 288.995 110.145C288.309 111.843 287.393 113.439 286.273 114.888C285.753 115.565 285.163 116.186 284.515 116.742C283.876 117.238 283.183 117.659 282.448 117.996C281.128 118.566 279.762 119.025 278.366 119.368C275.818 120.018 273.735 120.421 272.301 120.729L270.621 121.076L270.19 121.16H270.039L270.184 121.11L270.604 120.998C270.979 120.902 271.534 120.762 272.251 120.594C273.673 120.253 275.756 119.822 278.287 119.15C279.666 118.792 281.014 118.326 282.319 117.755C283.031 117.419 283.703 117.006 284.324 116.523C284.955 115.974 285.53 115.362 286.038 114.698C287.133 113.264 288.03 111.69 288.703 110.016C289.409 108.207 289.995 106.353 290.456 104.466C291.491 100.856 292.129 97.1438 292.36 93.3952C292.437 91.7619 292.38 90.1251 292.192 88.5008C292.108 87.7392 291.979 87.0056 291.845 86.3056C291.778 85.9584 291.688 85.6224 291.61 85.2864L291.492 84.7936C291.444 84.6443 291.378 84.5014 291.296 84.368C290.967 83.8394 290.593 83.341 290.176 82.8784C289.795 82.4304 289.409 82.0272 289.056 81.6688C288.42 81.0469 287.728 80.4845 286.99 79.9888C286.523 79.6789 286.021 79.4252 285.495 79.2328C285.322 79.1975 285.152 79.1527 284.985 79.0984Z" fill="#263238"/>
<path d="M241.204 61.24C241.204 61.24 241.355 60.5176 241.607 58.44L243.92 53.9208C243.92 53.9208 243.405 52.9744 242.24 54.9792C242.121 55.2517 241.898 55.4656 241.62 55.5738C241.343 55.682 241.034 55.6756 240.762 55.556C240.489 55.4364 240.275 55.2135 240.167 54.9363C240.059 54.659 240.065 54.3501 240.185 54.0776C240.259 53.7269 240.434 53.4055 240.688 53.1529C240.942 52.9004 241.265 52.7277 241.616 52.6563C241.967 52.5849 242.332 52.6177 242.665 52.7509C242.997 52.884 243.284 53.1116 243.489 53.4056C243.489 53.4056 244.228 53.4784 244.312 52.9072C244.396 52.336 242.727 50.9024 241.311 51.3168C240.731 51.5004 240.197 51.8038 239.743 52.2072C239.743 52.2072 240.05 47.4528 239.664 47.408C239.278 47.3632 238.74 47.66 238.449 52.868C238.449 52.868 238.286 48.7576 238.208 48.2312C238.13 47.7048 237.419 47.352 237.329 48.668C237.329 48.8192 237.06 52.8568 237.06 52.8568C237.06 52.8568 236.601 50.1856 236.551 49.9728C236.416 49.4128 235.862 49.4688 235.811 50.2136C235.766 50.7736 235.587 53.1984 235.587 53.1984L235.24 60.6464H235.195" fill="#FFBE9D"/>
<path d="M260.659 68.8448C260.603 66.4144 260.507 63.872 260.507 63.872C260.507 63.872 256.923 63.424 256.767 59.7616C256.61 56.0992 256.979 47.6712 256.979 47.6712L263.576 44.5016L269.339 51.0704L269.423 68.7216C269.426 69.2993 269.314 69.8719 269.095 70.4065C268.876 70.9411 268.554 71.4271 268.146 71.8366C267.739 72.2462 267.254 72.5711 266.721 72.7929C266.187 73.0147 265.615 73.1288 265.038 73.1288C263.893 73.1291 262.793 72.6808 261.974 71.88C261.156 71.0792 260.683 69.9897 260.659 68.8448Z" fill="#FFBE9D"/>
<path d="M257.903 53.8312C257.903 53.9218 257.93 54.0104 257.98 54.0858C258.031 54.1612 258.102 54.22 258.186 54.2549C258.269 54.2898 258.361 54.2993 258.45 54.282C258.539 54.2647 258.621 54.2215 258.685 54.1579C258.75 54.0942 258.794 54.0129 258.812 53.9242C258.831 53.8355 258.822 53.7434 258.788 53.6594C258.754 53.5754 258.696 53.5033 258.622 53.4521C258.547 53.401 258.459 53.3731 258.368 53.372C258.246 53.372 258.128 53.4202 258.041 53.5062C257.954 53.5922 257.905 53.7089 257.903 53.8312Z" fill="#263238"/>
<path d="M257.153 53.316C257.209 53.3776 257.55 53.0864 258.043 53.0696C258.536 53.0528 258.9 53.2992 258.951 53.232C259.001 53.1648 258.917 53.092 258.76 52.9744C258.547 52.8258 258.292 52.7511 258.032 52.7616C257.77 52.7727 257.52 52.8713 257.321 53.0416C257.175 53.1704 257.125 53.288 257.153 53.316Z" fill="#263238"/>
<path d="M263.24 53.8312C263.24 53.9218 263.267 54.0104 263.317 54.0858C263.367 54.1612 263.439 54.22 263.522 54.2549C263.606 54.2898 263.698 54.2993 263.787 54.282C263.876 54.2647 263.958 54.2215 264.022 54.1579C264.087 54.0942 264.131 54.0129 264.149 53.9242C264.167 53.8355 264.159 53.7434 264.125 53.6594C264.091 53.5754 264.033 53.5033 263.959 53.4521C263.884 53.401 263.796 53.3731 263.705 53.372C263.583 53.372 263.465 53.4202 263.378 53.5062C263.291 53.5922 263.242 53.7089 263.24 53.8312Z" fill="#263238"/>
<path d="M262.596 53.4C262.652 53.456 262.994 53.1704 263.486 53.1536C263.979 53.1368 264.343 53.3832 264.394 53.316C264.444 53.2488 264.36 53.176 264.203 53.0584C263.99 52.9098 263.735 52.835 263.475 52.8456C263.215 52.8576 262.965 52.9539 262.764 53.12C262.618 53.2656 262.568 53.4 262.596 53.4Z" fill="#263238"/>
<path d="M260.748 57.6336C260.488 57.5584 260.218 57.517 259.947 57.5104C259.824 57.5104 259.707 57.4824 259.679 57.3872C259.669 57.2501 259.696 57.1128 259.757 56.9896C259.875 56.6592 259.992 56.312 260.115 55.948C260.447 55.066 260.711 54.1599 260.905 53.2376C260.51 54.093 260.178 54.9765 259.914 55.8808C259.796 56.2448 259.684 56.592 259.572 56.9224C259.49 57.0971 259.47 57.2949 259.516 57.4824C259.535 57.5277 259.564 57.568 259.601 57.6001C259.638 57.6322 259.682 57.6552 259.729 57.6672C259.798 57.6865 259.87 57.6959 259.942 57.6952C260.212 57.7093 260.483 57.6886 260.748 57.6336Z" fill="#263238"/>
<path d="M260.507 63.872C262.208 63.8299 263.859 63.2906 265.256 62.3208C265.256 62.3208 264.136 64.9864 260.569 64.7736L260.507 63.872Z" fill="#EB996E"/>
<path d="M260.927 58.9216C260.957 58.7683 261.023 58.6244 261.121 58.5025C261.219 58.3806 261.344 58.2842 261.487 58.2216C261.588 58.1758 261.696 58.1521 261.807 58.1521C261.917 58.1521 262.026 58.1758 262.126 58.2216C262.225 58.2749 262.306 58.3568 262.358 58.4567C262.41 58.5566 262.43 58.6698 262.417 58.7816C262.388 58.9018 262.325 59.0107 262.234 59.0945C262.143 59.1783 262.029 59.2331 261.907 59.252C261.664 59.2906 261.416 59.2753 261.179 59.2072C261.112 59.1948 261.047 59.1701 260.989 59.1344C260.96 59.1168 260.937 59.0908 260.923 59.0598C260.909 59.0288 260.905 58.9943 260.911 58.9608" fill="#EB996E"/>
<path d="M262.12 57.6112C262.159 57.6112 262.221 57.7456 262.204 57.9864C262.177 58.3046 262.033 58.6015 261.801 58.8204C261.568 59.0394 261.263 59.1651 260.944 59.1736C260.703 59.1736 260.569 59.1064 260.574 59.0728C260.58 59.0392 261.134 59.0336 261.599 58.608C262.064 58.1824 262.064 57.6112 262.12 57.6112Z" fill="#263238"/>
<path d="M251.603 74.9432C251.671 74.4174 251.83 73.9075 252.074 73.4368C252.233 72.9293 252.484 72.455 252.813 72.0368C252.749 72.5651 252.589 73.0773 252.342 73.5488C252.187 74.0565 251.936 74.5298 251.603 74.9432Z" fill="#263238"/>
<path d="M259.97 76.164C258.824 75.7867 257.817 75.0747 257.08 74.12C258.07 74.7732 259.041 75.4548 259.992 76.164H259.97Z" fill="#263238"/>
<path d="M258.928 68.9344C258.162 69.4042 257.301 69.7004 256.408 69.8024C256.769 69.5317 257.183 69.3408 257.623 69.2424C258.031 69.0462 258.476 68.9411 258.928 68.9344Z" fill="#263238"/>
<path d="M258.368 83.64C258.949 82.4719 259.704 81.3992 260.608 80.4592C260.354 81.0645 260.015 81.6302 259.6 82.1392C259.263 82.6958 258.848 83.2012 258.368 83.64Z" fill="#263238"/>
<path d="M258.844 89.66C258.257 89.3393 257.72 88.9357 257.248 88.4616C256.716 88.0572 256.243 87.5803 255.843 87.0448C256.965 87.7663 257.976 88.6473 258.844 89.66Z" fill="#263238"/>
<path d="M263.072 89.0944C262.861 88.4981 262.691 87.8882 262.562 87.2688C262.337 86.6748 262.15 86.0669 262.002 85.4488C262.413 85.9547 262.695 86.5521 262.826 87.1904C263.053 87.7977 263.137 88.4492 263.072 89.0944Z" fill="#263238"/>
<path d="M270.834 89.1952C269.804 89.7146 268.695 90.0572 267.552 90.2088C268.579 89.6829 269.689 89.3399 270.834 89.1952Z" fill="#263238"/>
<path d="M271.203 83.0016C270.145 83.7926 268.978 84.4246 267.737 84.8776C268.791 84.0811 269.96 83.4486 271.203 83.0016Z" fill="#263238"/>
<path d="M267.115 80.5544C266.279 79.701 265.587 78.7176 265.066 77.6425C265.902 78.4959 266.594 79.4793 267.115 80.5544Z" fill="#263238"/>
<path d="M270.173 74.0136C270.173 74.0136 270.1 74.0136 270.011 73.952L270.106 73.9128C270.093 74.4922 270.018 75.0686 269.882 75.632C269.786 76.2641 269.572 76.8722 269.249 77.424C269.296 76.7952 269.412 76.1735 269.596 75.5704C269.764 74.82 269.899 74.176 269.994 73.8904L270.027 73.7784L270.089 73.8568C270.156 73.9464 270.184 74.0024 270.173 74.0136Z" fill="#263238"/>
<path d="M276.826 69.64C275.488 69.5631 274.168 69.2953 272.906 68.8448C273.577 68.8328 274.247 68.9177 274.894 69.0968C275.56 69.1874 276.21 69.3702 276.826 69.64Z" fill="#263238"/>
<path d="M275.235 75.9848C275.15 75.4812 275.164 74.9658 275.274 74.4672C275.292 73.9583 275.404 73.457 275.605 72.9888C275.69 73.4925 275.676 74.0078 275.566 74.5064C275.548 75.0154 275.436 75.5166 275.235 75.9848Z" fill="#263238"/>
<path d="M278.769 77.8496C278.803 77.3876 278.933 76.9376 279.15 76.528C279.283 76.0854 279.504 75.674 279.799 75.3184C279.765 75.7805 279.635 76.2305 279.419 76.64C279.288 77.0836 279.067 77.4954 278.769 77.8496Z" fill="#263238"/>
<path d="M278.797 81.4C278.158 81.1114 277.562 80.7344 277.027 80.28C276.432 79.9148 275.893 79.466 275.426 78.9472C276.065 79.2355 276.661 79.6126 277.195 80.0672C277.788 80.4355 278.327 80.884 278.797 81.4Z" fill="#263238"/>
<path d="M261.829 103.912C261.323 103.744 260.852 103.484 260.44 103.145C259.971 102.885 259.554 102.541 259.208 102.131C259.714 102.306 260.186 102.568 260.602 102.904C261.068 103.164 261.483 103.506 261.829 103.912Z" fill="#263238"/>
<path d="M268.224 101.661C267.915 102.273 267.521 102.839 267.054 103.341C266.663 103.9 266.193 104.4 265.659 104.825C265.968 104.212 266.362 103.647 266.83 103.145C267.22 102.586 267.69 102.086 268.224 101.661Z" fill="#263238"/>
<path d="M274.866 104.741C274.96 104.249 275.15 103.781 275.426 103.363C275.621 102.901 275.905 102.48 276.26 102.126C275.966 103.082 275.487 103.97 274.849 104.741H274.866Z" fill="#263238"/>
<path d="M273.091 105.105C272.72 104.754 272.42 104.336 272.206 103.873C271.913 103.456 271.698 102.989 271.573 102.495C271.946 102.844 272.247 103.262 272.458 103.727C272.755 104.141 272.97 104.609 273.091 105.105Z" fill="#263238"/>
<path d="M256.722 46.8088C256.39 46.9982 256.109 47.2659 255.905 47.5886C255.7 47.9112 255.578 48.2791 255.548 48.66C255.518 49.0409 255.582 49.4232 255.735 49.7737C255.887 50.1242 256.122 50.4321 256.421 50.6706C256.719 50.9091 257.071 51.0709 257.447 51.1419C257.822 51.2129 258.209 51.1909 258.574 51.0779C258.939 50.9649 259.271 50.7643 259.54 50.4935C259.81 50.2228 260.009 49.8902 260.121 49.5248C259.932 49.9109 259.875 50.348 259.958 50.7695C260.041 51.1911 260.259 51.574 260.58 51.86C260.911 52.133 261.311 52.3098 261.735 52.371C262.16 52.4323 262.593 52.3756 262.988 52.2072C263.38 52.0313 263.728 51.7701 264.006 51.4426C264.284 51.1152 264.485 50.7297 264.595 50.3144C264.601 50.7213 264.702 51.1212 264.889 51.4827C265.075 51.8441 265.344 52.1574 265.672 52.3978C266 52.6382 266.38 52.7992 266.781 52.8682C267.182 52.9371 267.593 52.9121 267.983 52.7952C267.584 53.0467 267.263 53.4048 267.056 53.8291C266.85 54.2533 266.766 54.7269 266.814 55.1963C266.863 55.6657 267.041 56.1123 267.33 56.4856C267.618 56.8588 268.006 57.144 268.448 57.3088C267.97 57.6083 267.619 58.072 267.459 58.6125C267.299 59.1531 267.342 59.7334 267.58 60.2444C267.818 60.7554 268.235 61.1619 268.751 61.3875C269.268 61.6131 269.849 61.6423 270.386 61.4696C271.506 61.1224 272.172 60.0136 272.626 58.9328C273.825 55.9904 273.812 52.6935 272.592 49.76C271.962 48.3174 271.011 47.0378 269.812 46.0187C268.612 44.9997 267.196 44.2682 265.67 43.88C264.143 43.5168 262.547 43.5582 261.041 44.0001C259.534 44.4421 258.169 45.2692 257.08 46.4" fill="#263238"/>
<path d="M275.314 47.1448C275.314 47.1448 275.314 47.184 275.342 47.268C275.356 47.3871 275.356 47.5074 275.342 47.6264C275.282 48.0771 275.087 48.499 274.782 48.836C274.543 49.1034 274.239 49.304 273.899 49.4179C273.559 49.5318 273.196 49.5552 272.844 49.4856C272.39 49.3879 271.976 49.1555 271.657 48.8188C271.337 48.4821 271.126 48.0568 271.052 47.5984H271.321C271.26 47.9731 271.119 48.3301 270.907 48.6452C270.695 48.9602 270.418 49.2259 270.095 49.424C269.747 49.6484 269.349 49.7811 268.937 49.8095C268.524 49.8379 268.112 49.7611 267.737 49.5864C267.381 49.4255 267.065 49.1887 266.811 48.8927C266.556 48.5966 266.37 48.2486 266.264 47.8728C266.204 47.6892 266.181 47.495 266.199 47.3024C266.216 47.1098 266.273 46.9228 266.365 46.7528C266.474 46.5813 266.641 46.4543 266.835 46.3944C266.935 46.3635 267.041 46.3565 267.144 46.374C267.247 46.3915 267.345 46.433 267.429 46.4952C267.572 46.6191 267.67 46.7865 267.709 46.9717C267.747 47.1568 267.724 47.3495 267.642 47.52C267.499 47.8131 267.278 48.0611 267.003 48.2368C266.531 48.5568 265.966 48.7104 265.396 48.6736C264.931 48.6459 264.484 48.4801 264.114 48.1976C263.836 47.9919 263.607 47.7281 263.442 47.4248C263.332 47.2371 263.252 47.0329 263.207 46.82C263.194 46.7478 263.194 46.6739 263.207 46.6016C263.302 46.867 263.42 47.1237 263.559 47.3688C263.757 47.6936 264.03 47.9653 264.356 48.1605C264.682 48.3557 265.05 48.4684 265.43 48.4888C265.949 48.5083 266.461 48.3569 266.886 48.0576C267.125 47.9069 267.319 47.694 267.446 47.4416C267.503 47.3241 267.521 47.1909 267.496 47.0625C267.47 46.934 267.404 46.8174 267.306 46.7304C267.249 46.699 267.187 46.6791 267.123 46.672C267.059 46.6649 266.994 46.6706 266.932 46.6888C266.869 46.7071 266.812 46.7375 266.762 46.7783C266.711 46.819 266.67 46.8694 266.639 46.9264C266.57 47.0652 266.529 47.2166 266.519 47.3715C266.51 47.5264 266.532 47.6817 266.583 47.828C266.678 48.162 266.845 48.471 267.073 48.7332C267.3 48.9955 267.582 49.2045 267.899 49.3456C268.23 49.5009 268.594 49.5701 268.958 49.5466C269.323 49.5231 269.675 49.4077 269.983 49.2112C270.273 49.035 270.523 48.7991 270.717 48.5192C270.91 48.2393 271.041 47.9217 271.103 47.5872L271.243 46.6408L271.366 47.5928C271.434 47.9965 271.62 48.3711 271.899 48.6699C272.179 48.9687 272.541 49.1784 272.939 49.2728C273.258 49.3388 273.587 49.3219 273.897 49.2238C274.207 49.1258 274.487 48.9498 274.709 48.7128C275.017 48.4065 275.229 48.0174 275.319 47.5928C275.314 47.3128 275.297 47.1448 275.314 47.1448Z" fill="#455A64"/>
<path d="M278.265 50.9528C278.294 51.1103 278.28 51.2727 278.226 51.4232C278.111 51.8509 277.881 52.2386 277.559 52.5432C277.323 52.7751 277.04 52.9536 276.729 53.0666C276.418 53.1796 276.086 53.2246 275.756 53.1984C275.351 53.1637 274.959 53.0329 274.615 52.8167C274.27 52.6004 273.982 52.3051 273.774 51.9552C273.724 51.8728 273.681 51.7867 273.645 51.6976H273.919C273.77 52.0919 273.478 52.4157 273.102 52.6048C272.769 52.7858 272.394 52.8748 272.015 52.8624C271.376 52.8333 270.773 52.556 270.335 52.0896C270.046 51.7985 269.813 51.4569 269.647 51.0816C269.572 50.9523 269.525 50.8095 269.507 50.6616C269.78 51.1243 270.105 51.5546 270.475 51.944C270.885 52.3458 271.431 52.5796 272.004 52.5992C272.345 52.6139 272.682 52.5262 272.973 52.3476C273.263 52.169 273.493 51.9075 273.634 51.5968L273.746 51.2832L273.903 51.5912C273.942 51.664 273.97 51.7424 274.015 51.8152C274.201 52.1238 274.457 52.3853 274.76 52.5795C275.064 52.7737 275.409 52.8954 275.767 52.9352C276.065 52.9592 276.364 52.9218 276.646 52.8255C276.928 52.7292 277.188 52.5759 277.408 52.3752C277.719 52.1069 277.959 51.7666 278.108 51.384C278.153 51.2377 278.205 51.0938 278.265 50.9528Z" fill="#455A64"/>
<path d="M274.575 57.88C274.414 57.9927 274.23 58.07 274.037 58.1067C273.844 58.1433 273.646 58.1386 273.455 58.0928C273.029 58.0378 272.634 57.8404 272.335 57.5328C271.967 57.1428 271.766 56.6243 271.775 56.088L271.993 56.2168L271.909 56.256C271.419 56.5087 270.849 56.557 270.324 56.3904C269.901 56.2551 269.536 55.9808 269.288 55.612C269.161 55.4575 269.069 55.2776 269.018 55.0843C268.967 54.8911 268.958 54.6891 268.991 54.492C269.087 54.8489 269.244 55.1863 269.456 55.4888C269.696 55.7977 270.027 56.0231 270.403 56.1328C270.861 56.2604 271.35 56.2125 271.775 55.9984L271.847 55.9648L272.066 55.8416V56.088C272.065 56.5119 272.208 56.9235 272.473 57.2545C272.738 57.5855 273.108 57.8161 273.522 57.908C273.872 57.9541 274.227 57.9447 274.575 57.88Z" fill="#455A64"/>
<path d="M253.967 49.0096C254.378 49.382 254.865 49.6609 255.395 49.8272C255.968 49.9838 256.578 49.9423 257.125 49.7096C257.788 49.4153 258.309 48.8723 258.575 48.1976C258.633 48.041 258.678 47.8799 258.71 47.716L258.799 47.2792L258.984 47.6824C259.059 47.8112 259.174 47.9123 259.311 47.9708C259.448 48.0293 259.601 48.042 259.746 48.0072C260.043 47.9339 260.314 47.7764 260.524 47.5536C260.906 47.1711 261.176 46.6905 261.303 46.1648C261.403 45.6744 261.416 45.1702 261.342 44.6752C261.418 44.7939 261.468 44.9276 261.487 45.0672C261.563 45.4368 261.563 45.8177 261.487 46.1872C261.38 46.7621 261.108 47.2933 260.703 47.716C260.463 47.9906 260.144 48.1858 259.791 48.276C259.583 48.3241 259.366 48.3031 259.172 48.2161C258.978 48.1292 258.817 47.9811 258.715 47.7944L258.99 47.7552C258.959 47.9467 258.908 48.1344 258.839 48.3152C258.696 48.689 258.48 49.0304 258.203 49.319C257.926 49.6076 257.593 49.8376 257.226 49.9952C256.621 50.235 255.952 50.2568 255.333 50.0568C254.923 49.9309 254.549 49.7103 254.241 49.4128C254.119 49.302 254.025 49.1639 253.967 49.0096Z" fill="#455A64"/>
<path d="M255.591 53.6016C255.624 53.6016 255.624 53.8704 255.355 54.1616C255.171 54.34 254.944 54.4673 254.695 54.5311C254.447 54.5949 254.186 54.593 253.939 54.5256C253.464 54.3999 253.033 54.1484 252.69 53.7976C252.427 53.5456 252.292 53.3664 252.315 53.3384C252.337 53.3104 252.533 53.4336 252.819 53.6408C253.173 53.9143 253.576 54.1177 254.006 54.24C254.212 54.2952 254.428 54.3028 254.638 54.262C254.847 54.2213 255.045 54.1333 255.215 54.0048C255.473 53.8088 255.546 53.5904 255.591 53.6016Z" fill="#455A64"/>
<path d="M260.115 54.3408C260.115 54.3408 260.115 54.1448 259.992 53.82C259.851 53.3697 259.568 52.9769 259.186 52.7C258.948 52.521 258.674 52.3953 258.383 52.3314C258.092 52.2675 257.79 52.2669 257.499 52.3297C257.208 52.3925 256.934 52.5172 256.695 52.6953C256.456 52.8734 256.259 53.1008 256.115 53.362C255.972 53.6232 255.887 53.9122 255.865 54.2093C255.843 54.5064 255.886 54.8047 255.99 55.084C256.093 55.3632 256.256 55.6169 256.466 55.8278C256.677 56.0388 256.93 56.202 257.209 56.3064C257.536 56.4253 257.887 56.4624 258.231 56.4146C258.576 56.3667 258.903 56.2354 259.186 56.032C259.566 55.7528 259.848 55.3609 259.992 54.912C260.087 54.5816 260.087 54.3856 260.115 54.3856C260.16 54.5695 260.16 54.7616 260.115 54.9456C260.005 55.444 259.724 55.8879 259.32 56.2C259.015 56.4403 258.655 56.5997 258.272 56.6634C257.889 56.727 257.497 56.6928 257.13 56.564C256.676 56.4043 256.283 56.1077 256.005 55.715C255.727 55.3223 255.577 54.8529 255.577 54.3716C255.577 53.8903 255.727 53.4209 256.005 53.0282C256.283 52.6355 256.676 52.3389 257.13 52.1792C257.496 52.0491 257.889 52.0137 258.271 52.0764C258.654 52.139 259.015 52.2977 259.32 52.5376C259.727 52.8576 260.007 53.3123 260.11 53.82C260.151 53.9909 260.153 54.169 260.115 54.3408Z" fill="#455A64"/>
<path d="M266.337 54.3408C266.337 54.3408 266.337 54.1448 266.214 53.82C266.074 53.3686 265.791 52.9752 265.407 52.7C265.169 52.5197 264.895 52.393 264.603 52.3283C264.312 52.2636 264.01 52.2625 263.718 52.3252C263.426 52.3878 263.151 52.5127 262.911 52.6913C262.672 52.8699 262.474 53.098 262.33 53.3601C262.187 53.6222 262.102 53.9121 262.081 54.21C262.06 54.508 262.103 54.8069 262.208 55.0866C262.313 55.3662 262.477 55.6199 262.689 55.8304C262.901 56.0409 263.156 56.2033 263.436 56.3064C263.762 56.4253 264.112 56.4624 264.456 56.4146C264.8 56.3667 265.126 56.2354 265.407 56.032C265.789 55.7545 266.072 55.362 266.214 54.912C266.309 54.5816 266.315 54.3856 266.337 54.3856C266.388 54.5688 266.388 54.7624 266.337 54.9456C266.23 55.4516 265.949 55.9037 265.542 56.2224C265.238 56.4627 264.879 56.6222 264.497 56.6858C264.115 56.7495 263.723 56.7153 263.358 56.5864C262.904 56.4268 262.51 56.1301 262.232 55.7374C261.954 55.3447 261.805 54.8753 261.805 54.394C261.805 53.9127 261.954 53.4433 262.232 53.0506C262.51 52.6579 262.904 52.3613 263.358 52.2016C263.722 52.072 264.114 52.0368 264.496 52.0995C264.878 52.1622 265.238 52.3206 265.542 52.56C265.95 52.8798 266.232 53.3342 266.337 53.8424C266.378 54.006 266.378 54.1772 266.337 54.3408Z" fill="#455A64"/>
<path d="M262.053 54.2344C262.053 54.3184 261.611 54.38 261.062 54.38C260.513 54.38 260.076 54.3184 260.076 54.2344C260.076 54.1504 260.519 54.0888 261.062 54.0888C261.605 54.0888 262.053 54.156 262.053 54.2344Z" fill="#455A64"/>
<path d="M240.112 105.082C248.602 104.235 257.15 104.129 265.659 104.763L254.84 120.264L245.096 120.303L243.024 164.84H230.144L231.376 114.821C231.433 112.426 232.343 110.131 233.943 108.348C235.543 106.566 237.726 105.414 240.101 105.099L240.112 105.082Z" fill="#263238"/>
<path d="M263.834 121.49C263.834 121.49 283.137 122.801 282.655 105.463C282.655 105.463 251.732 100.238 249.722 109.226C249.072 112.116 250.842 165.182 250.842 165.182H264.36" fill="#263238"/>
<path d="M264.024 117.649C264.139 119.128 264.054 120.616 263.772 122.073C263.666 120.593 263.75 119.107 264.024 117.649Z" fill="#455A64"/>
<path d="M263.408 103.867C263.323 103.916 263.233 103.955 263.139 103.985C262.966 104.052 262.702 104.142 262.355 104.242C261.373 104.506 260.377 104.711 259.371 104.858C257.887 105.05 256.422 105.365 254.991 105.799C254.162 106.068 253.371 106.445 252.639 106.919C251.864 107.446 251.208 108.129 250.713 108.924C249.751 110.474 249.269 112.275 249.33 114.098C249.419 115.778 249.498 117.296 249.565 118.578C249.632 119.861 249.671 120.858 249.705 121.619C249.705 121.95 249.705 122.218 249.705 122.442C249.72 122.539 249.72 122.637 249.705 122.734C249.682 122.638 249.667 122.541 249.66 122.442C249.66 122.224 249.615 121.95 249.582 121.625C249.526 120.863 249.442 119.838 249.347 118.595C249.251 117.352 249.139 115.795 249.05 114.115C248.972 112.235 249.464 110.375 250.461 108.778C250.974 107.95 251.657 107.239 252.466 106.695C253.221 106.202 254.038 105.813 254.896 105.536C256.346 105.111 257.83 104.813 259.331 104.646C260.597 104.472 261.622 104.293 262.316 104.125C263.01 103.957 263.397 103.845 263.408 103.867Z" fill="#455A64"/>
<path d="M222.405 73.1176L229.735 95.9992L270.263 96.7384L269.994 95.5176L255.193 95.064L248.378 73.1064L222.405 73.1176Z" fill="#455A64"/>
<path d="M238.863 84.5528C239.104 85.5216 238.69 86.4736 237.939 86.6752C237.189 86.8768 236.377 86.2552 236.136 85.2864C235.895 84.3176 236.31 83.3712 237.066 83.1696C237.822 82.968 238.6 83.5896 238.863 84.5528Z" fill="white"/>
<path d="M312.621 89.4471C311.968 88.9603 311.16 88.7275 310.347 88.792C310.347 88.3552 310.347 88.0807 310.347 88.0807H297.96C297.96 88.0807 297.568 96.2623 303.835 96.5535C306.635 96.6823 308.242 95.4335 309.16 93.8431C309.62 93.9552 310.092 94.0135 310.566 94.0167C311.26 94.0425 311.945 93.8463 312.52 93.4567C312.834 93.2094 313.082 92.8894 313.244 92.5245C313.406 92.1596 313.477 91.7607 313.45 91.3624C313.466 91.0012 313.4 90.6411 313.256 90.3093C313.112 89.9775 312.895 89.6827 312.621 89.4471ZM311.77 92.4824C311.243 92.88 310.297 92.8183 309.675 92.7063C309.993 91.8405 310.197 90.9369 310.28 90.0184C310.823 89.9548 311.371 90.0815 311.831 90.3768C311.966 90.5019 312.071 90.6563 312.137 90.8281C312.203 90.9999 312.229 91.1846 312.212 91.3679C312.235 91.5757 312.206 91.7858 312.129 91.98C312.052 92.1743 311.929 92.3467 311.77 92.4824Z" fill="#00B94F"/>
<path d="M308.516 85.4432C308.425 85.3631 308.346 85.2707 308.281 85.1688C308.079 84.8776 307.94 84.5477 307.872 84.2C307.747 83.6383 307.798 83.0517 308.018 82.52C308.363 81.8708 308.838 81.2991 309.412 80.84C310.058 80.2454 310.497 79.4609 310.667 78.6C310.814 77.8469 310.737 77.0671 310.445 76.3574C310.154 75.6476 309.66 75.0391 309.026 74.6072C308.55 74.3052 308.033 74.0733 307.491 73.9184C306.904 73.7546 306.354 73.4768 305.873 73.1008C305.638 72.8881 305.448 72.6312 305.313 72.3448C305.168 72.0416 305.127 71.6993 305.195 71.3704C305.195 71.32 305.223 71.2752 305.235 71.236L305.38 71.3816C305.122 71.4975 304.901 71.683 304.741 71.9174C304.582 72.1518 304.491 72.4257 304.479 72.7088C304.445 73.2789 304.571 73.8472 304.843 74.3496C305.089 74.8704 305.403 75.352 305.615 75.8784C305.862 76.3903 305.97 76.958 305.929 77.5248C305.858 78.0697 305.596 78.5718 305.19 78.9416C304.822 79.2826 304.403 79.5625 303.947 79.7704C303.125 80.0703 302.321 80.4162 301.539 80.8064C300.917 81.1606 300.424 81.704 300.133 82.3576C299.909 82.85 299.795 83.3848 299.797 83.9256C299.811 84.388 299.898 84.8454 300.055 85.2808C300.038 85.2559 300.023 85.2297 300.01 85.2024C300.01 85.1464 299.943 85.068 299.903 84.9504C299.785 84.6211 299.719 84.2753 299.707 83.9256C299.689 83.37 299.794 82.8172 300.015 82.3072C300.306 81.6212 300.808 81.0462 301.449 80.6664C302.234 80.2648 303.039 79.9059 303.863 79.5912C304.3 79.3917 304.701 79.1211 305.05 78.7904C305.416 78.4526 305.652 77.9966 305.716 77.5024C305.75 76.9733 305.646 76.4445 305.414 75.968C305.195 75.464 304.893 74.9824 304.641 74.4504C304.345 73.9097 304.207 73.2963 304.243 72.6808C304.28 72.3632 304.385 72.0575 304.551 71.7848C304.724 71.4966 304.991 71.2769 305.307 71.1632L305.515 71.0848L305.453 71.3088L305.425 71.4208C305.386 71.7039 305.423 71.9922 305.531 72.2567C305.639 72.5212 305.815 72.7525 306.041 72.9272C306.5 73.2841 307.026 73.5468 307.587 73.7C308.147 73.8632 308.681 74.1065 309.171 74.4224C309.637 74.7436 310.032 75.1573 310.331 75.6376C310.903 76.5262 311.104 77.6039 310.891 78.6392C310.703 79.5305 310.236 80.3388 309.558 80.9464C308.991 81.3944 308.519 81.9501 308.169 82.5816C307.956 83.0812 307.896 83.6326 307.995 84.1664C308.069 84.6262 308.247 85.063 308.516 85.4432Z" fill="#263238"/>
<path d="M323.619 96.1056H196.522V99.9976H203.32L199.703 168.782L201.646 168.777L205.263 99.9976L316.664 99.3872L319.229 168.575L321.374 168.693L318.63 99.9976H323.619V96.1056Z" fill="#263238"/>
<path d="M127.384 3.2912H73.2822V169.023H127.384V3.2912Z" fill="#EBEBEB"/>
<path d="M170.067 3.8288H127.306V169.029H170.067V3.8288Z" fill="#E0E0E0"/>
<path d="M122.17 29.8184H76.2783V42.7376H122.17V29.8184Z" fill="#263238"/>
<path d="M80.1256 31.4424H77.5552V41.332H80.1256V31.4424Z" fill="#00B94F"/>
<path d="M83.1552 33.52C83.1563 33.6819 83.1093 33.8406 83.0201 33.9757C82.931 34.1109 82.8037 34.2166 82.6544 34.2793C82.5051 34.3421 82.3405 34.3591 82.1816 34.3282C82.0226 34.2972 81.8764 34.2198 81.7615 34.1057C81.6466 33.9916 81.5681 33.8459 81.5361 33.6872C81.5041 33.5284 81.52 33.3637 81.5817 33.214C81.6434 33.0643 81.7482 32.9363 81.8828 32.8462C82.0174 32.7561 82.1757 32.708 82.3376 32.708C82.5535 32.708 82.7606 32.7934 82.9138 32.9455C83.0669 33.0976 83.1537 33.3041 83.1552 33.52Z" fill="white"/>
<path d="M83.1552 37.0144C83.1552 37.1761 83.1073 37.3342 83.0174 37.4686C82.9276 37.6031 82.7999 37.7079 82.6505 37.7697C82.5011 37.8316 82.3367 37.8478 82.1781 37.8163C82.0195 37.7847 81.8738 37.7068 81.7595 37.5925C81.6451 37.4782 81.5673 37.3325 81.5357 37.1739C81.5042 37.0153 81.5204 36.8509 81.5823 36.7015C81.6441 36.5521 81.7489 36.4244 81.8834 36.3346C82.0178 36.2447 82.1759 36.1968 82.3376 36.1968C82.5545 36.1968 82.7624 36.2829 82.9158 36.4362C83.0691 36.5896 83.1552 36.7975 83.1552 37.0144Z" fill="white"/>
<path d="M88.9455 32.708H86.4199V40.3016H88.9455V32.708Z" fill="#455A64"/>
<path d="M92.5913 32.708H90.0657V40.3016H92.5913V32.708Z" fill="#455A64"/>
<path d="M96.2424 32.708H93.7168V40.3016H96.2424V32.708Z" fill="#455A64"/>
<path d="M99.8879 32.708H97.3623V40.3016H99.8879V32.708Z" fill="#455A64"/>
<path d="M103.534 32.708H101.008V40.3016H103.534V32.708Z" fill="#455A64"/>
<path d="M107.185 32.708H104.659V40.3016H107.185V32.708Z" fill="#455A64"/>
<path d="M110.831 32.708H108.305V40.3016H110.831V32.708Z" fill="#455A64"/>
<path d="M114.482 32.708H111.956V40.3016H114.482V32.708Z" fill="#455A64"/>
<path d="M118.127 32.708H115.602V40.3016H118.127V32.708Z" fill="#455A64"/>
<path d="M121.773 32.708H119.247V40.3016H121.773V32.708Z" fill="#455A64"/>
<path d="M122.17 48.3768H76.2783V61.296H122.17V48.3768Z" fill="#263238"/>
<path d="M80.1256 50.0064H77.5552V59.896H80.1256V50.0064Z" fill="#00B94F"/>
<path d="M83.1552 52.084C83.1552 52.2457 83.1073 52.4038 83.0174 52.5383C82.9276 52.6727 82.7999 52.7775 82.6505 52.8394C82.5011 52.9013 82.3367 52.9175 82.1781 52.8859C82.0195 52.8544 81.8738 52.7765 81.7595 52.6621C81.6451 52.5478 81.5673 52.4021 81.5357 52.2435C81.5042 52.0849 81.5204 51.9205 81.5823 51.7711C81.6441 51.6217 81.7489 51.494 81.8834 51.4042C82.0178 51.3144 82.1759 51.2664 82.3376 51.2664C82.5545 51.2664 82.7624 51.3526 82.9158 51.5059C83.0691 51.6592 83.1552 51.8672 83.1552 52.084Z" fill="white"/>
<path d="M83.1552 55.5784C83.1552 55.7401 83.1073 55.8982 83.0174 56.0326C82.9276 56.1671 82.7999 56.2719 82.6505 56.3338C82.5011 56.3957 82.3367 56.4118 82.1781 56.3803C82.0195 56.3488 81.8738 56.2709 81.7595 56.1565C81.6451 56.0422 81.5673 55.8965 81.5357 55.7379C81.5042 55.5793 81.5204 55.4149 81.5823 55.2655C81.6441 55.1161 81.7489 54.9884 81.8834 54.8986C82.0178 54.8088 82.1759 54.7608 82.3376 54.7608C82.5545 54.7608 82.7624 54.8469 82.9158 55.0003C83.0691 55.1536 83.1552 55.3616 83.1552 55.5784Z" fill="white"/>
<path d="M88.9455 51.2664H86.4199V58.86H88.9455V51.2664Z" fill="#455A64"/>
<path d="M92.5913 51.2664H90.0657V58.86H92.5913V51.2664Z" fill="#455A64"/>
<path d="M96.2424 51.2664H93.7168V58.86H96.2424V51.2664Z" fill="#455A64"/>
<path d="M99.8879 51.2664H97.3623V58.86H99.8879V51.2664Z" fill="#455A64"/>
<path d="M103.534 51.2664H101.008V58.86H103.534V51.2664Z" fill="#455A64"/>
<path d="M107.185 51.2664H104.659V58.86H107.185V51.2664Z" fill="#455A64"/>
<path d="M110.831 51.2664H108.305V58.86H110.831V51.2664Z" fill="#455A64"/>
<path d="M114.482 51.2664H111.956V58.86H114.482V51.2664Z" fill="#455A64"/>
<path d="M118.127 51.2664H115.602V58.86H118.127V51.2664Z" fill="#455A64"/>
<path d="M121.773 51.2664H119.247V58.86H121.773V51.2664Z" fill="#455A64"/>
<path d="M122.17 67.092H76.2783V80.0112H122.17V67.092Z" fill="#263238"/>
<path d="M80.1256 68.716H77.5552V78.6056H80.1256V68.716Z" fill="#00B94F"/>
<path d="M83.1552 70.7936C83.1552 70.9562 83.1066 71.1152 83.0157 71.2501C82.9249 71.385 82.7958 71.4897 82.6451 71.5508C82.4944 71.612 82.3289 71.6268 82.1697 71.5934C82.0105 71.56 81.8649 71.4799 81.7515 71.3633C81.6381 71.2467 81.5621 71.099 81.5331 70.9389C81.5041 70.7789 81.5235 70.6138 81.5889 70.4649C81.6542 70.3159 81.7625 70.1898 81.8998 70.1027C82.0372 70.0157 82.1974 69.9715 82.36 69.976C82.573 69.9818 82.7752 70.0705 82.9237 70.2232C83.0722 70.3759 83.1553 70.5806 83.1552 70.7936Z" fill="white"/>
<path d="M83.1552 74.288C83.1552 74.4497 83.1073 74.6078 83.0174 74.7422C82.9276 74.8767 82.7999 74.9815 82.6505 75.0434C82.5011 75.1053 82.3367 75.1214 82.1781 75.0899C82.0195 75.0583 81.8738 74.9805 81.7595 74.8661C81.6451 74.7518 81.5673 74.6061 81.5357 74.4475C81.5042 74.2889 81.5204 74.1245 81.5823 73.9751C81.6441 73.8257 81.7489 73.698 81.8834 73.6082C82.0178 73.5184 82.1759 73.4704 82.3376 73.4704C82.5545 73.4704 82.7624 73.5565 82.9158 73.7099C83.0691 73.8632 83.1552 74.0712 83.1552 74.288Z" fill="white"/>
<path d="M88.9455 69.976H86.4199V77.5696H88.9455V69.976Z" fill="#455A64"/>
<path d="M92.5913 69.976H90.0657V77.5696H92.5913V69.976Z" fill="#455A64"/>
<path d="M96.2424 69.976H93.7168V77.5696H96.2424V69.976Z" fill="#455A64"/>
<path d="M99.8879 69.976H97.3623V77.5696H99.8879V69.976Z" fill="#455A64"/>
<path d="M103.534 69.976H101.008V77.5696H103.534V69.976Z" fill="#455A64"/>
<path d="M107.185 69.976H104.659V77.5696H107.185V69.976Z" fill="#455A64"/>
<path d="M110.831 69.976H108.305V77.5696H110.831V69.976Z" fill="#455A64"/>
<path d="M114.482 69.976H111.956V77.5696H114.482V69.976Z" fill="#455A64"/>
<path d="M118.127 69.976H115.602V77.5696H118.127V69.976Z" fill="#455A64"/>
<path d="M121.773 69.976H119.247V77.5696H121.773V69.976Z" fill="#455A64"/>
<path d="M122.17 86.0592H76.2783V98.9784H122.17V86.0592Z" fill="#263238"/>
<path d="M80.1256 87.6832H77.5552V97.5728H80.1256V87.6832Z" fill="#00B94F"/>
<path d="M83.1552 89.7608C83.1552 89.9225 83.1073 90.0806 83.0174 90.215C82.9276 90.3495 82.7999 90.4543 82.6505 90.5162C82.5011 90.5781 82.3367 90.5942 82.1781 90.5627C82.0195 90.5312 81.8738 90.4533 81.7595 90.3389C81.6451 90.2246 81.5673 90.0789 81.5357 89.9203C81.5042 89.7617 81.5204 89.5973 81.5823 89.4479C81.6441 89.2986 81.7489 89.1709 81.8834 89.081C82.0178 88.9912 82.1759 88.9432 82.3376 88.9432C82.5545 88.9432 82.7624 89.0294 82.9158 89.1827C83.0691 89.336 83.1552 89.544 83.1552 89.7608Z" fill="white"/>
<path d="M83.1552 93.2552C83.1552 93.4169 83.1073 93.575 83.0174 93.7095C82.9276 93.8439 82.7999 93.9487 82.6505 94.0106C82.5011 94.0725 82.3367 94.0887 82.1781 94.0571C82.0195 94.0256 81.8738 93.9477 81.7595 93.8333C81.6451 93.719 81.5673 93.5733 81.5357 93.4147C81.5042 93.2561 81.5204 93.0917 81.5823 92.9423C81.6441 92.7929 81.7489 92.6653 81.8834 92.5754C82.0178 92.4856 82.1759 92.4376 82.3376 92.4376C82.5545 92.4376 82.7624 92.5238 82.9158 92.6771C83.0691 92.8304 83.1552 93.0384 83.1552 93.2552Z" fill="white"/>
<path d="M88.9455 88.9432H86.4199V96.5368H88.9455V88.9432Z" fill="#455A64"/>
<path d="M92.5913 88.9432H90.0657V96.5368H92.5913V88.9432Z" fill="#455A64"/>
<path d="M96.2424 88.9432H93.7168V96.5368H96.2424V88.9432Z" fill="#455A64"/>
<path d="M99.8879 88.9432H97.3623V96.5368H99.8879V88.9432Z" fill="#455A64"/>
<path d="M103.534 88.9432H101.008V96.5368H103.534V88.9432Z" fill="#455A64"/>
<path d="M107.185 88.9432H104.659V96.5368H107.185V88.9432Z" fill="#455A64"/>
<path d="M110.831 88.9432H108.305V96.5368H110.831V88.9432Z" fill="#455A64"/>
<path d="M114.482 88.9432H111.956V96.5368H114.482V88.9432Z" fill="#455A64"/>
<path d="M118.127 88.9432H115.602V96.5368H118.127V88.9432Z" fill="#455A64"/>
<path d="M121.773 88.9432H119.247V96.5368H121.773V88.9432Z" fill="#455A64"/>
<path d="M122.17 107.714H76.2783V120.634H122.17V107.714Z" fill="#263238"/>
<path d="M80.1256 109.338H77.5552V119.228H80.1256V109.338Z" fill="#00B94F"/>
<path d="M83.1552 111.416C83.1552 111.578 83.1073 111.736 83.0174 111.87C82.9276 112.005 82.7999 112.11 82.6505 112.171C82.5011 112.233 82.3367 112.249 82.1781 112.218C82.0195 112.186 81.8738 112.109 81.7595 111.994C81.6451 111.88 81.5673 111.734 81.5357 111.576C81.5042 111.417 81.5204 111.253 81.5823 111.103C81.6441 110.954 81.7489 110.826 81.8834 110.736C82.0178 110.646 82.1759 110.598 82.3376 110.598C82.5545 110.598 82.7624 110.685 82.9158 110.838C83.0691 110.991 83.1552 111.199 83.1552 111.416Z" fill="white"/>
<path d="M83.1552 114.91C83.1552 115.072 83.1073 115.23 83.0174 115.365C82.9276 115.499 82.7999 115.604 82.6505 115.666C82.5011 115.728 82.3367 115.744 82.1781 115.712C82.0195 115.681 81.8738 115.603 81.7595 115.489C81.6451 115.374 81.5673 115.229 81.5357 115.07C81.5042 114.911 81.5204 114.747 81.5823 114.598C81.6441 114.448 81.7489 114.32 81.8834 114.231C82.0178 114.141 82.1759 114.093 82.3376 114.093C82.5545 114.093 82.7624 114.179 82.9158 114.332C83.0691 114.486 83.1552 114.694 83.1552 114.91Z" fill="white"/>
<path d="M88.9455 110.598H86.4199V118.192H88.9455V110.598Z" fill="#455A64"/>
<path d="M92.5913 110.598H90.0657V118.192H92.5913V110.598Z" fill="#455A64"/>
<path d="M96.2424 110.598H93.7168V118.192H96.2424V110.598Z" fill="#455A64"/>
<path d="M99.8879 110.598H97.3623V118.192H99.8879V110.598Z" fill="#455A64"/>
<path d="M103.534 110.598H101.008V118.192H103.534V110.598Z" fill="#455A64"/>
<path d="M107.185 110.598H104.659V118.192H107.185V110.598Z" fill="#455A64"/>
<path d="M110.831 110.598H108.305V118.192H110.831V110.598Z" fill="#455A64"/>
<path d="M114.482 110.598H111.956V118.192H114.482V110.598Z" fill="#455A64"/>
<path d="M118.127 110.598H115.602V118.192H118.127V110.598Z" fill="#455A64"/>
<path d="M121.773 110.598H119.247V118.192H121.773V110.598Z" fill="#455A64"/>
<path d="M122.17 148.337H76.2783V161.256H122.17V148.337Z" fill="#263238"/>
<path d="M80.1256 149.961H77.5552V159.85H80.1256V149.961Z" fill="#00B94F"/>
<path d="M83.1552 152.038C83.1563 152.2 83.1093 152.359 83.0201 152.494C82.931 152.629 82.8037 152.735 82.6544 152.798C82.5051 152.86 82.3405 152.877 82.1816 152.847C82.0226 152.816 81.8764 152.738 81.7615 152.624C81.6466 152.51 81.5681 152.364 81.5361 152.206C81.5041 152.047 81.52 151.882 81.5817 151.732C81.6434 151.583 81.7482 151.455 81.8828 151.365C82.0174 151.274 82.1757 151.226 82.3376 151.226C82.5535 151.226 82.7606 151.312 82.9138 151.464C83.0669 151.616 83.1537 151.823 83.1552 152.038Z" fill="white"/>
<path d="M83.1552 155.533C83.1552 155.695 83.1073 155.853 83.0174 155.987C82.9276 156.121 82.7999 156.226 82.6505 156.288C82.5011 156.35 82.3367 156.366 82.1781 156.335C82.0195 156.303 81.8738 156.225 81.7595 156.111C81.6451 155.997 81.5673 155.851 81.5357 155.692C81.5042 155.534 81.5204 155.369 81.5823 155.22C81.6441 155.071 81.7489 154.943 81.8834 154.853C82.0178 154.763 82.1759 154.715 82.3376 154.715C82.5545 154.715 82.7624 154.801 82.9158 154.955C83.0691 155.108 83.1552 155.316 83.1552 155.533Z" fill="white"/>
<path d="M88.9455 151.226H86.4199V158.82H88.9455V151.226Z" fill="#455A64"/>
<path d="M92.5913 151.226H90.0657V158.82H92.5913V151.226Z" fill="#455A64"/>
<path d="M96.2424 151.226H93.7168V158.82H96.2424V151.226Z" fill="#455A64"/>
<path d="M99.8879 151.226H97.3623V158.82H99.8879V151.226Z" fill="#455A64"/>
<path d="M103.534 151.226H101.008V158.82H103.534V151.226Z" fill="#455A64"/>
<path d="M107.185 151.226H104.659V158.82H107.185V151.226Z" fill="#455A64"/>
<path d="M110.831 151.226H108.305V158.82H110.831V151.226Z" fill="#455A64"/>
<path d="M114.482 151.226H111.956V158.82H114.482V151.226Z" fill="#455A64"/>
<path d="M118.127 151.226H115.602V158.82H118.127V151.226Z" fill="#455A64"/>
<path d="M121.773 151.226H119.247V158.82H121.773V151.226Z" fill="#455A64"/>
<path d="M122.17 128.042H76.2783V140.962H122.17V128.042Z" fill="#263238"/>
<path d="M80.1256 129.666H77.5552V139.556H80.1256V129.666Z" fill="#00B94F"/>
<path d="M83.1552 131.744C83.1563 131.906 83.1093 132.065 83.0201 132.2C82.931 132.335 82.8037 132.441 82.6544 132.503C82.5051 132.566 82.3405 132.583 82.1816 132.552C82.0226 132.521 81.8764 132.444 81.7615 132.33C81.6466 132.216 81.5681 132.07 81.5361 131.911C81.5041 131.752 81.52 131.588 81.5817 131.438C81.6434 131.288 81.7482 131.16 81.8828 131.07C82.0174 130.98 82.1757 130.932 82.3376 130.932C82.5535 130.932 82.7606 131.017 82.9138 131.169C83.0669 131.322 83.1537 131.528 83.1552 131.744Z" fill="white"/>
<path d="M83.1552 135.238C83.1563 135.4 83.1093 135.559 83.0201 135.694C82.931 135.829 82.8037 135.935 82.6544 135.998C82.5051 136.06 82.3405 136.077 82.1816 136.047C82.0226 136.016 81.8764 135.938 81.7615 135.824C81.6466 135.71 81.5681 135.564 81.5361 135.406C81.5041 135.247 81.52 135.082 81.5817 134.932C81.6434 134.783 81.7482 134.655 81.8828 134.565C82.0174 134.474 82.1757 134.426 82.3376 134.426C82.5535 134.426 82.7606 134.512 82.9138 134.664C83.0669 134.816 83.1537 135.023 83.1552 135.238Z" fill="white"/>
<path d="M88.9455 130.932H86.4199V138.526H88.9455V130.932Z" fill="#455A64"/>
<path d="M92.5913 130.932H90.0657V138.526H92.5913V130.932Z" fill="#455A64"/>
<path d="M96.2424 130.932H93.7168V138.526H96.2424V130.932Z" fill="#455A64"/>
<path d="M99.8879 130.932H97.3623V138.526H99.8879V130.932Z" fill="#455A64"/>
<path d="M103.534 130.932H101.008V138.526H103.534V130.932Z" fill="#455A64"/>
<path d="M107.185 130.932H104.659V138.526H107.185V130.932Z" fill="#455A64"/>
<path d="M110.831 130.932H108.305V138.526H110.831V130.932Z" fill="#455A64"/>
<path d="M114.482 130.932H111.956V138.526H114.482V130.932Z" fill="#455A64"/>
<path d="M118.127 130.932H115.602V138.526H118.127V130.932Z" fill="#455A64"/>
<path d="M121.773 130.932H119.247V138.526H121.773V130.932Z" fill="#455A64"/>
<path d="M104.659 29.8184C104.628 29.6881 104.613 29.5546 104.614 29.4208C104.614 29.1576 104.581 28.7712 104.564 28.2728C104.547 27.7744 104.564 27.1528 104.513 26.4584C104.488 25.664 104.383 24.8742 104.2 24.1008C103.939 23.1756 103.525 22.301 102.973 21.5136C102.345 20.6117 101.47 19.9099 100.453 19.492C99.3072 19.0741 98.1048 18.8306 96.8863 18.7696L92.9382 18.4224C87.5174 17.9576 82.6062 17.6552 79.0446 17.588C77.2638 17.5544 75.8246 17.588 74.8278 17.588H73.6798C73.5477 17.6028 73.4143 17.6028 73.2822 17.588C73.4136 17.5653 73.5465 17.5522 73.6798 17.5488L74.8278 17.476C75.819 17.4368 77.2638 17.3976 79.0502 17.4088C82.6174 17.4088 87.5398 17.6888 92.9606 18.1592L96.9143 18.5064C98.1596 18.5645 99.3889 18.8118 100.56 19.24C101.617 19.6817 102.524 20.421 103.169 21.368C103.728 22.1816 104.143 23.0851 104.396 24.0392C104.576 24.8294 104.67 25.6368 104.676 26.4472C104.676 27.1584 104.676 27.7688 104.676 28.2672C104.676 28.7656 104.676 29.1184 104.676 29.3872C104.684 29.5311 104.679 29.6755 104.659 29.8184Z" fill="#263238"/>
<path d="M90.76 29.8184C90.735 29.695 90.7256 29.5689 90.732 29.4432V28.3624C90.732 27.892 90.732 27.3208 90.676 26.6824C90.642 25.9414 90.4511 25.2161 90.116 24.5544C89.6186 23.8077 88.8881 23.2466 88.0384 22.9584C87.0772 22.5826 86.0317 22.4761 85.0144 22.6504C84.4687 22.7409 83.9412 22.9186 83.452 23.1768C82.9517 23.4292 82.5325 23.8173 82.2424 24.2968C82.1004 24.5439 82.0257 24.8238 82.0257 25.1088C82.0257 25.3938 82.1004 25.6737 82.2424 25.9208C82.3883 26.1779 82.5853 26.4025 82.8213 26.5807C83.0572 26.7588 83.3272 26.8868 83.6144 26.9568C83.9007 27.0194 84.1981 27.0097 84.4796 26.9285C84.7612 26.8474 85.0181 26.6973 85.2272 26.492C85.6491 26.0872 85.9064 25.5407 85.9496 24.9576C85.9876 24.3935 85.8161 23.8351 85.468 23.3896C85.1569 22.9373 84.7396 22.5681 84.2528 22.3144C83.7739 22.0956 83.2602 21.9629 82.7352 21.9224C82.22 21.8496 81.716 21.7768 81.2288 21.7264C80.2544 21.6144 79.336 21.5528 78.5016 21.5192C76.8216 21.452 75.472 21.48 74.5368 21.48H73.456C73.3313 21.4933 73.2055 21.4933 73.0808 21.48C73.2042 21.4539 73.3299 21.4407 73.456 21.4408L74.5368 21.3904C75.472 21.3512 76.8272 21.2952 78.5072 21.3344C79.3472 21.3344 80.2712 21.4072 81.2512 21.508C81.744 21.5584 82.2536 21.62 82.7744 21.6928C83.0376 21.732 83.2952 21.7656 83.5696 21.816C83.8497 21.8729 84.1209 21.9671 84.376 22.096C84.9032 22.3682 85.3567 22.764 85.6976 23.2496C86.0918 23.7585 86.2825 24.3957 86.2329 25.0374C86.1832 25.6792 85.8966 26.2795 85.4288 26.7216C85.1874 26.9636 84.8894 27.1416 84.5618 27.2393C84.2342 27.3371 83.8874 27.3516 83.5528 27.2816C83.2243 27.2029 82.9155 27.0574 82.6457 26.8541C82.376 26.6508 82.151 26.3941 81.9848 26.1C81.8225 25.81 81.7372 25.4832 81.7372 25.1508C81.7372 24.8184 81.8225 24.4916 81.9848 24.2016C82.2986 23.6635 82.7616 23.2279 83.3176 22.9472C83.8318 22.6711 84.3881 22.4819 84.964 22.3872C86.0292 22.2121 87.1221 22.3342 88.1224 22.74C89.0167 23.0546 89.7798 23.6599 90.2896 24.4592C90.6408 25.1548 90.8321 25.9201 90.8496 26.6992C90.8888 27.3712 90.8496 27.9424 90.8496 28.4128C90.8496 28.8832 90.816 29.2136 90.8048 29.4936C90.799 29.6029 90.784 29.7116 90.76 29.8184Z" fill="#263238"/>
<path d="M108.405 29.8184C108.359 29.6802 108.327 29.5376 108.31 29.3928C108.26 29.1072 108.181 28.6928 108.069 28.1608C107.761 26.663 107.309 25.1983 106.72 23.7872C105.888 21.6769 104.51 19.8255 102.727 18.4224C101.65 17.6447 100.387 17.1639 99.0646 17.028C97.6344 16.8731 96.1968 16.7965 94.7582 16.7984C88.8278 16.6864 83.4518 16.7088 79.5654 16.5576C77.6222 16.4904 76.0486 16.4008 74.9622 16.3224L73.7134 16.2216C73.5683 16.2161 73.424 16.1974 73.2822 16.1656C73.4275 16.1522 73.5737 16.1522 73.719 16.1656L74.9678 16.216C76.0542 16.2608 77.6278 16.3168 79.571 16.356C83.4574 16.4568 88.8278 16.4008 94.7638 16.5128C96.2139 16.5097 97.663 16.5901 99.1038 16.7536C100.472 16.9001 101.778 17.4042 102.889 18.2152C103.867 18.965 104.718 19.8669 105.409 20.8864C106.003 21.7664 106.506 22.7045 106.91 23.6864C107.489 25.1159 107.915 26.6026 108.181 28.1216C108.277 28.6536 108.338 29.0736 108.372 29.3592C108.396 29.5111 108.407 29.6647 108.405 29.8184Z" fill="#263238"/>
<path d="M121.538 5.35199H76.9055V11.8312H121.538V5.35199Z" fill="#263238"/>
<path d="M111.021 8.59439H86.7224V11.8312H111.021V8.59439Z" fill="#455A64"/>
<path d="M139.749 139.73C139.749 139.73 139.256 139.808 138.399 140.054C137.198 140.421 136.063 140.979 135.039 141.706C134.33 142.204 133.693 142.798 133.146 143.47C132.843 143.839 132.582 144.241 132.368 144.669C132.161 145.132 131.997 145.614 131.881 146.108C131.371 148.152 131.522 150.498 131.629 152.94C131.735 155.382 131.567 157.806 130.604 159.761C130.168 160.687 129.549 161.516 128.784 162.197C127.556 163.263 126.059 163.97 124.455 164.241C123.91 164.323 123.359 164.347 122.809 164.314C122.463 164.291 122.12 164.236 121.784 164.151C121.666 164.13 121.551 164.094 121.442 164.045C121.442 164.011 121.93 164.162 122.814 164.196C123.355 164.215 123.895 164.176 124.427 164.078C125.129 163.946 125.811 163.727 126.46 163.429C127.247 163.07 127.976 162.594 128.622 162.018C129.355 161.351 129.947 160.543 130.363 159.643C131.282 157.75 131.438 155.376 131.332 152.923C131.226 150.47 131.08 148.113 131.618 146.013C131.742 145.502 131.917 145.005 132.138 144.529C132.363 144.085 132.637 143.667 132.956 143.286C133.526 142.605 134.187 142.008 134.922 141.51C135.973 140.785 137.142 140.247 138.377 139.92C138.712 139.833 139.052 139.767 139.396 139.724C139.513 139.711 139.632 139.713 139.749 139.73Z" fill="#263238"/>
<path d="M122.837 162.04H119.174V166.498H122.837V162.04Z" fill="#263238"/>
<path d="M160.295 128.474H139.749V150.986H160.295V128.474Z" fill="#455A64"/>
<path d="M154.802 144.6C157.444 141.958 157.444 137.675 154.802 135.033C152.16 132.391 147.877 132.391 145.235 135.033C142.593 137.675 142.593 141.958 145.235 144.6C147.877 147.242 152.16 147.242 154.802 144.6Z" fill="#263238"/>
<path d="M153.402 139.814C153.402 140.478 153.205 141.128 152.835 141.68C152.466 142.233 151.941 142.664 151.327 142.918C150.714 143.172 150.038 143.239 149.386 143.109C148.734 142.979 148.136 142.659 147.666 142.189C147.196 141.72 146.876 141.121 146.746 140.469C146.617 139.817 146.683 139.142 146.937 138.528C147.192 137.914 147.622 137.389 148.175 137.02C148.727 136.651 149.377 136.454 150.042 136.454C150.933 136.454 151.787 136.808 152.418 137.438C153.048 138.068 153.402 138.922 153.402 139.814Z" fill="#455A64"/>
<path d="M142.526 132.595C142.873 132.595 143.154 132.314 143.154 131.968C143.154 131.622 142.873 131.341 142.526 131.341C142.18 131.341 141.899 131.622 141.899 131.968C141.899 132.314 142.18 132.595 142.526 132.595Z" fill="#263238"/>
<path d="M157.154 132.595C157.5 132.595 157.781 132.314 157.781 131.968C157.781 131.622 157.5 131.341 157.154 131.341C156.807 131.341 156.526 131.622 156.526 131.968C156.526 132.314 156.807 132.595 157.154 132.595Z" fill="#263238"/>
<path d="M157.282 149.216C157.629 149.216 157.91 148.935 157.91 148.589C157.91 148.242 157.629 147.962 157.282 147.962C156.936 147.962 156.655 148.242 156.655 148.589C156.655 148.935 156.936 149.216 157.282 149.216Z" fill="#263238"/>
<path d="M142.526 149.474C142.873 149.474 143.154 149.193 143.154 148.846C143.154 148.5 142.873 148.219 142.526 148.219C142.18 148.219 141.899 148.5 141.899 148.846C141.899 149.193 142.18 149.474 142.526 149.474Z" fill="#263238"/>
<path d="M161.953 128.474H160.295V150.986H161.953V128.474Z" fill="#263238"/>
<path d="M177.745 43.7624C177.745 43.8408 171.859 43.908 164.596 43.908C157.333 43.908 151.447 43.8408 151.447 43.7624C151.447 43.684 157.333 43.6168 164.596 43.6168C171.859 43.6168 177.745 43.684 177.745 43.7624Z" fill="#263238"/>
<path d="M232.311 46.5568C232.227 46.5617 232.143 46.5617 232.059 46.5568H231.286H228.279L217.012 46.6016L178.12 46.68H178.014L177.986 46.5792C177.558 45.119 177.482 43.5784 177.763 42.0831C178.043 40.5877 178.673 39.1798 179.601 37.9741C180.529 36.7683 181.729 35.7988 183.102 35.1445C184.476 34.4902 185.985 34.1696 187.506 34.2088L187.36 34.3936C187.121 33.5453 187.019 32.6644 187.058 31.784C187.106 30.2856 187.545 28.8258 188.331 27.549C189.116 26.2722 190.222 25.2226 191.538 24.504C192.81 23.8391 194.226 23.4956 195.662 23.5034C197.098 23.5112 198.51 23.8701 199.775 24.5488L199.579 24.6216C200.281 22.9912 201.313 21.5245 202.612 20.3146C203.911 19.1048 205.447 18.1781 207.122 17.5936C208.663 17.0096 210.308 16.7481 211.954 16.8251C213.6 16.9022 215.213 17.3162 216.693 18.0416C219.354 19.4529 221.447 21.7395 222.618 24.5152C223.689 26.9546 223.945 29.6749 223.346 32.2712L223.239 32.148C224.763 31.9918 226.302 32.215 227.719 32.7976C228.992 33.3066 230.138 34.0862 231.079 35.0824C231.506 35.5295 231.861 36.0394 232.132 36.5944C232.374 37.1073 232.562 37.6441 232.692 38.196C232.921 39.1543 233.049 40.1341 233.073 41.1192C233.124 42.4779 233.007 43.8377 232.726 45.168C232.65 45.5124 232.557 45.8526 232.446 46.1872C232.367 46.4112 232.322 46.5176 232.322 46.5176C232.322 46.5176 232.356 46.3944 232.423 46.1704C232.49 45.9464 232.574 45.6104 232.67 45.1568C232.926 43.829 233.026 42.4758 232.966 41.1248C232.932 40.1484 232.797 39.1782 232.563 38.2296C232.313 37.0929 231.762 36.0444 230.967 35.1944C230.043 34.2208 228.92 33.4569 227.674 32.9544C226.276 32.3905 224.76 32.1808 223.262 32.344H223.122L223.15 32.204C223.731 29.6497 223.47 26.9757 222.405 24.5824C221.252 21.8614 219.195 19.6221 216.581 18.2432C215.132 17.5373 213.553 17.1358 211.943 17.0636C210.332 16.9914 208.724 17.2499 207.218 17.8232C205.58 18.3989 204.079 19.3077 202.809 20.4922C201.54 21.6767 200.53 23.1113 199.842 24.7056L199.781 24.8512L199.641 24.7784C198.416 24.1226 197.05 23.7762 195.661 23.7694C194.272 23.7625 192.903 24.0955 191.672 24.7392C190.41 25.4355 189.349 26.4477 188.596 27.6767C187.842 28.9057 187.42 30.3094 187.371 31.7504C187.315 32.6291 187.406 33.5112 187.64 34.36L187.696 34.5504H187.494C186.018 34.5108 184.553 34.8205 183.218 35.4544C181.884 36.0883 180.718 37.0283 179.816 38.198C178.914 39.3677 178.3 40.734 178.026 42.1855C177.752 43.6371 177.824 45.1329 178.238 46.5512L178.103 46.4504L216.922 46.512L228.218 46.5512H231.247H232.031L232.311 46.5568Z" fill="#263238"/>
<path d="M224.768 79.6248C224.651 79.6384 224.533 79.6384 224.415 79.6248L223.385 79.6528L219.56 79.72L206.299 79.7704H206.12V79.6304C206.12 77.3904 206.12 74.9544 206.12 72.44C206.12 65.356 206.154 58.9496 206.165 54.2792C206.165 51.972 206.199 50.1016 206.21 48.7744C206.21 48.1472 206.21 47.6544 206.238 47.2792C206.238 47.1224 206.238 46.9936 206.238 46.8872C206.222 46.8831 206.208 46.8734 206.199 46.8598C206.19 46.8463 206.186 46.8299 206.188 46.8137C206.19 46.7974 206.198 46.7825 206.21 46.7717C206.222 46.7609 206.238 46.7549 206.255 46.7549C206.271 46.7549 206.287 46.7609 206.299 46.7717C206.311 46.7825 206.319 46.7974 206.321 46.8137C206.323 46.8299 206.319 46.8463 206.31 46.8598C206.301 46.8734 206.287 46.8831 206.271 46.8872C206.271 46.9936 206.271 47.1224 206.271 47.2792C206.271 47.6432 206.271 48.1472 206.299 48.7744C206.299 50.1016 206.327 51.972 206.344 54.2792C206.344 58.9496 206.344 65.356 206.389 72.44C206.389 74.9544 206.389 77.3848 206.389 79.6304L206.249 79.4904L219.51 79.5408L223.351 79.5856H224.382C224.511 79.5867 224.641 79.5998 224.768 79.6248Z" fill="#263238"/>
<path d="M219.627 7.93917L207.128 3.45917L194.747 7.88876C193.167 8.63356 191.779 9.08157 191.779 10.5544V17.8848C191.756 23.0318 193.167 28.0834 195.855 32.4728C198.533 36.918 202.508 40.436 207.246 42.5528C212.286 40.9064 216.088 36.5272 218.395 32.7808C221.083 28.389 222.494 23.3358 222.472 18.1872V11.568C222.472 9.46797 221.363 8.44317 219.627 7.93917Z" fill="#00B94F"/>
<g opacity="0.3">
<path opacity="0.3" d="M207.24 38.28C203.488 36.5877 200.344 33.7873 198.23 30.2552C196.098 26.7724 194.983 22.7631 195.01 18.68V13.5392C195.01 12.3744 195.71 11.2992 197.11 10.6328L207.128 6.92V3.448L194.747 7.8776C193.447 8.4376 191.779 9.0704 191.779 10.5432V17.8736C191.756 23.0206 193.167 28.0722 195.855 32.4616C198.533 36.9068 202.508 40.4248 207.246 42.5416L207.24 38.28Z" fill="black"/>
</g>
<g opacity="0.4">
<path opacity="0.4" d="M207.24 42.5248C208.089 42.2458 208.911 41.8936 209.699 41.472C211.627 40.3793 213.379 39.001 214.895 37.384C216.273 35.899 217.486 34.2693 218.513 32.5232C221.237 28.1037 222.611 22.9848 222.467 17.7952V11.7416C222.467 8.72877 220.91 8.50477 219.611 7.93917L207.111 3.45917V6.91997L217.253 10.728C218.647 11.3832 219.347 12.4752 219.347 13.64V18.7808C219.366 22.853 218.249 26.8499 216.122 30.3224C214.055 33.829 210.952 36.609 207.24 38.28V42.5248Z" fill="black"/>
</g>
<path opacity="0.5" d="M210.443 18.372V17.3808C210.443 16.5194 210.101 15.6932 209.492 15.0841C208.883 14.475 208.057 14.1328 207.195 14.1328C206.334 14.1328 205.508 14.475 204.899 15.0841C204.289 15.6932 203.947 16.5194 203.947 17.3808V18.3832C203.516 18.4475 203.123 18.6643 202.838 18.9942C202.553 19.3241 202.397 19.7451 202.396 20.1808V26.016C202.396 26.2547 202.443 26.4911 202.535 26.7116C202.626 26.9321 202.76 27.1324 202.929 27.3009C203.098 27.4695 203.299 27.603 203.52 27.6939C203.741 27.7847 203.977 27.8311 204.216 27.8304H210.27C210.508 27.8311 210.745 27.7847 210.966 27.6939C211.186 27.603 211.387 27.4695 211.556 27.3009C211.725 27.1324 211.859 26.9321 211.951 26.7116C212.042 26.4911 212.09 26.2547 212.09 26.016V20.1808C212.089 19.7286 211.92 19.293 211.616 18.9586C211.311 18.6242 210.893 18.4151 210.443 18.372ZM208.074 24.5656H206.49L206.742 23.4456C206.601 23.3601 206.485 23.24 206.405 23.0968C206.325 22.9536 206.282 22.7922 206.282 22.628C206.282 22.4604 206.324 22.2954 206.406 22.1492C206.488 22.0029 206.607 21.8805 206.75 21.7938C206.893 21.707 207.057 21.659 207.224 21.6544C207.392 21.6498 207.558 21.6887 207.706 21.7674C207.854 21.8461 207.979 21.9618 208.069 22.1033C208.159 22.2448 208.21 22.4072 208.219 22.5746C208.227 22.742 208.192 22.9087 208.117 23.0584C208.041 23.2082 207.928 23.3358 207.789 23.4288C207.901 23.8432 208.074 24.5656 208.074 24.5656ZM209.754 18.3664H204.664V17.3808C204.664 16.705 204.932 16.0569 205.41 15.5791C205.888 15.1012 206.536 14.8328 207.212 14.8328C207.888 14.8328 208.536 15.1012 209.014 15.5791C209.492 16.0569 209.76 16.705 209.76 17.3808L209.754 18.3664Z" fill="white"/>
<path d="M197.037 18.2992C196.928 17.9716 196.864 17.6306 196.846 17.2856C196.755 16.4602 196.721 15.6294 196.746 14.7992C196.746 14.312 196.79 13.8472 196.835 13.4272C196.856 13.0394 196.951 12.6592 197.115 12.3072C197.239 12.067 197.435 11.8713 197.675 11.7472C197.843 11.6688 197.95 11.6744 197.95 11.6856C197.648 11.8255 197.406 12.0675 197.266 12.3688C197.132 12.7039 197.058 13.0605 197.048 13.4216C197.014 13.8416 196.992 14.3008 196.975 14.7824C196.975 15.7456 196.975 16.6192 197.014 17.252C197.053 17.5997 197.06 17.9502 197.037 18.2992Z" fill="white"/>
<path d="M197.222 21.48C197.16 21.48 197.104 21.1832 197.098 20.808C197.093 20.4328 197.132 20.1304 197.194 20.1304C197.255 20.1304 197.306 20.4328 197.317 20.8024C197.328 21.172 197.278 21.48 197.222 21.48Z" fill="white"/>
</svg>
