<svg width="16" height="16" viewBox="0 0 16 16" fill="none" xmlns="http://www.w3.org/2000/svg">
<path d="M15.7241 13.2415H0.275874C0.123531 13.2415 0 13.118 0 12.9657V3.03466C0 2.88232 0.123531 2.75879 0.275874 2.75879H15.7241C15.8765 2.75879 16 2.88232 16 3.03466V12.9657C16 13.118 15.8764 13.2415 15.7241 13.2415Z" fill="#F5F5F5"/>
<path d="M16 3.56519H0V3.03466C0 2.88232 0.123531 2.75879 0.275874 2.75879H15.7241C15.8765 2.75879 16 2.88232 16 3.03466L16 3.56519Z" fill="#FF4B55"/>
<path d="M16 5.98438H0V6.79075H16V5.98438Z" fill="#FF4B55"/>
<path d="M16 4.37109H0V5.17747H16V4.37109Z" fill="#FF4B55"/>
<path d="M16 8.40308H0.275874C0.123531 8.40308 0 8.27955 0 8.12721V7.59668H16V8.40308Z" fill="#FF4B55"/>
<path d="M16 10.8232H0V11.6296H16V10.8232Z" fill="#FF4B55"/>
<path d="M15.7241 13.2409H0.275874C0.123531 13.2409 0 13.1174 0 12.9651V12.4346H16V12.9651C16 13.1174 15.8764 13.2409 15.7241 13.2409Z" fill="#FF4B55"/>
<path d="M16 9.20996H0V10.0163H16V9.20996Z" fill="#FF4B55"/>
<path d="M7.17239 2.75879H0.275874C0.123531 2.75879 0 2.88229 0 3.03463V8.12743C0 8.27978 0.123531 8.40331 0.275874 8.40331H7.17242C7.32477 8.40331 7.4483 8.27978 7.4483 8.12743V3.03463C7.44827 2.88229 7.32474 2.75879 7.17239 2.75879Z" fill="#41479B"/>
<path d="M0.774573 3.39181L0.835635 3.57493L1.02867 3.5764C1.05367 3.57662 1.06401 3.6085 1.04392 3.62334L0.888635 3.73803L0.946885 3.92206C0.954447 3.94587 0.927291 3.96562 0.906947 3.95106L0.749917 3.83884L0.592886 3.95109C0.572542 3.96562 0.545448 3.9459 0.552948 3.92209L0.611198 3.73806L0.455917 3.62337C0.435824 3.6085 0.446167 3.57665 0.471167 3.57643L0.664198 3.57496L0.72526 3.39184C0.733135 3.36809 0.766635 3.36809 0.774573 3.39181Z" fill="#F5F5F5"/>
<path d="M0.774573 4.34979L0.835635 4.53292L1.02867 4.53439C1.05367 4.5346 1.06401 4.56648 1.04392 4.58132L0.888635 4.69601L0.946885 4.88004C0.954447 4.90385 0.927291 4.9236 0.906947 4.90904L0.749917 4.79682L0.592886 4.90907C0.572542 4.9236 0.545448 4.90388 0.552948 4.88007L0.611198 4.69604L0.455917 4.58135C0.435824 4.56648 0.446167 4.53464 0.471167 4.53442L0.664198 4.53295L0.72526 4.34982C0.733135 4.32611 0.766635 4.32611 0.774573 4.34979Z" fill="#F5F5F5"/>
<path d="M0.774573 5.3078L0.835635 5.49093L1.02867 5.4924C1.05367 5.49261 1.06401 5.52449 1.04392 5.53933L0.888635 5.65402L0.946885 5.83805C0.954447 5.86187 0.927291 5.88162 0.906947 5.86705L0.749917 5.75483L0.592886 5.86708C0.572542 5.88162 0.545448 5.8619 0.552948 5.83808L0.611198 5.65405L0.455917 5.53936C0.435824 5.52449 0.446167 5.49265 0.471167 5.49243L0.664198 5.49096L0.72526 5.30783C0.733135 5.28411 0.766635 5.28411 0.774573 5.3078Z" fill="#F5F5F5"/>
<path d="M0.774573 6.26583L0.835635 6.44896L1.02867 6.45043C1.05367 6.45064 1.06401 6.48252 1.04392 6.49736L0.888635 6.61205L0.946885 6.79608C0.954447 6.81989 0.927291 6.83964 0.906947 6.82508L0.749917 6.71286L0.592886 6.82511C0.572542 6.83964 0.545448 6.81993 0.552948 6.79611L0.611198 6.61208L0.455917 6.49739C0.435824 6.48252 0.446167 6.45068 0.471167 6.45046L0.664198 6.44899L0.72526 6.26586C0.733135 6.24211 0.766635 6.24211 0.774573 6.26583Z" fill="#F5F5F5"/>
<path d="M0.774573 7.22386L0.835635 7.40699L1.02867 7.40846C1.05367 7.40868 1.06401 7.44055 1.04392 7.45539L0.888635 7.57008L0.946885 7.75411C0.954447 7.77793 0.927291 7.79768 0.906947 7.78311L0.749917 7.6709L0.592886 7.78315C0.572542 7.79768 0.545448 7.77796 0.552948 7.75415L0.611198 7.57011L0.455917 7.45543C0.435824 7.44055 0.446167 7.40871 0.471167 7.40849L0.664198 7.40702L0.72526 7.22389C0.733135 7.20011 0.766635 7.20011 0.774573 7.22386Z" fill="#F5F5F5"/>
<path d="M1.51798 3.86152L1.57904 4.04464L1.77207 4.04611C1.79707 4.04633 1.80742 4.0782 1.78732 4.09305L1.63204 4.20773L1.69029 4.39177C1.69786 4.41558 1.6707 4.43533 1.65036 4.42077L1.49332 4.30852L1.33629 4.42077C1.31595 4.4353 1.28886 4.41558 1.29636 4.39177L1.35461 4.20773L1.19933 4.09305C1.17923 4.07817 1.18958 4.04633 1.21458 4.04611L1.40761 4.04464L1.46867 3.86152C1.47651 3.83783 1.51007 3.83783 1.51798 3.86152Z" fill="#F5F5F5"/>
<path d="M1.51798 4.81955L1.57904 5.00267L1.77207 5.00414C1.79707 5.00436 1.80742 5.03623 1.78732 5.05108L1.63204 5.16576L1.69029 5.34979C1.69786 5.3736 1.6707 5.39335 1.65036 5.37879L1.49332 5.26654L1.33629 5.37879C1.31595 5.39332 1.28886 5.37364 1.29636 5.34979L1.35461 5.16576L1.19933 5.05108C1.17923 5.0362 1.18958 5.00436 1.21458 5.00414L1.40761 5.00267L1.46867 4.81955C1.47651 4.79583 1.51007 4.79583 1.51798 4.81955Z" fill="#F5F5F5"/>
<path d="M1.51798 5.77755L1.57904 5.96068L1.77207 5.96215C1.79707 5.96237 1.80742 5.99424 1.78732 6.00909L1.63204 6.12377L1.69029 6.3078C1.69786 6.33162 1.6707 6.35137 1.65036 6.3368L1.49332 6.22455L1.33629 6.3368C1.31595 6.35133 1.28886 6.33162 1.29636 6.3078L1.35461 6.12377L1.19933 6.00909C1.17923 5.99421 1.18958 5.96237 1.21458 5.96215L1.40761 5.96068L1.46867 5.77755C1.47651 5.75384 1.51007 5.75384 1.51798 5.77755Z" fill="#F5F5F5"/>
<path d="M1.51798 6.73554L1.57904 6.91866L1.77207 6.92013C1.79707 6.92035 1.80742 6.95223 1.78732 6.96707L1.63204 7.08176L1.69029 7.26579C1.69786 7.2896 1.6707 7.30935 1.65036 7.29479L1.49332 7.18254L1.33629 7.29479C1.31595 7.30932 1.28886 7.2896 1.29636 7.26579L1.35461 7.08176L1.19933 6.96707C1.17923 6.95219 1.18958 6.92035 1.21458 6.92013L1.40761 6.91866L1.46867 6.73554C1.47651 6.71185 1.51007 6.71185 1.51798 6.73554Z" fill="#F5F5F5"/>
<path d="M2.26163 3.39181L2.3227 3.57494L2.51573 3.57641C2.54073 3.57662 2.55107 3.6085 2.53098 3.62334L2.3757 3.73803L2.43395 3.92206C2.44151 3.94587 2.41435 3.96562 2.39401 3.95106L2.23698 3.83881L2.07995 3.95106C2.0596 3.96559 2.03251 3.94587 2.04001 3.92206L2.09826 3.73803L1.94298 3.62334C1.92288 3.60847 1.93323 3.57662 1.95823 3.57641L2.15126 3.57494L2.21232 3.39181C2.2202 3.36809 2.25373 3.36809 2.26163 3.39181Z" fill="#F5F5F5"/>
<path d="M2.26163 4.3498L2.3227 4.53292L2.51573 4.53439C2.54073 4.53461 2.55107 4.56648 2.53098 4.58133L2.3757 4.69601L2.43395 4.88005C2.44151 4.90386 2.41435 4.92361 2.39401 4.90905L2.23698 4.7968L2.07995 4.90905C2.0596 4.92358 2.03251 4.90386 2.04001 4.88005L2.09826 4.69601L1.94298 4.58133C1.92288 4.56645 1.93323 4.53461 1.95823 4.53439L2.15126 4.53292L2.21232 4.3498C2.2202 4.32611 2.25373 4.32611 2.26163 4.3498Z" fill="#F5F5F5"/>
<path d="M2.26163 5.3078L2.3227 5.49093L2.51573 5.4924C2.54073 5.49262 2.55107 5.52449 2.53098 5.53934L2.3757 5.65403L2.43395 5.83806C2.44151 5.86187 2.41435 5.88162 2.39401 5.86706L2.23698 5.75481L2.07995 5.86706C2.0596 5.88159 2.03251 5.86187 2.04001 5.83806L2.09826 5.65403L1.94298 5.53934C1.92288 5.52446 1.93323 5.49262 1.95823 5.4924L2.15126 5.49093L2.21232 5.3078C2.2202 5.28412 2.25373 5.28412 2.26163 5.3078Z" fill="#F5F5F5"/>
<path d="M2.26163 6.26584L2.3227 6.44896L2.51573 6.45043C2.54073 6.45065 2.55107 6.48252 2.53098 6.49737L2.3757 6.61205L2.43395 6.79608C2.44151 6.8199 2.41435 6.83965 2.39401 6.82508L2.23698 6.71283L2.07995 6.82508C2.0596 6.83962 2.03251 6.8199 2.04001 6.79608L2.09826 6.61205L1.94298 6.49737C1.92288 6.48249 1.93323 6.45065 1.95823 6.45043L2.15126 6.44896L2.21232 6.26584C2.2202 6.24212 2.25373 6.24212 2.26163 6.26584Z" fill="#F5F5F5"/>
<path d="M2.26163 7.22387L2.3227 7.40699L2.51573 7.40846C2.54073 7.40868 2.55107 7.44055 2.53098 7.4554L2.3757 7.57009L2.43395 7.75412C2.44151 7.77793 2.41435 7.79768 2.39401 7.78312L2.23698 7.67087L2.07995 7.78312C2.0596 7.79765 2.03251 7.77793 2.04001 7.75412L2.09826 7.57009L1.94298 7.4554C1.92288 7.44052 1.93323 7.40868 1.95823 7.40846L2.15126 7.40699L2.21232 7.22387C2.2202 7.20012 2.25373 7.20012 2.26163 7.22387Z" fill="#F5F5F5"/>
<path d="M3.00529 3.86152L3.06635 4.04464L3.25938 4.04611C3.28438 4.04633 3.29472 4.0782 3.27463 4.09305L3.11935 4.20773L3.1776 4.39177C3.18516 4.41558 3.158 4.43533 3.13766 4.42077L2.98063 4.30852L2.8236 4.42077C2.80326 4.4353 2.77616 4.41558 2.78366 4.39177L2.84191 4.20773L2.68663 4.09305C2.66654 4.07817 2.67688 4.04633 2.70188 4.04611L2.89491 4.04464L2.95597 3.86152C2.96382 3.83783 2.99738 3.83783 3.00529 3.86152Z" fill="#F5F5F5"/>
<path d="M3.00529 4.81955L3.06635 5.00267L3.25938 5.00414C3.28438 5.00436 3.29472 5.03623 3.27463 5.05108L3.11935 5.16576L3.1776 5.34979C3.18516 5.3736 3.158 5.39335 3.13766 5.37879L2.98063 5.26654L2.8236 5.37879C2.80326 5.39332 2.77616 5.37364 2.78366 5.34979L2.84191 5.16576L2.68663 5.05108C2.66654 5.0362 2.67688 5.00436 2.70188 5.00414L2.89491 5.00267L2.95597 4.81955C2.96382 4.79583 2.99738 4.79583 3.00529 4.81955Z" fill="#F5F5F5"/>
<path d="M3.00529 5.77755L3.06635 5.96068L3.25938 5.96215C3.28438 5.96237 3.29472 5.99424 3.27463 6.00909L3.11935 6.12377L3.1776 6.3078C3.18516 6.33162 3.158 6.35137 3.13766 6.3368L2.98063 6.22455L2.8236 6.3368C2.80326 6.35133 2.77616 6.33162 2.78366 6.3078L2.84191 6.12377L2.68663 6.00909C2.66654 5.99421 2.67688 5.96237 2.70188 5.96215L2.89491 5.96068L2.95597 5.77755C2.96382 5.75384 2.99738 5.75384 3.00529 5.77755Z" fill="#F5F5F5"/>
<path d="M3.00529 6.73554L3.06635 6.91866L3.25938 6.92013C3.28438 6.92035 3.29472 6.95223 3.27463 6.96707L3.11935 7.08176L3.1776 7.26579C3.18516 7.2896 3.158 7.30935 3.13766 7.29479L2.98063 7.18254L2.8236 7.29479C2.80326 7.30932 2.77616 7.2896 2.78366 7.26579L2.84191 7.08176L2.68663 6.96707C2.66654 6.95219 2.67688 6.92035 2.70188 6.92013L2.89491 6.91866L2.95597 6.73554C2.96382 6.71185 2.99738 6.71185 3.00529 6.73554Z" fill="#F5F5F5"/>
<path d="M3.74873 3.39181L3.80979 3.57494L4.00282 3.57641C4.02782 3.57662 4.03816 3.6085 4.01807 3.62334L3.86279 3.73803L3.92104 3.92206C3.9286 3.94587 3.90144 3.96562 3.8811 3.95106L3.72404 3.83881L3.56701 3.95106C3.54666 3.96559 3.51957 3.94587 3.52707 3.92206L3.58532 3.73803L3.43004 3.62334C3.40994 3.60847 3.42029 3.57662 3.44529 3.57641L3.63832 3.57494L3.69938 3.39181C3.70729 3.36809 3.74082 3.36809 3.74873 3.39181Z" fill="#F5F5F5"/>
<path d="M3.74873 4.3498L3.80979 4.53292L4.00282 4.53439C4.02782 4.53461 4.03816 4.56648 4.01807 4.58133L3.86279 4.69601L3.92104 4.88005C3.9286 4.90386 3.90144 4.92361 3.8811 4.90905L3.72404 4.7968L3.56701 4.90905C3.54666 4.92358 3.51957 4.90386 3.52707 4.88005L3.58532 4.69601L3.43004 4.58133C3.40994 4.56645 3.42029 4.53461 3.44529 4.53439L3.63832 4.53292L3.69938 4.3498C3.70729 4.32611 3.74082 4.32611 3.74873 4.3498Z" fill="#F5F5F5"/>
<path d="M3.74873 5.3078L3.80979 5.49093L4.00282 5.4924C4.02782 5.49262 4.03816 5.52449 4.01807 5.53934L3.86279 5.65403L3.92104 5.83806C3.9286 5.86187 3.90144 5.88162 3.8811 5.86706L3.72404 5.75481L3.56701 5.86706C3.54666 5.88159 3.51957 5.86187 3.52707 5.83806L3.58532 5.65403L3.43004 5.53934C3.40994 5.52446 3.42029 5.49262 3.44529 5.4924L3.63832 5.49093L3.69938 5.3078C3.70729 5.28412 3.74082 5.28412 3.74873 5.3078Z" fill="#F5F5F5"/>
<path d="M3.74873 6.26584L3.80979 6.44896L4.00282 6.45043C4.02782 6.45065 4.03816 6.48252 4.01807 6.49737L3.86279 6.61205L3.92104 6.79608C3.9286 6.8199 3.90144 6.83965 3.8811 6.82508L3.72404 6.71283L3.56701 6.82508C3.54666 6.83962 3.51957 6.8199 3.52707 6.79608L3.58532 6.61205L3.43004 6.49737C3.40994 6.48249 3.42029 6.45065 3.44529 6.45043L3.63832 6.44896L3.69938 6.26584C3.70729 6.24212 3.74082 6.24212 3.74873 6.26584Z" fill="#F5F5F5"/>
<path d="M3.74873 7.22387L3.80979 7.40699L4.00282 7.40846C4.02782 7.40868 4.03816 7.44055 4.01807 7.4554L3.86279 7.57009L3.92104 7.75412C3.9286 7.77793 3.90144 7.79768 3.8811 7.78312L3.72404 7.67087L3.56701 7.78312C3.54666 7.79765 3.51957 7.77793 3.52707 7.75412L3.58532 7.57009L3.43004 7.4554C3.40994 7.44052 3.42029 7.40868 3.44529 7.40846L3.63832 7.40699L3.69938 7.22387C3.70729 7.20012 3.74082 7.20012 3.74873 7.22387Z" fill="#F5F5F5"/>
<path d="M4.49235 3.86152L4.55341 4.04464L4.74644 4.04611C4.77144 4.04633 4.78179 4.0782 4.76169 4.09305L4.60641 4.20773L4.66466 4.39177C4.67222 4.41558 4.64507 4.43533 4.62472 4.42077L4.46769 4.30852L4.31066 4.42077C4.29032 4.4353 4.26322 4.41558 4.27072 4.39177L4.32897 4.20773L4.17369 4.09305C4.1536 4.07817 4.16394 4.04633 4.18894 4.04611L4.38197 4.04464L4.44304 3.86152C4.45094 3.83783 4.48444 3.83783 4.49235 3.86152Z" fill="#F5F5F5"/>
<path d="M4.49235 4.81955L4.55341 5.00267L4.74644 5.00414C4.77144 5.00436 4.78179 5.03623 4.76169 5.05108L4.60641 5.16576L4.66466 5.34979C4.67222 5.3736 4.64507 5.39335 4.62472 5.37879L4.46769 5.26654L4.31066 5.37879C4.29032 5.39332 4.26322 5.37364 4.27072 5.34979L4.32897 5.16576L4.17369 5.05108C4.1536 5.0362 4.16394 5.00436 4.18894 5.00414L4.38197 5.00267L4.44304 4.81955C4.45094 4.79583 4.48444 4.79583 4.49235 4.81955Z" fill="#F5F5F5"/>
<path d="M4.49235 5.77755L4.55341 5.96068L4.74644 5.96215C4.77144 5.96237 4.78179 5.99424 4.76169 6.00909L4.60641 6.12377L4.66466 6.3078C4.67222 6.33162 4.64507 6.35137 4.62472 6.3368L4.46769 6.22455L4.31066 6.3368C4.29032 6.35133 4.26322 6.33162 4.27072 6.3078L4.32897 6.12377L4.17369 6.00909C4.1536 5.99421 4.16394 5.96237 4.18894 5.96215L4.38197 5.96068L4.44304 5.77755C4.45094 5.75384 4.48444 5.75384 4.49235 5.77755Z" fill="#F5F5F5"/>
<path d="M4.49235 6.73554L4.55341 6.91866L4.74644 6.92013C4.77144 6.92035 4.78179 6.95223 4.76169 6.96707L4.60641 7.08176L4.66466 7.26579C4.67222 7.2896 4.64507 7.30935 4.62472 7.29479L4.46769 7.18254L4.31066 7.29479C4.29032 7.30932 4.26322 7.2896 4.27072 7.26579L4.32897 7.08176L4.17369 6.96707C4.1536 6.95219 4.16394 6.92035 4.18894 6.92013L4.38197 6.91866L4.44304 6.73554C4.45094 6.71185 4.48444 6.71185 4.49235 6.73554Z" fill="#F5F5F5"/>
<path d="M5.23576 3.39181L5.29682 3.57494L5.48985 3.57641C5.51485 3.57662 5.52519 3.6085 5.5051 3.62334L5.34982 3.73803L5.40807 3.92206C5.41563 3.94587 5.38848 3.96562 5.36813 3.95106L5.2111 3.83881L5.05407 3.95106C5.03372 3.96559 5.00663 3.94587 5.01413 3.92206L5.07238 3.73803L4.9171 3.62334C4.89701 3.60847 4.90735 3.57662 4.93235 3.57641L5.12538 3.57494L5.18644 3.39181C5.19429 3.36809 5.22785 3.36809 5.23576 3.39181Z" fill="#F5F5F5"/>
<path d="M5.23576 4.3498L5.29682 4.53292L5.48985 4.53439C5.51485 4.53461 5.52519 4.56648 5.5051 4.58133L5.34982 4.69601L5.40807 4.88005C5.41563 4.90386 5.38848 4.92361 5.36813 4.90905L5.2111 4.7968L5.05407 4.90905C5.03372 4.92358 5.00663 4.90386 5.01413 4.88005L5.07238 4.69601L4.9171 4.58133C4.89701 4.56645 4.90735 4.53461 4.93235 4.53439L5.12538 4.53292L5.18644 4.3498C5.19429 4.32611 5.22785 4.32611 5.23576 4.3498Z" fill="#F5F5F5"/>
<path d="M5.23576 5.3078L5.29682 5.49093L5.48985 5.4924C5.51485 5.49262 5.52519 5.52449 5.5051 5.53934L5.34982 5.65403L5.40807 5.83806C5.41563 5.86187 5.38848 5.88162 5.36813 5.86706L5.2111 5.75481L5.05407 5.86706C5.03372 5.88159 5.00663 5.86187 5.01413 5.83806L5.07238 5.65403L4.9171 5.53934C4.89701 5.52446 4.90735 5.49262 4.93235 5.4924L5.12538 5.49093L5.18644 5.3078C5.19429 5.28412 5.22785 5.28412 5.23576 5.3078Z" fill="#F5F5F5"/>
<path d="M5.23576 6.26584L5.29682 6.44896L5.48985 6.45043C5.51485 6.45065 5.52519 6.48252 5.5051 6.49737L5.34982 6.61205L5.40807 6.79608C5.41563 6.8199 5.38848 6.83965 5.36813 6.82508L5.2111 6.71283L5.05407 6.82508C5.03372 6.83962 5.00663 6.8199 5.01413 6.79608L5.07238 6.61205L4.9171 6.49737C4.89701 6.48249 4.90735 6.45065 4.93235 6.45043L5.12538 6.44896L5.18644 6.26584C5.19429 6.24212 5.22785 6.24212 5.23576 6.26584Z" fill="#F5F5F5"/>
<path d="M5.23576 7.22387L5.29682 7.40699L5.48985 7.40846C5.51485 7.40868 5.52519 7.44055 5.5051 7.4554L5.34982 7.57009L5.40807 7.75412C5.41563 7.77793 5.38848 7.79768 5.36813 7.78312L5.2111 7.67087L5.05407 7.78312C5.03372 7.79765 5.00663 7.77793 5.01413 7.75412L5.07238 7.57009L4.9171 7.4554C4.89701 7.44052 4.90735 7.40868 4.93235 7.40846L5.12538 7.40699L5.18644 7.22387C5.19429 7.20012 5.22785 7.20012 5.23576 7.22387Z" fill="#F5F5F5"/>
<path d="M5.97941 3.86152L6.04047 4.04464L6.2335 4.04611C6.2585 4.04633 6.26884 4.0782 6.24875 4.09305L6.09347 4.20773L6.15172 4.39177C6.15928 4.41558 6.13213 4.43533 6.11178 4.42077L5.95475 4.30852L5.79772 4.42077C5.77738 4.4353 5.75028 4.41558 5.75778 4.39177L5.81603 4.20773L5.66075 4.09305C5.64066 4.07817 5.651 4.04633 5.676 4.04611L5.86903 4.04464L5.93009 3.86152C5.93797 3.83783 5.97153 3.83783 5.97941 3.86152Z" fill="#F5F5F5"/>
<path d="M5.97941 4.81955L6.04047 5.00267L6.2335 5.00414C6.2585 5.00436 6.26884 5.03623 6.24875 5.05108L6.09347 5.16576L6.15172 5.34979C6.15928 5.3736 6.13213 5.39335 6.11178 5.37879L5.95475 5.26654L5.79772 5.37879C5.77738 5.39332 5.75028 5.37364 5.75778 5.34979L5.81603 5.16576L5.66075 5.05108C5.64066 5.0362 5.651 5.00436 5.676 5.00414L5.86903 5.00267L5.93009 4.81955C5.93797 4.79583 5.97153 4.79583 5.97941 4.81955Z" fill="#F5F5F5"/>
<path d="M5.97941 5.77755L6.04047 5.96068L6.2335 5.96215C6.2585 5.96237 6.26884 5.99424 6.24875 6.00909L6.09347 6.12377L6.15172 6.3078C6.15928 6.33162 6.13213 6.35137 6.11178 6.3368L5.95475 6.22455L5.79772 6.3368C5.77738 6.35133 5.75028 6.33162 5.75778 6.3078L5.81603 6.12377L5.66075 6.00909C5.64066 5.99421 5.651 5.96237 5.676 5.96215L5.86903 5.96068L5.93009 5.77755C5.93797 5.75384 5.97153 5.75384 5.97941 5.77755Z" fill="#F5F5F5"/>
<path d="M5.97941 6.73554L6.04047 6.91866L6.2335 6.92013C6.2585 6.92035 6.26884 6.95223 6.24875 6.96707L6.09347 7.08176L6.15172 7.26579C6.15928 7.2896 6.13213 7.30935 6.11178 7.29479L5.95475 7.18254L5.79772 7.29479C5.77738 7.30932 5.75028 7.2896 5.75778 7.26579L5.81603 7.08176L5.66075 6.96707C5.64066 6.95219 5.651 6.92035 5.676 6.92013L5.86903 6.91866L5.93009 6.73554C5.93797 6.71185 5.97153 6.71185 5.97941 6.73554Z" fill="#F5F5F5"/>
<path d="M6.72306 3.39181L6.78412 3.57494L6.97715 3.57641C7.00215 3.57662 7.0125 3.6085 6.9924 3.62334L6.83712 3.73803L6.89537 3.92206C6.90294 3.94587 6.87578 3.96562 6.85544 3.95106L6.6984 3.83881L6.54137 3.95106C6.52103 3.96559 6.49394 3.94587 6.50144 3.92206L6.55969 3.73803L6.4044 3.62334C6.38431 3.60847 6.39465 3.57662 6.41965 3.57641L6.61269 3.57494L6.67375 3.39181C6.68162 3.36809 6.71512 3.36809 6.72306 3.39181Z" fill="#F5F5F5"/>
<path d="M6.72306 4.3498L6.78412 4.53292L6.97715 4.53439C7.00215 4.53461 7.0125 4.56648 6.9924 4.58133L6.83712 4.69601L6.89537 4.88005C6.90294 4.90386 6.87578 4.92361 6.85544 4.90905L6.6984 4.7968L6.54137 4.90905C6.52103 4.92358 6.49394 4.90386 6.50144 4.88005L6.55969 4.69601L6.4044 4.58133C6.38431 4.56645 6.39465 4.53461 6.41965 4.53439L6.61269 4.53292L6.67375 4.3498C6.68162 4.32611 6.71512 4.32611 6.72306 4.3498Z" fill="#F5F5F5"/>
<path d="M6.72306 5.3078L6.78412 5.49093L6.97715 5.4924C7.00215 5.49262 7.0125 5.52449 6.9924 5.53934L6.83712 5.65403L6.89537 5.83806C6.90294 5.86187 6.87578 5.88162 6.85544 5.86706L6.6984 5.75481L6.54137 5.86706C6.52103 5.88159 6.49394 5.86187 6.50144 5.83806L6.55969 5.65403L6.4044 5.53934C6.38431 5.52446 6.39465 5.49262 6.41965 5.4924L6.61269 5.49093L6.67375 5.3078C6.68162 5.28412 6.71512 5.28412 6.72306 5.3078Z" fill="#F5F5F5"/>
<path d="M6.72306 6.26584L6.78412 6.44896L6.97715 6.45043C7.00215 6.45065 7.0125 6.48252 6.9924 6.49737L6.83712 6.61205L6.89537 6.79608C6.90294 6.8199 6.87578 6.83965 6.85544 6.82508L6.6984 6.71283L6.54137 6.82508C6.52103 6.83962 6.49394 6.8199 6.50144 6.79608L6.55969 6.61205L6.4044 6.49737C6.38431 6.48249 6.39465 6.45065 6.41965 6.45043L6.61269 6.44896L6.67375 6.26584C6.68162 6.24212 6.71512 6.24212 6.72306 6.26584Z" fill="#F5F5F5"/>
<path d="M6.72306 7.22387L6.78412 7.40699L6.97715 7.40846C7.00215 7.40868 7.0125 7.44055 6.9924 7.4554L6.83712 7.57009L6.89537 7.75412C6.90294 7.77793 6.87578 7.79768 6.85544 7.78312L6.6984 7.67087L6.54137 7.78312C6.52103 7.79765 6.49394 7.77793 6.50144 7.75412L6.55969 7.57009L6.4044 7.4554C6.38431 7.44052 6.39465 7.40868 6.41965 7.40846L6.61269 7.40699L6.67375 7.22387C6.68162 7.20012 6.71512 7.20012 6.72306 7.22387Z" fill="#F5F5F5"/>
</svg>
