<svg width="65" height="80" viewBox="0 0 65 80" fill="none" xmlns="http://www.w3.org/2000/svg">
<path d="M37.5361 22.9569C35.0691 23.2649 32.5001 22.4641 30.6243 20.5544C27.3621 17.269 27.3621 11.9507 30.6243 8.6653C33.438 5.83162 37.7808 5.44148 41.0023 7.5154L39.4323 9.8152L33.0506 19.0349C34.0089 19.7947 35.2118 20.2464 36.5167 20.2464C38.2294 20.2464 39.7381 19.4867 40.7576 18.2752L41.41 17.3306L44.6315 12.6694L48.7501 6.71458C47.6491 5.01027 46.2218 3.55236 44.5296 2.423C42.2256 0.90349 39.4935 0 36.5371 0C28.5038 0 21.9998 6.55031 21.9998 14.6407C21.9998 21.6632 26.8931 27.5154 33.438 28.9528L37.5361 22.9569Z" fill="url(#paint0_linear)"/>
<path d="M50.1772 9.61035L43.4896 19.2407L29.4009 39.5282H37.1895C37.1895 39.5282 46.9762 25.3188 48.7908 22.4646C48.8112 22.4235 48.8315 22.3824 48.8723 22.3414C48.9335 22.2592 48.9743 22.1771 49.015 22.1155C49.015 22.095 49.0354 22.095 49.0354 22.0744C50.3199 19.8978 51.0743 17.3311 51.0743 14.6001C51.0539 12.8547 50.7481 11.1709 50.1772 9.61035Z" fill="url(#paint1_linear)"/>
<path d="M1.28451 76.1807L0.0203902 79.0965L0 79.1376H0.367002L0.754394 78.1519H2.14084L2.52823 79.117V79.1376H2.87484L1.63112 76.1807H1.28451ZM2.01851 77.8234H0.917503L1.46801 76.5503L2.01851 77.8234Z" fill="#14141D"/>
<path d="M5.11771 78.46C5.09732 78.4805 5.09732 78.4805 5.09732 78.5011C5.09732 78.5011 5.09732 78.5011 5.09732 78.5216C5.07693 78.5627 5.03616 78.6037 4.99538 78.6448C4.9546 78.6859 4.89344 78.7269 4.83227 78.768C4.7711 78.8091 4.70993 78.8296 4.62838 78.8501C4.52643 78.8707 4.42449 78.8912 4.32254 78.8707C4.28177 78.8707 4.26138 78.8501 4.2206 78.8501C4.17982 78.8501 4.15943 78.8296 4.11865 78.8091C4.07788 78.7885 4.0371 78.768 4.01671 78.7475C3.99632 78.7269 3.97593 78.7269 3.95554 78.7064C3.93515 78.6859 3.91476 78.6859 3.89437 78.6653L3.87398 78.6448L3.85359 78.6243C3.83321 78.6243 3.83321 78.6037 3.83321 78.6037L3.81282 78.5832C3.79243 78.5627 3.75165 78.5216 3.73127 78.4805C3.71088 78.4395 3.69048 78.3984 3.67009 78.3573C3.64971 78.3163 3.62932 78.2547 3.62932 78.2136C3.62932 78.1725 3.60893 78.1109 3.60893 78.0699C3.60893 78.0493 3.60893 78.0288 3.60893 78.0083V77.9466C3.60893 77.9261 3.62932 77.9056 3.62932 77.8645C3.62932 77.844 3.62932 77.8234 3.6497 77.8029C3.6497 77.7824 3.67009 77.7824 3.67009 77.7618C3.67009 77.7413 3.6701 77.7413 3.69049 77.7208C3.69049 77.7002 3.71088 77.7002 3.71088 77.6797C3.71088 77.6592 3.73127 77.6592 3.73127 77.6386C3.75165 77.577 3.79243 77.536 3.83321 77.4949C3.87399 77.4538 3.93515 77.4128 3.99632 77.3717C4.05749 77.3306 4.11865 77.3101 4.20021 77.2896C4.26138 77.269 4.34293 77.2485 4.4041 77.2485H4.42449H4.46526C4.54682 77.2485 4.60799 77.2485 4.66915 77.269C4.73032 77.2896 4.81188 77.3101 4.87304 77.3306C4.93421 77.3512 4.99538 77.3922 5.03616 77.4333C5.07694 77.4744 5.11771 77.536 5.15849 77.5976V77.6181L5.54588 77.6386L5.52549 77.5976C5.46432 77.4949 5.40316 77.3922 5.34199 77.3101C5.28083 77.228 5.19927 77.1458 5.11771 77.1048C5.03616 77.0432 4.9546 77.0021 4.85266 76.961C4.7711 76.92 4.66915 76.8994 4.5876 76.8994H4.56721H4.50604H4.46526C4.32254 76.8994 4.17982 76.92 4.05748 76.9816C3.93515 77.0226 3.81282 77.1048 3.69049 77.2074C3.56815 77.3101 3.4866 77.4333 3.42543 77.577C3.36426 77.7208 3.32349 77.885 3.32349 78.0493C3.32349 78.2136 3.34387 78.3779 3.40504 78.5011C3.46621 78.6448 3.54776 78.768 3.67009 78.8707C3.79243 78.9733 3.91477 79.0555 4.0371 79.1171C4.15943 79.1582 4.30215 79.1992 4.46526 79.1992C4.48565 79.1992 4.50604 79.1992 4.52643 79.1992C4.54682 79.1992 4.56721 79.1992 4.5876 79.1992C4.60799 79.1992 4.62838 79.1992 4.64877 79.1992C4.66916 79.1992 4.68954 79.1992 4.70993 79.1787C4.79149 79.1581 4.87305 79.1376 4.9546 79.0965C5.03616 79.0555 5.11771 79.0144 5.17888 78.9528C5.26043 78.8912 5.3216 78.8296 5.40316 78.7475C5.46432 78.6653 5.52549 78.5832 5.58666 78.4805L5.60705 78.4395L5.11771 78.46Z" fill="#14141D"/>
<path d="M7.74784 78.46C7.72745 78.4805 7.72745 78.4805 7.72745 78.5011C7.72745 78.5011 7.72745 78.5011 7.72745 78.5216C7.70706 78.5627 7.66628 78.6037 7.6255 78.6448C7.58473 78.6859 7.52356 78.7269 7.46239 78.768C7.40123 78.8091 7.34006 78.8296 7.25851 78.8501C7.15656 78.8707 7.05462 78.8912 6.95267 78.8707C6.91189 78.8707 6.8915 78.8501 6.85073 78.8501C6.80995 78.8501 6.78956 78.8296 6.74878 78.8091C6.708 78.7885 6.66723 78.768 6.64684 78.7475C6.62645 78.7269 6.60606 78.7269 6.58567 78.7064C6.56528 78.6859 6.54489 78.6859 6.5245 78.6653L6.50411 78.6448L6.48373 78.6243C6.46334 78.6243 6.46334 78.6037 6.46334 78.6037L6.44295 78.5832C6.42256 78.5627 6.38178 78.5216 6.36139 78.4805C6.341 78.4395 6.32061 78.3984 6.30022 78.3573C6.27983 78.3163 6.25945 78.2547 6.25945 78.2136C6.25945 78.1725 6.23906 78.1109 6.23906 78.0699C6.23906 78.0493 6.23906 78.0288 6.23906 78.0083V77.9466C6.23906 77.9261 6.25945 77.9056 6.25945 77.8645C6.25945 77.844 6.25945 77.8234 6.27984 77.8029C6.27984 77.7824 6.30022 77.7824 6.30022 77.7618C6.30022 77.7413 6.30022 77.7413 6.32061 77.7208C6.32061 77.7002 6.341 77.7002 6.341 77.6797C6.341 77.6592 6.36139 77.6592 6.36139 77.6386C6.38178 77.577 6.42256 77.536 6.46334 77.4949C6.50412 77.4538 6.56528 77.4128 6.62645 77.3717C6.68761 77.3306 6.74878 77.3101 6.83034 77.2896C6.8915 77.269 6.97306 77.2485 7.03423 77.2485H7.05462H7.0954C7.17695 77.2485 7.23812 77.2485 7.29929 77.269C7.36045 77.2896 7.44201 77.3101 7.50318 77.3306C7.56434 77.3512 7.62551 77.3922 7.66628 77.4333C7.70706 77.4744 7.74784 77.536 7.78862 77.5976V77.6181L8.17601 77.6386L8.15562 77.5976C8.09445 77.4949 8.03329 77.3922 7.97212 77.3101C7.91095 77.228 7.82939 77.1458 7.74784 77.1048C7.66628 77.0432 7.58473 77.0021 7.48279 76.961C7.40123 76.92 7.29928 76.8994 7.21772 76.8994H7.19734H7.13617H7.0954C6.95267 76.8994 6.80995 76.92 6.68762 76.9816C6.56528 77.0226 6.44295 77.1048 6.32061 77.2074C6.19828 77.3101 6.11672 77.4333 6.05556 77.577C5.99439 77.7208 5.95361 77.885 5.95361 78.0493C5.95361 78.2136 5.974 78.3779 6.03517 78.5011C6.09633 78.6448 6.17789 78.768 6.30022 78.8707C6.42256 78.9733 6.54489 79.0555 6.66723 79.1171C6.78956 79.1582 6.93228 79.1992 7.0954 79.1992C7.11579 79.1992 7.13617 79.1992 7.15656 79.1992C7.17695 79.1992 7.19734 79.1992 7.21772 79.1992C7.23811 79.1992 7.25851 79.1992 7.2789 79.1992C7.29928 79.1992 7.31967 79.1992 7.34006 79.1787C7.42162 79.1581 7.50317 79.1376 7.58473 79.0965C7.66629 79.0555 7.74784 79.0144 7.80901 78.9528C7.89057 78.8912 7.95173 78.8296 8.03328 78.7475C8.09445 78.6653 8.15562 78.5832 8.21679 78.4805L8.23717 78.4395L7.74784 78.46Z" fill="#14141D"/>
<path d="M10.3781 77.2074C10.2558 77.1048 10.1538 77.0432 10.0315 76.9816C9.90916 76.9405 9.78683 76.8994 9.64411 76.8994H9.58294C9.44021 76.8994 9.31788 76.92 9.19555 76.9816C9.07321 77.0226 8.95088 77.1048 8.84893 77.1869C8.74699 77.2896 8.64505 77.3922 8.58388 77.536C8.52271 77.6797 8.48193 77.844 8.48193 78.0082C8.48193 78.1725 8.52271 78.3368 8.58388 78.4805C8.64505 78.6243 8.7266 78.7475 8.84893 78.8501C8.97127 78.9528 9.0936 79.0349 9.21594 79.076C9.33827 79.1171 9.48099 79.1581 9.62372 79.1581H9.68488C9.78683 79.1581 9.88877 79.1376 9.99072 79.0965C10.0927 79.0555 10.1742 79.0144 10.2762 78.9528C10.3781 78.8912 10.4597 78.8091 10.5208 78.7269C10.582 78.6243 10.6432 78.5216 10.7043 78.3984L10.7247 78.3573L10.3577 78.3779V78.3984C10.3373 78.46 10.2966 78.5216 10.2558 78.5627C10.215 78.6243 10.1538 78.6653 10.0927 78.7064C10.0315 78.7475 9.94994 78.768 9.88877 78.7885C9.80721 78.8091 9.74605 78.8296 9.66449 78.8296H9.56255C9.48099 78.8296 9.39944 78.8091 9.33827 78.768C9.25672 78.7269 9.19555 78.6859 9.11399 78.6448C9.05283 78.5832 8.99166 78.5216 8.95088 78.4189C8.9101 78.3368 8.88971 78.2341 8.86932 78.1109H10.7655V78.0082C10.7655 77.8234 10.7451 77.6592 10.6839 77.5154C10.582 77.4128 10.5004 77.2896 10.3781 77.2074ZM10.3985 77.844H8.82855V77.8234C8.82855 77.8029 8.84893 77.7824 8.84893 77.7413C8.86932 77.7208 8.86932 77.6797 8.88971 77.6386C8.9101 77.5976 8.93049 77.577 8.95088 77.536C8.97127 77.4949 9.01204 77.4538 9.05282 77.4128C9.0936 77.3717 9.13438 77.3306 9.19555 77.3101C9.23632 77.269 9.29749 77.2485 9.37905 77.228C9.44021 77.2074 9.52177 77.1869 9.62372 77.1869C9.72566 77.1869 9.8276 77.228 9.90916 77.2485C9.99072 77.2896 10.0723 77.3306 10.1334 77.3922C10.1946 77.4538 10.2558 77.536 10.2965 77.6181C10.3373 77.7002 10.3781 77.7824 10.3985 77.844Z" fill="#14141D"/>
<path d="M11.5809 76.1807H11.2546V79.1376H11.5809V76.1807Z" fill="#14141D"/>
<path d="M13.946 77.2074C13.8236 77.1048 13.7217 77.0432 13.5994 76.9816C13.477 76.9405 13.3547 76.8994 13.212 76.8994H13.1508C13.0081 76.8994 12.8858 76.92 12.7634 76.9816C12.6411 77.0226 12.5187 77.1048 12.4168 77.1869C12.3149 77.2896 12.2129 77.3922 12.1517 77.536C12.0906 77.6797 12.0498 77.844 12.0498 78.0082C12.0498 78.1725 12.0906 78.3368 12.1517 78.4805C12.2129 78.6243 12.2945 78.7475 12.4168 78.8501C12.5391 78.9528 12.6615 79.0349 12.7838 79.076C12.9061 79.1171 13.0489 79.1581 13.1916 79.1581H13.2528C13.3547 79.1581 13.4566 79.1376 13.5586 79.0965C13.6605 79.0555 13.7421 79.0144 13.844 78.9528C13.946 78.8912 14.0275 78.8091 14.0887 78.7269C14.1499 78.6243 14.211 78.5216 14.2722 78.3984L14.2926 78.3573L13.9256 78.3779V78.3984C13.9052 78.46 13.8644 78.5216 13.8236 78.5627C13.7829 78.6243 13.7217 78.6653 13.6605 78.7064C13.5994 78.7475 13.5178 78.768 13.4566 78.7885C13.3751 78.8091 13.3139 78.8296 13.2324 78.8296H13.1304C13.0489 78.8296 12.9673 78.8091 12.9061 78.768C12.8246 78.7269 12.7634 78.6859 12.6819 78.6448C12.6207 78.5832 12.5595 78.5216 12.5187 78.4189C12.478 78.3368 12.4576 78.2341 12.4372 78.1109H14.3334V78.0082C14.3334 77.8234 14.313 77.6592 14.2518 77.5154C14.1499 77.4128 14.0479 77.2896 13.946 77.2074ZM13.946 77.844H12.376V77.8234C12.376 77.8029 12.3964 77.7824 12.3964 77.7413C12.4168 77.7208 12.4168 77.6797 12.4372 77.6386C12.4576 77.5976 12.478 77.577 12.4984 77.536C12.5188 77.4949 12.5595 77.4538 12.6003 77.4128C12.6411 77.3717 12.6819 77.3306 12.743 77.3101C12.7838 77.269 12.845 77.2485 12.9265 77.228C12.9877 77.2074 13.0693 77.1869 13.1712 77.1869C13.2731 77.1869 13.3751 77.228 13.4566 77.2485C13.5382 77.2896 13.6198 77.3306 13.6809 77.3922C13.7421 77.4538 13.8033 77.536 13.844 77.6181C13.8848 77.7002 13.9256 77.7824 13.946 77.844Z" fill="#14141D"/>
<path d="M15.4548 76.9197C15.3937 76.9402 15.3325 76.9608 15.2713 76.9813C15.2102 77.0018 15.1694 77.0429 15.1286 77.084C15.1082 77.1045 15.0878 77.125 15.0674 77.1661V76.9402H14.7412V79.1579H15.0674V77.8232C15.0674 77.7616 15.0878 77.7 15.1082 77.6589C15.1286 77.6178 15.1694 77.5562 15.2102 77.5152C15.2509 77.4741 15.2917 77.433 15.3529 77.4125C15.3937 77.392 15.4548 77.3509 15.516 77.3304C15.5364 77.3304 15.5364 77.3098 15.5568 77.3098C15.5772 77.3098 15.5975 77.3098 15.5975 77.2893C15.6179 77.2893 15.6179 77.2893 15.6383 77.2893C15.6587 77.2893 15.6791 77.2893 15.6995 77.2688H15.7199V76.9197H15.6995C15.5975 76.8992 15.516 76.8992 15.4548 76.9197Z" fill="#14141D"/>
<path d="M17.9626 77.2485C17.9218 77.2074 17.881 77.1664 17.8403 77.1253C17.7791 77.0842 17.7179 77.0226 17.6364 77.0021C17.5548 76.961 17.4936 76.9405 17.4121 76.92C17.3305 76.8994 17.2694 76.8994 17.1878 76.8789H17.0655C16.9228 76.8789 16.8004 76.92 16.6577 76.9816C16.5354 77.0432 16.413 77.1048 16.2907 77.2074C16.1684 77.3101 16.0868 77.4333 16.0256 77.5565C15.9645 77.6797 15.9441 77.844 15.9441 78.0083V78.0288V78.0493V78.0699C15.9441 78.2341 15.9645 78.3573 16.0256 78.5011C16.0868 78.6243 16.1684 78.7475 16.2703 78.8296C16.3723 78.9118 16.4946 78.9939 16.6169 79.0555C16.7393 79.1171 16.8616 79.1376 16.9839 79.1582H17.0043C17.0043 79.1582 17.0043 79.1582 17.0247 79.1582H17.0859H17.1674H17.1878C17.2694 79.1582 17.3509 79.1376 17.4121 79.1171C17.4936 79.0966 17.5548 79.076 17.6364 79.035C17.7179 78.9939 17.7791 78.9528 17.8403 78.9118C17.881 78.8707 17.9218 78.8296 17.9422 78.7886V79.0966H18.2277V76.8789H17.9626V77.2485ZM17.9218 78.152C17.9014 78.2341 17.881 78.3368 17.8403 78.4189C17.7995 78.5011 17.7383 78.5832 17.6772 78.6653C17.616 78.7475 17.5344 78.7886 17.4529 78.8296C17.3713 78.8707 17.2694 78.8912 17.1878 78.8912C17.0451 78.8912 16.9024 78.8707 16.8004 78.8296C16.6985 78.7886 16.5965 78.7269 16.5354 78.6448C16.4742 78.5627 16.413 78.4805 16.3723 78.3779C16.3315 78.2752 16.3111 78.1725 16.3111 78.0493V78.0288V77.9877V77.9672C16.3111 77.9467 16.3111 77.9261 16.3111 77.9261C16.3111 77.9056 16.3111 77.8851 16.3111 77.8851C16.3111 77.8645 16.3315 77.844 16.3315 77.8235C16.3315 77.8029 16.3519 77.7824 16.3519 77.7619C16.3723 77.7003 16.413 77.6387 16.4538 77.5771C16.4946 77.5155 16.5558 77.4538 16.6169 77.4128C16.6781 77.3512 16.7596 77.3101 16.8412 77.2896C16.9228 77.269 17.0043 77.2485 17.0859 77.2485H17.147C17.249 77.2485 17.3509 77.269 17.4529 77.3101C17.5344 77.3512 17.616 77.3922 17.6772 77.4539C17.7383 77.5155 17.7995 77.5976 17.8403 77.6797C17.881 77.7619 17.9014 77.8645 17.9218 77.9467V78.0904V78.1109V78.152Z" fill="#14141D"/>
<path d="M19.4307 76.2217H19.1044V76.9404H18.6763V77.2894H19.1044V79.1375H19.4307V77.2894H19.9404V76.9404H19.4307V76.2217Z" fill="#14141D"/>
<path d="M22.122 77.2074C21.9997 77.1048 21.8977 77.0432 21.7754 76.9816C21.6531 76.9405 21.5307 76.8994 21.388 76.8994H21.3268C21.1841 76.8994 21.0618 76.92 20.9394 76.9816C20.8171 77.0226 20.6948 77.1048 20.5928 77.1869C20.4909 77.2896 20.3889 77.3922 20.3278 77.536C20.2666 77.6797 20.2258 77.844 20.2258 78.0082C20.2258 78.1725 20.2666 78.3368 20.3278 78.4805C20.3889 78.6243 20.4705 78.7475 20.5928 78.8501C20.7152 78.9528 20.8375 79.0349 20.9598 79.076C21.0822 79.1171 21.2249 79.1581 21.3676 79.1581H21.4288C21.5307 79.1581 21.6327 79.1376 21.7346 79.0965C21.8366 79.0555 21.9181 79.0144 22.0201 78.9528C22.122 78.8912 22.2036 78.8091 22.2647 78.7269C22.3259 78.6243 22.3871 78.5216 22.4482 78.3984L22.4686 78.3573L22.1016 78.3779V78.3984C22.0812 78.46 22.0404 78.5216 21.9997 78.5627C21.9589 78.6243 21.8977 78.6653 21.8366 78.7064C21.7754 78.7475 21.6938 78.768 21.6327 78.7885C21.5511 78.8091 21.4899 78.8296 21.4084 78.8296H21.3064C21.2249 78.8296 21.1433 78.8091 21.0822 78.768C21.0006 78.7269 20.9394 78.6859 20.8579 78.6448C20.7967 78.5832 20.7355 78.5216 20.6948 78.4189C20.654 78.3368 20.6336 78.2341 20.6132 78.1109H22.5094V78.0082C22.5094 77.8234 22.489 77.6592 22.4278 77.5154C22.3259 77.4128 22.2239 77.2896 22.122 77.2074ZM22.122 77.844H20.5521V77.8234C20.5521 77.8029 20.5724 77.7824 20.5724 77.7413C20.5928 77.7208 20.5928 77.6797 20.6132 77.6386C20.6336 77.5976 20.654 77.577 20.6744 77.536C20.6948 77.4949 20.7355 77.4538 20.7763 77.4128C20.8171 77.3717 20.8579 77.3306 20.9191 77.3101C20.9598 77.269 21.021 77.2485 21.1025 77.228C21.1637 77.2074 21.2453 77.1869 21.3472 77.1869C21.4492 77.1869 21.5511 77.228 21.6327 77.2485C21.7142 77.2896 21.7958 77.3306 21.8569 77.3922C21.9181 77.4538 21.9793 77.536 22.0201 77.6181C22.0608 77.7002 22.1016 77.7824 22.122 77.844Z" fill="#14141D"/>
<path d="M25.8938 78.6242L25.2414 76.961V76.9404H24.854L25.6696 79.0554L25.3026 79.8973H25.69L26.9541 76.9404H26.5463L25.8938 78.6242Z" fill="#14141D"/>
<path d="M29.197 77.2074C29.095 77.1048 28.9727 77.0432 28.8504 76.9816C28.728 76.9405 28.5853 76.8994 28.4222 76.8994C28.2387 76.8994 28.0756 76.92 27.9329 76.9816C27.7901 77.0432 27.6678 77.1253 27.5455 77.228C27.4435 77.3306 27.362 77.4538 27.3008 77.577C27.2396 77.7002 27.2192 77.844 27.2192 77.9877C27.2192 78.1725 27.26 78.3368 27.3212 78.4805C27.3823 78.6243 27.4639 78.7475 27.5862 78.8501C27.7086 78.9528 27.8309 79.0144 27.9532 79.076C28.096 79.1171 28.2387 79.1581 28.3814 79.1581C28.5445 79.1581 28.6872 79.1376 28.83 79.076C28.9727 79.0144 29.095 78.9323 29.197 78.8296C29.2989 78.7269 29.3805 78.5832 29.4416 78.4395C29.5028 78.2957 29.5232 78.1109 29.5232 77.9261C29.5232 77.7824 29.5028 77.6386 29.4416 77.5154C29.3805 77.4128 29.2989 77.2896 29.197 77.2074ZM27.5659 78.0082C27.5659 77.9056 27.5862 77.8029 27.627 77.7002C27.6678 77.6181 27.7086 77.536 27.7901 77.4538C27.8513 77.3717 27.9329 77.3306 28.0144 77.2896C28.096 77.2485 28.1979 77.228 28.2999 77.228H28.361C28.463 77.228 28.5649 77.2485 28.6465 77.2896C28.728 77.3306 28.83 77.3717 28.8911 77.4333C28.9727 77.4949 29.0339 77.577 29.0542 77.6592C29.095 77.7413 29.1154 77.844 29.1154 77.9466C29.1154 78.0904 29.095 78.2341 29.0542 78.3368C29.0135 78.4395 28.9523 78.5421 28.8707 78.6037C28.7892 78.6653 28.7076 78.7269 28.6261 78.768C28.5445 78.8091 28.4426 78.8296 28.361 78.8501V78.8501H28.3406H28.2795H28.2591H28.2387C28.1571 78.8296 28.0756 78.8091 28.0144 78.768C27.9329 78.7269 27.8717 78.6653 27.7901 78.6037C27.729 78.5216 27.6678 78.4395 27.6474 78.3368C27.6066 78.2341 27.5862 78.1315 27.5659 78.0082Z" fill="#14141D"/>
<path d="M31.501 78.2341C31.501 78.3367 31.4806 78.4189 31.4602 78.501C31.4398 78.5831 31.3786 78.6447 31.3175 78.7063C31.2563 78.7679 31.1951 78.809 31.134 78.8295C31.0728 78.8501 30.9913 78.8706 30.9301 78.8911H30.9097H30.8689C30.7874 78.8911 30.7262 78.8706 30.665 78.8501C30.6039 78.8295 30.5427 78.7885 30.4815 78.7269C30.4204 78.6653 30.3796 78.6037 30.3388 78.5215C30.3184 78.4394 30.298 78.3367 30.298 78.2341V76.9404H29.9514V78.2135V78.2341V78.2546V78.2751V78.2957C29.9514 78.4394 29.9718 78.5626 30.0126 78.6653C30.0534 78.7679 30.1349 78.8706 30.2165 78.9527C30.298 79.0349 30.4 79.076 30.5019 79.117C30.6039 79.1581 30.7058 79.1786 30.8281 79.1786H30.9097H30.9913C31.0524 79.1786 31.1136 79.1581 31.1544 79.1376C31.2155 79.117 31.2563 79.0965 31.3175 79.076C31.3786 79.0554 31.4194 79.0143 31.4602 78.9733C31.4806 78.9527 31.5214 78.9322 31.5418 78.8911V79.0965H31.868V76.9404H31.501V78.2341V78.2341Z" fill="#14141D"/>
<path d="M33.0913 76.9197C33.0301 76.9402 32.969 76.9608 32.9078 76.9813C32.8466 77.0018 32.8059 77.0429 32.7651 77.084C32.7447 77.1045 32.7243 77.125 32.7039 77.1661V76.9402H32.3777V79.1579H32.7039V77.8232C32.7039 77.7616 32.7243 77.7 32.7447 77.6589C32.7651 77.6178 32.8059 77.5562 32.8466 77.5152C32.8874 77.4741 32.9282 77.433 32.9894 77.4125C33.0301 77.392 33.0913 77.3509 33.1525 77.3304C33.1729 77.3304 33.1729 77.3098 33.1932 77.3098C33.2136 77.3098 33.234 77.3098 33.234 77.2893C33.2544 77.2893 33.2544 77.2893 33.2748 77.2893C33.2952 77.2893 33.3156 77.2893 33.336 77.2688H33.3564V76.9197H33.336C33.234 76.8992 33.1525 76.8992 33.0913 76.9197Z" fill="#14141D"/>
<path d="M37.9234 76.6118C37.7807 76.4681 37.5972 76.3654 37.3933 76.3038C37.1894 76.2422 36.9448 76.2012 36.6593 76.2012H35.8438V79.1581H36.8428H36.904C36.9244 79.1581 36.9244 79.1581 36.9448 79.1581C36.9651 79.1581 36.9651 79.1581 36.9855 79.1581C37.1486 79.1375 37.3118 79.0965 37.4749 79.0349C37.6176 78.9733 37.7807 78.8706 37.9234 78.7474C38.0661 78.6242 38.1681 78.4804 38.2496 78.2956C38.3108 78.1314 38.3516 77.926 38.3516 77.7001C38.3516 77.4743 38.3108 77.2689 38.2496 77.0841C38.1681 76.8993 38.0661 76.7351 37.9234 76.6118ZM38.005 77.7001C38.005 77.8644 37.9846 78.0287 37.9234 78.1724C37.8623 78.3162 37.7807 78.4394 37.6584 78.542C37.536 78.6447 37.4137 78.7268 37.2914 78.7679C37.169 78.8295 37.0263 78.85 36.904 78.85H36.8836H36.1904V76.4886H36.7001C36.9448 76.4886 37.1486 76.5297 37.3118 76.5913C37.4749 76.6529 37.6176 76.7351 37.7195 76.8583C37.8215 76.9815 37.903 77.1047 37.9438 77.2484C37.9642 77.3921 38.005 77.5359 38.005 77.7001Z" fill="#14141D"/>
<path d="M39.2488 76.1807H38.9226V76.7145H39.2488V76.1807Z" fill="#14141D"/>
<path d="M39.2488 76.9199H38.9226V79.1376H39.2488V76.9199Z" fill="#14141D"/>
<path d="M41.6343 77.269C41.6139 77.228 41.5732 77.1869 41.5324 77.1664C41.4712 77.1048 41.41 77.0637 41.3285 77.0226C41.2469 76.9816 41.1654 76.9405 41.0838 76.92C41.0023 76.8994 40.9207 76.8789 40.8392 76.8789H40.676C40.5537 76.8994 40.4518 76.92 40.3294 76.9816C40.2275 77.0432 40.1255 77.1048 40.0236 77.1869C39.9217 77.269 39.8401 77.3922 39.7993 77.536C39.7382 77.6797 39.7178 77.8235 39.7178 78.0083V78.0288V78.0493C39.7178 78.2341 39.7382 78.3779 39.7789 78.5216C39.8197 78.6448 39.9013 78.768 40.0032 78.8501C40.1052 78.9323 40.2071 78.9939 40.309 79.0555C40.411 79.0966 40.5333 79.1376 40.6557 79.1376H40.676C40.676 79.1376 40.676 79.1376 40.6964 79.1376H40.7576C40.7576 79.1376 40.7576 79.1376 40.778 79.1376H40.8188C40.9207 79.1376 41.0227 79.1376 41.1042 79.1171C41.2062 79.0966 41.2877 79.076 41.3693 79.035C41.4508 78.9939 41.5324 78.9528 41.5935 78.8912C41.6139 78.8707 41.6343 78.8296 41.6547 78.8091V78.8296C41.6547 78.9528 41.6343 79.0555 41.5935 79.1582C41.5528 79.2403 41.4916 79.3224 41.41 79.4046C41.3285 79.4662 41.2469 79.5278 41.1654 79.5688C41.0838 79.6099 40.9819 79.6304 40.9003 79.6304H40.7984C40.7372 79.6304 40.6557 79.6099 40.5945 79.5894C40.5333 79.5688 40.4518 79.5278 40.3906 79.4867C40.3294 79.4456 40.2683 79.4046 40.2275 79.343C40.1867 79.2814 40.1459 79.2198 40.1052 79.1376V79.1171H39.7789V79.1582C39.8197 79.2814 39.8809 79.4046 39.942 79.5072C40.0032 79.6099 40.1052 79.692 40.2071 79.7742C40.309 79.8358 40.411 79.8974 40.5129 79.9384C40.6149 79.9795 40.7372 80 40.8392 80H40.9003C41.043 80 41.1654 79.9795 41.2877 79.9384C41.41 79.8974 41.5324 79.8152 41.6343 79.7331C41.7567 79.6304 41.8382 79.5278 41.8994 79.384C41.9605 79.2403 41.9809 79.076 41.9809 78.8912V76.9405H41.6343V77.269ZM41.5935 77.7208C41.6343 77.8029 41.6547 77.8851 41.6547 77.9877C41.6547 78.152 41.6343 78.2957 41.5935 78.3984C41.5528 78.5011 41.4916 78.6037 41.41 78.6653C41.3285 78.7269 41.2469 78.7886 41.145 78.8091C41.043 78.8502 40.9615 78.8501 40.8392 78.8501C40.7168 78.8501 40.6149 78.8296 40.5129 78.7886C40.4314 78.7475 40.3498 78.6859 40.2683 78.6037C40.2071 78.5216 40.1459 78.4395 40.1255 78.3368C40.0848 78.2341 40.0848 78.1315 40.0848 78.0083V77.9877V77.9672V77.9467C40.0848 77.9261 40.0848 77.9056 40.0848 77.8851C40.0848 77.8645 40.1052 77.8235 40.1052 77.8029C40.1052 77.7824 40.1255 77.7413 40.1459 77.7003C40.1663 77.6592 40.1867 77.6387 40.2071 77.5976C40.2275 77.5565 40.2683 77.5155 40.309 77.4744C40.3498 77.4333 40.3906 77.3922 40.4518 77.3512C40.4925 77.3101 40.5537 77.2896 40.6353 77.269C40.6964 77.2485 40.778 77.228 40.8595 77.2074H40.9003H40.9411H40.9615C41.043 77.228 41.1246 77.2485 41.2062 77.2896C41.2877 77.3307 41.3693 77.3922 41.4304 77.4539C41.4916 77.5565 41.5528 77.6387 41.5935 77.7208Z" fill="#14141D"/>
<path d="M42.8982 76.9199H42.572V79.1376H42.8982V76.9199Z" fill="#14141D"/>
<path d="M42.8982 76.1807H42.572V76.7145H42.8982V76.1807Z" fill="#14141D"/>
<path d="M44.0198 76.2217H43.6936V76.9404H43.2654V77.2894H43.6936V79.1375H44.0198V77.2894H44.5091V76.9404H44.0198V76.2217Z" fill="#14141D"/>
<path d="M46.8129 77.2485C46.7721 77.2074 46.7314 77.1664 46.6906 77.1253C46.6294 77.0842 46.5683 77.0226 46.4867 77.0021C46.4051 76.961 46.344 76.9405 46.2624 76.92C46.1809 76.8994 46.1197 76.8994 46.0382 76.8789H45.9158C45.7731 76.8789 45.6508 76.92 45.508 76.9816C45.3857 77.0432 45.2634 77.1048 45.141 77.2074C45.0187 77.3101 44.9372 77.4333 44.876 77.5565C44.8148 77.6797 44.7944 77.844 44.7944 78.0083V78.0288V78.0493V78.0699C44.7944 78.2341 44.8148 78.3779 44.876 78.5011C44.9372 78.6243 45.0187 78.7475 45.1207 78.8296C45.2226 78.9118 45.3449 78.9939 45.4673 79.0555C45.5896 79.1171 45.7119 79.1376 45.8343 79.1582H45.8546C45.8546 79.1582 45.8546 79.1582 45.875 79.1582H45.9362H46.0178H46.0382C46.1197 79.1582 46.2013 79.1376 46.2624 79.1171C46.344 79.0966 46.4051 79.076 46.4867 79.035C46.5683 78.9939 46.6294 78.9528 46.6906 78.9118C46.7314 78.8707 46.7721 78.8296 46.7925 78.7886V79.0966H47.078V76.8789H46.7925V77.2485H46.8129ZM46.7925 78.152C46.7721 78.2341 46.7518 78.3368 46.711 78.4189C46.6702 78.5011 46.609 78.5832 46.5479 78.6653C46.4867 78.7475 46.4051 78.8091 46.3236 78.8296C46.242 78.8707 46.1401 78.8912 46.0585 78.8912C45.9158 78.8912 45.7731 78.8707 45.6711 78.8296C45.5692 78.7886 45.4673 78.7269 45.4061 78.6448C45.3449 78.5627 45.2838 78.4805 45.243 78.3779C45.2022 78.2752 45.1818 78.1725 45.1818 78.0493V78.0288V77.9877V77.9672C45.1818 77.9467 45.1818 77.9261 45.1818 77.9261C45.1818 77.9056 45.1818 77.8851 45.1818 77.8851L45.2022 77.8235C45.2022 77.8029 45.2226 77.7824 45.2226 77.7619C45.243 77.7003 45.2838 77.6387 45.3245 77.5771C45.3653 77.5155 45.4265 77.4538 45.4877 77.4128C45.5488 77.3512 45.6304 77.3101 45.7119 77.2896C45.7935 77.269 45.875 77.2485 45.9566 77.2485H46.0178C46.1197 77.2485 46.2217 77.269 46.3236 77.3101C46.4051 77.3512 46.4867 77.3922 46.5479 77.4539C46.609 77.5155 46.6702 77.5976 46.711 77.6797C46.7518 77.7619 46.7721 77.844 46.7925 77.9467V78.0904V78.1109V78.152Z" fill="#14141D"/>
<path d="M48.0975 76.1807H47.7712V79.1376H48.0975V76.1807Z" fill="#14141D"/>
<path d="M50.7685 79.0145C50.7685 79.0966 50.7685 79.1788 50.7481 79.2404C50.7277 79.302 50.7073 79.343 50.6869 79.3841C50.6666 79.4252 50.6258 79.4457 50.585 79.4662C50.5442 79.4868 50.5238 79.5073 50.5034 79.5073H50.4831C50.4831 79.5073 50.4831 79.5073 50.4627 79.5073C50.4627 79.5073 50.4627 79.5073 50.4423 79.5073C50.4423 79.5073 50.4219 79.5073 50.4015 79.5073C50.4015 79.5073 50.3811 79.5073 50.3607 79.5073H50.3403H50.2996V79.8564H50.3811C50.4627 79.8564 50.5442 79.8358 50.6258 79.8153C50.687 79.7948 50.7481 79.7537 50.8093 79.7126C50.8704 79.6716 50.9112 79.61 50.9316 79.5689C50.9724 79.5278 50.9928 79.4662 51.0132 79.4046C51.0336 79.3636 51.0539 79.3225 51.0539 79.2609C51.0743 79.2198 51.0743 79.1788 51.0743 79.1377C51.0743 79.0966 51.0743 79.0761 51.0947 79.035C51.0947 79.0145 51.0947 78.9939 51.0947 78.9734V76.8379H50.7685V79.0145V79.0145Z" fill="#14141D"/>
<path d="M51.0948 76.1807H50.7686V76.7145H51.0948V76.1807Z" fill="#14141D"/>
<path d="M53.5415 77.2074C53.4395 77.1048 53.3172 77.0432 53.1948 76.9816C53.0725 76.9405 52.9298 76.8994 52.7667 76.8994C52.5832 76.8994 52.4201 76.92 52.2773 76.9816C52.1346 77.0432 52.0123 77.1253 51.8899 77.228C51.788 77.3306 51.7064 77.4538 51.6453 77.577C51.5841 77.7002 51.5637 77.844 51.5637 77.9877C51.5637 78.1725 51.6045 78.3368 51.6657 78.4805C51.7268 78.6243 51.8084 78.7475 51.9307 78.8501C52.0531 78.9528 52.1754 79.0144 52.2977 79.076C52.4404 79.1171 52.5832 79.1581 52.7259 79.1581C52.889 79.1581 53.0317 79.1376 53.1745 79.076C53.3172 79.0144 53.4395 78.9323 53.5415 78.8296C53.6434 78.7269 53.725 78.5832 53.7861 78.4395C53.8473 78.2957 53.8677 78.1109 53.8677 77.9261C53.8677 77.7824 53.8473 77.6386 53.7861 77.5154C53.725 77.4128 53.6434 77.2896 53.5415 77.2074ZM51.9307 78.0082C51.9307 77.9056 51.9511 77.8029 51.9919 77.7002C52.0327 77.6181 52.0734 77.536 52.155 77.4538C52.2162 77.3717 52.2977 77.3306 52.3793 77.2896C52.4608 77.2485 52.5628 77.228 52.6647 77.228H52.7259C52.8278 77.228 52.9298 77.2485 53.0113 77.2896C53.0929 77.3306 53.1948 77.3717 53.256 77.4333C53.3376 77.4949 53.3987 77.577 53.4191 77.6592C53.4599 77.7413 53.4803 77.844 53.4803 77.9466C53.4803 78.0904 53.4599 78.2341 53.4191 78.3368C53.3783 78.4395 53.3172 78.5421 53.2356 78.6037C53.1541 78.6653 53.0725 78.7269 52.9909 78.768C52.9094 78.8091 52.8074 78.8296 52.7259 78.8501H52.6851H52.6647H52.6239H52.6036H52.5832C52.5016 78.8296 52.4201 78.8091 52.3589 78.768C52.2773 78.7269 52.2162 78.6653 52.1346 78.6037C52.0734 78.5216 52.0123 78.4395 51.9919 78.3368C51.9511 78.2341 51.9307 78.1315 51.9307 78.0082Z" fill="#14141D"/>
<path d="M55.8657 78.2341C55.8657 78.3367 55.8453 78.4189 55.825 78.501C55.8046 78.5831 55.7434 78.6447 55.6822 78.7063C55.6211 78.7679 55.5599 78.809 55.4987 78.8295C55.4376 78.8501 55.356 78.8706 55.2948 78.8911H55.2744H55.2337C55.1521 78.8911 55.0909 78.8706 55.0298 78.8501C54.9686 78.8295 54.9074 78.7885 54.8463 78.7269C54.7851 78.6653 54.7443 78.6037 54.7036 78.5215C54.6832 78.4394 54.6628 78.3367 54.6628 78.2341V76.9404H54.3162V78.2135V78.2341V78.2546V78.2751V78.2957C54.3162 78.4394 54.3366 78.5626 54.3773 78.6653C54.4181 78.7679 54.4997 78.8706 54.5812 78.9527C54.6628 79.0349 54.7647 79.076 54.8667 79.117C54.9686 79.1581 55.0706 79.1786 55.1929 79.1786H55.2744H55.356C55.4172 79.1786 55.4783 79.1581 55.5191 79.1376C55.5803 79.117 55.6211 79.0965 55.6822 79.076C55.7434 79.0554 55.7842 79.0143 55.825 78.9733C55.8453 78.9527 55.8861 78.9322 55.9065 78.8911V79.0965H56.2327V76.9404H55.8657V78.2341Z" fill="#14141D"/>
<path d="M57.456 76.9197C57.3949 76.9402 57.3337 76.9608 57.2725 76.9813C57.2114 77.0018 57.1706 77.0429 57.1298 77.084C57.1094 77.1045 57.089 77.125 57.0686 77.1661V76.9402H56.7424V79.1579H57.0686V77.8232C57.0686 77.7616 57.089 77.7 57.1094 77.6589C57.1298 77.6178 57.1706 77.5562 57.2114 77.5152C57.2522 77.4741 57.2929 77.433 57.3541 77.4125C57.3949 77.3714 57.456 77.3509 57.5172 77.3304C57.5376 77.3304 57.5376 77.3098 57.558 77.3098C57.5784 77.3098 57.5988 77.3098 57.5988 77.2893C57.6192 77.2893 57.6191 77.2893 57.6395 77.2893C57.6599 77.2893 57.6803 77.2893 57.7007 77.2688H57.7211V76.9197H57.7007C57.5784 76.8992 57.5172 76.8992 57.456 76.9197Z" fill="#14141D"/>
<path d="M59.6581 77.1253C59.5765 77.0637 59.4746 77.0021 59.3726 76.961C59.2707 76.92 59.1688 76.8994 59.0464 76.8994H58.9241C58.8629 76.8994 58.8018 76.92 58.7406 76.9405C58.6794 76.961 58.6183 76.9815 58.5775 77.0021C58.5163 77.0226 58.4755 77.0637 58.4144 77.1048C58.394 77.1253 58.3532 77.1458 58.3328 77.1664V76.9199H58.0066V79.1376H58.3328V77.8029V77.7618C58.3328 77.6797 58.3532 77.5976 58.3736 77.536C58.4144 77.4744 58.4551 77.4128 58.5163 77.3512C58.5775 77.3101 58.659 77.269 58.7202 77.228C58.7814 77.2074 58.8629 77.1869 58.9445 77.1869H59.026C59.1076 77.1869 59.1688 77.2074 59.2299 77.228C59.2911 77.2485 59.3523 77.2896 59.4134 77.3512C59.4746 77.3922 59.5154 77.4538 59.5561 77.536C59.5765 77.5976 59.5969 77.6797 59.5969 77.7824V79.1376H59.9231V77.8029C59.9231 77.6592 59.9028 77.5154 59.862 77.4128C59.8212 77.2896 59.76 77.1869 59.6581 77.1253Z" fill="#14141D"/>
<path d="M62.2883 77.2074C62.1659 77.1048 62.064 77.0432 61.9417 76.9816C61.8193 76.9405 61.697 76.8994 61.5543 76.8994H61.4931C61.3504 76.8994 61.228 76.92 61.1057 76.9816C60.9834 77.0226 60.861 77.1048 60.7591 77.1869C60.6572 77.2896 60.5552 77.3922 60.494 77.536C60.4329 77.6797 60.3921 77.844 60.3921 78.0082C60.3921 78.1725 60.4329 78.3368 60.494 78.4805C60.5552 78.6243 60.6368 78.7475 60.7591 78.8501C60.8814 78.9528 61.0038 79.0349 61.1261 79.076C61.2484 79.1171 61.3912 79.1581 61.5339 79.1581H61.595C61.697 79.1581 61.7989 79.1376 61.9009 79.0965C62.0028 79.0555 62.0844 79.0144 62.1863 78.9528C62.2883 78.8912 62.3698 78.8091 62.431 78.7269C62.4922 78.6243 62.5533 78.5216 62.6145 78.3984L62.6349 78.3573L62.2679 78.3779V78.3984C62.2475 78.46 62.2067 78.5216 62.1659 78.5627C62.1252 78.6243 62.064 78.6653 62.0028 78.7064C61.9417 78.7475 61.8601 78.768 61.7989 78.7885C61.7174 78.8091 61.6562 78.8296 61.5747 78.8296H61.4727C61.3912 78.8296 61.3096 78.8091 61.2484 78.768C61.1669 78.7269 61.1057 78.6859 61.0242 78.6448C60.963 78.5832 60.9018 78.5216 60.861 78.4189C60.8203 78.3368 60.7999 78.2341 60.7795 78.1109H62.6757V78.0082C62.6757 77.8234 62.6553 77.6592 62.5941 77.5154C62.4922 77.4128 62.4106 77.2896 62.2883 77.2074ZM62.3087 77.844H60.7387V77.8234C60.7387 77.8029 60.7591 77.7824 60.7591 77.7413C60.7795 77.7208 60.7795 77.6797 60.7999 77.6386C60.8203 77.5976 60.8407 77.577 60.861 77.536C60.8814 77.4949 60.9222 77.4538 60.963 77.4128C61.0038 77.3717 61.0445 77.3306 61.1057 77.3101C61.1465 77.269 61.2077 77.2485 61.2892 77.228C61.3504 77.2074 61.4319 77.1869 61.5339 77.1869C61.6358 77.1869 61.7378 77.228 61.8193 77.2485C61.9009 77.2896 61.9824 77.3306 62.0436 77.3922C62.1048 77.4538 62.1659 77.536 62.2067 77.6181C62.2475 77.7002 62.2679 77.7824 62.3087 77.844Z" fill="#14141D"/>
<path d="M64.6126 76.9404L63.9601 78.6242L63.3077 76.961L63.2873 76.9404H62.8999L63.7358 79.0554L63.3688 79.8768V79.8973H63.7562L65 76.9404H64.6126Z" fill="#14141D"/>
<path d="M60.0659 62.6901C57.9046 64.8667 54.4181 64.8667 52.2569 62.6901C50.0957 60.5135 50.0957 57.0022 52.2569 54.8256C54.4181 52.649 57.9046 52.649 60.0659 54.8256C60.5756 55.339 60.9834 55.955 61.2484 56.5915L64.9796 54.9899C63.5116 51.5402 60.127 49.0967 56.1512 49.0967C50.85 49.0967 46.5684 53.4088 46.5684 58.7476C46.5684 64.0864 50.85 68.3985 56.1512 68.3985H56.1716L51.4413 75.1952H56.5794C56.5794 75.1952 63.0427 65.8113 64.2456 63.9221C64.266 63.9016 64.2864 63.8811 64.2864 63.84C64.3272 63.7784 64.3475 63.7373 64.3883 63.6963C64.3883 63.6963 64.3883 63.6757 64.4087 63.6757C64.633 63.3061 64.8165 62.9365 64.9796 62.5258L61.228 60.9037C60.9834 61.5607 60.596 62.1562 60.0659 62.6901Z" fill="url(#paint2_linear)"/>
<path d="M44.4889 49.0762H40.4111V68.4191H44.4889V49.0762Z" fill="url(#paint3_linear)"/>
<path d="M42.4499 47.4128C44.0714 47.4128 45.3859 46.0889 45.3859 44.4559C45.3859 42.8229 44.0714 41.499 42.4499 41.499C40.8284 41.499 39.5139 42.8229 39.5139 44.4559C39.5139 46.0889 40.8284 47.4128 42.4499 47.4128Z" fill="url(#paint4_linear)"/>
<path d="M7.31975 61.684C7.95181 62.1768 8.74698 62.4848 9.60332 62.4848C10.7247 62.4848 11.7238 61.9714 12.417 61.1706L12.8452 60.5546L14.9656 57.4745L17.6773 53.532C16.9637 52.4026 16.0054 51.4375 14.8841 50.6983C13.3753 49.6922 11.5607 49.0967 9.60332 49.0967C5.34203 49.0967 1.73318 51.8893 0.469064 55.7497V55.7702C0.428286 55.9139 0.38751 56.0371 0.346732 56.1809C0.346732 56.2014 0.326342 56.2219 0.326342 56.2425C0.285564 56.3657 0.265177 56.4889 0.244788 56.6121C0.244788 56.6532 0.224397 56.6737 0.224397 56.7148C0.204008 56.8174 0.183619 56.9406 0.16323 57.0433C0.16323 57.0844 0.142843 57.1254 0.142843 57.187C0.122454 57.2897 0.102062 57.3924 0.102062 57.495C0.102062 57.5566 0.0816753 57.6182 0.0816753 57.6798C0.0612864 57.7825 0.0612851 57.8647 0.0612851 57.9673C0.0612851 58.0289 0.040898 58.1111 0.040898 58.1727C0.040898 58.2548 0.0408968 58.3575 0.0205078 58.4396C0.0205078 58.5012 0.0205078 58.5833 0.0205078 58.6449C0.0205078 58.686 0.0205078 58.7476 0.0205078 58.7887C0.0205078 58.8092 0.0205078 58.8297 0.0205078 58.8708C0.0205078 59.0967 0.040898 59.3431 0.040898 59.569C0.040898 59.6306 0.0612851 59.6922 0.0612851 59.7538C0.0816741 59.9796 0.102065 60.185 0.142843 60.4109C0.163232 60.493 0.163231 60.5546 0.18362 60.6367C0.224398 60.8215 0.265174 61.0063 0.305952 61.1911C0.326341 61.2733 0.346731 61.3759 0.367119 61.4581C0.407897 61.6429 0.469065 61.8072 0.530232 61.9714C0.550621 62.033 0.57101 62.0946 0.591399 62.1562C0.672955 62.3616 0.75451 62.5669 0.836066 62.7723C0.856455 62.8133 0.876845 62.8749 0.897234 62.916C0.999178 63.1419 1.10112 63.3472 1.22346 63.5525C1.24384 63.5731 1.24385 63.5936 1.26424 63.6141C1.89629 64.7435 2.77301 65.7497 3.85363 66.5505L3.87402 66.571C3.89441 66.5916 3.93519 66.6121 3.95557 66.6326C4.13907 66.7558 4.32258 66.879 4.50608 67.0022C4.52647 67.0228 4.54685 67.0228 4.56724 67.0433C5.26047 67.4745 5.99447 67.8031 6.72847 68.0289C10.5616 69.2199 14.8637 67.9057 17.3511 64.456C17.3715 64.415 17.3919 64.3944 17.4123 64.3534L14.1297 61.9509C13.1918 63.2856 11.7646 64.0864 10.2558 64.2712C10.0723 64.2918 9.86837 64.3123 9.68487 64.3123H9.66448C9.05281 64.3123 8.44115 64.2302 7.87026 64.0248C7.84987 64.0248 7.84987 64.0248 7.82948 64.0043C7.66636 63.9427 7.50325 63.8811 7.31975 63.7989C7.25859 63.7784 7.19742 63.7373 7.13625 63.7168C7.03431 63.6552 6.91197 63.5936 6.81003 63.532C6.72847 63.4909 6.66731 63.4499 6.58575 63.3883C6.48381 63.3267 6.40225 63.2651 6.3003 63.1829C6.23914 63.1419 6.15758 63.0803 6.09641 63.0187C5.99447 62.9365 5.89253 62.8339 5.79058 62.7517C5.7498 62.7106 5.68864 62.649 5.64786 62.608C5.56631 62.5258 5.48475 62.4437 5.42358 62.3616C5.3828 62.3 5.32163 62.2589 5.28086 62.1973C5.21969 62.1152 5.15852 62.033 5.09736 61.9304C5.05658 61.8688 4.99542 61.8072 4.95464 61.725C4.89347 61.6429 4.85269 61.5608 4.81191 61.4786C4.77113 61.3965 4.73036 61.3143 4.68958 61.2527C4.6488 61.1706 4.62841 61.109 4.58763 61.0269C4.54686 60.9447 4.50608 60.8421 4.4653 60.7599C4.44491 60.6983 4.42452 60.6162 4.38374 60.5546C4.34297 60.4519 4.32258 60.3492 4.2818 60.2671C4.26141 60.185 4.24102 60.1234 4.22063 60.0412C4.20025 59.9386 4.17985 59.8359 4.15946 59.7538C4.13907 59.6716 4.13908 59.5895 4.11869 59.5074C4.0983 59.4252 4.0983 59.3226 4.07791 59.2199C4.07791 59.1378 4.07791 59.0351 4.05752 58.9324C4.05752 58.8503 4.05752 58.7681 4.05752 58.686C4.05752 58.5833 4.05752 58.4807 4.07791 58.378C4.07791 58.2959 4.07791 58.2343 4.0983 58.1521C4.11869 58.0495 4.11869 57.9468 4.13908 57.8441C4.15947 57.762 4.15947 57.7004 4.17985 57.6182C4.20024 57.5156 4.22064 57.4334 4.24102 57.3308C4.26141 57.2486 4.2818 57.1665 4.30219 57.0844C4.32258 57.0022 4.36335 56.9201 4.38374 56.838C4.42452 56.7558 4.44491 56.6531 4.48569 56.571C4.50608 56.4889 4.54686 56.4273 4.58763 56.3657C4.62841 56.263 4.66919 56.1809 4.73036 56.0782C4.77114 56.0166 4.81191 55.955 4.8323 55.8934C4.89347 55.7907 4.95464 55.7086 5.0158 55.6059C5.1993 55.3185 5.42358 55.072 5.66825 54.8256C7.52365 52.957 10.3985 52.6901 12.5189 54.0659L11.4791 55.5854L7.31975 61.684Z" fill="url(#paint5_linear)"/>
<path d="M28.4223 49.0762C23.1212 49.0762 18.8191 53.4088 18.8191 58.7476V75.1953H22.8969V66.6532C24.4668 67.762 26.363 68.4191 28.4223 68.4191C33.7234 68.4191 38.0255 64.0864 38.0255 58.7476C38.0255 53.4088 33.7234 49.0762 28.4223 49.0762ZM28.4223 64.3123C25.3843 64.3123 22.8969 61.8277 22.8969 58.7476C22.8969 55.6881 25.3639 53.1829 28.4223 53.1829C31.4602 53.1829 33.9477 55.6675 33.9477 58.7476C33.9477 61.8277 31.4602 64.3123 28.4223 64.3123Z" fill="url(#paint6_linear)"/>
<defs>
<linearGradient id="paint0_linear" x1="21.2366" y1="14.4464" x2="51.6416" y2="14.4464" gradientUnits="userSpaceOnUse">
<stop stop-color="#20AEDB"/>
<stop offset="1" stop-color="#58BF9B"/>
</linearGradient>
<linearGradient id="paint1_linear" x1="21.2365" y1="24.5728" x2="51.6415" y2="24.5728" gradientUnits="userSpaceOnUse">
<stop stop-color="#20AEDB"/>
<stop offset="1" stop-color="#58BF9B"/>
</linearGradient>
<linearGradient id="paint2_linear" x1="-0.140303" y1="62.1545" x2="62.9498" y2="62.1545" gradientUnits="userSpaceOnUse">
<stop stop-color="#20AEDB"/>
<stop offset="1" stop-color="#58BF9B"/>
</linearGradient>
<linearGradient id="paint3_linear" x1="-0.140013" y1="58.7529" x2="62.95" y2="58.7529" gradientUnits="userSpaceOnUse">
<stop stop-color="#20AEDB"/>
<stop offset="1" stop-color="#58BF9B"/>
</linearGradient>
<linearGradient id="paint4_linear" x1="-0.140118" y1="44.465" x2="62.9499" y2="44.465" gradientUnits="userSpaceOnUse">
<stop stop-color="#20AEDB"/>
<stop offset="1" stop-color="#58BF9B"/>
</linearGradient>
<linearGradient id="paint5_linear" x1="-0.140137" y1="58.7578" x2="62.9499" y2="58.7578" gradientUnits="userSpaceOnUse">
<stop stop-color="#20AEDB"/>
<stop offset="1" stop-color="#58BF9B"/>
</linearGradient>
<linearGradient id="paint6_linear" x1="-0.140182" y1="62.1473" x2="62.9499" y2="62.1473" gradientUnits="userSpaceOnUse">
<stop stop-color="#20AEDB"/>
<stop offset="1" stop-color="#58BF9B"/>
</linearGradient>
</defs>
</svg>
