<svg width="67" height="80" viewBox="0 0 67 80" fill="none" xmlns="http://www.w3.org/2000/svg">
<path d="M38.4985 22.9569C35.9682 23.2649 33.3333 22.4641 31.4094 20.5544C28.0635 17.269 28.0635 11.9507 31.4094 8.6653C34.2952 5.83162 38.7494 5.44148 42.0535 7.5154L40.4433 9.8152L33.8979 19.0349C34.8807 19.7947 36.1145 20.2464 37.4529 20.2464C39.2095 20.2464 40.7569 19.4867 41.8025 18.2752L42.4717 17.3306L45.7758 12.6694L49.9999 6.71458C48.8707 5.01027 47.4069 3.55236 45.6712 2.423C43.3082 0.90349 40.506 0 37.4738 0C29.2346 0 22.5637 6.55031 22.5637 14.6407C22.5637 21.6632 27.5825 27.5154 34.2952 28.9528L38.4985 22.9569Z" fill="#121E31"/>
<path d="M51.4637 9.60987L44.6047 19.2403L30.1547 39.5277H38.1429C38.1429 39.5277 48.1806 25.3183 50.0417 22.4641C50.0626 22.423 50.0835 22.3819 50.1254 22.3409C50.1881 22.2587 50.2299 22.1766 50.2717 22.115C50.2717 22.0945 50.2927 22.0945 50.2927 22.0739C51.6101 19.8973 52.3838 17.3306 52.3838 14.5996C52.3629 12.8542 52.0492 11.1704 51.4637 9.60987Z" fill="#121E31"/>
<path d="M1.31744 76.1807L0.020913 79.0965L0 79.1375H0.376412L0.773738 78.1519H2.19573L2.59306 79.117V79.1375H2.94856L1.67294 76.1807H1.31744ZM2.07027 77.8234H0.941029L1.50565 76.5503L2.07027 77.8234Z" fill="#121E31"/>
<path d="M5.2488 78.4599C5.22789 78.4805 5.22789 78.4805 5.22789 78.501C5.22789 78.501 5.22789 78.501 5.22789 78.5215C5.20698 78.5626 5.16515 78.6037 5.12333 78.6447C5.08151 78.6858 5.01877 78.7269 4.95604 78.7679C4.8933 78.809 4.83057 78.8295 4.74692 78.8501C4.64236 78.8706 4.5378 78.8911 4.43324 78.8706C4.39142 78.8706 4.37051 78.8501 4.32868 78.8501C4.28686 78.8501 4.26595 78.8295 4.22413 78.809C4.1823 78.7885 4.14048 78.7679 4.11957 78.7474C4.09866 78.7269 4.07774 78.7269 4.05683 78.7063C4.03592 78.6858 4.01501 78.6858 3.9941 78.6653L3.97318 78.6447L3.95227 78.6242C3.93136 78.6242 3.93136 78.6037 3.93136 78.6037L3.91045 78.5831C3.88954 78.5626 3.84772 78.5215 3.8268 78.4805C3.80589 78.4394 3.78498 78.3983 3.76407 78.3572C3.74315 78.3162 3.72225 78.2546 3.72225 78.2135C3.72225 78.1724 3.70133 78.1108 3.70133 78.0698C3.70133 78.0492 3.70133 78.0287 3.70133 78.0082V77.9466C3.70133 77.926 3.72225 77.9055 3.72225 77.8644C3.72225 77.8439 3.72224 77.8234 3.74315 77.8028C3.74315 77.7823 3.76407 77.7823 3.76407 77.7618C3.76407 77.7412 3.76407 77.7412 3.78498 77.7207C3.78498 77.7002 3.80589 77.7002 3.80589 77.6796C3.80589 77.6591 3.8268 77.6591 3.8268 77.6386C3.84772 77.577 3.88954 77.5359 3.93136 77.4948C3.97319 77.4538 4.03592 77.4127 4.09865 77.3716C4.16139 77.3306 4.22412 77.31 4.30777 77.2895C4.37051 77.269 4.45415 77.2484 4.51689 77.2484H4.5378H4.57962C4.66327 77.2484 4.726 77.2484 4.78874 77.269C4.85147 77.2895 4.93512 77.31 4.99786 77.3306C5.06059 77.3511 5.12333 77.3922 5.16515 77.4332C5.20698 77.4743 5.2488 77.5359 5.29063 77.5975V77.618L5.68795 77.6386L5.66704 77.5975C5.6043 77.4948 5.54157 77.3922 5.47883 77.31C5.4161 77.2279 5.33245 77.1457 5.2488 77.1047C5.16515 77.0431 5.08151 77.002 4.97695 76.9609C4.8933 76.9199 4.78874 76.8993 4.70509 76.8993H4.68418H4.62145H4.57962C4.43324 76.8993 4.28686 76.9199 4.16139 76.9815C4.03592 77.0225 3.91045 77.1047 3.78498 77.2073C3.65951 77.31 3.57586 77.4332 3.51313 77.577C3.45039 77.7207 3.40857 77.885 3.40857 78.0492C3.40857 78.2135 3.42948 78.3778 3.49222 78.501C3.55495 78.6447 3.63859 78.7679 3.76407 78.8706C3.88954 78.9733 4.01501 79.0554 4.14048 79.117C4.26595 79.1581 4.41233 79.1991 4.57962 79.1991C4.60053 79.1991 4.62145 79.1991 4.64236 79.1991C4.66327 79.1991 4.68418 79.1991 4.70509 79.1991C4.72601 79.1991 4.74692 79.1991 4.76783 79.1991C4.78874 79.1991 4.80965 79.1991 4.83057 79.1786C4.91421 79.1581 4.99786 79.1375 5.08151 79.0965C5.16516 79.0554 5.2488 79.0143 5.31153 78.9527C5.39518 78.8911 5.45792 78.8295 5.54156 78.7474C5.6043 78.6653 5.66703 78.5831 5.72977 78.4805L5.75068 78.4394L5.2488 78.4599Z" fill="#121E31"/>
<path d="M7.94643 78.4599C7.92552 78.4805 7.92552 78.4805 7.92552 78.501C7.92552 78.501 7.92552 78.501 7.92552 78.5215C7.90461 78.5626 7.86278 78.6037 7.82096 78.6447C7.77914 78.6858 7.7164 78.7269 7.65367 78.7679C7.59093 78.809 7.5282 78.8295 7.44455 78.8501C7.33999 78.8706 7.23543 78.8911 7.13088 78.8706C7.08905 78.8706 7.06814 78.8501 7.02632 78.8501C6.98449 78.8501 6.96358 78.8295 6.92176 78.809C6.87993 78.7885 6.83811 78.7679 6.8172 78.7474C6.79629 78.7269 6.77538 78.7269 6.75447 78.7063C6.73355 78.6858 6.71264 78.6858 6.69173 78.6653L6.67081 78.6447L6.64991 78.6242C6.629 78.6242 6.62899 78.6037 6.62899 78.6037L6.60808 78.5831C6.58717 78.5626 6.54535 78.5215 6.52444 78.4805C6.50352 78.4394 6.48261 78.3983 6.4617 78.3572C6.44079 78.3162 6.41988 78.2546 6.41988 78.2135C6.41988 78.1724 6.39896 78.1108 6.39896 78.0698C6.39896 78.0492 6.39896 78.0287 6.39896 78.0082V77.9466C6.39896 77.926 6.41988 77.9055 6.41988 77.8644C6.41988 77.8439 6.41988 77.8234 6.44079 77.8028C6.44079 77.7823 6.4617 77.7823 6.4617 77.7618C6.4617 77.7412 6.4617 77.7412 6.48261 77.7207C6.48261 77.7002 6.50352 77.7002 6.50352 77.6796C6.50352 77.6591 6.52444 77.6591 6.52444 77.6386C6.54535 77.577 6.58717 77.5359 6.62899 77.4948C6.67082 77.4538 6.73355 77.4127 6.79629 77.3716C6.85902 77.3306 6.92176 77.31 7.0054 77.2895C7.06814 77.269 7.15179 77.2484 7.21452 77.2484H7.23543H7.27726C7.36091 77.2484 7.42364 77.2484 7.48638 77.269C7.54911 77.2895 7.63276 77.31 7.6955 77.3306C7.75823 77.3511 7.82096 77.3922 7.86279 77.4332C7.90461 77.4743 7.94644 77.5359 7.98826 77.5975V77.618L8.38558 77.6386L8.36467 77.5975C8.30193 77.4948 8.2392 77.3922 8.17646 77.31C8.11373 77.2279 8.03008 77.1457 7.94643 77.1047C7.86279 77.0431 7.77914 77.002 7.67458 76.9609C7.59094 76.9199 7.48637 76.8993 7.40273 76.8993H7.38182H7.31908H7.27726C7.13088 76.8993 6.9845 76.9199 6.85903 76.9815C6.73355 77.0225 6.60808 77.1047 6.48261 77.2073C6.35714 77.31 6.2735 77.4332 6.21076 77.577C6.14802 77.7207 6.1062 77.885 6.1062 78.0492C6.1062 78.2135 6.12711 78.3778 6.18985 78.501C6.25258 78.6447 6.33623 78.7679 6.4617 78.8706C6.58717 78.9733 6.71264 79.0554 6.83811 79.117C6.96358 79.1581 7.10997 79.1991 7.27726 79.1991C7.29817 79.1991 7.31908 79.1991 7.33999 79.1991C7.3609 79.1991 7.38181 79.1991 7.40273 79.1991C7.42364 79.1991 7.44455 79.1991 7.46546 79.1991C7.48638 79.1991 7.50729 79.1991 7.5282 79.1786C7.61184 79.1581 7.69549 79.1375 7.77914 79.0965C7.86279 79.0554 7.94644 79.0143 8.00917 78.9527C8.09282 78.8911 8.15555 78.8295 8.2392 78.7474C8.30193 78.6653 8.36467 78.5831 8.42741 78.4805L8.44831 78.4394L7.94643 78.4599Z" fill="#121E31"/>
<path d="M10.6441 77.2073C10.5187 77.1047 10.4141 77.0431 10.2886 76.9815C10.1632 76.9404 10.0377 76.8993 9.89131 76.8993H9.82857C9.68219 76.8993 9.55672 76.9199 9.43125 76.9815C9.30578 77.0225 9.18031 77.1047 9.07575 77.1868C8.97119 77.2895 8.86663 77.3922 8.8039 77.5359C8.74116 77.6796 8.69934 77.8439 8.69934 78.0082C8.69934 78.1724 8.74116 78.3367 8.8039 78.4804C8.86663 78.6242 8.95028 78.7474 9.07575 78.8501C9.20122 78.9527 9.32669 79.0349 9.45217 79.0759C9.57764 79.117 9.72402 79.1581 9.8704 79.1581H9.93313C10.0377 79.1581 10.1423 79.1375 10.2468 79.0965C10.3514 79.0554 10.435 79.0143 10.5396 78.9527C10.6441 78.8911 10.7278 78.809 10.7905 78.7269C10.8533 78.6242 10.916 78.5215 10.9787 78.3983L10.9996 78.3572L10.6232 78.3778V78.3983C10.6023 78.4599 10.5605 78.5215 10.5187 78.5626C10.4768 78.6242 10.4141 78.6653 10.3514 78.7063C10.2886 78.7474 10.205 78.7679 10.1423 78.7885C10.0586 78.809 9.99587 78.8295 9.91222 78.8295H9.80766C9.72401 78.8295 9.64037 78.809 9.57764 78.7679C9.49399 78.7269 9.43125 78.6858 9.34761 78.6447C9.28487 78.5831 9.22213 78.5215 9.18031 78.4189C9.13849 78.3367 9.11757 78.234 9.09666 78.1108H11.0415V78.0082C11.0415 77.8234 11.0205 77.6591 10.9578 77.5154C10.8532 77.4127 10.7696 77.2895 10.6441 77.2073ZM10.665 77.8439H9.05484V77.8234C9.05484 77.8028 9.07575 77.7823 9.07575 77.7412C9.09666 77.7207 9.09666 77.6796 9.11758 77.6386C9.13849 77.5975 9.1594 77.577 9.18031 77.5359C9.20122 77.4948 9.24304 77.4538 9.28487 77.4127C9.32669 77.3716 9.36852 77.3305 9.43125 77.31C9.47308 77.2689 9.53581 77.2484 9.61946 77.2279C9.68219 77.2073 9.76584 77.1868 9.8704 77.1868C9.97496 77.1868 10.0795 77.2279 10.1632 77.2484C10.2468 77.2895 10.3305 77.3306 10.3932 77.3922C10.4559 77.4538 10.5187 77.5359 10.5605 77.618C10.6023 77.7002 10.6441 77.7823 10.665 77.8439Z" fill="#121E31"/>
<path d="M11.8779 76.1807H11.5433V79.1375H11.8779V76.1807Z" fill="#121E31"/>
<path d="M14.3037 77.2073C14.1782 77.1047 14.0737 77.0431 13.9482 76.9815C13.8227 76.9404 13.6972 76.8993 13.5509 76.8993H13.4881C13.3417 76.8993 13.2163 76.9199 13.0908 76.9815C12.9653 77.0225 12.8399 77.1047 12.7353 77.1868C12.6307 77.2895 12.5262 77.3922 12.4634 77.5359C12.4007 77.6796 12.3589 77.8439 12.3589 78.0082C12.3589 78.1724 12.4007 78.3367 12.4634 78.4804C12.5262 78.6242 12.6098 78.7474 12.7353 78.8501C12.8608 78.9527 12.9862 79.0349 13.1117 79.0759C13.2372 79.117 13.3836 79.1581 13.5299 79.1581H13.5927C13.6972 79.1581 13.8018 79.1375 13.9064 79.0965C14.0109 79.0554 14.0946 79.0143 14.1991 78.9527C14.3037 78.8911 14.3873 78.809 14.4501 78.7269C14.5128 78.6242 14.5755 78.5215 14.6383 78.3983L14.6592 78.3572L14.2828 78.3778V78.3983C14.2619 78.4599 14.22 78.5215 14.1782 78.5626C14.1364 78.6242 14.0737 78.6653 14.0109 78.7063C13.9482 78.7474 13.8645 78.7679 13.8018 78.7885C13.7182 78.809 13.6554 78.8295 13.5718 78.8295H13.4672C13.3836 78.8295 13.2999 78.809 13.2372 78.7679C13.1535 78.7269 13.0908 78.6858 13.0072 78.6447C12.9444 78.5831 12.8817 78.5215 12.8399 78.4189C12.798 78.3367 12.7771 78.234 12.7562 78.1108H14.701V78.0082C14.701 77.8234 14.6801 77.6591 14.6174 77.5154C14.5128 77.4127 14.4082 77.2895 14.3037 77.2073ZM14.3037 77.8439H12.6935V77.8234C12.6935 77.8028 12.7144 77.7823 12.7144 77.7412C12.7353 77.7207 12.7353 77.6796 12.7562 77.6386C12.7771 77.5975 12.798 77.577 12.8189 77.5359C12.8399 77.4948 12.8817 77.4538 12.9235 77.4127C12.9653 77.3716 13.0072 77.3305 13.0699 77.31C13.1117 77.2689 13.1744 77.2484 13.2581 77.2279C13.3208 77.2073 13.4045 77.1868 13.509 77.1868C13.6136 77.1868 13.7182 77.2279 13.8018 77.2484C13.8854 77.2895 13.9691 77.3306 14.0318 77.3922C14.0946 77.4538 14.1573 77.5359 14.1991 77.618C14.2409 77.7002 14.2828 77.7823 14.3037 77.8439Z" fill="#121E31"/>
<path d="M15.8511 76.9198C15.7883 76.9404 15.7256 76.9609 15.6628 76.9815C15.6001 77.002 15.5583 77.0431 15.5165 77.0841C15.4956 77.1047 15.4746 77.1252 15.4537 77.1663V76.9404H15.1191V79.158H15.4537V77.8233C15.4537 77.7617 15.4746 77.7001 15.4955 77.6591C15.5165 77.618 15.5583 77.5564 15.6001 77.5153C15.6419 77.4743 15.6838 77.4332 15.7465 77.4127C15.7883 77.3921 15.851 77.3511 15.9138 77.3305C15.9347 77.3305 15.9347 77.31 15.9556 77.31C15.9765 77.31 15.9974 77.31 15.9974 77.2895C16.0183 77.2895 16.0183 77.2895 16.0393 77.2895C16.0602 77.2895 16.0811 77.2895 16.102 77.2689H16.1229V76.9198H16.102C15.9974 76.8993 15.9138 76.8993 15.8511 76.9198Z" fill="#121E31"/>
<path d="M18.4233 77.2484C18.3815 77.2074 18.3396 77.1663 18.2978 77.1252C18.2351 77.0841 18.1723 77.0225 18.0887 77.002C18.0051 76.9609 17.9423 76.9404 17.8587 76.9199C17.775 76.8993 17.7123 76.8993 17.6286 76.8788H17.5032C17.3568 76.8788 17.2313 76.9199 17.0849 76.9815C16.9595 77.0431 16.834 77.1047 16.7085 77.2074C16.5831 77.31 16.4994 77.4332 16.4367 77.5564C16.3739 77.6796 16.353 77.8439 16.353 78.0082V78.0287V78.0492V78.0698C16.353 78.234 16.3739 78.3572 16.4367 78.501C16.4994 78.6242 16.5831 78.7474 16.6876 78.8295C16.7922 78.9117 16.9176 78.9938 17.0431 79.0554C17.1686 79.117 17.2941 79.1375 17.4195 79.1581H17.4404C17.4404 79.1581 17.4404 79.1581 17.4613 79.1581H17.5241H17.6077H17.6286C17.7123 79.1581 17.7959 79.1375 17.8587 79.117C17.9423 79.0965 18.0051 79.0759 18.0887 79.0349C18.1723 78.9938 18.2351 78.9527 18.2978 78.9117C18.3396 78.8706 18.3815 78.8295 18.4024 78.7885V79.0965H18.6951V76.8788H18.4233V77.2484ZM18.3815 78.1519C18.3606 78.234 18.3396 78.3367 18.2978 78.4189C18.256 78.501 18.1933 78.5831 18.1305 78.6653C18.0678 78.7474 17.9841 78.7885 17.9005 78.8295C17.8168 78.8706 17.7123 78.8911 17.6286 78.8911C17.4823 78.8911 17.3359 78.8706 17.2313 78.8295C17.1268 78.7885 17.0222 78.7269 16.9595 78.6447C16.8967 78.5626 16.834 78.4805 16.7922 78.3778C16.7504 78.2751 16.7294 78.1724 16.7294 78.0492V78.0287V77.9876V77.9671C16.7294 77.9466 16.7294 77.926 16.7294 77.926C16.7294 77.9055 16.7294 77.885 16.7294 77.885C16.7294 77.8644 16.7503 77.8439 16.7503 77.8234C16.7503 77.8028 16.7713 77.7823 16.7713 77.7618C16.7922 77.7002 16.834 77.6386 16.8758 77.577C16.9176 77.5154 16.9804 77.4538 17.0431 77.4127C17.1058 77.3511 17.1895 77.31 17.2731 77.2895C17.3568 77.269 17.4404 77.2484 17.5241 77.2484H17.5868C17.6914 77.2484 17.7959 77.269 17.9005 77.31C17.9841 77.3511 18.0678 77.3922 18.1305 77.4538C18.1933 77.5154 18.256 77.5975 18.2978 77.6796C18.3396 77.7618 18.3606 77.8644 18.3815 77.9466V78.0903V78.1108V78.1519Z" fill="#121E31"/>
<path d="M19.9289 76.2218H19.5943V76.9405H19.1552V77.2895H19.5943V79.1376H19.9289V77.2895H20.4517V76.9405H19.9289V76.2218Z" fill="#121E31"/>
<path d="M22.6893 77.2073C22.5638 77.1047 22.4593 77.0431 22.3338 76.9815C22.2083 76.9404 22.0829 76.8993 21.9365 76.8993H21.8737C21.7274 76.8993 21.6019 76.9199 21.4764 76.9815C21.3509 77.0225 21.2255 77.1047 21.1209 77.1868C21.0164 77.2895 20.9118 77.3922 20.8491 77.5359C20.7863 77.6796 20.7445 77.8439 20.7445 78.0082C20.7445 78.1724 20.7863 78.3367 20.8491 78.4804C20.9118 78.6242 20.9954 78.7474 21.1209 78.8501C21.2464 78.9527 21.3719 79.0349 21.4973 79.0759C21.6228 79.117 21.7692 79.1581 21.9156 79.1581H21.9783C22.0829 79.1581 22.1874 79.1375 22.292 79.0965C22.3965 79.0554 22.4802 79.0143 22.5847 78.9527C22.6893 78.8911 22.7729 78.809 22.8357 78.7269C22.8984 78.6242 22.9611 78.5215 23.0239 78.3983L23.0448 78.3572L22.6684 78.3778V78.3983C22.6475 78.4599 22.6056 78.5215 22.5638 78.5626C22.522 78.6242 22.4593 78.6653 22.3965 78.7063C22.3338 78.7474 22.2501 78.7679 22.1874 78.7885C22.1038 78.809 22.041 78.8295 21.9574 78.8295H21.8528C21.7692 78.8295 21.6855 78.809 21.6228 78.7679C21.5391 78.7269 21.4764 78.6858 21.3928 78.6447C21.33 78.5831 21.2673 78.5215 21.2255 78.4189C21.1836 78.3367 21.1627 78.234 21.1418 78.1108H23.0866V78.0082C23.0866 77.8234 23.0657 77.6591 23.003 77.5154C22.8984 77.4127 22.7939 77.2895 22.6893 77.2073ZM22.6893 77.8439H21.0791V77.8234C21.0791 77.8028 21.1 77.7823 21.1 77.7412C21.1209 77.7207 21.1209 77.6796 21.1418 77.6386C21.1627 77.5975 21.1836 77.577 21.2046 77.5359C21.2255 77.4948 21.2673 77.4538 21.3091 77.4127C21.3509 77.3716 21.3928 77.3305 21.4555 77.31C21.4973 77.2689 21.5601 77.2484 21.6437 77.2279C21.7064 77.2073 21.7901 77.1868 21.8946 77.1868C21.9992 77.1868 22.1038 77.2279 22.1874 77.2484C22.2711 77.2895 22.3547 77.3306 22.4174 77.3922C22.4802 77.4538 22.5429 77.5359 22.5847 77.618C22.6266 77.7002 22.6684 77.7823 22.6893 77.8439Z" fill="#121E31"/>
<path d="M26.558 78.6242L25.8888 76.961V76.9405H25.4915L26.3279 79.0554L25.9515 79.8973H26.3488L27.6454 76.9405H27.2271L26.558 78.6242Z" fill="#121E31"/>
<path d="M29.9457 77.2073C29.8411 77.1047 29.7156 77.0431 29.5902 76.9815C29.4647 76.9404 29.3183 76.8993 29.151 76.8993C28.9628 76.8993 28.7955 76.9199 28.6491 76.9815C28.5028 77.0431 28.3773 77.1252 28.2518 77.2279C28.1473 77.3306 28.0636 77.4538 28.0009 77.577C27.9381 77.7002 27.9172 77.8439 27.9172 77.9876C27.9172 78.1724 27.9591 78.3367 28.0218 78.4804C28.0845 78.6242 28.1682 78.7474 28.2937 78.8501C28.4191 78.9527 28.5446 79.0143 28.6701 79.0759C28.8164 79.117 28.9628 79.1581 29.1092 79.1581C29.2765 79.1581 29.4229 79.1375 29.5693 79.0759C29.7156 79.0143 29.8411 78.9322 29.9457 78.8295C30.0502 78.7269 30.1339 78.5831 30.1966 78.4394C30.2594 78.2956 30.2803 78.1108 30.2803 77.926C30.2803 77.7823 30.2594 77.6386 30.1966 77.5154C30.1339 77.4127 30.0502 77.2895 29.9457 77.2073ZM28.2727 78.0082C28.2727 77.9055 28.2936 77.8028 28.3355 77.7002C28.3773 77.618 28.4191 77.5359 28.5028 77.4538C28.5655 77.3716 28.6491 77.3306 28.7328 77.2895C28.8164 77.2484 28.921 77.2279 29.0256 77.2279H29.0883C29.1929 77.2279 29.2974 77.2484 29.3811 77.2895C29.4647 77.3306 29.5693 77.3716 29.632 77.4332C29.7157 77.4948 29.7784 77.577 29.7993 77.6591C29.8411 77.7412 29.862 77.8439 29.862 77.9466C29.862 78.0903 29.8411 78.234 29.7993 78.3367C29.7575 78.4394 29.6947 78.5421 29.6111 78.6037C29.5274 78.6653 29.4438 78.7269 29.3601 78.7679C29.2765 78.809 29.1719 78.8295 29.0883 78.8501H29.0674H29.0047H28.9837H28.9628C28.8792 78.8295 28.7955 78.809 28.7328 78.7679C28.6491 78.7269 28.5864 78.6653 28.5028 78.6037C28.44 78.5215 28.3773 78.4394 28.3564 78.3367C28.3146 78.234 28.2937 78.1314 28.2727 78.0082Z" fill="#121E31"/>
<path d="M32.3087 78.2341C32.3087 78.3368 32.2877 78.4189 32.2668 78.501C32.2459 78.5832 32.1832 78.6448 32.1205 78.7064C32.0577 78.768 31.995 78.809 31.9322 78.8296C31.8695 78.8501 31.7859 78.8706 31.7231 78.8912H31.7022H31.6604C31.5767 78.8912 31.514 78.8706 31.4513 78.8501C31.3885 78.8296 31.3258 78.7885 31.2631 78.7269C31.2003 78.6653 31.1585 78.6037 31.1167 78.5216C31.0958 78.4394 31.0749 78.3368 31.0749 78.2341V76.9405H30.7194V78.2136V78.2341V78.2546V78.2752V78.2957C30.7194 78.4394 30.7403 78.5626 30.7821 78.6653C30.8239 78.768 30.9076 78.8706 30.9912 78.9528C31.0749 79.0349 31.1794 79.076 31.284 79.1171C31.3885 79.1581 31.4931 79.1786 31.6186 79.1786H31.7022H31.7859C31.8486 79.1786 31.9113 79.1581 31.9532 79.1376C32.0159 79.1171 32.0577 79.0965 32.1205 79.076C32.1832 79.0554 32.225 79.0144 32.2668 78.9733C32.2877 78.9528 32.3296 78.9322 32.3505 78.8912V79.0965H32.6851V76.9405H32.3087V78.2341Z" fill="#121E31"/>
<path d="M33.9398 76.9198C33.8771 76.9404 33.8143 76.9609 33.7516 76.9815C33.6889 77.002 33.647 77.0431 33.6052 77.0841C33.5843 77.1047 33.5634 77.1252 33.5425 77.1663V76.9404H33.2079V79.158H33.5425V77.8233C33.5425 77.7617 33.5634 77.7001 33.5843 77.6591C33.6052 77.618 33.647 77.5564 33.6889 77.5153C33.7307 77.4743 33.7725 77.4332 33.8352 77.4127C33.8771 77.3921 33.9398 77.3511 34.0025 77.3305C34.0234 77.3305 34.0234 77.31 34.0444 77.31C34.0653 77.31 34.0862 77.31 34.0862 77.2895C34.1071 77.2895 34.1071 77.2895 34.128 77.2895C34.1489 77.2895 34.1698 77.2895 34.1907 77.2689H34.2116V76.9198H34.1907C34.0862 76.8993 34.0025 76.8993 33.9398 76.9198Z" fill="#121E31"/>
<path d="M38.8958 76.6119C38.7494 76.4682 38.5612 76.3655 38.3521 76.3039C38.143 76.2423 37.8921 76.2012 37.5993 76.2012H36.7628V79.1581H37.7875H37.8502C37.8711 79.1581 37.8711 79.1581 37.8921 79.1581C37.913 79.1581 37.913 79.1581 37.9339 79.1581C38.1012 79.1376 38.2685 79.0965 38.4358 79.0349C38.5821 78.9733 38.7494 78.8706 38.8958 78.7474C39.0422 78.6242 39.1468 78.4805 39.2304 78.2957C39.2931 78.1314 39.335 77.9261 39.335 77.7002C39.335 77.4743 39.2931 77.269 39.2304 77.0842C39.1468 76.8994 39.0422 76.7351 38.8958 76.6119ZM38.9795 77.7002C38.9795 77.8645 38.9585 78.0287 38.8958 78.1725C38.8331 78.3162 38.7494 78.4394 38.624 78.5421C38.4985 78.6447 38.373 78.7269 38.2475 78.7679C38.1221 78.8295 37.9757 78.8501 37.8502 78.8501H37.8293H37.1183V76.4887H37.6411C37.892 76.4887 38.1012 76.5298 38.2685 76.5914C38.4358 76.653 38.5821 76.7351 38.6867 76.8583C38.7913 76.9815 38.8749 77.1047 38.9167 77.2484C38.9376 77.3922 38.9795 77.5359 38.9795 77.7002Z" fill="#121E31"/>
<path d="M40.2551 76.1807H39.9205V76.7145H40.2551V76.1807Z" fill="#121E31"/>
<path d="M40.2551 76.9199H39.9205V79.1376H40.2551V76.9199Z" fill="#121E31"/>
<path d="M42.7018 77.269C42.6809 77.2279 42.639 77.1868 42.5972 77.1663C42.5345 77.1047 42.4717 77.0636 42.3881 77.0225C42.3045 76.9815 42.2208 76.9404 42.1372 76.9199C42.0535 76.8993 41.9699 76.8788 41.8862 76.8788H41.7189C41.5935 76.8993 41.4889 76.9199 41.3634 76.9815C41.2589 77.0431 41.1543 77.1047 41.0498 77.1868C40.9452 77.269 40.8616 77.3922 40.8197 77.5359C40.757 77.6796 40.7361 77.8234 40.7361 78.0082V78.0287V78.0492C40.7361 78.234 40.757 78.3778 40.7988 78.5215C40.8406 78.6447 40.9243 78.7679 41.0288 78.8501C41.1334 78.9322 41.238 78.9938 41.3425 79.0554C41.4471 79.0965 41.5725 79.1375 41.698 79.1375H41.7189C41.7189 79.1375 41.7189 79.1375 41.7398 79.1375H41.8026C41.8026 79.1375 41.8026 79.1375 41.8235 79.1375H41.8653C41.9699 79.1375 42.0744 79.1375 42.1581 79.117C42.2626 79.0965 42.3463 79.0759 42.4299 79.0349C42.5136 78.9938 42.5972 78.9527 42.6599 78.8911C42.6809 78.8706 42.7018 78.8295 42.7227 78.809V78.8295C42.7227 78.9527 42.7018 79.0554 42.6599 79.1581C42.6181 79.2402 42.5554 79.3223 42.4717 79.4045C42.3881 79.4661 42.3044 79.5277 42.2208 79.5687C42.1372 79.6098 42.0326 79.6303 41.949 79.6303H41.8444C41.7817 79.6303 41.698 79.6098 41.6353 79.5893C41.5725 79.5687 41.4889 79.5277 41.4262 79.4866C41.3634 79.4455 41.3007 79.4045 41.2589 79.3429C41.2171 79.2813 41.1752 79.2197 41.1334 79.1375V79.117H40.7988V79.1581C40.8406 79.2813 40.9034 79.4045 40.9661 79.5071C41.0288 79.6098 41.1334 79.6919 41.238 79.7741C41.3425 79.8357 41.4471 79.8973 41.5516 79.9384C41.6562 79.9794 41.7817 80 41.8862 80H41.949C42.0953 80 42.2208 79.9794 42.3463 79.9384C42.4717 79.8973 42.5972 79.8152 42.7018 79.733C42.8272 79.6303 42.9109 79.5277 42.9736 79.3839C43.0364 79.2402 43.0573 79.0759 43.0573 78.8911V76.9404H42.7018V77.269ZM42.6599 77.7207C42.7018 77.8028 42.7227 77.885 42.7227 77.9876C42.7227 78.1519 42.7018 78.2956 42.6599 78.3983C42.6181 78.501 42.5554 78.6037 42.4717 78.6653C42.3881 78.7269 42.3045 78.7885 42.1999 78.809C42.0953 78.8501 42.0117 78.8501 41.8862 78.8501C41.7608 78.8501 41.6562 78.8295 41.5516 78.7885C41.468 78.7474 41.3843 78.6858 41.3007 78.6037C41.238 78.5215 41.1752 78.4394 41.1543 78.3367C41.1125 78.234 41.1125 78.1314 41.1125 78.0082V77.9876V77.9671V77.9466C41.1125 77.926 41.1125 77.9055 41.1125 77.885C41.1125 77.8644 41.1334 77.8234 41.1334 77.8028C41.1334 77.7823 41.1543 77.7412 41.1752 77.7002C41.1961 77.6591 41.217 77.6386 41.238 77.5975C41.2589 77.5564 41.3007 77.5154 41.3425 77.4743C41.3843 77.4332 41.4262 77.3922 41.4889 77.3511C41.5307 77.31 41.5935 77.2895 41.6771 77.269C41.7398 77.2484 41.8235 77.2279 41.9071 77.2074H41.949H41.9908H42.0117C42.0953 77.2279 42.179 77.2484 42.2626 77.2895C42.3463 77.3306 42.4299 77.3922 42.4927 77.4538C42.5554 77.5564 42.6181 77.6386 42.6599 77.7207Z" fill="#121E31"/>
<path d="M43.9983 76.9199H43.6637V79.1376H43.9983V76.9199Z" fill="#121E31"/>
<path d="M43.9983 76.1807H43.6637V76.7145H43.9983V76.1807Z" fill="#121E31"/>
<path d="M45.1484 76.2218H44.8138V76.9405H44.3746V77.2895H44.8138V79.1376H45.1484V77.2895H45.6502V76.9405H45.1484V76.2218Z" fill="#121E31"/>
<path d="M48.0134 77.2484C47.9716 77.2074 47.9297 77.1663 47.8879 77.1252C47.8252 77.0841 47.7624 77.0225 47.6788 77.002C47.5951 76.9609 47.5324 76.9404 47.4488 76.9199C47.3651 76.8993 47.3024 76.8993 47.2187 76.8788H47.0933C46.9469 76.8788 46.8214 76.9199 46.675 76.9815C46.5496 77.0431 46.4241 77.1047 46.2986 77.2074C46.1731 77.31 46.0895 77.4332 46.0268 77.5564C45.964 77.6796 45.9431 77.8439 45.9431 78.0082V78.0287V78.0492V78.0698C45.9431 78.234 45.964 78.3778 46.0268 78.501C46.0895 78.6242 46.1731 78.7474 46.2777 78.8295C46.3823 78.9117 46.5077 78.9938 46.6332 79.0554C46.7587 79.117 46.8841 79.1375 47.0096 79.1581H47.0305C47.0305 79.1581 47.0305 79.1581 47.0514 79.1581H47.1142H47.1978H47.2187C47.3024 79.1581 47.386 79.1375 47.4488 79.117C47.5324 79.0965 47.5951 79.0759 47.6788 79.0349C47.7624 78.9938 47.8252 78.9527 47.8879 78.9117C47.9297 78.8706 47.9716 78.8295 47.9925 78.7885V79.0965H48.2852V76.8788H47.9925V77.2484H48.0134ZM47.9925 78.1519C47.9716 78.234 47.9506 78.3367 47.9088 78.4189C47.867 78.501 47.8043 78.5831 47.7415 78.6653C47.6788 78.7474 47.5951 78.809 47.5115 78.8295C47.4279 78.8706 47.3233 78.8911 47.2396 78.8911C47.0933 78.8911 46.9469 78.8706 46.8423 78.8295C46.7378 78.7885 46.6332 78.7269 46.5705 78.6447C46.5077 78.5626 46.445 78.4805 46.4032 78.3778C46.3613 78.2751 46.3404 78.1724 46.3404 78.0492V78.0287V77.9876V77.9671C46.3404 77.9466 46.3404 77.926 46.3404 77.926C46.3404 77.9055 46.3404 77.885 46.3404 77.885L46.3614 77.8234C46.3614 77.8028 46.3823 77.7823 46.3823 77.7618C46.4032 77.7002 46.445 77.6386 46.4868 77.577C46.5286 77.5154 46.5914 77.4538 46.6541 77.4127C46.7168 77.3511 46.8005 77.31 46.8841 77.2895C46.9678 77.269 47.0514 77.2484 47.1351 77.2484H47.1978C47.3024 77.2484 47.4069 77.269 47.5115 77.31C47.5951 77.3511 47.6788 77.3922 47.7415 77.4538C47.8043 77.5154 47.867 77.5975 47.9088 77.6796C47.9506 77.7618 47.9716 77.8439 47.9925 77.9466V78.0903V78.1108V78.1519Z" fill="#121E31"/>
<path d="M49.3307 76.1807H48.9961V79.1375H49.3307V76.1807Z" fill="#121E31"/>
<path d="M52.0703 79.0144C52.0703 79.0965 52.0703 79.1787 52.0494 79.2403C52.0285 79.3019 52.0076 79.3429 51.9867 79.384C51.9658 79.4251 51.9239 79.4456 51.8821 79.4661C51.8403 79.4867 51.8194 79.5072 51.7985 79.5072H51.7776C51.7776 79.5072 51.7776 79.5072 51.7566 79.5072C51.7566 79.5072 51.7566 79.5072 51.7357 79.5072C51.7357 79.5072 51.7148 79.5072 51.6939 79.5072C51.6939 79.5072 51.673 79.5072 51.6521 79.5072H51.6312H51.5894V79.8563H51.673C51.7567 79.8563 51.8403 79.8357 51.9239 79.8152C51.9867 79.7947 52.0494 79.7536 52.1122 79.7125C52.1749 79.6715 52.2167 79.6099 52.2376 79.5688C52.2795 79.5277 52.3004 79.4661 52.3213 79.4045C52.3422 79.3635 52.3631 79.3224 52.3631 79.2608C52.384 79.2197 52.384 79.1787 52.384 79.1376C52.384 79.0965 52.384 79.076 52.4049 79.0349C52.4049 79.0144 52.4049 78.9938 52.4049 78.9733V76.8378H52.0703V79.0144Z" fill="#121E31"/>
<path d="M52.4049 76.1807H52.0703V76.7145H52.4049V76.1807Z" fill="#121E31"/>
<path d="M54.9142 77.2073C54.8096 77.1047 54.6842 77.0431 54.5587 76.9815C54.4332 76.9404 54.2868 76.8993 54.1195 76.8993C53.9313 76.8993 53.764 76.9199 53.6177 76.9815C53.4713 77.0431 53.3458 77.1252 53.2203 77.2279C53.1158 77.3306 53.0321 77.4538 52.9694 77.577C52.9067 77.7002 52.8857 77.8439 52.8857 77.9876C52.8857 78.1724 52.9276 78.3367 52.9903 78.4804C53.053 78.6242 53.1367 78.7474 53.2622 78.8501C53.3876 78.9527 53.5131 79.0143 53.6386 79.0759C53.7849 79.117 53.9313 79.1581 54.0777 79.1581C54.245 79.1581 54.3914 79.1375 54.5378 79.0759C54.6842 79.0143 54.8096 78.9322 54.9142 78.8295C55.0187 78.7269 55.1024 78.5831 55.1651 78.4394C55.2279 78.2956 55.2488 78.1108 55.2488 77.926C55.2488 77.7823 55.2279 77.6386 55.1651 77.5154C55.1024 77.4127 55.0187 77.2895 54.9142 77.2073ZM53.2622 78.0082C53.2622 77.9055 53.2831 77.8028 53.3249 77.7002C53.3667 77.618 53.4085 77.5359 53.4922 77.4538C53.5549 77.3716 53.6386 77.3306 53.7222 77.2895C53.8059 77.2484 53.9104 77.2279 54.015 77.2279H54.0777C54.1823 77.2279 54.2868 77.2484 54.3705 77.2895C54.4541 77.3306 54.5587 77.3716 54.6214 77.4332C54.7051 77.4948 54.7678 77.577 54.7887 77.6591C54.8305 77.7412 54.8515 77.8439 54.8515 77.9466C54.8515 78.0903 54.8305 78.234 54.7887 78.3367C54.7469 78.4394 54.6842 78.5421 54.6005 78.6037C54.5169 78.6653 54.4332 78.7269 54.3496 78.7679C54.2659 78.809 54.1614 78.8295 54.0777 78.8501H54.0359H54.015H53.9732H53.9522H53.9313C53.8477 78.8295 53.764 78.809 53.7013 78.7679C53.6177 78.7269 53.5549 78.6653 53.4713 78.6037C53.4085 78.5215 53.3458 78.4394 53.3249 78.3367C53.2831 78.234 53.2622 78.1314 53.2622 78.0082Z" fill="#121E31"/>
<path d="M57.2983 78.2341C57.2983 78.3368 57.2774 78.4189 57.2565 78.501C57.2355 78.5832 57.1728 78.6448 57.1101 78.7064C57.0473 78.768 56.9846 78.809 56.9219 78.8296C56.8591 78.8501 56.7755 78.8706 56.7127 78.8912H56.6918H56.65C56.5664 78.8912 56.5036 78.8706 56.4409 78.8501C56.3782 78.8296 56.3154 78.7885 56.2527 78.7269C56.19 78.6653 56.1481 78.6037 56.1063 78.5216C56.0854 78.4394 56.0645 78.3368 56.0645 78.2341V76.9405H55.709V78.2136V78.2341V78.2546V78.2752V78.2957C55.709 78.4394 55.7299 78.5626 55.7717 78.6653C55.8135 78.768 55.8972 78.8706 55.9808 78.9528C56.0645 79.0349 56.169 79.076 56.2736 79.1171C56.3782 79.1581 56.4827 79.1786 56.6082 79.1786H56.6918H56.7755C56.8382 79.1786 56.901 79.1581 56.9428 79.1376C57.0055 79.1171 57.0473 79.0965 57.1101 79.076C57.1728 79.0554 57.2146 79.0144 57.2565 78.9733C57.2774 78.9528 57.3192 78.9322 57.3401 78.8912V79.0965H57.6747V76.9405H57.2983V78.2341Z" fill="#121E31"/>
<path d="M58.9292 76.9198C58.8664 76.9404 58.8037 76.9609 58.741 76.9815C58.6782 77.002 58.6364 77.0431 58.5946 77.0841C58.5737 77.1047 58.5528 77.1252 58.5318 77.1663V76.9404H58.1973V79.158H58.5318V77.8233C58.5318 77.7617 58.5528 77.7001 58.5737 77.6591C58.5946 77.618 58.6364 77.5564 58.6782 77.5153C58.7201 77.4743 58.7619 77.4332 58.8246 77.4127C58.8664 77.3716 58.9292 77.3511 58.9919 77.3305C59.0128 77.3305 59.0128 77.31 59.0337 77.31C59.0546 77.31 59.0756 77.31 59.0756 77.2895C59.0965 77.2895 59.0965 77.2895 59.1174 77.2895C59.1383 77.2895 59.1592 77.2895 59.1801 77.2689H59.201V76.9198H59.1801C59.0546 76.8993 58.9919 76.8993 58.9292 76.9198Z" fill="#121E31"/>
<path d="M61.1877 77.1252C61.1041 77.0636 60.9995 77.002 60.895 76.9609C60.7904 76.9199 60.6859 76.8993 60.5604 76.8993H60.4349C60.3722 76.8993 60.3095 76.9199 60.2467 76.9404C60.184 76.9609 60.1212 76.9815 60.0794 77.002C60.0167 77.0225 59.9749 77.0636 59.9121 77.1047C59.8912 77.1252 59.8494 77.1457 59.8285 77.1663V76.9199H59.4939V79.1375H59.8285V77.8028V77.7618C59.8285 77.6796 59.8494 77.5975 59.8703 77.5359C59.9121 77.4743 59.954 77.4127 60.0167 77.3511C60.0794 77.31 60.1631 77.269 60.2258 77.2279C60.2885 77.2073 60.3722 77.1868 60.4558 77.1868H60.5395C60.6231 77.1868 60.6859 77.2073 60.7486 77.2279C60.8113 77.2484 60.8741 77.2895 60.9368 77.3511C60.9995 77.3922 61.0414 77.4538 61.0832 77.5359C61.1041 77.5975 61.125 77.6796 61.125 77.7823V79.1375H61.4596V77.8028C61.4596 77.6591 61.4387 77.5154 61.3969 77.4127C61.355 77.2895 61.2923 77.1868 61.1877 77.1252Z" fill="#121E31"/>
<path d="M63.8855 77.2073C63.76 77.1047 63.6554 77.0431 63.53 76.9815C63.4045 76.9404 63.279 76.8993 63.1326 76.8993H63.0699C62.9235 76.8993 62.7981 76.9199 62.6726 76.9815C62.5471 77.0225 62.4217 77.1047 62.3171 77.1868C62.2125 77.2895 62.108 77.3922 62.0452 77.5359C61.9825 77.6796 61.9407 77.8439 61.9407 78.0082C61.9407 78.1724 61.9825 78.3367 62.0452 78.4804C62.108 78.6242 62.1916 78.7474 62.3171 78.8501C62.4426 78.9527 62.568 79.0349 62.6935 79.0759C62.819 79.117 62.9654 79.1581 63.1117 79.1581H63.1745C63.279 79.1581 63.3836 79.1375 63.4881 79.0965C63.5927 79.0554 63.6764 79.0143 63.7809 78.9527C63.8855 78.8911 63.9691 78.809 64.0318 78.7269C64.0946 78.6242 64.1573 78.5215 64.2201 78.3983L64.241 78.3572L63.8646 78.3778V78.3983C63.8436 78.4599 63.8018 78.5215 63.76 78.5626C63.7182 78.6242 63.6554 78.6653 63.5927 78.7063C63.53 78.7474 63.4463 78.7679 63.3836 78.7885C63.2999 78.809 63.2372 78.8295 63.1536 78.8295H63.049C62.9654 78.8295 62.8817 78.809 62.819 78.7679C62.7353 78.7269 62.6726 78.6858 62.5889 78.6447C62.5262 78.5831 62.4635 78.5215 62.4217 78.4189C62.3798 78.3367 62.3589 78.234 62.338 78.1108H64.2828V78.0082C64.2828 77.8234 64.2619 77.6591 64.1992 77.5154C64.0946 77.4127 64.0109 77.2895 63.8855 77.2073ZM63.9064 77.8439H62.2962V77.8234C62.2962 77.8028 62.3171 77.7823 62.3171 77.7412C62.338 77.7207 62.338 77.6796 62.3589 77.6386C62.3798 77.5975 62.4007 77.577 62.4217 77.5359C62.4426 77.4948 62.4844 77.4538 62.5262 77.4127C62.568 77.3716 62.6098 77.3305 62.6726 77.31C62.7144 77.2689 62.7771 77.2484 62.8608 77.2279C62.9235 77.2073 63.0072 77.1868 63.1117 77.1868C63.2163 77.1868 63.3208 77.2279 63.4045 77.2484C63.4881 77.2895 63.5718 77.3306 63.6345 77.3922C63.6973 77.4538 63.76 77.5359 63.8018 77.618C63.8436 77.7002 63.8646 77.7823 63.9064 77.8439Z" fill="#121E31"/>
<path d="M66.2693 76.9405L65.6001 78.6242L64.9309 76.961L64.91 76.9405H64.5127L65.3701 79.0554L64.9937 79.8768V79.8973H65.391L66.6666 76.9405H66.2693Z" fill="#121E31"/>
<path d="M61.606 62.69C59.3894 64.8666 55.8135 64.8666 53.5968 62.69C51.3802 60.5134 51.3802 57.0021 53.5968 54.8255C55.8135 52.6489 59.3894 52.6489 61.606 54.8255C62.1288 55.3388 62.5471 55.9548 62.8189 56.5914L66.6458 54.9898C65.1401 51.5401 61.6688 49.0965 57.591 49.0965C52.1539 49.0965 47.7625 53.4086 47.7625 58.7475C47.7625 64.0863 52.1539 68.3984 57.591 68.3984H57.6119L52.7604 75.1951H58.0301C58.0301 75.1951 64.6591 65.8111 65.8929 63.922C65.9139 63.9015 65.9348 63.8809 65.9348 63.8399C65.9766 63.7783 65.9975 63.7372 66.0393 63.6961C66.0393 63.6961 66.0393 63.6756 66.0602 63.6756C66.2903 63.306 66.4785 62.9364 66.6458 62.5257L62.798 60.9035C62.5471 61.5606 62.1497 62.1561 61.606 62.69Z" fill="#121E31"/>
<path d="M45.6295 49.076H41.4471V68.4189H45.6295V49.076Z" fill="#121E31"/>
<path d="M43.5384 47.4128C45.2015 47.4128 46.5497 46.0889 46.5497 44.4559C46.5497 42.8228 45.2015 41.499 43.5384 41.499C41.8753 41.499 40.5271 42.8228 40.5271 44.4559C40.5271 46.0889 41.8753 47.4128 43.5384 47.4128Z" fill="#121E31"/>
<path d="M7.5074 61.6838C8.15566 62.1766 8.97122 62.4846 9.84952 62.4846C10.9997 62.4846 12.0243 61.9713 12.7353 61.1705L13.1745 60.5544L15.3493 57.4744L18.1306 53.5318C17.3987 52.4025 16.4158 51.4374 15.2657 50.6982C13.7182 49.692 11.857 49.0965 9.84952 49.0965C5.47896 49.0965 1.77758 51.8891 0.481054 55.7495V55.77C0.43923 55.9138 0.397409 56.037 0.355585 56.1807C0.355585 56.2013 0.334672 56.2218 0.334672 56.2423C0.292849 56.3655 0.271938 56.4887 0.251027 56.6119C0.251027 56.653 0.230114 56.6735 0.230114 56.7146C0.209202 56.8173 0.188289 56.9405 0.167378 57.0431C0.167378 57.0842 0.146468 57.1253 0.146468 57.1869C0.125556 57.2895 0.104642 57.3922 0.104642 57.4949C0.104642 57.5565 0.083732 57.6181 0.083732 57.6797C0.0628202 57.7824 0.062819 57.8645 0.062819 57.9672C0.062819 58.0288 0.0419091 58.1109 0.0419091 58.1725C0.0419091 58.2546 0.0419078 58.3573 0.0209961 58.4394C0.0209961 58.501 0.0209961 58.5832 0.0209961 58.6448C0.0209961 58.6859 0.0209961 58.7475 0.0209961 58.7885C0.0209961 58.8091 0.0209961 58.8296 0.0209961 58.8707C0.0209961 59.0965 0.0419091 59.3429 0.0419091 59.5688C0.0419091 59.6304 0.062819 59.692 0.062819 59.7536C0.0837307 59.9795 0.104644 60.1848 0.146468 60.4107C0.16738 60.4928 0.167379 60.5544 0.188291 60.6366C0.230114 60.8214 0.271936 61.0062 0.313759 61.191C0.334671 61.2731 0.355583 61.3758 0.376495 61.4579C0.418319 61.6427 0.481055 61.807 0.54379 61.9713C0.564702 62.0329 0.585614 62.0945 0.606526 62.1561C0.690173 62.3614 0.773819 62.5668 0.857466 62.7721C0.878378 62.8132 0.89929 62.8748 0.920202 62.9158C1.02476 63.1417 1.12932 63.347 1.25479 63.5524C1.2757 63.5729 1.2757 63.5935 1.29661 63.614C1.94488 64.7434 2.84408 65.7495 3.9524 66.5503L3.97332 66.5709C3.99423 66.5914 4.03605 66.6119 4.05696 66.6325C4.24517 66.7557 4.43338 66.8789 4.62158 67.0021C4.64249 67.0226 4.6634 67.0226 4.68431 67.0431C5.39531 67.4744 6.14814 67.8029 6.90096 68.0288C10.8324 69.2197 15.2448 67.9056 17.796 64.4559C17.8169 64.4148 17.8378 64.3943 17.8587 64.3532L14.4919 61.9507C13.53 63.2854 12.0662 64.0863 10.5187 64.2711C10.3305 64.2916 10.1214 64.3121 9.93316 64.3121H9.91225C9.2849 64.3121 8.65755 64.23 8.07202 64.0247C8.05111 64.0247 8.05111 64.0247 8.03019 64.0041C7.8629 63.9425 7.69561 63.8809 7.5074 63.7988C7.44466 63.7783 7.38193 63.7372 7.3192 63.7167C7.21464 63.6551 7.08917 63.5935 6.98461 63.5319C6.90096 63.4908 6.83823 63.4497 6.75458 63.3881C6.65002 63.3265 6.56637 63.2649 6.46181 63.1828C6.39908 63.1417 6.31543 63.0801 6.2527 63.0185C6.14814 62.9364 6.04358 62.8337 5.93902 62.7516C5.8972 62.7105 5.83446 62.6489 5.79264 62.6078C5.70899 62.5257 5.62535 62.4436 5.56261 62.3614C5.52079 62.2998 5.45805 62.2588 5.41622 62.1972C5.35349 62.115 5.29076 62.0329 5.22802 61.9302C5.1862 61.8686 5.12347 61.807 5.08164 61.7249C5.01891 61.6427 4.97708 61.5606 4.93526 61.4785C4.89343 61.3963 4.85161 61.3142 4.80979 61.2526C4.76796 61.1705 4.74705 61.1089 4.70523 61.0267C4.6634 60.9446 4.62158 60.8419 4.57976 60.7598C4.55884 60.6982 4.53793 60.616 4.49611 60.5544C4.45429 60.4518 4.43337 60.3491 4.39155 60.267C4.37064 60.1848 4.34973 60.1232 4.32882 60.0411C4.30791 59.9384 4.28699 59.8357 4.26608 59.7536C4.24517 59.6715 4.24517 59.5893 4.22426 59.5072C4.20335 59.4251 4.20334 59.3224 4.18243 59.2197C4.18243 59.1376 4.18243 59.0349 4.16152 58.9323C4.16152 58.8501 4.16152 58.768 4.16152 58.6859C4.16152 58.5832 4.16152 58.4805 4.18243 58.3778C4.18243 58.2957 4.18243 58.2341 4.20335 58.152C4.22426 58.0493 4.22426 57.9466 4.24517 57.844C4.26608 57.7618 4.26608 57.7002 4.28699 57.6181C4.3079 57.5154 4.32882 57.4333 4.34973 57.3306C4.37064 57.2485 4.39155 57.1663 4.41246 57.0842C4.43338 57.0021 4.4752 56.9199 4.49611 56.8378C4.53793 56.7557 4.55884 56.653 4.60067 56.5709C4.62158 56.4887 4.6634 56.4271 4.70523 56.3655C4.74705 56.2629 4.78888 56.1807 4.85161 56.078C4.89344 56.0164 4.93526 55.9548 4.95617 55.8932C5.01891 55.7906 5.08164 55.7084 5.14437 55.6058C5.33258 55.3183 5.56261 55.0719 5.81355 54.8255C7.71652 52.9569 10.6651 52.69 12.8399 54.0657L11.7734 55.5852L7.5074 61.6838Z" fill="#121E31"/>
<path d="M29.1511 49.076C23.714 49.076 19.3016 53.4087 19.3016 58.7475V75.1951H23.484V66.653C25.0942 67.7618 27.039 68.4189 29.1511 68.4189C34.5881 68.4189 39.0005 64.0863 39.0005 58.7475C39.0005 53.4087 34.5881 49.076 29.1511 49.076ZM29.1511 64.3122C26.0352 64.3122 23.484 61.8276 23.484 58.7475C23.484 55.6879 26.0143 53.1828 29.1511 53.1828C32.2669 53.1828 34.8182 55.6674 34.8182 58.7475C34.8182 61.8276 32.2669 64.3122 29.1511 64.3122Z" fill="#121E31"/>
</svg>
